<?xml version="1.0" encoding="utf-8" standalone="no"?><!DOCTYPE svg PUBLIC "-//W3C//DTD SVG 1.1//EN" "http://www.w3.org/Graphics/SVG/1.1/DTD/svg11.dtd"><svg width="632px" height="367px" version="1.1" xmlns="http://www.w3.org/2000/svg"><desc /><defs><linearGradient id="fs1" x1="0.999999225139618px" y1="-3.0517577442879E-07px" x2="0.999998986721039px" y2="0.999999225139618px"><stop offset="0%" stop-color="#D3D3D3" stop-opacity="1" /><stop offset="100%" stop-color="#FFFFFF" stop-opacity="1" /></linearGradient><linearGradient id="fs2" x1="0.999999403953552px" y1="-3.94623867805421E-07px" x2="0.999999225139618px" y2="0.999999344348907px"><stop offset="0%" stop-color="#FFFFFF" stop-opacity="0.5490196" /><stop offset="100%" stop-color="#FFFFFF" stop-opacity="0.1568628" /></linearGradient><linearGradient id="fs3" x1="0.999999403953552px" y1="-6.10351548857579E-07px" x2="0.999998986721039px" y2="0.999999403953552px"><stop offset="0%" stop-color="#D3D3D3" stop-opacity="1" /><stop offset="100%" stop-color="#FFFFFF" stop-opacity="1" /></linearGradient><linearGradient id="fs4" x1="0.999998807907104px" y1="-1.05233027625218E-06px" x2="0.999998569488525px" y2="0.999998688697815px"><stop offset="0%" stop-color="#FFFFFF" stop-opacity="0.5490196" /><stop offset="100%" stop-color="#FFFFFF" stop-opacity="0.1568628" /></linearGradient><linearGradient id="fs5" x1="0.999998986721039px" y1="-1.06811523892247E-06px" x2="0.999998807907104px" y2="0.999998450279236px"><stop offset="0%" stop-color="#D3D3D3" stop-opacity="1" /><stop offset="100%" stop-color="#FFFFFF" stop-opacity="1" /></linearGradient><linearGradient id="fs6" x1="0.999997973442078px" y1="-2.36774303630227E-06px" x2="0.999997973442078px" y2="0.99999737739563px"><stop offset="0%" stop-color="#FFFFFF" stop-opacity="0.5490196" /><stop offset="100%" stop-color="#FFFFFF" stop-opacity="0.1568628" /></linearGradient><linearGradient id="fs7" x1="0.999997437000275px" y1="-1.99027681446751E-06px" x2="0.999997019767761px" y2="0.999998033046722px"><stop offset="0%" stop-color="#D3D3D3" stop-opacity="1" /><stop offset="100%" stop-color="#FFFFFF" stop-opacity="1" /></linearGradient><linearGradient id="fs8" x1="0.999997437000275px" y1="-4.52112271887017E-06px" x2="0.999996602535248px" y2="0.999995470046997px"><stop offset="0%" stop-color="#FFFFFF" stop-opacity="0.5490196" /><stop offset="100%" stop-color="#FFFFFF" stop-opacity="0.1568628" /></linearGradient><linearGradient id="fs9" x1="0.99999988079071px" y1="-1.44496112852721E-08px" x2="0.999999761581421px" y2="0.999999642372131px"><stop offset="0%" stop-color="#D3D3D3" stop-opacity="1" /><stop offset="100%" stop-color="#FFFFFF" stop-opacity="1" /></linearGradient><linearGradient id="fs10" x1="0.999999940395355px" y1="-2.50966927239915E-08px" x2="0.999999821186066px" y2="0.999999701976776px"><stop offset="0%" stop-color="#FFFFFF" stop-opacity="0.5490196" /><stop offset="100%" stop-color="#FFFFFF" stop-opacity="0.1568628" /></linearGradient><linearGradient id="fs11" x1="0.999923706054688px" y1="-8.03094189905096E-06px" x2="0.999921143054962px" y2="0.999991953372955px"><stop offset="0%" stop-color="#D3D3D3" stop-opacity="1" /><stop offset="100%" stop-color="#FFFFFF" stop-opacity="1" /></linearGradient><linearGradient id="fs12" x1="0.999893188476563px" y1="-1.38716268338612E-05px" x2="0.999890625476837px" y2="0.999986112117767px"><stop offset="0%" stop-color="#FFFFFF" stop-opacity="0.5490196" /><stop offset="100%" stop-color="#FFFFFF" stop-opacity="0.1568628" /></linearGradient><linearGradient id="fs13" x1="0.999847412109375px" y1="-9.63712955126539E-06px" x2="0.999842345714569px" y2="0.999990344047546px"><stop offset="0%" stop-color="#D3D3D3" stop-opacity="1" /><stop offset="100%" stop-color="#FFFFFF" stop-opacity="1" /></linearGradient><linearGradient id="fs14" x1="0.999944031238556px" y1="-1.38716268338612E-05px" x2="0.99993896484375px" y2="0.999986112117767px"><stop offset="0%" stop-color="#FFFFFF" stop-opacity="0.5490196" /><stop offset="100%" stop-color="#FFFFFF" stop-opacity="0.1568628" /></linearGradient><clipPath id="cp1"><path d="M 308 6 L 460 6  460 106  308 106 z " /></clipPath><clipPath id="cp2"><path d="M 308 6 L 460 6  460 106  308 106 z " /></clipPath><clipPath id="cp3"><path d="M 306 4 L 460 4  460 106  306 106 z " /></clipPath><clipPath id="cp4"><path d="M 212 140 L 364 140  364 240  212 240 z " /></clipPath><clipPath id="cp5"><path d="M 212 140 L 364 140  364 240  212 240 z " /></clipPath><clipPath id="cp6"><path d="M 210 138 L 364 138  364 240  210 240 z " /></clipPath><clipPath id="cp7"><path d="M 306 252 L 458 252  458 352  306 352 z " /></clipPath><clipPath id="cp8"><path d="M 306 252 L 458 252  458 352  306 352 z " /></clipPath><clipPath id="cp9"><path d="M 304 250 L 458 250  458 352  304 352 z " /></clipPath><clipPath id="cp10"><path d="M 473 161 L 617 161  617 207  473 207 z " /></clipPath><clipPath id="cp11"><path d="M 473 161 L 617 161  617 207  473 207 z " /></clipPath><clipPath id="cp12"><path d="M 471 159 L 617 159  617 207  471 207 z " /></clipPath><clipPath id="cp13"><path d="M 6 8 L 236 8  236 74  6 74 z " /></clipPath><clipPath id="cp14"><path d="M 6 8 L 236 8  236 74  6 74 z " /></clipPath><clipPath id="cp15"><path d="M 4 6 L 236 6  236 74  4 74 z " /></clipPath><clipPath id="cp16"><path d="M 330 105 L 324 124  336 124 z " /></clipPath><clipPath id="cp17"><path d="M 417 105 L 411 124  423 124 z " /></clipPath></defs><g transform="matrix(1 0 0 1 0 0)"><g clip-path="url(#cp1)"><rect x="307px" y="5px" width="154px" height="102px" fill="rgba(0,0,0,0.235)" /></g><g clip-path="url(#cp2)"><path fill="none" d="M 308 6 L 460 6  460 106  308 106 z " stroke="rgba(0,0,0,0.047)" stroke-width="10px" stroke-dashoffset="0" stroke-linejoin="round" stroke-miterlimit="10" /><path fill="none" d="M 308 6 L 460 6  460 106  308 106 z " stroke="rgba(0,0,0,0.047)" stroke-width="8px" stroke-dashoffset="0" stroke-linejoin="round" stroke-miterlimit="10" /><path fill="none" d="M 308 6 L 460 6  460 106  308 106 z " stroke="rgba(0,0,0,0.047)" stroke-width="6px" stroke-dashoffset="0" stroke-linejoin="round" stroke-miterlimit="10" /><path fill="none" d="M 308 6 L 460 6  460 106  308 106 z " stroke="rgba(0,0,0,0.055)" stroke-width="4px" stroke-dashoffset="0" stroke-linejoin="round" stroke-miterlimit="10" /><path fill="none" d="M 308 6 L 460 6  460 106  308 106 z " stroke="rgba(0,0,0,0.047)" stroke-width="2px" stroke-dashoffset="0" stroke-linejoin="round" stroke-miterlimit="10" /></g><rect x="307px" y="5px" width="152px" height="100px" fill="url(#fs1)" /><path d="M 459 38.33334 C 383 38.33334  307 38.33334  307 63.33333 L 307 5  459 5  459 38.33334 z " fill="url(#fs2)" /><rect x="307px" y="5px" width="152px" height="100px" fill="none" stroke="#000000" stroke-width="1px" stroke-dashoffset="0" stroke-linejoin="round" stroke-miterlimit="10" /><g clip-path="url(#cp3)"><text x="357px" y="22.5562477111816px" font-family="Verdana" font-size="9.599999pt" font-weight="bold" font-style="italic" fill="#000000">Builder</text><line x1="307px" y1="29px" x2="459px" y2="29px" stroke="#000000" stroke-width="1px" stroke-dashoffset="0" stroke-linejoin="round" stroke-miterlimit="10" /><line x1="307px" y1="39px" x2="459px" y2="39px" stroke="#000000" stroke-width="1px" stroke-dashoffset="0" stroke-linejoin="round" stroke-miterlimit="10" /><text x="310px" y="56.0006217956543px" font-family="Verdana" font-size="8.639999pt" font-style="italic" fill="#000000">+ buildPartA (): void</text><text x="310px" y="73.0006256103516px" font-family="Verdana" font-size="8.639999pt" font-style="italic" fill="#000000">+ buildPartB (): void</text><text x="310px" y="90.0006256103516px" font-family="Verdana" font-size="8.639999pt" font-style="italic" fill="#000000">+ getResult (): Product</text></g></g><g transform="matrix(1 0 0 1 0 0)"><g clip-path="url(#cp4)"><rect x="211px" y="139px" width="154px" height="102px" fill="rgba(0,0,0,0.235)" /></g><g clip-path="url(#cp5)"><path fill="none" d="M 212 140 L 364 140  364 240  212 240 z " stroke="rgba(0,0,0,0.047)" stroke-width="10px" stroke-dashoffset="0" stroke-linejoin="round" stroke-miterlimit="10" /><path fill="none" d="M 212 140 L 364 140  364 240  212 240 z " stroke="rgba(0,0,0,0.047)" stroke-width="8px" stroke-dashoffset="0" stroke-linejoin="round" stroke-miterlimit="10" /><path fill="none" d="M 212 140 L 364 140  364 240  212 240 z " stroke="rgba(0,0,0,0.047)" stroke-width="6px" stroke-dashoffset="0" stroke-linejoin="round" stroke-miterlimit="10" /><path fill="none" d="M 212 140 L 364 140  364 240  212 240 z " stroke="rgba(0,0,0,0.055)" stroke-width="4px" stroke-dashoffset="0" stroke-linejoin="round" stroke-miterlimit="10" /><path fill="none" d="M 212 140 L 364 140  364 240  212 240 z " stroke="rgba(0,0,0,0.047)" stroke-width="2px" stroke-dashoffset="0" stroke-linejoin="round" stroke-miterlimit="10" /></g><rect x="211px" y="139px" width="152px" height="100px" fill="url(#fs3)" /><path d="M 363 172.3333 C 287 172.3333  211 172.3333  211 197.3333 L 211 139  363 139  363 172.3333 z " fill="url(#fs4)" /><rect x="211px" y="139px" width="152px" height="100px" fill="none" stroke="#000000" stroke-width="1px" stroke-dashoffset="0" stroke-linejoin="round" stroke-miterlimit="10" /><g clip-path="url(#cp6)"><text x="224px" y="156.556243896484px" font-family="Verdana" font-size="9.599999pt" font-weight="bold" fill="#000000">ConcreteBuilder1</text><line x1="211px" y1="163px" x2="363px" y2="163px" stroke="#000000" stroke-width="1px" stroke-dashoffset="0" stroke-linejoin="round" stroke-miterlimit="10" /><line x1="211px" y1="173px" x2="363px" y2="173px" stroke="#000000" stroke-width="1px" stroke-dashoffset="0" stroke-linejoin="round" stroke-miterlimit="10" /><text x="214px" y="190.000625610352px" font-family="Verdana" font-size="8.639999pt" fill="#000000">+ buildPartA (): void</text><text x="214px" y="207.000625610352px" font-family="Verdana" font-size="8.639999pt" fill="#000000">+ buildPartB (): void</text><text x="214px" y="224.000625610352px" font-family="Verdana" font-size="8.639999pt" fill="#000000">+ getResult (): Product</text></g></g><g transform="matrix(1 0 0 1 0 0)"><g clip-path="url(#cp7)"><rect x="305px" y="251px" width="154px" height="102px" fill="rgba(0,0,0,0.235)" /></g><g clip-path="url(#cp8)"><path fill="none" d="M 306 252 L 458 252  458 352  306 352 z " stroke="rgba(0,0,0,0.047)" stroke-width="10px" stroke-dashoffset="0" stroke-linejoin="round" stroke-miterlimit="10" /><path fill="none" d="M 306 252 L 458 252  458 352  306 352 z " stroke="rgba(0,0,0,0.047)" stroke-width="8px" stroke-dashoffset="0" stroke-linejoin="round" stroke-miterlimit="10" /><path fill="none" d="M 306 252 L 458 252  458 352  306 352 z " stroke="rgba(0,0,0,0.047)" stroke-width="6px" stroke-dashoffset="0" stroke-linejoin="round" stroke-miterlimit="10" /><path fill="none" d="M 306 252 L 458 252  458 352  306 352 z " stroke="rgba(0,0,0,0.055)" stroke-width="4px" stroke-dashoffset="0" stroke-linejoin="round" stroke-miterlimit="10" /><path fill="none" d="M 306 252 L 458 252  458 352  306 352 z " stroke="rgba(0,0,0,0.047)" stroke-width="2px" stroke-dashoffset="0" stroke-linejoin="round" stroke-miterlimit="10" /></g><rect x="305px" y="251px" width="152px" height="100px" fill="url(#fs5)" /><path d="M 457 284.3333 C 381 284.3333  305 284.3333  305 309.3333 L 305 251  457 251  457 284.3333 z " fill="url(#fs6)" /><rect x="305px" y="251px" width="152px" height="100px" fill="none" stroke="#000000" stroke-width="1px" stroke-dashoffset="0" stroke-linejoin="round" stroke-miterlimit="10" /><g clip-path="url(#cp9)"><text x="318px" y="268.556243896484px" font-family="Verdana" font-size="9.599999pt" font-weight="bold" fill="#000000">ConcreteBuilder2</text><line x1="305px" y1="275px" x2="457px" y2="275px" stroke="#000000" stroke-width="1px" stroke-dashoffset="0" stroke-linejoin="round" stroke-miterlimit="10" /><line x1="305px" y1="285px" x2="457px" y2="285px" stroke="#000000" stroke-width="1px" stroke-dashoffset="0" stroke-linejoin="round" stroke-miterlimit="10" /><text x="308px" y="302.000610351563px" font-family="Verdana" font-size="8.639999pt" fill="#000000">+ buildPartA (): void</text><text x="308px" y="319.000610351563px" font-family="Verdana" font-size="8.639999pt" fill="#000000">+ buildPartB (): void</text><text x="308px" y="336.000610351563px" font-family="Verdana" font-size="8.639999pt" fill="#000000">+ getResult (): Product</text></g></g><g transform="matrix(1 0 0 1 0 0)"><g clip-path="url(#cp10)"><rect x="472px" y="160px" width="146px" height="48px" fill="rgba(0,0,0,0.235)" /></g><g clip-path="url(#cp11)"><path fill="none" d="M 473 161 L 617 161  617 207  473 207 z " stroke="rgba(0,0,0,0.047)" stroke-width="10px" stroke-dashoffset="0" stroke-linejoin="round" stroke-miterlimit="10" /><path fill="none" d="M 473 161 L 617 161  617 207  473 207 z " stroke="rgba(0,0,0,0.047)" stroke-width="8px" stroke-dashoffset="0" stroke-linejoin="round" stroke-miterlimit="10" /><path fill="none" d="M 473 161 L 617 161  617 207  473 207 z " stroke="rgba(0,0,0,0.047)" stroke-width="6px" stroke-dashoffset="0" stroke-linejoin="round" stroke-miterlimit="10" /><path fill="none" d="M 473 161 L 617 161  617 207  473 207 z " stroke="rgba(0,0,0,0.055)" stroke-width="4px" stroke-dashoffset="0" stroke-linejoin="round" stroke-miterlimit="10" /><path fill="none" d="M 473 161 L 617 161  617 207  473 207 z " stroke="rgba(0,0,0,0.047)" stroke-width="2px" stroke-dashoffset="0" stroke-linejoin="round" stroke-miterlimit="10" /></g><rect x="472px" y="160px" width="144px" height="46px" fill="url(#fs7)" /><path d="M 616 175.3333 C 544 175.3333  472 175.3333  472 186.8333 L 472 160  616 160  616 175.3333 z " fill="url(#fs8)" /><rect x="472px" y="160px" width="144px" height="46px" fill="none" stroke="#000000" stroke-width="1px" stroke-dashoffset="0" stroke-linejoin="round" stroke-miterlimit="10" /><g clip-path="url(#cp12)"><text x="515px" y="177.556243896484px" font-family="Verdana" font-size="9.599999pt" font-weight="bold" fill="#000000">Product</text><line x1="472px" y1="184px" x2="616px" y2="184px" stroke="#000000" stroke-width="1px" stroke-dashoffset="0" stroke-linejoin="round" stroke-miterlimit="10" /><line x1="472px" y1="194px" x2="616px" y2="194px" stroke="#000000" stroke-width="1px" stroke-dashoffset="0" stroke-linejoin="round" stroke-miterlimit="10" /></g></g><g transform="matrix(1 0 0 1 0 0)"><g clip-path="url(#cp13)"><rect x="5px" y="7px" width="232px" height="68px" fill="rgba(0,0,0,0.235)" /></g><g clip-path="url(#cp14)"><path fill="none" d="M 6 8 L 236 8  236 74  6 74 z " stroke="rgba(0,0,0,0.047)" stroke-width="10px" stroke-dashoffset="0" stroke-linejoin="round" stroke-miterlimit="10" /><path fill="none" d="M 6 8 L 236 8  236 74  6 74 z " stroke="rgba(0,0,0,0.047)" stroke-width="8px" stroke-dashoffset="0" stroke-linejoin="round" stroke-miterlimit="10" /><path fill="none" d="M 6 8 L 236 8  236 74  6 74 z " stroke="rgba(0,0,0,0.047)" stroke-width="6px" stroke-dashoffset="0" stroke-linejoin="round" stroke-miterlimit="10" /><path fill="none" d="M 6 8 L 236 8  236 74  6 74 z " stroke="rgba(0,0,0,0.055)" stroke-width="4px" stroke-dashoffset="0" stroke-linejoin="round" stroke-miterlimit="10" /><path fill="none" d="M 6 8 L 236 8  236 74  6 74 z " stroke="rgba(0,0,0,0.047)" stroke-width="2px" stroke-dashoffset="0" stroke-linejoin="round" stroke-miterlimit="10" /></g><rect x="5px" y="7px" width="230px" height="66px" fill="url(#fs9)" /><path d="M 235 29 C 120 29  5 29  5 45.5 L 5 7  235 7  235 29 z " fill="url(#fs10)" /><rect x="5px" y="7px" width="230px" height="66px" fill="none" stroke="#000000" stroke-width="1px" stroke-dashoffset="0" stroke-linejoin="round" stroke-miterlimit="10" /><g clip-path="url(#cp15)"><text x="89px" y="24.5562477111816px" font-family="Verdana" font-size="9.599999pt" font-weight="bold" fill="#000000">Director</text><line x1="5px" y1="31px" x2="235px" y2="31px" stroke="#000000" stroke-width="1px" stroke-dashoffset="0" stroke-linejoin="round" stroke-miterlimit="10" /><line x1="5px" y1="41px" x2="235px" y2="41px" stroke="#000000" stroke-width="1px" stroke-dashoffset="0" stroke-linejoin="round" stroke-miterlimit="10" /><text x="8px" y="58.0006217956543px" font-family="Verdana" font-size="8.639999pt" fill="#000000">+ construct (builder : Builder): void</text></g></g><g transform="matrix(1 0 0 1 0 0)"><polyline points="330,139 330,105 " fill="none" stroke="#000000" stroke-width="1px" stroke-dashoffset="0" stroke-linejoin="round" stroke-miterlimit="10" /><polygon points="330,105 324,124 336,124 330,105 " fill="url(#fs11)" /><g clip-path="url(#cp16)"><path d="M 336.1803 111.3404 C 330 111.3404  323.8197 111.3404  323.8197 116.0957 L 323.8197 105  336.1803 105  336.1803 111.3404 z " fill="url(#fs12)" /></g><polygon fill="none" points="330,105 324,124 336,124 330,105 " stroke="#000000" stroke-width="1px" stroke-dashoffset="0" stroke-linejoin="round" stroke-miterlimit="10" /></g><g transform="matrix(1 0 0 1 0 0)"><polyline points="417,251 417,105 " fill="none" stroke="#000000" stroke-width="1px" stroke-dashoffset="0" stroke-linejoin="round" stroke-miterlimit="10" /><polygon points="417,105 411,124 423,124 417,105 " fill="url(#fs13)" /><g clip-path="url(#cp17)"><path d="M 423.1803 111.3404 C 417 111.3404  410.8197 111.3404  410.8197 116.0957 L 410.8197 105  423.1803 105  423.1803 111.3404 z " fill="url(#fs14)" /></g><polygon fill="none" points="417,105 411,124 423,124 417,105 " stroke="#000000" stroke-width="1px" stroke-dashoffset="0" stroke-linejoin="round" stroke-miterlimit="10" /></g><g transform="matrix(1 0 0 1 0 0)"><polyline points="363,187 472,185 " fill="none" stroke="#000000" stroke-width="1px" stroke-dasharray="5,4" stroke-dashoffset="0" stroke-linejoin="miter" stroke-miterlimit="10" /><polyline points="453,179 472,185 453,192 " fill="none" stroke="#000000" stroke-width="1px" stroke-dashoffset="0" stroke-linejoin="round" stroke-miterlimit="10" /><text x="413px" y="183.000625610352px" font-family="Verdana" font-size="8.639999pt" font-style="italic" fill="#1E1E1E">«use»</text></g><g transform="matrix(1 0 0 1 0 0)"><polyline points="457,302 544,302 544,305 550,305 550,206 " fill="none" stroke="#000000" stroke-width="1px" stroke-dasharray="5,4" stroke-dashoffset="0" stroke-linejoin="miter" stroke-miterlimit="10" /><polyline points="544,225 550,206 556,225 " fill="none" stroke="#000000" stroke-width="1px" stroke-dashoffset="0" stroke-linejoin="round" stroke-miterlimit="10" /><text x="546px" y="301.000610351563px" font-family="Verdana" font-size="8.639999pt" font-style="italic" fill="#1E1E1E">«use»</text></g><g transform="matrix(1 0 0 1 0 0)"><polyline points="235,42 307,42 " fill="none" stroke="#000000" stroke-width="1px" stroke-dashoffset="0" stroke-linejoin="round" stroke-miterlimit="10" /><polygon points="235,42 249,47 265,42 249,37 " fill="#FFFFFF" /><polygon fill="none" points="235,42 249,47 265,42 249,37 " stroke="#000000" stroke-width="1px" stroke-dashoffset="0" stroke-linejoin="round" stroke-miterlimit="10" /></g></svg>