<?xml version="1.0" encoding="utf-8" standalone="no"?><!DOCTYPE svg PUBLIC "-//W3C//DTD SVG 1.1//EN" "http://www.w3.org/Graphics/SVG/1.1/DTD/svg11.dtd"><svg width="562px" height="182px" version="1.1" xmlns="http://www.w3.org/2000/svg"><desc /><defs><linearGradient id="fs1" x1="0.999999761581421px" y1="-4.31852527071896E-07px" x2="0.999999582767487px" y2="0.999999284744263px"><stop offset="0%" stop-color="#D3D3D3" stop-opacity="1" /><stop offset="100%" stop-color="#FFFFFF" stop-opacity="1" /></linearGradient><linearGradient id="fs2" x1="0.999999105930328px" y1="-2.4610949367343E-07px" x2="0.999998927116394px" y2="0.999999523162842px"><stop offset="0%" stop-color="#FFFFFF" stop-opacity="0.5490196" /><stop offset="100%" stop-color="#FFFFFF" stop-opacity="0.1568628" /></linearGradient><linearGradient id="fs3" x1="0.999998927116394px" y1="-4.35965404221861E-07px" x2="0.999998450279236px" y2="0.999999344348907px"><stop offset="0%" stop-color="#D3D3D3" stop-opacity="1" /><stop offset="100%" stop-color="#FFFFFF" stop-opacity="1" /></linearGradient><linearGradient id="fs4" x1="0.999998688697815px" y1="-1.11649671907799E-06px" x2="0.999998450279236px" y2="0.999998509883881px"><stop offset="0%" stop-color="#FFFFFF" stop-opacity="0.5490196" /><stop offset="100%" stop-color="#FFFFFF" stop-opacity="0.1568628" /></linearGradient><linearGradient id="fs5" x1="0.999999105930328px" y1="-1.00765589650109E-06px" x2="0.999998688697815px" y2="0.999998867511749px"><stop offset="0%" stop-color="#D3D3D3" stop-opacity="1" /><stop offset="100%" stop-color="#FFFFFF" stop-opacity="1" /></linearGradient><linearGradient id="fs6" x1="0.999997794628143px" y1="-1.72276645571401E-06px" x2="0.999996960163116px" y2="0.999998033046722px"><stop offset="0%" stop-color="#FFFFFF" stop-opacity="0.5490196" /><stop offset="100%" stop-color="#FFFFFF" stop-opacity="0.1568628" /></linearGradient><linearGradient id="fs7" x1="0.99999988079071px" y1="-8.99692764733118E-09px" x2="0.999999701976776px" y2="0.999999761581421px"><stop offset="0%" stop-color="#D3D3D3" stop-opacity="1" /><stop offset="100%" stop-color="#FFFFFF" stop-opacity="1" /></linearGradient><linearGradient id="fs8" x1="0.999999761581421px" y1="-3.07636867091787E-08px" x2="0.999999701976776px" y2="0.999999761581421px"><stop offset="0%" stop-color="#FFFFFF" stop-opacity="0.5490196" /><stop offset="100%" stop-color="#FFFFFF" stop-opacity="0.1568628" /></linearGradient><linearGradient id="fs9" x1="0.999941527843475px" y1="-4.81856477563269E-06px" x2="0.99993896484375px" y2="0.999995172023773px"><stop offset="0%" stop-color="#D3D3D3" stop-opacity="1" /><stop offset="100%" stop-color="#FFFFFF" stop-opacity="1" /></linearGradient><linearGradient id="fs10" x1="0.999949157238007px" y1="-4.16148805015837E-06px" x2="0.999946594238281px" y2="0.999995827674866px"><stop offset="0%" stop-color="#FFFFFF" stop-opacity="0.5490196" /><stop offset="100%" stop-color="#FFFFFF" stop-opacity="0.1568628" /></linearGradient><clipPath id="cp1"><path d="M 212 6 L 352 6  352 59  212 59 z " /></clipPath><clipPath id="cp2"><path d="M 212 6 L 352 6  352 59  212 59 z " /></clipPath><clipPath id="cp3"><path d="M 210 4 L 352 4  352 59  210 59 z " /></clipPath><clipPath id="cp4"><path d="M 212 97 L 352 97  352 167  212 167 z " /></clipPath><clipPath id="cp5"><path d="M 212 97 L 352 97  352 167  212 167 z " /></clipPath><clipPath id="cp6"><path d="M 210 95 L 352 95  352 167  210 167 z " /></clipPath><clipPath id="cp7"><path d="M 407 97 L 547 97  547 150  407 150 z " /></clipPath><clipPath id="cp8"><path d="M 407 97 L 547 97  547 150  407 150 z " /></clipPath><clipPath id="cp9"><path d="M 405 95 L 547 95  547 150  405 150 z " /></clipPath><clipPath id="cp10"><path d="M 6 6 L 146 6  146 59  6 59 z " /></clipPath><clipPath id="cp11"><path d="M 6 6 L 146 6  146 59  6 59 z " /></clipPath><clipPath id="cp12"><path d="M 4 4 L 146 4  146 59  4 59 z " /></clipPath><clipPath id="cp13"><path d="M 281 58 L 275 77  287 77 z " /></clipPath></defs><g transform="matrix(1 0 0 1 0 0)"><g clip-path="url(#cp1)"><rect x="211px" y="5px" width="142px" height="55px" fill="rgba(0,0,0,0.235)" /></g><g clip-path="url(#cp2)"><path fill="none" d="M 212 6 L 352 6  352 59  212 59 z " stroke="rgba(0,0,0,0.047)" stroke-width="10px" stroke-dashoffset="0" stroke-linejoin="round" stroke-miterlimit="10" /><path fill="none" d="M 212 6 L 352 6  352 59  212 59 z " stroke="rgba(0,0,0,0.047)" stroke-width="8px" stroke-dashoffset="0" stroke-linejoin="round" stroke-miterlimit="10" /><path fill="none" d="M 212 6 L 352 6  352 59  212 59 z " stroke="rgba(0,0,0,0.047)" stroke-width="6px" stroke-dashoffset="0" stroke-linejoin="round" stroke-miterlimit="10" /><path fill="none" d="M 212 6 L 352 6  352 59  212 59 z " stroke="rgba(0,0,0,0.055)" stroke-width="4px" stroke-dashoffset="0" stroke-linejoin="round" stroke-miterlimit="10" /><path fill="none" d="M 212 6 L 352 6  352 59  212 59 z " stroke="rgba(0,0,0,0.047)" stroke-width="2px" stroke-dashoffset="0" stroke-linejoin="round" stroke-miterlimit="10" /></g><rect x="211px" y="5px" width="140px" height="53px" fill="url(#fs1)" /><path d="M 351 22.66667 C 281 22.66667  211 22.66667  211 35.91667 L 211 5  351 5  351 22.66667 z " fill="url(#fs2)" /><rect x="211px" y="5px" width="140px" height="53px" fill="none" stroke="#000000" stroke-width="1px" stroke-dashoffset="0" stroke-linejoin="round" stroke-miterlimit="10" /><g clip-path="url(#cp3)"><text x="256px" y="22.5562477111816px" font-family="Verdana" font-size="9.599999pt" font-weight="bold" font-style="italic" fill="#000000">Target</text><line x1="211px" y1="29px" x2="351px" y2="29px" stroke="#000000" stroke-width="1px" stroke-dashoffset="0" stroke-linejoin="round" stroke-miterlimit="10" /><line x1="211px" y1="39px" x2="351px" y2="39px" stroke="#000000" stroke-width="1px" stroke-dashoffset="0" stroke-linejoin="round" stroke-miterlimit="10" /><text x="214px" y="56.0006217956543px" font-family="Verdana" font-size="8.639999pt" font-style="italic" fill="#000000">+ methodA ()</text></g></g><g transform="matrix(1 0 0 1 0 0)"><g clip-path="url(#cp4)"><rect x="211px" y="96px" width="142px" height="72px" fill="rgba(0,0,0,0.235)" /></g><g clip-path="url(#cp5)"><path fill="none" d="M 212 97 L 352 97  352 167  212 167 z " stroke="rgba(0,0,0,0.047)" stroke-width="10px" stroke-dashoffset="0" stroke-linejoin="round" stroke-miterlimit="10" /><path fill="none" d="M 212 97 L 352 97  352 167  212 167 z " stroke="rgba(0,0,0,0.047)" stroke-width="8px" stroke-dashoffset="0" stroke-linejoin="round" stroke-miterlimit="10" /><path fill="none" d="M 212 97 L 352 97  352 167  212 167 z " stroke="rgba(0,0,0,0.047)" stroke-width="6px" stroke-dashoffset="0" stroke-linejoin="round" stroke-miterlimit="10" /><path fill="none" d="M 212 97 L 352 97  352 167  212 167 z " stroke="rgba(0,0,0,0.055)" stroke-width="4px" stroke-dashoffset="0" stroke-linejoin="round" stroke-miterlimit="10" /><path fill="none" d="M 212 97 L 352 97  352 167  212 167 z " stroke="rgba(0,0,0,0.047)" stroke-width="2px" stroke-dashoffset="0" stroke-linejoin="round" stroke-miterlimit="10" /></g><rect x="211px" y="96px" width="140px" height="70px" fill="url(#fs3)" /><path d="M 351 119.3333 C 281 119.3333  211 119.3333  211 136.8333 L 211 96  351 96  351 119.3333 z " fill="url(#fs4)" /><rect x="211px" y="96px" width="140px" height="70px" fill="none" stroke="#000000" stroke-width="1px" stroke-dashoffset="0" stroke-linejoin="round" stroke-miterlimit="10" /><g clip-path="url(#cp6)"><text x="252px" y="113.556243896484px" font-family="Verdana" font-size="9.599999pt" font-weight="bold" fill="#000000">Adapter</text><line x1="211px" y1="120px" x2="351px" y2="120px" stroke="#000000" stroke-width="1px" stroke-dashoffset="0" stroke-linejoin="round" stroke-miterlimit="10" /><text x="214px" y="140.000625610352px" font-family="Verdana" font-size="8.639999pt" fill="#000000">- adaptee: Adaptee</text><line x1="211px" y1="147px" x2="351px" y2="147px" stroke="#000000" stroke-width="1px" stroke-dashoffset="0" stroke-linejoin="round" stroke-miterlimit="10" /><text x="214px" y="164.000625610352px" font-family="Verdana" font-size="8.639999pt" fill="#000000">+ methodA ()</text></g></g><g transform="matrix(1 0 0 1 0 0)"><g clip-path="url(#cp7)"><rect x="406px" y="96px" width="142px" height="55px" fill="rgba(0,0,0,0.235)" /></g><g clip-path="url(#cp8)"><path fill="none" d="M 407 97 L 547 97  547 150  407 150 z " stroke="rgba(0,0,0,0.047)" stroke-width="10px" stroke-dashoffset="0" stroke-linejoin="round" stroke-miterlimit="10" /><path fill="none" d="M 407 97 L 547 97  547 150  407 150 z " stroke="rgba(0,0,0,0.047)" stroke-width="8px" stroke-dashoffset="0" stroke-linejoin="round" stroke-miterlimit="10" /><path fill="none" d="M 407 97 L 547 97  547 150  407 150 z " stroke="rgba(0,0,0,0.047)" stroke-width="6px" stroke-dashoffset="0" stroke-linejoin="round" stroke-miterlimit="10" /><path fill="none" d="M 407 97 L 547 97  547 150  407 150 z " stroke="rgba(0,0,0,0.055)" stroke-width="4px" stroke-dashoffset="0" stroke-linejoin="round" stroke-miterlimit="10" /><path fill="none" d="M 407 97 L 547 97  547 150  407 150 z " stroke="rgba(0,0,0,0.047)" stroke-width="2px" stroke-dashoffset="0" stroke-linejoin="round" stroke-miterlimit="10" /></g><rect x="406px" y="96px" width="140px" height="53px" fill="url(#fs5)" /><path d="M 546 113.6667 C 476 113.6667  406 113.6667  406 126.9167 L 406 96  546 96  546 113.6667 z " fill="url(#fs6)" /><rect x="406px" y="96px" width="140px" height="53px" fill="none" stroke="#000000" stroke-width="1px" stroke-dashoffset="0" stroke-linejoin="round" stroke-miterlimit="10" /><g clip-path="url(#cp9)"><text x="446px" y="113.556243896484px" font-family="Verdana" font-size="9.599999pt" font-weight="bold" fill="#000000">Adaptee</text><line x1="406px" y1="120px" x2="546px" y2="120px" stroke="#000000" stroke-width="1px" stroke-dashoffset="0" stroke-linejoin="round" stroke-miterlimit="10" /><line x1="406px" y1="130px" x2="546px" y2="130px" stroke="#000000" stroke-width="1px" stroke-dashoffset="0" stroke-linejoin="round" stroke-miterlimit="10" /><text x="409px" y="147.000625610352px" font-family="Verdana" font-size="8.639999pt" fill="#000000">+ methodB ()</text></g></g><g transform="matrix(1 0 0 1 0 0)"><g clip-path="url(#cp10)"><rect x="5px" y="5px" width="142px" height="55px" fill="rgba(0,0,0,0.235)" /></g><g clip-path="url(#cp11)"><path fill="none" d="M 6 6 L 146 6  146 59  6 59 z " stroke="rgba(0,0,0,0.047)" stroke-width="10px" stroke-dashoffset="0" stroke-linejoin="round" stroke-miterlimit="10" /><path fill="none" d="M 6 6 L 146 6  146 59  6 59 z " stroke="rgba(0,0,0,0.047)" stroke-width="8px" stroke-dashoffset="0" stroke-linejoin="round" stroke-miterlimit="10" /><path fill="none" d="M 6 6 L 146 6  146 59  6 59 z " stroke="rgba(0,0,0,0.047)" stroke-width="6px" stroke-dashoffset="0" stroke-linejoin="round" stroke-miterlimit="10" /><path fill="none" d="M 6 6 L 146 6  146 59  6 59 z " stroke="rgba(0,0,0,0.055)" stroke-width="4px" stroke-dashoffset="0" stroke-linejoin="round" stroke-miterlimit="10" /><path fill="none" d="M 6 6 L 146 6  146 59  6 59 z " stroke="rgba(0,0,0,0.047)" stroke-width="2px" stroke-dashoffset="0" stroke-linejoin="round" stroke-miterlimit="10" /></g><rect x="5px" y="5px" width="140px" height="53px" fill="url(#fs7)" /><path d="M 145 22.66667 C 75 22.66667  5 22.66667  5 35.91667 L 5 5  145 5  145 22.66667 z " fill="url(#fs8)" /><rect x="5px" y="5px" width="140px" height="53px" fill="none" stroke="#000000" stroke-width="1px" stroke-dashoffset="0" stroke-linejoin="round" stroke-miterlimit="10" /><g clip-path="url(#cp12)"><text x="55px" y="22.5562477111816px" font-family="Verdana" font-size="9.599999pt" font-weight="bold" fill="#000000">Client</text><line x1="5px" y1="29px" x2="145px" y2="29px" stroke="#000000" stroke-width="1px" stroke-dashoffset="0" stroke-linejoin="round" stroke-miterlimit="10" /><line x1="5px" y1="39px" x2="145px" y2="39px" stroke="#000000" stroke-width="1px" stroke-dashoffset="0" stroke-linejoin="round" stroke-miterlimit="10" /></g></g><g transform="matrix(1 0 0 1 0 0)"><polyline points="145,32 211,32 " fill="none" stroke="#000000" stroke-width="1px" stroke-dashoffset="0" stroke-linejoin="round" stroke-miterlimit="10" /><polyline points="192,26 211,32 192,38 " fill="none" stroke="#000000" stroke-width="1px" stroke-dashoffset="0" stroke-linejoin="round" stroke-miterlimit="10" /></g><g transform="matrix(1 0 0 1 0 0)"><polyline points="351,131 406,131 " fill="none" stroke="#000000" stroke-width="1px" stroke-dashoffset="0" stroke-linejoin="round" stroke-miterlimit="10" /><polyline points="387,125 406,131 387,137 " fill="none" stroke="#000000" stroke-width="1px" stroke-dashoffset="0" stroke-linejoin="round" stroke-miterlimit="10" /></g><g transform="matrix(1 0 0 1 0 0)"><polyline points="281,96 281,58 " fill="none" stroke="#000000" stroke-width="1px" stroke-dashoffset="0" stroke-linejoin="round" stroke-miterlimit="10" /><polygon points="281,58 275,77 287,77 281,58 " fill="url(#fs9)" /><g clip-path="url(#cp13)"><path d="M 287.1803 64.34038 C 281 64.34038  274.8197 64.34038  274.8197 69.09566 L 274.8197 58  287.1803 58  287.1803 64.34038 z " fill="url(#fs10)" /></g><polygon fill="none" points="281,58 275,77 287,77 281,58 " stroke="#000000" stroke-width="1px" stroke-dashoffset="0" stroke-linejoin="round" stroke-miterlimit="10" /></g></svg>