<?xml version="1.0" encoding="utf-8" standalone="no"?><!DOCTYPE svg PUBLIC "-//W3C//DTD SVG 1.1//EN" "http://www.w3.org/Graphics/SVG/1.1/DTD/svg11.dtd"><svg width="679px" height="220px" version="1.1" xmlns="http://www.w3.org/2000/svg"><desc /><defs><linearGradient id="fs1" x1="0.999999403953552px" y1="-2.77432519624199E-07px" x2="0.999999225139618px" y2="0.999999582767487px"><stop offset="0%" stop-color="#D3D3D3" stop-opacity="1" /><stop offset="100%" stop-color="#FFFFFF" stop-opacity="1" /></linearGradient><linearGradient id="fs2" x1="0.999998986721039px" y1="-5.96046447753906E-07px" x2="0.999998807907104px" y2="0.999999403953552px"><stop offset="0%" stop-color="#FFFFFF" stop-opacity="0.5490196" /><stop offset="100%" stop-color="#FFFFFF" stop-opacity="0.1568628" /></linearGradient><linearGradient id="fs3" x1="0.999998807907104px" y1="-6.93581341693061E-07px" x2="0.999998390674591px" y2="0.999999284744263px"><stop offset="0%" stop-color="#D3D3D3" stop-opacity="1" /><stop offset="100%" stop-color="#FFFFFF" stop-opacity="1" /></linearGradient><linearGradient id="fs4" x1="0.999999225139618px" y1="-1.60618833433546E-06px" x2="0.999998807907104px" y2="0.999997973442078px"><stop offset="0%" stop-color="#FFFFFF" stop-opacity="0.5490196" /><stop offset="100%" stop-color="#FFFFFF" stop-opacity="0.1568628" /></linearGradient><linearGradient id="fs5" x1="0.999998807907104px" y1="-9.24775122257415E-07px" x2="0.999998450279236px" y2="0.999999046325684px"><stop offset="0%" stop-color="#D3D3D3" stop-opacity="1" /><stop offset="100%" stop-color="#FFFFFF" stop-opacity="1" /></linearGradient><linearGradient id="fs6" x1="0.999998450279236px" y1="-1.60618833433546E-06px" x2="0.999998033046722px" y2="0.999998390674591px"><stop offset="0%" stop-color="#FFFFFF" stop-opacity="0.5490196" /><stop offset="100%" stop-color="#FFFFFF" stop-opacity="0.1568628" /></linearGradient><linearGradient id="fs7" x1="0.999998033046722px" y1="-1.15596890282177E-06px" x2="0.99999725818634px" y2="0.99999862909317px"><stop offset="0%" stop-color="#D3D3D3" stop-opacity="1" /><stop offset="100%" stop-color="#FFFFFF" stop-opacity="1" /></linearGradient><linearGradient id="fs8" x1="0.999996840953827px" y1="-2.00773547476274E-06px" x2="0.999996066093445px" y2="0.999997973442078px"><stop offset="0%" stop-color="#FFFFFF" stop-opacity="0.5490196" /><stop offset="100%" stop-color="#FFFFFF" stop-opacity="0.1568628" /></linearGradient><linearGradient id="fs9" x1="0.99999988079071px" y1="-5.48088685548009E-09px" x2="0.999999821186066px" y2="0.999999761581421px"><stop offset="0%" stop-color="#D3D3D3" stop-opacity="1" /><stop offset="100%" stop-color="#FFFFFF" stop-opacity="1" /></linearGradient><linearGradient id="fs10" x1="0.99999988079071px" y1="-9.34974853095127E-09px" x2="0.999999821186066px" y2="0.999999821186066px"><stop offset="0%" stop-color="#FFFFFF" stop-opacity="0.5490196" /><stop offset="100%" stop-color="#FFFFFF" stop-opacity="0.1568628" /></linearGradient><linearGradient id="fs11" x1="0.999870300292969px" y1="-6.42475333734183E-06px" x2="0.999865233898163px" y2="0.999993562698364px"><stop offset="0%" stop-color="#D3D3D3" stop-opacity="1" /><stop offset="100%" stop-color="#FFFFFF" stop-opacity="1" /></linearGradient><linearGradient id="fs12" x1="0.999888122081757px" y1="-9.71013832895551E-06px" x2="0.999882996082306px" y2="0.999990284442902px"><stop offset="0%" stop-color="#FFFFFF" stop-opacity="0.5490196" /><stop offset="100%" stop-color="#FFFFFF" stop-opacity="0.1568628" /></linearGradient><linearGradient id="fs13" x1="0.999857604503632px" y1="-6.42475333734183E-06px" x2="0.999855041503906px" y2="0.999993562698364px"><stop offset="0%" stop-color="#D3D3D3" stop-opacity="1" /><stop offset="100%" stop-color="#FFFFFF" stop-opacity="1" /></linearGradient><linearGradient id="fs14" x1="0.999956786632538px" y1="-1.38716268338612E-05px" x2="0.999954223632813px" y2="0.999986112117767px"><stop offset="0%" stop-color="#FFFFFF" stop-opacity="0.5490196" /><stop offset="100%" stop-color="#FFFFFF" stop-opacity="0.1568628" /></linearGradient><linearGradient id="fs15" x1="0.99984484910965px" y1="-9.63712955126539E-06px" x2="0.999839782714844px" y2="0.999990344047546px"><stop offset="0%" stop-color="#D3D3D3" stop-opacity="1" /><stop offset="100%" stop-color="#FFFFFF" stop-opacity="1" /></linearGradient><linearGradient id="fs16" x1="0.999941527843475px" y1="-1.1097301467089E-05px" x2="0.99993896484375px" y2="0.999988913536072px"><stop offset="0%" stop-color="#FFFFFF" stop-opacity="0.5490196" /><stop offset="100%" stop-color="#FFFFFF" stop-opacity="0.1568628" /></linearGradient><clipPath id="cp1"><path d="M 310 20 L 462 20  462 75  310 75 z " /></clipPath><clipPath id="cp2"><path d="M 310 20 L 462 20  462 75  310 75 z " /></clipPath><clipPath id="cp3"><path d="M 308 18 L 462 18  462 75  308 75 z " /></clipPath><clipPath id="cp4"><path d="M 111 139 L 263 139  263 205  111 205 z " /></clipPath><clipPath id="cp5"><path d="M 111 139 L 263 139  263 205  111 205 z " /></clipPath><clipPath id="cp6"><path d="M 109 137 L 263 137  263 205  109 205 z " /></clipPath><clipPath id="cp7"><path d="M 308 139 L 464 139  464 205  308 205 z " /></clipPath><clipPath id="cp8"><path d="M 308 139 L 464 139  464 205  308 205 z " /></clipPath><clipPath id="cp9"><path d="M 306 137 L 464 137  464 205  306 205 z " /></clipPath><clipPath id="cp10"><path d="M 509 139 L 664 139  664 205  509 205 z " /></clipPath><clipPath id="cp11"><path d="M 509 139 L 664 139  664 205  509 205 z " /></clipPath><clipPath id="cp12"><path d="M 507 137 L 664 137  664 205  507 205 z " /></clipPath><clipPath id="cp13"><path d="M 6 6 L 233 6  233 93  6 93 z " /></clipPath><clipPath id="cp14"><path d="M 6 6 L 233 6  233 93  6 93 z " /></clipPath><clipPath id="cp15"><path d="M 4 4 L 233 4  233 93  4 93 z " /></clipPath><clipPath id="cp16"><path d="M 353 74 L 347 93  359 93 z " /></clipPath><clipPath id="cp17"><path d="M 385 74 L 379 93  391 93 z " /></clipPath><clipPath id="cp18"><path d="M 426 74 L 420 93  432 93 z " /></clipPath></defs><g transform="matrix(1 0 0 1 0 0)"><g clip-path="url(#cp1)"><rect x="309px" y="19px" width="154px" height="57px" fill="rgba(0,0,0,0.235)" /></g><g clip-path="url(#cp2)"><path fill="none" d="M 310 20 L 462 20  462 75  310 75 z " stroke="rgba(0,0,0,0.047)" stroke-width="10px" stroke-dashoffset="0" stroke-linejoin="round" stroke-miterlimit="10" /><path fill="none" d="M 310 20 L 462 20  462 75  310 75 z " stroke="rgba(0,0,0,0.047)" stroke-width="8px" stroke-dashoffset="0" stroke-linejoin="round" stroke-miterlimit="10" /><path fill="none" d="M 310 20 L 462 20  462 75  310 75 z " stroke="rgba(0,0,0,0.047)" stroke-width="6px" stroke-dashoffset="0" stroke-linejoin="round" stroke-miterlimit="10" /><path fill="none" d="M 310 20 L 462 20  462 75  310 75 z " stroke="rgba(0,0,0,0.055)" stroke-width="4px" stroke-dashoffset="0" stroke-linejoin="round" stroke-miterlimit="10" /><path fill="none" d="M 310 20 L 462 20  462 75  310 75 z " stroke="rgba(0,0,0,0.047)" stroke-width="2px" stroke-dashoffset="0" stroke-linejoin="round" stroke-miterlimit="10" /></g><rect x="309px" y="19px" width="152px" height="55px" fill="url(#fs1)" /><path d="M 461 37.33333 C 385 37.33333  309 37.33333  309 51.08334 L 309 19  461 19  461 37.33333 z " fill="url(#fs2)" /><rect x="309px" y="19px" width="152px" height="55px" fill="none" stroke="#000000" stroke-width="1px" stroke-dashoffset="0" stroke-linejoin="round" stroke-miterlimit="10" /><g clip-path="url(#cp3)"><text x="353px" y="36.5562477111816px" font-family="Verdana" font-size="9.599999pt" font-weight="bold" font-style="italic" fill="#000000">Strategy</text><line x1="309px" y1="43px" x2="461px" y2="43px" stroke="#000000" stroke-width="1px" stroke-dashoffset="0" stroke-linejoin="round" stroke-miterlimit="10" /><line x1="309px" y1="53px" x2="461px" y2="53px" stroke="#000000" stroke-width="1px" stroke-dashoffset="0" stroke-linejoin="round" stroke-miterlimit="10" /><text x="312px" y="70.0006256103516px" font-family="Verdana" font-size="8.639999pt" font-style="italic" fill="#000000">+ algorithmInterface ()</text></g></g><g transform="matrix(1 0 0 1 0 0)"><g clip-path="url(#cp4)"><rect x="110px" y="138px" width="154px" height="68px" fill="rgba(0,0,0,0.235)" /></g><g clip-path="url(#cp5)"><path fill="none" d="M 111 139 L 263 139  263 205  111 205 z " stroke="rgba(0,0,0,0.047)" stroke-width="10px" stroke-dashoffset="0" stroke-linejoin="round" stroke-miterlimit="10" /><path fill="none" d="M 111 139 L 263 139  263 205  111 205 z " stroke="rgba(0,0,0,0.047)" stroke-width="8px" stroke-dashoffset="0" stroke-linejoin="round" stroke-miterlimit="10" /><path fill="none" d="M 111 139 L 263 139  263 205  111 205 z " stroke="rgba(0,0,0,0.047)" stroke-width="6px" stroke-dashoffset="0" stroke-linejoin="round" stroke-miterlimit="10" /><path fill="none" d="M 111 139 L 263 139  263 205  111 205 z " stroke="rgba(0,0,0,0.055)" stroke-width="4px" stroke-dashoffset="0" stroke-linejoin="round" stroke-miterlimit="10" /><path fill="none" d="M 111 139 L 263 139  263 205  111 205 z " stroke="rgba(0,0,0,0.047)" stroke-width="2px" stroke-dashoffset="0" stroke-linejoin="round" stroke-miterlimit="10" /></g><rect x="110px" y="138px" width="152px" height="66px" fill="url(#fs3)" /><path d="M 262 160 C 186 160  110 160  110 176.5 L 110 138  262 138  262 160 z " fill="url(#fs4)" /><rect x="110px" y="138px" width="152px" height="66px" fill="none" stroke="#000000" stroke-width="1px" stroke-dashoffset="0" stroke-linejoin="round" stroke-miterlimit="10" /><g clip-path="url(#cp6)"><text x="116px" y="155.556243896484px" font-family="Verdana" font-size="9.599999pt" font-weight="bold" fill="#000000">ConcreteStrategyA</text><line x1="110px" y1="162px" x2="262px" y2="162px" stroke="#000000" stroke-width="1px" stroke-dashoffset="0" stroke-linejoin="round" stroke-miterlimit="10" /><line x1="110px" y1="172px" x2="262px" y2="172px" stroke="#000000" stroke-width="1px" stroke-dashoffset="0" stroke-linejoin="round" stroke-miterlimit="10" /><text x="113px" y="189.000625610352px" font-family="Verdana" font-size="8.639999pt" fill="#000000">+ algorithmInterface ()</text></g></g><g transform="matrix(1 0 0 1 0 0)"><g clip-path="url(#cp7)"><rect x="307px" y="138px" width="158px" height="68px" fill="rgba(0,0,0,0.235)" /></g><g clip-path="url(#cp8)"><path fill="none" d="M 308 139 L 464 139  464 205  308 205 z " stroke="rgba(0,0,0,0.047)" stroke-width="10px" stroke-dashoffset="0" stroke-linejoin="round" stroke-miterlimit="10" /><path fill="none" d="M 308 139 L 464 139  464 205  308 205 z " stroke="rgba(0,0,0,0.047)" stroke-width="8px" stroke-dashoffset="0" stroke-linejoin="round" stroke-miterlimit="10" /><path fill="none" d="M 308 139 L 464 139  464 205  308 205 z " stroke="rgba(0,0,0,0.047)" stroke-width="6px" stroke-dashoffset="0" stroke-linejoin="round" stroke-miterlimit="10" /><path fill="none" d="M 308 139 L 464 139  464 205  308 205 z " stroke="rgba(0,0,0,0.055)" stroke-width="4px" stroke-dashoffset="0" stroke-linejoin="round" stroke-miterlimit="10" /><path fill="none" d="M 308 139 L 464 139  464 205  308 205 z " stroke="rgba(0,0,0,0.047)" stroke-width="2px" stroke-dashoffset="0" stroke-linejoin="round" stroke-miterlimit="10" /></g><rect x="307px" y="138px" width="156px" height="66px" fill="url(#fs5)" /><path d="M 463 160 C 385 160  307 160  307 176.5 L 307 138  463 138  463 160 z " fill="url(#fs6)" /><rect x="307px" y="138px" width="156px" height="66px" fill="none" stroke="#000000" stroke-width="1px" stroke-dashoffset="0" stroke-linejoin="round" stroke-miterlimit="10" /><g clip-path="url(#cp9)"><text x="315px" y="155.556243896484px" font-family="Verdana" font-size="9.599999pt" font-weight="bold" fill="#000000">ConcreteStrategyB</text><line x1="307px" y1="162px" x2="463px" y2="162px" stroke="#000000" stroke-width="1px" stroke-dashoffset="0" stroke-linejoin="round" stroke-miterlimit="10" /><line x1="307px" y1="172px" x2="463px" y2="172px" stroke="#000000" stroke-width="1px" stroke-dashoffset="0" stroke-linejoin="round" stroke-miterlimit="10" /><text x="310px" y="189.000625610352px" font-family="Verdana" font-size="8.639999pt" fill="#000000">+ algorithmInterface ()</text></g></g><g transform="matrix(1 0 0 1 0 0)"><g clip-path="url(#cp10)"><rect x="508px" y="138px" width="157px" height="68px" fill="rgba(0,0,0,0.235)" /></g><g clip-path="url(#cp11)"><path fill="none" d="M 509 139 L 664 139  664 205  509 205 z " stroke="rgba(0,0,0,0.047)" stroke-width="10px" stroke-dashoffset="0" stroke-linejoin="round" stroke-miterlimit="10" /><path fill="none" d="M 509 139 L 664 139  664 205  509 205 z " stroke="rgba(0,0,0,0.047)" stroke-width="8px" stroke-dashoffset="0" stroke-linejoin="round" stroke-miterlimit="10" /><path fill="none" d="M 509 139 L 664 139  664 205  509 205 z " stroke="rgba(0,0,0,0.047)" stroke-width="6px" stroke-dashoffset="0" stroke-linejoin="round" stroke-miterlimit="10" /><path fill="none" d="M 509 139 L 664 139  664 205  509 205 z " stroke="rgba(0,0,0,0.055)" stroke-width="4px" stroke-dashoffset="0" stroke-linejoin="round" stroke-miterlimit="10" /><path fill="none" d="M 509 139 L 664 139  664 205  509 205 z " stroke="rgba(0,0,0,0.047)" stroke-width="2px" stroke-dashoffset="0" stroke-linejoin="round" stroke-miterlimit="10" /></g><rect x="508px" y="138px" width="155px" height="66px" fill="url(#fs7)" /><path d="M 663 160 C 585.5 160  508 160  508 176.5 L 508 138  663 138  663 160 z " fill="url(#fs8)" /><rect x="508px" y="138px" width="155px" height="66px" fill="none" stroke="#000000" stroke-width="1px" stroke-dashoffset="0" stroke-linejoin="round" stroke-miterlimit="10" /><g clip-path="url(#cp12)"><text x="516px" y="155.556243896484px" font-family="Verdana" font-size="9.599999pt" font-weight="bold" fill="#000000">ConcreteStrategyC</text><line x1="508px" y1="162px" x2="663px" y2="162px" stroke="#000000" stroke-width="1px" stroke-dashoffset="0" stroke-linejoin="round" stroke-miterlimit="10" /><line x1="508px" y1="172px" x2="663px" y2="172px" stroke="#000000" stroke-width="1px" stroke-dashoffset="0" stroke-linejoin="round" stroke-miterlimit="10" /><text x="511px" y="189.000625610352px" font-family="Verdana" font-size="8.639999pt" fill="#000000">+ algorithmInterface ()</text></g></g><g transform="matrix(1 0 0 1 0 0)"><g clip-path="url(#cp13)"><rect x="5px" y="5px" width="229px" height="89px" fill="rgba(0,0,0,0.235)" /></g><g clip-path="url(#cp14)"><path fill="none" d="M 6 6 L 233 6  233 93  6 93 z " stroke="rgba(0,0,0,0.047)" stroke-width="10px" stroke-dashoffset="0" stroke-linejoin="round" stroke-miterlimit="10" /><path fill="none" d="M 6 6 L 233 6  233 93  6 93 z " stroke="rgba(0,0,0,0.047)" stroke-width="8px" stroke-dashoffset="0" stroke-linejoin="round" stroke-miterlimit="10" /><path fill="none" d="M 6 6 L 233 6  233 93  6 93 z " stroke="rgba(0,0,0,0.047)" stroke-width="6px" stroke-dashoffset="0" stroke-linejoin="round" stroke-miterlimit="10" /><path fill="none" d="M 6 6 L 233 6  233 93  6 93 z " stroke="rgba(0,0,0,0.055)" stroke-width="4px" stroke-dashoffset="0" stroke-linejoin="round" stroke-miterlimit="10" /><path fill="none" d="M 6 6 L 233 6  233 93  6 93 z " stroke="rgba(0,0,0,0.047)" stroke-width="2px" stroke-dashoffset="0" stroke-linejoin="round" stroke-miterlimit="10" /></g><rect x="5px" y="5px" width="227px" height="87px" fill="url(#fs9)" /><path d="M 232 34 C 118.5 34  5 34  5 55.75 L 5 5  232 5  232 34 z " fill="url(#fs10)" /><rect x="5px" y="5px" width="227px" height="87px" fill="none" stroke="#000000" stroke-width="1px" stroke-dashoffset="0" stroke-linejoin="round" stroke-miterlimit="10" /><g clip-path="url(#cp15)"><text x="90px" y="22.5562477111816px" font-family="Verdana" font-size="9.599999pt" font-weight="bold" fill="#000000">Context</text><line x1="5px" y1="29px" x2="232px" y2="29px" stroke="#000000" stroke-width="1px" stroke-dashoffset="0" stroke-linejoin="round" stroke-miterlimit="10" /><text x="8px" y="49.0006217956543px" font-family="Verdana" font-size="8.639999pt" fill="#000000">- strategy: Strategy</text><line x1="5px" y1="56px" x2="232px" y2="56px" stroke="#000000" stroke-width="1px" stroke-dashoffset="0" stroke-linejoin="round" stroke-miterlimit="10" /><text x="8px" y="73.0006256103516px" font-family="Verdana" font-size="8.639999pt" fill="#000000">+ setStrategy (strategy : Strategy)</text><text x="8px" y="90.0006256103516px" font-family="Verdana" font-size="8.639999pt" fill="#000000">+ contextInterface ()</text></g></g><g transform="matrix(1 0 0 1 0 0)"><polyline points="189,138 189,106 353,106 353,74 " fill="none" stroke="#000000" stroke-width="1px" stroke-dashoffset="0" stroke-linejoin="round" stroke-miterlimit="10" /><polygon points="353,74 347,93 359,93 353,74 " fill="url(#fs11)" /><g clip-path="url(#cp16)"><path d="M 359.1803 80.34038 C 353 80.34038  346.8197 80.34038  346.8197 85.09566 L 346.8197 74  359.1803 74  359.1803 80.34038 z " fill="url(#fs12)" /></g><polygon fill="none" points="353,74 347,93 359,93 353,74 " stroke="#000000" stroke-width="1px" stroke-dashoffset="0" stroke-linejoin="round" stroke-miterlimit="10" /></g><g transform="matrix(1 0 0 1 0 0)"><polyline points="385,138 385,74 " fill="none" stroke="#000000" stroke-width="1px" stroke-dashoffset="0" stroke-linejoin="round" stroke-miterlimit="10" /><polygon points="385,74 379,93 391,93 385,74 " fill="url(#fs13)" /><g clip-path="url(#cp17)"><path d="M 391.1803 80.34038 C 385 80.34038  378.8197 80.34038  378.8197 85.09566 L 378.8197 74  391.1803 74  391.1803 80.34038 z " fill="url(#fs14)" /></g><polygon fill="none" points="385,74 379,93 391,93 385,74 " stroke="#000000" stroke-width="1px" stroke-dashoffset="0" stroke-linejoin="round" stroke-miterlimit="10" /></g><g transform="matrix(1 0 0 1 0 0)"><polyline points="589,138 589,106 426,106 426,74 " fill="none" stroke="#000000" stroke-width="1px" stroke-dashoffset="0" stroke-linejoin="round" stroke-miterlimit="10" /><polygon points="426,74 420,93 432,93 426,74 " fill="url(#fs15)" /><g clip-path="url(#cp18)"><path d="M 432.1803 80.34038 C 426 80.34038  419.8197 80.34038  419.8197 85.09566 L 419.8197 74  432.1803 74  432.1803 80.34038 z " fill="url(#fs16)" /></g><polygon fill="none" points="426,74 420,93 432,93 426,74 " stroke="#000000" stroke-width="1px" stroke-dashoffset="0" stroke-linejoin="round" stroke-miterlimit="10" /></g><g transform="matrix(1 0 0 1 0 0)"><polyline points="232,51 309,51 " fill="none" stroke="#000000" stroke-width="1px" stroke-dashoffset="0" stroke-linejoin="round" stroke-miterlimit="10" /><polygon points="232,51 246,56 262,51 246,46 " fill="#FFFFFF" /><polygon fill="none" points="232,51 246,56 262,51 246,46 " stroke="#000000" stroke-width="1px" stroke-dashoffset="0" stroke-linejoin="round" stroke-miterlimit="10" /></g></svg>