<?xml version="1.0" encoding="utf-8" standalone="no"?><!DOCTYPE svg PUBLIC "-//W3C//DTD SVG 1.1//EN" "http://www.w3.org/Graphics/SVG/1.1/DTD/svg11.dtd"><svg width="626px" height="340px" version="1.1" xmlns="http://www.w3.org/2000/svg"><desc /><defs><linearGradient id="fs1" x1="0.999999344348907px" y1="-1.41285084964693E-07px" x2="0.999999105930328px" y2="0.999999582767487px"><stop offset="0%" stop-color="#D3D3D3" stop-opacity="1" /><stop offset="100%" stop-color="#FFFFFF" stop-opacity="1" /></linearGradient><linearGradient id="fs2" x1="0.999999582767487px" y1="-1.19209289550781E-07px" x2="0.999999344348907px" y2="0.999999761581421px"><stop offset="0%" stop-color="#FFFFFF" stop-opacity="0.5490196" /><stop offset="100%" stop-color="#FFFFFF" stop-opacity="0.1568628" /></linearGradient><linearGradient id="fs3" x1="0.999999701976776px" y1="-3.46790670846531E-07px" x2="0.999999642372131px" y2="0.999999284744263px"><stop offset="0%" stop-color="#D3D3D3" stop-opacity="1" /><stop offset="100%" stop-color="#FFFFFF" stop-opacity="1" /></linearGradient><linearGradient id="fs4" x1="0.999999463558197px" y1="-1.00386773738137E-06px" x2="0.999999463558197px" y2="0.999998807907104px"><stop offset="0%" stop-color="#FFFFFF" stop-opacity="0.5490196" /><stop offset="100%" stop-color="#FFFFFF" stop-opacity="0.1568628" /></linearGradient><linearGradient id="fs5" x1="0.999999582767487px" y1="-2.28881830821592E-07px" x2="0.999999403953552px" y2="0.999999701976776px"><stop offset="0%" stop-color="#D3D3D3" stop-opacity="1" /><stop offset="100%" stop-color="#FFFFFF" stop-opacity="1" /></linearGradient><linearGradient id="fs6" x1="0.999999403953552px" y1="-5.26165138126089E-07px" x2="0.999999046325684px" y2="0.999999225139618px"><stop offset="0%" stop-color="#FFFFFF" stop-opacity="0.5490196" /><stop offset="100%" stop-color="#FFFFFF" stop-opacity="0.1568628" /></linearGradient><linearGradient id="fs7" x1="0.999998152256012px" y1="-2.20850893128954E-06px" x2="0.999997794628143px" y2="0.999997615814209px"><stop offset="0%" stop-color="#D3D3D3" stop-opacity="1" /><stop offset="100%" stop-color="#FFFFFF" stop-opacity="1" /></linearGradient><linearGradient id="fs8" x1="0.999997794628143px" y1="-3.814697265625E-06px" x2="0.999997794628143px" y2="0.999995827674866px"><stop offset="0%" stop-color="#FFFFFF" stop-opacity="0.5490196" /><stop offset="100%" stop-color="#FFFFFF" stop-opacity="0.1568628" /></linearGradient><linearGradient id="fs9" x1="0.999997079372406px" y1="-2.20850893128954E-06px" x2="0.999996364116669px" y2="0.999997198581696px"><stop offset="0%" stop-color="#D3D3D3" stop-opacity="1" /><stop offset="100%" stop-color="#FFFFFF" stop-opacity="1" /></linearGradient><linearGradient id="fs10" x1="0.999994874000549px" y1="-6.93581341693061E-06px" x2="0.999994158744812px" y2="0.999992370605469px"><stop offset="0%" stop-color="#FFFFFF" stop-opacity="0.5490196" /><stop offset="100%" stop-color="#FFFFFF" stop-opacity="0.1568628" /></linearGradient><linearGradient id="fs11" x1="0.9999960064888px" y1="-1.5894571561148E-06px" x2="0.999995172023773px" y2="0.999998390674591px"><stop offset="0%" stop-color="#D3D3D3" stop-opacity="1" /><stop offset="100%" stop-color="#FFFFFF" stop-opacity="1" /></linearGradient><linearGradient id="fs12" x1="0.9999960064888px" y1="-2.17982710637443E-06px" x2="0.999995589256287px" y2="0.999997794628143px"><stop offset="0%" stop-color="#FFFFFF" stop-opacity="0.5490196" /><stop offset="100%" stop-color="#FFFFFF" stop-opacity="0.1568628" /></linearGradient><linearGradient id="fs13" x1="0.999963104724884px" y1="-3.21237666867091E-06px" x2="0.999960601329803px" y2="0.999996781349182px"><stop offset="0%" stop-color="#D3D3D3" stop-opacity="1" /><stop offset="100%" stop-color="#FFFFFF" stop-opacity="1" /></linearGradient><linearGradient id="fs14" x1="0.999988555908203px" y1="-4.85506916447775E-06px" x2="0.999987304210663px" y2="0.999995172023773px"><stop offset="0%" stop-color="#FFFFFF" stop-opacity="0.5490196" /><stop offset="100%" stop-color="#FFFFFF" stop-opacity="0.1568628" /></linearGradient><linearGradient id="fs15" x1="0.999923706054688px" y1="-6.42475333734183E-06px" x2="0.999918639659882px" y2="0.999990344047546px"><stop offset="0%" stop-color="#D3D3D3" stop-opacity="1" /><stop offset="100%" stop-color="#FFFFFF" stop-opacity="1" /></linearGradient><linearGradient id="fs16" x1="0.999893188476563px" y1="-1.38716268338612E-05px" x2="0.999888122081757px" y2="0.999986112117767px"><stop offset="0%" stop-color="#FFFFFF" stop-opacity="0.5490196" /><stop offset="100%" stop-color="#FFFFFF" stop-opacity="0.1568628" /></linearGradient><linearGradient id="fs17" x1="0.999814331531525px" y1="-9.63712955126539E-06px" x2="0.999809265136719px" y2="0.999990344047546px"><stop offset="0%" stop-color="#D3D3D3" stop-opacity="1" /><stop offset="100%" stop-color="#FFFFFF" stop-opacity="1" /></linearGradient><linearGradient id="fs18" x1="0.999839782714844px" y1="-1.38716268338612E-05px" x2="0.999837219715118px" y2="0.999986112117767px"><stop offset="0%" stop-color="#FFFFFF" stop-opacity="0.5490196" /><stop offset="100%" stop-color="#FFFFFF" stop-opacity="0.1568628" /></linearGradient><clipPath id="cp1"><path d="M 125 6 L 265 6  265 60  125 60 z " /></clipPath><clipPath id="cp2"><path d="M 125 6 L 265 6  265 60  125 60 z " /></clipPath><clipPath id="cp3"><path d="M 123 4 L 265 4  265 60  123 60 z " /></clipPath><clipPath id="cp4"><path d="M 6 97 L 173 97  173 163  6 163 z " /></clipPath><clipPath id="cp5"><path d="M 6 97 L 173 97  173 163  6 163 z " /></clipPath><clipPath id="cp6"><path d="M 4 95 L 173 95  173 163  4 163 z " /></clipPath><clipPath id="cp7"><path d="M 265 97 L 577 97  577 197  265 197 z " /></clipPath><clipPath id="cp8"><path d="M 265 97 L 577 97  577 197  265 197 z " /></clipPath><clipPath id="cp9"><path d="M 263 95 L 577 95  577 197  263 197 z " /></clipPath><clipPath id="cp10"><path d="M 247 248.5 L 414 248.5  414 324.5  247 324.5 z " /></clipPath><clipPath id="cp11"><path d="M 247 248.5 L 414 248.5  414 324.5  247 324.5 z " /></clipPath><clipPath id="cp12"><path d="M 245 246 L 414 246  414 324  245 324 z " /></clipPath><clipPath id="cp13"><path d="M 444 248.5 L 611 248.5  611 324.5  444 324.5 z " /></clipPath><clipPath id="cp14"><path d="M 444 248.5 L 611 248.5  611 324.5  444 324.5 z " /></clipPath><clipPath id="cp15"><path d="M 442 246 L 611 246  611 324  442 324 z " /></clipPath><clipPath id="cp16"><path d="M 124 34 L 105 28  105 40 z " /></clipPath><clipPath id="cp17"><path d="M 194 59 L 188 78  200 78 z " /></clipPath><clipPath id="cp18"><path d="M 329 196 L 323 215  336 215 z " /></clipPath><clipPath id="cp19"><path d="M 498 196 L 492 215  504 215 z " /></clipPath></defs><g transform="matrix(1 0 0 1 0 0)"><g clip-path="url(#cp1)"><rect x="124px" y="5px" width="142px" height="56px" fill="rgba(0,0,0,0.235)" /></g><g clip-path="url(#cp2)"><path fill="none" d="M 125 6 L 265 6  265 60  125 60 z " stroke="rgba(0,0,0,0.047)" stroke-width="10px" stroke-dashoffset="0" stroke-linejoin="round" stroke-miterlimit="10" /><path fill="none" d="M 125 6 L 265 6  265 60  125 60 z " stroke="rgba(0,0,0,0.047)" stroke-width="8px" stroke-dashoffset="0" stroke-linejoin="round" stroke-miterlimit="10" /><path fill="none" d="M 125 6 L 265 6  265 60  125 60 z " stroke="rgba(0,0,0,0.047)" stroke-width="6px" stroke-dashoffset="0" stroke-linejoin="round" stroke-miterlimit="10" /><path fill="none" d="M 125 6 L 265 6  265 60  125 60 z " stroke="rgba(0,0,0,0.055)" stroke-width="4px" stroke-dashoffset="0" stroke-linejoin="round" stroke-miterlimit="10" /><path fill="none" d="M 125 6 L 265 6  265 60  125 60 z " stroke="rgba(0,0,0,0.047)" stroke-width="2px" stroke-dashoffset="0" stroke-linejoin="round" stroke-miterlimit="10" /></g><rect x="124px" y="5px" width="140px" height="54px" fill="url(#fs1)" /><path d="M 264 23 C 194 23  124 23  124 36.5 L 124 5  264 5  264 23 z " fill="url(#fs2)" /><rect x="124px" y="5px" width="140px" height="54px" fill="none" stroke="#000000" stroke-width="1px" stroke-dashoffset="0" stroke-linejoin="round" stroke-miterlimit="10" /><g clip-path="url(#cp3)"><text x="153px" y="22.5562477111816px" font-family="Verdana" font-size="9.599999pt" font-weight="bold" font-style="italic" fill="#000000">Component</text><line x1="124px" y1="29px" x2="264px" y2="29px" stroke="#000000" stroke-width="1px" stroke-dashoffset="0" stroke-linejoin="round" stroke-miterlimit="10" /><line x1="124px" y1="39px" x2="264px" y2="39px" stroke="#000000" stroke-width="1px" stroke-dashoffset="0" stroke-linejoin="round" stroke-miterlimit="10" /><text x="127px" y="56.0006217956543px" font-family="Verdana" font-size="8.639999pt" font-style="italic" fill="#000000">+ operation ()</text></g></g><g transform="matrix(1 0 0 1 0 0)"><g clip-path="url(#cp4)"><rect x="5px" y="96px" width="169px" height="68px" fill="rgba(0,0,0,0.235)" /></g><g clip-path="url(#cp5)"><path fill="none" d="M 6 97 L 173 97  173 163  6 163 z " stroke="rgba(0,0,0,0.047)" stroke-width="10px" stroke-dashoffset="0" stroke-linejoin="round" stroke-miterlimit="10" /><path fill="none" d="M 6 97 L 173 97  173 163  6 163 z " stroke="rgba(0,0,0,0.047)" stroke-width="8px" stroke-dashoffset="0" stroke-linejoin="round" stroke-miterlimit="10" /><path fill="none" d="M 6 97 L 173 97  173 163  6 163 z " stroke="rgba(0,0,0,0.047)" stroke-width="6px" stroke-dashoffset="0" stroke-linejoin="round" stroke-miterlimit="10" /><path fill="none" d="M 6 97 L 173 97  173 163  6 163 z " stroke="rgba(0,0,0,0.055)" stroke-width="4px" stroke-dashoffset="0" stroke-linejoin="round" stroke-miterlimit="10" /><path fill="none" d="M 6 97 L 173 97  173 163  6 163 z " stroke="rgba(0,0,0,0.047)" stroke-width="2px" stroke-dashoffset="0" stroke-linejoin="round" stroke-miterlimit="10" /></g><rect x="5px" y="96px" width="167px" height="66px" fill="url(#fs3)" /><path d="M 172 118 C 88.5 118  5 118  5 134.5 L 5 96  172 96  172 118 z " fill="url(#fs4)" /><rect x="5px" y="96px" width="167px" height="66px" fill="none" stroke="#000000" stroke-width="1px" stroke-dashoffset="0" stroke-linejoin="round" stroke-miterlimit="10" /><g clip-path="url(#cp6)"><text x="14px" y="113.556243896484px" font-family="Verdana" font-size="9.599999pt" font-weight="bold" fill="#000000">ConcreteComponent</text><line x1="5px" y1="120px" x2="172px" y2="120px" stroke="#000000" stroke-width="1px" stroke-dashoffset="0" stroke-linejoin="round" stroke-miterlimit="10" /><line x1="5px" y1="130px" x2="172px" y2="130px" stroke="#000000" stroke-width="1px" stroke-dashoffset="0" stroke-linejoin="round" stroke-miterlimit="10" /><text x="8px" y="147.000625610352px" font-family="Verdana" font-size="8.639999pt" fill="#000000">+ operation ()</text></g></g><g transform="matrix(1 0 0 1 0 0)"><g clip-path="url(#cp7)"><rect x="264px" y="96px" width="314px" height="102px" fill="rgba(0,0,0,0.235)" /></g><g clip-path="url(#cp8)"><path fill="none" d="M 265 97 L 577 97  577 197  265 197 z " stroke="rgba(0,0,0,0.047)" stroke-width="10px" stroke-dashoffset="0" stroke-linejoin="round" stroke-miterlimit="10" /><path fill="none" d="M 265 97 L 577 97  577 197  265 197 z " stroke="rgba(0,0,0,0.047)" stroke-width="8px" stroke-dashoffset="0" stroke-linejoin="round" stroke-miterlimit="10" /><path fill="none" d="M 265 97 L 577 97  577 197  265 197 z " stroke="rgba(0,0,0,0.047)" stroke-width="6px" stroke-dashoffset="0" stroke-linejoin="round" stroke-miterlimit="10" /><path fill="none" d="M 265 97 L 577 97  577 197  265 197 z " stroke="rgba(0,0,0,0.055)" stroke-width="4px" stroke-dashoffset="0" stroke-linejoin="round" stroke-miterlimit="10" /><path fill="none" d="M 265 97 L 577 97  577 197  265 197 z " stroke="rgba(0,0,0,0.047)" stroke-width="2px" stroke-dashoffset="0" stroke-linejoin="round" stroke-miterlimit="10" /></g><rect x="264px" y="96px" width="312px" height="100px" fill="url(#fs5)" /><path d="M 576 129.3333 C 420 129.3333  264 129.3333  264 154.3333 L 264 96  576 96  576 129.3333 z " fill="url(#fs6)" /><rect x="264px" y="96px" width="312px" height="100px" fill="none" stroke="#000000" stroke-width="1px" stroke-dashoffset="0" stroke-linejoin="round" stroke-miterlimit="10" /><g clip-path="url(#cp9)"><text x="383px" y="113.556243896484px" font-family="Verdana" font-size="9.599999pt" font-weight="bold" font-style="italic" fill="#000000">Decorator</text><line x1="264px" y1="120px" x2="576px" y2="120px" stroke="#000000" stroke-width="1px" stroke-dashoffset="0" stroke-linejoin="round" stroke-miterlimit="10" /><text x="267px" y="140.000625610352px" font-family="Verdana" font-size="8.639999pt" fill="#000000">- component: Component</text><line x1="264px" y1="147px" x2="576px" y2="147px" stroke="#000000" stroke-width="1px" stroke-dashoffset="0" stroke-linejoin="round" stroke-miterlimit="10" /><text x="267px" y="164.000625610352px" font-family="Verdana" font-size="8.639999pt" fill="#000000">+ Decorator (component : Component)</text><text x="267px" y="181.000625610352px" font-family="Verdana" font-size="8.639999pt" fill="#000000">+ operation ()</text></g></g><g transform="matrix(1 0 0 1 0 0)"><g clip-path="url(#cp10)"><rect x="246px" y="248px" width="169px" height="78px" fill="rgba(0,0,0,0.235)" /></g><g clip-path="url(#cp11)"><path fill="none" d="M 247 248.5 L 414 248.5  414 324.5  247 324.5 z " stroke="rgba(0,0,0,0.047)" stroke-width="10px" stroke-dashoffset="0" stroke-linejoin="round" stroke-miterlimit="10" /><path fill="none" d="M 247 248.5 L 414 248.5  414 324.5  247 324.5 z " stroke="rgba(0,0,0,0.047)" stroke-width="8px" stroke-dashoffset="0" stroke-linejoin="round" stroke-miterlimit="10" /><path fill="none" d="M 247 248.5 L 414 248.5  414 324.5  247 324.5 z " stroke="rgba(0,0,0,0.047)" stroke-width="6px" stroke-dashoffset="0" stroke-linejoin="round" stroke-miterlimit="10" /><path fill="none" d="M 247 248.5 L 414 248.5  414 324.5  247 324.5 z " stroke="rgba(0,0,0,0.055)" stroke-width="4px" stroke-dashoffset="0" stroke-linejoin="round" stroke-miterlimit="10" /><path fill="none" d="M 247 248.5 L 414 248.5  414 324.5  247 324.5 z " stroke="rgba(0,0,0,0.047)" stroke-width="2px" stroke-dashoffset="0" stroke-linejoin="round" stroke-miterlimit="10" /></g><rect x="246px" y="247px" width="167px" height="76px" fill="url(#fs7)" /><path d="M 413 272.8333 C 329.5 272.8333  246 272.8333  246 291.8333 L 246 247.5  413 247.5  413 272.8333 z " fill="url(#fs8)" /><rect x="246px" y="247px" width="167px" height="76px" fill="none" stroke="#000000" stroke-width="1px" stroke-dashoffset="0" stroke-linejoin="round" stroke-miterlimit="10" /><g clip-path="url(#cp12)"><text x="254px" y="265.556243896484px" font-family="Verdana" font-size="9.599999pt" font-weight="bold" fill="#000000">ConcreteDecoratorA</text><line x1="246px" y1="271px" x2="413px" y2="271px" stroke="#000000" stroke-width="1px" stroke-dashoffset="0" stroke-linejoin="round" stroke-miterlimit="10" /><line x1="246px" y1="281px" x2="413px" y2="281px" stroke="#000000" stroke-width="1px" stroke-dashoffset="0" stroke-linejoin="round" stroke-miterlimit="10" /><text x="249px" y="298.000610351563px" font-family="Verdana" font-size="8.639999pt" fill="#000000">+ operation ()</text><text x="249px" y="315.000610351563px" font-family="Verdana" font-size="8.639999pt" fill="#000000">+ additionalOperation ()</text></g></g><g transform="matrix(1 0 0 1 0 0)"><g clip-path="url(#cp13)"><rect x="443px" y="248px" width="169px" height="78px" fill="rgba(0,0,0,0.235)" /></g><g clip-path="url(#cp14)"><path fill="none" d="M 444 248.5 L 611 248.5  611 324.5  444 324.5 z " stroke="rgba(0,0,0,0.047)" stroke-width="10px" stroke-dashoffset="0" stroke-linejoin="round" stroke-miterlimit="10" /><path fill="none" d="M 444 248.5 L 611 248.5  611 324.5  444 324.5 z " stroke="rgba(0,0,0,0.047)" stroke-width="8px" stroke-dashoffset="0" stroke-linejoin="round" stroke-miterlimit="10" /><path fill="none" d="M 444 248.5 L 611 248.5  611 324.5  444 324.5 z " stroke="rgba(0,0,0,0.047)" stroke-width="6px" stroke-dashoffset="0" stroke-linejoin="round" stroke-miterlimit="10" /><path fill="none" d="M 444 248.5 L 611 248.5  611 324.5  444 324.5 z " stroke="rgba(0,0,0,0.055)" stroke-width="4px" stroke-dashoffset="0" stroke-linejoin="round" stroke-miterlimit="10" /><path fill="none" d="M 444 248.5 L 611 248.5  611 324.5  444 324.5 z " stroke="rgba(0,0,0,0.047)" stroke-width="2px" stroke-dashoffset="0" stroke-linejoin="round" stroke-miterlimit="10" /></g><rect x="443px" y="247px" width="167px" height="76px" fill="url(#fs9)" /><path d="M 610 272.8333 C 526.5 272.8333  443 272.8333  443 291.8333 L 443 247.5  610 247.5  610 272.8333 z " fill="url(#fs10)" /><rect x="443px" y="247px" width="167px" height="76px" fill="none" stroke="#000000" stroke-width="1px" stroke-dashoffset="0" stroke-linejoin="round" stroke-miterlimit="10" /><g clip-path="url(#cp15)"><text x="451px" y="265.556243896484px" font-family="Verdana" font-size="9.599999pt" font-weight="bold" fill="#000000">ConcreteDecoratorB</text><line x1="443px" y1="271px" x2="610px" y2="271px" stroke="#000000" stroke-width="1px" stroke-dashoffset="0" stroke-linejoin="round" stroke-miterlimit="10" /><line x1="443px" y1="281px" x2="610px" y2="281px" stroke="#000000" stroke-width="1px" stroke-dashoffset="0" stroke-linejoin="round" stroke-miterlimit="10" /><text x="446px" y="298.000610351563px" font-family="Verdana" font-size="8.639999pt" fill="#000000">+ operation ()</text><text x="446px" y="315.000610351563px" font-family="Verdana" font-size="8.639999pt" fill="#000000">+ additionalOperation ()</text></g></g><g transform="matrix(1 0 0 1 0 0)"><polyline points="84,96 84,34 124,34 " fill="none" stroke="#000000" stroke-width="1px" stroke-dashoffset="0" stroke-linejoin="round" stroke-miterlimit="10" /><polygon points="124,34 105,28 105,40 124,34 " fill="url(#fs11)" /><g clip-path="url(#cp16)"><path d="M 124 31.93989 C 114.4894 31.93989  104.9789 31.93989  104.9789 35.03006 L 104.9789 27.81966  124 27.81966  124 31.93989 z " fill="url(#fs12)" /></g><polygon fill="none" points="124,34 105,28 105,40 124,34 " stroke="#000000" stroke-width="1px" stroke-dashoffset="0" stroke-linejoin="round" stroke-miterlimit="10" /></g><g transform="matrix(1 0 0 1 0 0)"><polyline points="264,150 194,150 194,59 " fill="none" stroke="#000000" stroke-width="1px" stroke-dashoffset="0" stroke-linejoin="round" stroke-miterlimit="10" /><polygon points="194,59 188,78 200,78 194,59 " fill="url(#fs13)" /><g clip-path="url(#cp17)"><path d="M 200.1803 65.34038 C 194 65.34038  187.8197 65.34038  187.8197 70.09566 L 187.8197 59  200.1803 59  200.1803 65.34038 z " fill="url(#fs14)" /></g><polygon fill="none" points="194,59 188,78 200,78 194,59 " stroke="#000000" stroke-width="1px" stroke-dashoffset="0" stroke-linejoin="round" stroke-miterlimit="10" /></g><g transform="matrix(1 0 0 1 0 0)"><polyline points="417,96 417,33 264,33 " fill="none" stroke="#000000" stroke-width="1px" stroke-dashoffset="0" stroke-linejoin="round" stroke-miterlimit="10" /><polygon points="417,96 422,82 417,66 412,82 " fill="#FFFFFF" /><polygon fill="none" points="417,96 422,82 417,66 412,82 " stroke="#000000" stroke-width="1px" stroke-dashoffset="0" stroke-linejoin="round" stroke-miterlimit="10" /></g><g transform="matrix(1 0 0 1 0 0)"><polyline points="330,247 329,196 " fill="none" stroke="#000000" stroke-width="1px" stroke-dashoffset="0" stroke-linejoin="round" stroke-miterlimit="10" /><polygon points="329,196 323,215 336,215 329,196 " fill="url(#fs15)" /><g clip-path="url(#cp18)"><path d="M 335.552 202.3795 C 329.3729 202.3795  323.1937 202.3795  323.1937 207.1642 L 323.1937 196  335.552 196  335.552 202.3795 z " fill="url(#fs16)" /></g><polygon fill="none" points="329,196 323,215 336,215 329,196 " stroke="#000000" stroke-width="1px" stroke-dashoffset="0" stroke-linejoin="round" stroke-miterlimit="10" /></g><g transform="matrix(1 0 0 1 0 0)"><polyline points="498,247 498,196 " fill="none" stroke="#000000" stroke-width="1px" stroke-dashoffset="0" stroke-linejoin="round" stroke-miterlimit="10" /><polygon points="498,196 492,215 504,215 498,196 " fill="url(#fs17)" /><g clip-path="url(#cp19)"><path d="M 504.1804 202.3404 C 498 202.3404  491.8196 202.3404  491.8196 207.0957 L 491.8196 196  504.1804 196  504.1804 202.3404 z " fill="url(#fs18)" /></g><polygon fill="none" points="498,196 492,215 504,215 498,196 " stroke="#000000" stroke-width="1px" stroke-dashoffset="0" stroke-linejoin="round" stroke-miterlimit="10" /></g></svg>