<?xml version="1.0" encoding="utf-8" standalone="no"?><!DOCTYPE svg PUBLIC "-//W3C//DTD SVG 1.1//EN" "http://www.w3.org/Graphics/SVG/1.1/DTD/svg11.dtd"><svg width="702px" height="229px" version="1.1" xmlns="http://www.w3.org/2000/svg"><desc /><defs><linearGradient id="fs1" x1="0.999998986721039px" y1="-2.31193780564354E-07px" x2="0.99999862909317px" y2="0.999999523162842px"><stop offset="0%" stop-color="#D3D3D3" stop-opacity="1" /><stop offset="100%" stop-color="#FFFFFF" stop-opacity="1" /></linearGradient><linearGradient id="fs2" x1="0.999999344348907px" y1="-3.01160298477043E-07px" x2="0.999998986721039px" y2="0.999999523162842px"><stop offset="0%" stop-color="#FFFFFF" stop-opacity="0.5490196" /><stop offset="100%" stop-color="#FFFFFF" stop-opacity="0.1568628" /></linearGradient><linearGradient id="fs3" x1="0.999999821186066px" y1="-2.29801031537136E-08px" x2="0.999999701976776px" y2="0.999999701976776px"><stop offset="0%" stop-color="#D3D3D3" stop-opacity="1" /><stop offset="100%" stop-color="#FFFFFF" stop-opacity="1" /></linearGradient><linearGradient id="fs4" x1="0.999999761581421px" y1="-7.94728620689966E-08px" x2="0.999999701976776px" y2="0.999999701976776px"><stop offset="0%" stop-color="#FFFFFF" stop-opacity="0.5490196" /><stop offset="100%" stop-color="#FFFFFF" stop-opacity="0.1568628" /></linearGradient><linearGradient id="fs5" x1="0.999998211860657px" y1="-9.24775122257415E-07px" x2="0.999997854232788px" y2="0.999998867511749px"><stop offset="0%" stop-color="#D3D3D3" stop-opacity="1" /><stop offset="100%" stop-color="#FFFFFF" stop-opacity="1" /></linearGradient><linearGradient id="fs6" x1="0.999998033046722px" y1="-2.00773547476274E-06px" x2="0.999997615814209px" y2="0.999997973442078px"><stop offset="0%" stop-color="#FFFFFF" stop-opacity="0.5490196" /><stop offset="100%" stop-color="#FFFFFF" stop-opacity="0.1568628" /></linearGradient><linearGradient id="fs7" x1="0.999998211860657px" y1="-4.62387561128708E-07px" x2="0.999997675418854px" y2="0.999999523162842px"><stop offset="0%" stop-color="#D3D3D3" stop-opacity="1" /><stop offset="100%" stop-color="#FFFFFF" stop-opacity="1" /></linearGradient><linearGradient id="fs8" x1="0.999998211860657px" y1="-8.03094167167728E-07px" x2="0.999997913837433px" y2="0.999999225139618px"><stop offset="0%" stop-color="#FFFFFF" stop-opacity="0.5490196" /><stop offset="100%" stop-color="#FFFFFF" stop-opacity="0.1568628" /></linearGradient><linearGradient id="fs9" x1="0.999860107898712px" y1="-6.42475333734183E-06px" x2="0.999855041503906px" y2="0.999993562698364px"><stop offset="0%" stop-color="#D3D3D3" stop-opacity="1" /><stop offset="100%" stop-color="#FFFFFF" stop-opacity="1" /></linearGradient><linearGradient id="fs10" x1="0.999956786632538px" y1="-1.38716268338612E-05px" x2="0.999954223632813px" y2="0.999986112117767px"><stop offset="0%" stop-color="#FFFFFF" stop-opacity="0.5490196" /><stop offset="100%" stop-color="#FFFFFF" stop-opacity="0.1568628" /></linearGradient><linearGradient id="fs11" x1="0.999918639659882px" y1="-6.42475333734183E-06px" x2="0.999913513660431px" y2="0.999993562698364px"><stop offset="0%" stop-color="#D3D3D3" stop-opacity="1" /><stop offset="100%" stop-color="#FFFFFF" stop-opacity="1" /></linearGradient><linearGradient id="fs12" x1="0.999852478504181px" y1="-1.1097301467089E-05px" x2="0.999847412109375px" y2="0.999988913536072px"><stop offset="0%" stop-color="#FFFFFF" stop-opacity="0.5490196" /><stop offset="100%" stop-color="#FFFFFF" stop-opacity="0.1568628" /></linearGradient><clipPath id="cp1"><path d="M 322 18 L 502 18  502 84  322 84 z " /></clipPath><clipPath id="cp2"><path d="M 322 18 L 502 18  502 84  322 84 z " /></clipPath><clipPath id="cp3"><path d="M 320 16 L 502 16  502 84  320 84 z " /></clipPath><clipPath id="cp4"><path d="M 6 18 L 242 18  242 101  6 101 z " /></clipPath><clipPath id="cp5"><path d="M 6 18 L 242 18  242 101  6 101 z " /></clipPath><clipPath id="cp6"><path d="M 4 16 L 242 16  242 101  4 101 z " /></clipPath><clipPath id="cp7"><path d="M 253 147.5 L 408 147.5  408 213.5  253 213.5 z " /></clipPath><clipPath id="cp8"><path d="M 253 147.5 L 408 147.5  408 213.5  253 213.5 z " /></clipPath><clipPath id="cp9"><path d="M 251 146 L 408 146  408 214  251 214 z " /></clipPath><clipPath id="cp10"><path d="M 451 147.5 L 687 147.5  687 213.5  451 213.5 z " /></clipPath><clipPath id="cp11"><path d="M 451 147.5 L 687 147.5  687 213.5  451 213.5 z " /></clipPath><clipPath id="cp12"><path d="M 449 146 L 687 146  687 214  449 214 z " /></clipPath><clipPath id="cp13"><path d="M 382 83 L 376 102  388 102 z " /></clipPath><clipPath id="cp14"><path d="M 468 83 L 462 102  474 102 z " /></clipPath></defs><g transform="matrix(1 0 0 1 0 0)"><g clip-path="url(#cp1)"><rect x="321px" y="17px" width="182px" height="68px" fill="rgba(0,0,0,0.235)" /></g><g clip-path="url(#cp2)"><path fill="none" d="M 322 18 L 502 18  502 84  322 84 z " stroke="rgba(0,0,0,0.047)" stroke-width="10px" stroke-dashoffset="0" stroke-linejoin="round" stroke-miterlimit="10" /><path fill="none" d="M 322 18 L 502 18  502 84  322 84 z " stroke="rgba(0,0,0,0.047)" stroke-width="8px" stroke-dashoffset="0" stroke-linejoin="round" stroke-miterlimit="10" /><path fill="none" d="M 322 18 L 502 18  502 84  322 84 z " stroke="rgba(0,0,0,0.047)" stroke-width="6px" stroke-dashoffset="0" stroke-linejoin="round" stroke-miterlimit="10" /><path fill="none" d="M 322 18 L 502 18  502 84  322 84 z " stroke="rgba(0,0,0,0.055)" stroke-width="4px" stroke-dashoffset="0" stroke-linejoin="round" stroke-miterlimit="10" /><path fill="none" d="M 322 18 L 502 18  502 84  322 84 z " stroke="rgba(0,0,0,0.047)" stroke-width="2px" stroke-dashoffset="0" stroke-linejoin="round" stroke-miterlimit="10" /></g><rect x="321px" y="17px" width="180px" height="66px" fill="url(#fs1)" /><path d="M 501 39 C 411 39  321 39  321 55.5 L 321 17  501 17  501 39 z " fill="url(#fs2)" /><rect x="321px" y="17px" width="180px" height="66px" fill="none" stroke="#000000" stroke-width="1px" stroke-dashoffset="0" stroke-linejoin="round" stroke-miterlimit="10" /><g clip-path="url(#cp3)"><text x="376px" y="34.5562477111816px" font-family="Verdana" font-size="9.599999pt" font-weight="bold" font-style="italic" fill="#000000">Flyweight</text><line x1="321px" y1="41px" x2="501px" y2="41px" stroke="#000000" stroke-width="1px" stroke-dashoffset="0" stroke-linejoin="round" stroke-miterlimit="10" /><line x1="321px" y1="51px" x2="501px" y2="51px" stroke="#000000" stroke-width="1px" stroke-dashoffset="0" stroke-linejoin="round" stroke-miterlimit="10" /><text x="324px" y="68.0006256103516px" font-family="Verdana" font-size="8.639999pt" font-style="italic" fill="#000000">+ statefulOperation (state)</text></g></g><g transform="matrix(1 0 0 1 0 0)"><g clip-path="url(#cp4)"><rect x="5px" y="17px" width="238px" height="85px" fill="rgba(0,0,0,0.235)" /></g><g clip-path="url(#cp5)"><path fill="none" d="M 6 18 L 242 18  242 101  6 101 z " stroke="rgba(0,0,0,0.047)" stroke-width="10px" stroke-dashoffset="0" stroke-linejoin="round" stroke-miterlimit="10" /><path fill="none" d="M 6 18 L 242 18  242 101  6 101 z " stroke="rgba(0,0,0,0.047)" stroke-width="8px" stroke-dashoffset="0" stroke-linejoin="round" stroke-miterlimit="10" /><path fill="none" d="M 6 18 L 242 18  242 101  6 101 z " stroke="rgba(0,0,0,0.047)" stroke-width="6px" stroke-dashoffset="0" stroke-linejoin="round" stroke-miterlimit="10" /><path fill="none" d="M 6 18 L 242 18  242 101  6 101 z " stroke="rgba(0,0,0,0.055)" stroke-width="4px" stroke-dashoffset="0" stroke-linejoin="round" stroke-miterlimit="10" /><path fill="none" d="M 6 18 L 242 18  242 101  6 101 z " stroke="rgba(0,0,0,0.047)" stroke-width="2px" stroke-dashoffset="0" stroke-linejoin="round" stroke-miterlimit="10" /></g><rect x="5px" y="17px" width="236px" height="83px" fill="url(#fs3)" /><path d="M 241 44.66667 C 123 44.66667  5 44.66667  5 65.41667 L 5 17  241 17  241 44.66667 z " fill="url(#fs4)" /><rect x="5px" y="17px" width="236px" height="83px" fill="none" stroke="#000000" stroke-width="1px" stroke-dashoffset="0" stroke-linejoin="round" stroke-miterlimit="10" /><g clip-path="url(#cp6)"><text x="60px" y="34.5562477111816px" font-family="Verdana" font-size="9.599999pt" font-weight="bold" fill="#000000">FlyweightFactory</text><line x1="5px" y1="41px" x2="241px" y2="41px" stroke="#000000" stroke-width="1px" stroke-dashoffset="0" stroke-linejoin="round" stroke-miterlimit="10" /><text x="8px" y="61.0006217956543px" font-family="Verdana" font-size="8.639999pt" fill="#000000">- flyweights: Flyweight [*] </text><line x1="5px" y1="68px" x2="241px" y2="68px" stroke="#000000" stroke-width="1px" stroke-dashoffset="0" stroke-linejoin="round" stroke-miterlimit="10" /><text x="8px" y="85.0006256103516px" font-family="Verdana" font-size="8.639999pt" fill="#000000">+ getFlyweight (key): Flyweight</text></g></g><g transform="matrix(1 0 0 1 0 0)"><g clip-path="url(#cp7)"><rect x="252px" y="146px" width="157px" height="68px" fill="rgba(0,0,0,0.235)" /></g><g clip-path="url(#cp8)"><path fill="none" d="M 253 147.5 L 408 147.5  408 213.5  253 213.5 z " stroke="rgba(0,0,0,0.047)" stroke-width="10px" stroke-dashoffset="0" stroke-linejoin="round" stroke-miterlimit="10" /><path fill="none" d="M 253 147.5 L 408 147.5  408 213.5  253 213.5 z " stroke="rgba(0,0,0,0.047)" stroke-width="8px" stroke-dashoffset="0" stroke-linejoin="round" stroke-miterlimit="10" /><path fill="none" d="M 253 147.5 L 408 147.5  408 213.5  253 213.5 z " stroke="rgba(0,0,0,0.047)" stroke-width="6px" stroke-dashoffset="0" stroke-linejoin="round" stroke-miterlimit="10" /><path fill="none" d="M 253 147.5 L 408 147.5  408 213.5  253 213.5 z " stroke="rgba(0,0,0,0.055)" stroke-width="4px" stroke-dashoffset="0" stroke-linejoin="round" stroke-miterlimit="10" /><path fill="none" d="M 253 147.5 L 408 147.5  408 213.5  253 213.5 z " stroke="rgba(0,0,0,0.047)" stroke-width="2px" stroke-dashoffset="0" stroke-linejoin="round" stroke-miterlimit="10" /></g><rect x="252px" y="147px" width="155px" height="66px" fill="url(#fs5)" /><path d="M 407 168.5 C 329.5 168.5  252 168.5  252 185 L 252 146.5  407 146.5  407 168.5 z " fill="url(#fs6)" /><rect x="252px" y="147px" width="155px" height="66px" fill="none" stroke="#000000" stroke-width="1px" stroke-dashoffset="0" stroke-linejoin="round" stroke-miterlimit="10" /><g clip-path="url(#cp9)"><text x="261px" y="163.556243896484px" font-family="Verdana" font-size="9.599999pt" font-weight="bold" fill="#000000">ConcreteFlyweight</text><line x1="252px" y1="170px" x2="407px" y2="170px" stroke="#000000" stroke-width="1px" stroke-dashoffset="0" stroke-linejoin="round" stroke-miterlimit="10" /><line x1="252px" y1="180px" x2="407px" y2="180px" stroke="#000000" stroke-width="1px" stroke-dashoffset="0" stroke-linejoin="round" stroke-miterlimit="10" /><text x="255px" y="197.000625610352px" font-family="Verdana" font-size="8.639999pt" fill="#000000">+ statefulOperation ()</text></g></g><g transform="matrix(1 0 0 1 0 0)"><g clip-path="url(#cp10)"><rect x="450px" y="146px" width="238px" height="68px" fill="rgba(0,0,0,0.235)" /></g><g clip-path="url(#cp11)"><path fill="none" d="M 451 147.5 L 687 147.5  687 213.5  451 213.5 z " stroke="rgba(0,0,0,0.047)" stroke-width="10px" stroke-dashoffset="0" stroke-linejoin="round" stroke-miterlimit="10" /><path fill="none" d="M 451 147.5 L 687 147.5  687 213.5  451 213.5 z " stroke="rgba(0,0,0,0.047)" stroke-width="8px" stroke-dashoffset="0" stroke-linejoin="round" stroke-miterlimit="10" /><path fill="none" d="M 451 147.5 L 687 147.5  687 213.5  451 213.5 z " stroke="rgba(0,0,0,0.047)" stroke-width="6px" stroke-dashoffset="0" stroke-linejoin="round" stroke-miterlimit="10" /><path fill="none" d="M 451 147.5 L 687 147.5  687 213.5  451 213.5 z " stroke="rgba(0,0,0,0.055)" stroke-width="4px" stroke-dashoffset="0" stroke-linejoin="round" stroke-miterlimit="10" /><path fill="none" d="M 451 147.5 L 687 147.5  687 213.5  451 213.5 z " stroke="rgba(0,0,0,0.047)" stroke-width="2px" stroke-dashoffset="0" stroke-linejoin="round" stroke-miterlimit="10" /></g><rect x="450px" y="147px" width="236px" height="66px" fill="url(#fs7)" /><path d="M 686 168.5 C 568 168.5  450 168.5  450 185 L 450 146.5  686 146.5  686 168.5 z " fill="url(#fs8)" /><rect x="450px" y="147px" width="236px" height="66px" fill="none" stroke="#000000" stroke-width="1px" stroke-dashoffset="0" stroke-linejoin="round" stroke-miterlimit="10" /><g clip-path="url(#cp12)"><text x="464px" y="163.556243896484px" font-family="Verdana" font-size="9.599999pt" font-weight="bold" fill="#000000">UnsharedConcreteFlyweight</text><line x1="450px" y1="170px" x2="686px" y2="170px" stroke="#000000" stroke-width="1px" stroke-dashoffset="0" stroke-linejoin="round" stroke-miterlimit="10" /><line x1="450px" y1="180px" x2="686px" y2="180px" stroke="#000000" stroke-width="1px" stroke-dashoffset="0" stroke-linejoin="round" stroke-miterlimit="10" /><text x="453px" y="197.000625610352px" font-family="Verdana" font-size="8.639999pt" fill="#000000">+ statefulOperation ()</text></g></g><g transform="matrix(1 0 0 1 0 0)"><polyline points="382,147 382,83 " fill="none" stroke="#000000" stroke-width="1px" stroke-dashoffset="0" stroke-linejoin="round" stroke-miterlimit="10" /><polygon points="382,83 376,102 388,102 382,83 " fill="url(#fs9)" /><g clip-path="url(#cp13)"><path d="M 388.1803 89.34038 C 382 89.34038  375.8197 89.34038  375.8197 94.09566 L 375.8197 83  388.1803 83  388.1803 89.34038 z " fill="url(#fs10)" /></g><polygon fill="none" points="382,83 376,102 388,102 382,83 " stroke="#000000" stroke-width="1px" stroke-dashoffset="0" stroke-linejoin="round" stroke-miterlimit="10" /></g><g transform="matrix(1 0 0 1 0 0)"><polyline points="468,147 468,83 " fill="none" stroke="#000000" stroke-width="1px" stroke-dashoffset="0" stroke-linejoin="round" stroke-miterlimit="10" /><polygon points="468,83 462,102 474,102 468,83 " fill="url(#fs11)" /><g clip-path="url(#cp14)"><path d="M 474.1804 89.34038 C 468 89.34038  461.8196 89.34038  461.8196 94.09566 L 461.8196 83  474.1804 83  474.1804 89.34038 z " fill="url(#fs12)" /></g><polygon fill="none" points="468,83 462,102 474,102 468,83 " stroke="#000000" stroke-width="1px" stroke-dashoffset="0" stroke-linejoin="round" stroke-miterlimit="10" /></g><g transform="matrix(1 0 0 1 0 0)"><polyline points="241,30 321,30 " fill="none" stroke="#000000" stroke-width="1px" stroke-dashoffset="0" stroke-linejoin="round" stroke-miterlimit="10" /><polygon points="241,30 255,35 271,30 255,25 " fill="#FFFFFF" /><polygon fill="none" points="241,30 255,35 271,30 255,25 " stroke="#000000" stroke-width="1px" stroke-dashoffset="0" stroke-linejoin="round" stroke-miterlimit="10" /></g></svg>