<?xml version="1.0" encoding="utf-8" standalone="no"?><!DOCTYPE svg PUBLIC "-//W3C//DTD SVG 1.1//EN" "http://www.w3.org/Graphics/SVG/1.1/DTD/svg11.dtd"><svg width="1048px" height="460px" version="1.1" xmlns="http://www.w3.org/2000/svg"><desc /><defs><linearGradient id="fs1" x1="0.999999105930328px" y1="-3.31712811885154E-07px" x2="0.999998927116394px" y2="0.999999344348907px"><stop offset="0%" stop-color="#D3D3D3" stop-opacity="1" /><stop offset="100%" stop-color="#FFFFFF" stop-opacity="1" /></linearGradient><linearGradient id="fs2" x1="0.999998688697815px" y1="-8.47710509788158E-07px" x2="0.999998450279236px" y2="0.999999165534973px"><stop offset="0%" stop-color="#FFFFFF" stop-opacity="0.5490196" /><stop offset="100%" stop-color="#FFFFFF" stop-opacity="0.1568628" /></linearGradient><linearGradient id="fs3" x1="0.999998211860657px" y1="-6.4344288830398E-07px" x2="0.999997794628143px" y2="0.999999105930328px"><stop offset="0%" stop-color="#D3D3D3" stop-opacity="1" /><stop offset="100%" stop-color="#FFFFFF" stop-opacity="1" /></linearGradient><linearGradient id="fs4" x1="0.999998569488525px" y1="-1.11261999791168E-06px" x2="0.999998390674591px" y2="0.999998390674591px"><stop offset="0%" stop-color="#FFFFFF" stop-opacity="0.5490196" /><stop offset="100%" stop-color="#FFFFFF" stop-opacity="0.1568628" /></linearGradient><linearGradient id="fs5" x1="0.999998390674591px" y1="-2.94145320367534E-06px" x2="0.999997973442078px" y2="0.999997079372406px"><stop offset="0%" stop-color="#D3D3D3" stop-opacity="1" /><stop offset="100%" stop-color="#FFFFFF" stop-opacity="1" /></linearGradient><linearGradient id="fs6" x1="0.999997198581696px" y1="-6.35782862445922E-06px" x2="0.999996781349182px" y2="0.999993622303009px"><stop offset="0%" stop-color="#FFFFFF" stop-opacity="0.5490196" /><stop offset="100%" stop-color="#FFFFFF" stop-opacity="0.1568628" /></linearGradient><linearGradient id="fs7" x1="0.999996781349182px" y1="-3.67681673196785E-06px" x2="0.999995946884155px" y2="0.999995946884155px"><stop offset="0%" stop-color="#D3D3D3" stop-opacity="1" /><stop offset="100%" stop-color="#FFFFFF" stop-opacity="1" /></linearGradient><linearGradient id="fs8" x1="0.999997556209564px" y1="-6.35782862445922E-06px" x2="0.999997198581696px" y2="0.999993622303009px"><stop offset="0%" stop-color="#FFFFFF" stop-opacity="0.5490196" /><stop offset="100%" stop-color="#FFFFFF" stop-opacity="0.1568628" /></linearGradient><linearGradient id="fs9" x1="0.999999523162842px" y1="-2.60834013943168E-07px" x2="0.999999344348907px" y2="0.999999582767487px"><stop offset="0%" stop-color="#D3D3D3" stop-opacity="1" /><stop offset="100%" stop-color="#FFFFFF" stop-opacity="1" /></linearGradient><linearGradient id="fs10" x1="0.999999225139618px" y1="-4.48787915274806E-07px" x2="0.999998867511749px" y2="0.999999344348907px"><stop offset="0%" stop-color="#FFFFFF" stop-opacity="0.5490196" /><stop offset="100%" stop-color="#FFFFFF" stop-opacity="0.1568628" /></linearGradient><linearGradient id="fs11" x1="0.999998569488525px" y1="-2.31193780564354E-06px" x2="0.999998211860657px" y2="0.999997675418854px"><stop offset="0%" stop-color="#D3D3D3" stop-opacity="1" /><stop offset="100%" stop-color="#FFFFFF" stop-opacity="1" /></linearGradient><linearGradient id="fs12" x1="0.999998569488525px" y1="-6.42475333734183E-06px" x2="0.999998569488525px" y2="0.999993562698364px"><stop offset="0%" stop-color="#FFFFFF" stop-opacity="0.5490196" /><stop offset="100%" stop-color="#FFFFFF" stop-opacity="0.1568628" /></linearGradient><linearGradient id="fs13" x1="0.999998569488525px" y1="-4.16148805015837E-06px" x2="0.999998569488525px" y2="0.999995350837708px"><stop offset="0%" stop-color="#D3D3D3" stop-opacity="1" /><stop offset="100%" stop-color="#FFFFFF" stop-opacity="1" /></linearGradient><linearGradient id="fs14" x1="0.999998569488525px" y1="-1.36526005007909E-05px" x2="0.999998569488525px" y2="0.999986350536346px"><stop offset="0%" stop-color="#FFFFFF" stop-opacity="0.5490196" /><stop offset="100%" stop-color="#FFFFFF" stop-opacity="0.1568628" /></linearGradient><linearGradient id="fs15" x1="0.999998211860657px" y1="-4.62387561128708E-06px" x2="0.999997854232788px" y2="0.999994933605194px"><stop offset="0%" stop-color="#D3D3D3" stop-opacity="1" /><stop offset="100%" stop-color="#FFFFFF" stop-opacity="1" /></linearGradient><linearGradient id="fs16" x1="0.999735534191132px" y1="-1.28495066746837E-05px" x2="0.999725341796875px" y2="0.999987125396729px"><stop offset="0%" stop-color="#D3D3D3" stop-opacity="1" /><stop offset="100%" stop-color="#FFFFFF" stop-opacity="1" /></linearGradient><linearGradient id="fs17" x1="0.999776184558868px" y1="-2.49689273914555E-05px" x2="0.999766051769257px" y2="0.999975025653839px"><stop offset="0%" stop-color="#FFFFFF" stop-opacity="0.5490196" /><stop offset="100%" stop-color="#FFFFFF" stop-opacity="0.1568628" /></linearGradient><linearGradient id="fs18" x1="0.999430358409882px" y1="-1.28495066746837E-05px" x2="0.999420166015625px" y2="0.999987125396729px"><stop offset="0%" stop-color="#D3D3D3" stop-opacity="1" /><stop offset="100%" stop-color="#FFFFFF" stop-opacity="1" /></linearGradient><linearGradient id="fs19" x1="0.999821960926056px" y1="-2.49689273914555E-05px" x2="0.99981689453125px" y2="0.999975025653839px"><stop offset="0%" stop-color="#FFFFFF" stop-opacity="0.5490196" /><stop offset="100%" stop-color="#FFFFFF" stop-opacity="0.1568628" /></linearGradient><linearGradient id="fs20" x1="0.999970734119415px" y1="-1.44556952363928E-05px" x2="0.999968230724335px" y2="0.99998551607132px"><stop offset="0%" stop-color="#D3D3D3" stop-opacity="1" /><stop offset="100%" stop-color="#FFFFFF" stop-opacity="1" /></linearGradient><linearGradient id="fs21" x1="0.999969482421875px" y1="-3.60662270395551E-05px" x2="0.99996691942215px" y2="0.999963939189911px"><stop offset="0%" stop-color="#FFFFFF" stop-opacity="0.5490196" /><stop offset="100%" stop-color="#FFFFFF" stop-opacity="0.1568628" /></linearGradient><linearGradient id="fs22" x1="0.999951660633087px" y1="-1.60618837981019E-05px" x2="0.999946594238281px" y2="0.999983966350555px"><stop offset="0%" stop-color="#D3D3D3" stop-opacity="1" /><stop offset="100%" stop-color="#FFFFFF" stop-opacity="1" /></linearGradient><linearGradient id="fs23" x1="0.999913513660431px" y1="-3.60662270395551E-05px" x2="0.99991101026535px" y2="0.999963939189911px"><stop offset="0%" stop-color="#FFFFFF" stop-opacity="0.5490196" /><stop offset="100%" stop-color="#FFFFFF" stop-opacity="0.1568628" /></linearGradient><clipPath id="cp1"><path d="M 363 6 L 503 6  503 52  363 52 z " /></clipPath><clipPath id="cp2"><path d="M 363 6 L 503 6  503 52  363 52 z " /></clipPath><clipPath id="cp3"><path d="M 361 4 L 503 4  503 52  361 52 z " /></clipPath><clipPath id="cp4"><path d="M 555 126.5 L 858 126.5  858 209.5  555 209.5 z " /></clipPath><clipPath id="cp5"><path d="M 555 126.5 L 858 126.5  858 209.5  555 209.5 z " /></clipPath><clipPath id="cp6"><path d="M 553 124 L 858 124  858 209  553 209 z " /></clipPath><clipPath id="cp7"><path d="M 387 258.5 L 690 258.5  690 341.5  387 341.5 z " /></clipPath><clipPath id="cp8"><path d="M 387 258.5 L 690 258.5  690 341.5  387 341.5 z " /></clipPath><clipPath id="cp9"><path d="M 385 256 L 690 256  690 341  385 341 z " /></clipPath><clipPath id="cp10"><path d="M 730 258.5 L 1033 258.5  1033 341.5  730 341.5 z " /></clipPath><clipPath id="cp11"><path d="M 730 258.5 L 1033 258.5  1033 341.5  730 341.5 z " /></clipPath><clipPath id="cp12"><path d="M 728 256 L 1033 256  1033 341  728 341 z " /></clipPath><clipPath id="cp13"><path d="M 118 126.5 L 311 126.5  311 243.5  118 243.5 z " /></clipPath><clipPath id="cp14"><path d="M 118 126.5 L 311 126.5  311 243.5  118 243.5 z " /></clipPath><clipPath id="cp15"><path d="M 116 124 L 311 124  311 243  116 243 z " /></clipPath><clipPath id="cp16"><path d="M 130 285 L 299 285  299 351  130 351 z " /></clipPath><clipPath id="cp17"><path d="M 130 285 L 299 285  299 351  130 351 z " /></clipPath><clipPath id="cp18"><path d="M 128 283 L 299 283  299 351  128 351 z " /></clipPath><clipPath id="cp19"><path d="M 6 378.5 L 175 378.5  175 444.5  6 444.5 z " /></clipPath><clipPath id="cp20"><path d="M 6 378.5 L 175 378.5  175 444.5  6 444.5 z " /></clipPath><clipPath id="cp21"><path d="M 4 376 L 175 376  175 444  4 444 z " /></clipPath><clipPath id="cp22"><path d="M 232 378.5 L 401 378.5  401 444.5  232 444.5 z " /></clipPath><clipPath id="cp23"><path d="M 232 378.5 L 401 378.5  401 444.5  232 444.5 z " /></clipPath><clipPath id="cp24"><path d="M 230 376 L 401 376  401 444  230 444 z " /></clipPath><clipPath id="cp25"><path d="M 614 209 L 608 228  620 228 z " /></clipPath><clipPath id="cp26"><path d="M 789 209 L 782 228  794 228 z " /></clipPath><clipPath id="cp27"><path d="M 147 350 L 141 369  153 369 z " /></clipPath><clipPath id="cp28"><path d="M 257 350 L 251 369  263 369 z " /></clipPath></defs><g transform="matrix(1 0 0 1 0 0)"><g clip-path="url(#cp1)"><rect x="362px" y="5px" width="142px" height="48px" fill="rgba(0,0,0,0.235)" /></g><g clip-path="url(#cp2)"><path fill="none" d="M 363 6 L 503 6  503 52  363 52 z " stroke="rgba(0,0,0,0.047)" stroke-width="10px" stroke-dashoffset="0" stroke-linejoin="round" stroke-miterlimit="10" /><path fill="none" d="M 363 6 L 503 6  503 52  363 52 z " stroke="rgba(0,0,0,0.047)" stroke-width="8px" stroke-dashoffset="0" stroke-linejoin="round" stroke-miterlimit="10" /><path fill="none" d="M 363 6 L 503 6  503 52  363 52 z " stroke="rgba(0,0,0,0.047)" stroke-width="6px" stroke-dashoffset="0" stroke-linejoin="round" stroke-miterlimit="10" /><path fill="none" d="M 363 6 L 503 6  503 52  363 52 z " stroke="rgba(0,0,0,0.055)" stroke-width="4px" stroke-dashoffset="0" stroke-linejoin="round" stroke-miterlimit="10" /><path fill="none" d="M 363 6 L 503 6  503 52  363 52 z " stroke="rgba(0,0,0,0.047)" stroke-width="2px" stroke-dashoffset="0" stroke-linejoin="round" stroke-miterlimit="10" /></g><rect x="362px" y="5px" width="140px" height="46px" fill="url(#fs1)" /><path d="M 502 20.33333 C 432 20.33333  362 20.33333  362 31.83333 L 362 5  502 5  502 20.33333 z " fill="url(#fs2)" /><rect x="362px" y="5px" width="140px" height="46px" fill="none" stroke="#000000" stroke-width="1px" stroke-dashoffset="0" stroke-linejoin="round" stroke-miterlimit="10" /><g clip-path="url(#cp3)"><text x="412px" y="22.5562477111816px" font-family="Verdana" font-size="9.599999pt" font-weight="bold" fill="#000000">Client</text><line x1="362px" y1="29px" x2="502px" y2="29px" stroke="#000000" stroke-width="1px" stroke-dashoffset="0" stroke-linejoin="round" stroke-miterlimit="10" /><line x1="362px" y1="39px" x2="502px" y2="39px" stroke="#000000" stroke-width="1px" stroke-dashoffset="0" stroke-linejoin="round" stroke-miterlimit="10" /></g></g><g transform="matrix(1 0 0 1 0 0)"><g clip-path="url(#cp4)"><rect x="554px" y="126px" width="305px" height="85px" fill="rgba(0,0,0,0.235)" /></g><g clip-path="url(#cp5)"><path fill="none" d="M 555 126.5 L 858 126.5  858 209.5  555 209.5 z " stroke="rgba(0,0,0,0.047)" stroke-width="10px" stroke-dashoffset="0" stroke-linejoin="round" stroke-miterlimit="10" /><path fill="none" d="M 555 126.5 L 858 126.5  858 209.5  555 209.5 z " stroke="rgba(0,0,0,0.047)" stroke-width="8px" stroke-dashoffset="0" stroke-linejoin="round" stroke-miterlimit="10" /><path fill="none" d="M 555 126.5 L 858 126.5  858 209.5  555 209.5 z " stroke="rgba(0,0,0,0.047)" stroke-width="6px" stroke-dashoffset="0" stroke-linejoin="round" stroke-miterlimit="10" /><path fill="none" d="M 555 126.5 L 858 126.5  858 209.5  555 209.5 z " stroke="rgba(0,0,0,0.055)" stroke-width="4px" stroke-dashoffset="0" stroke-linejoin="round" stroke-miterlimit="10" /><path fill="none" d="M 555 126.5 L 858 126.5  858 209.5  555 209.5 z " stroke="rgba(0,0,0,0.047)" stroke-width="2px" stroke-dashoffset="0" stroke-linejoin="round" stroke-miterlimit="10" /></g><rect x="554px" y="125px" width="303px" height="83px" fill="url(#fs3)" /><path d="M 857 153.1667 C 705.5 153.1667  554 153.1667  554 173.9167 L 554 125.5  857 125.5  857 153.1667 z " fill="url(#fs4)" /><rect x="554px" y="125px" width="303px" height="83px" fill="none" stroke="#000000" stroke-width="1px" stroke-dashoffset="0" stroke-linejoin="round" stroke-miterlimit="10" /><g clip-path="url(#cp6)"><text x="682px" y="143.556243896484px" font-family="Verdana" font-size="9.599999pt" font-weight="bold" font-style="italic" fill="#000000">Visitor</text><line x1="554px" y1="149px" x2="857px" y2="149px" stroke="#000000" stroke-width="1px" stroke-dashoffset="0" stroke-linejoin="round" stroke-miterlimit="10" /><line x1="554px" y1="159px" x2="857px" y2="159px" stroke="#000000" stroke-width="1px" stroke-dashoffset="0" stroke-linejoin="round" stroke-miterlimit="10" /><text x="557px" y="176.000625610352px" font-family="Verdana" font-size="8.639999pt" font-style="italic" fill="#000000">+ visit (element : ConcreteElementA)</text><text x="557px" y="193.000625610352px" font-family="Verdana" font-size="8.639999pt" font-style="italic" fill="#000000">+ visit (element : ConcreteElementB)</text></g></g><g transform="matrix(1 0 0 1 0 0)"><g clip-path="url(#cp7)"><rect x="386px" y="258px" width="305px" height="85px" fill="rgba(0,0,0,0.235)" /></g><g clip-path="url(#cp8)"><path fill="none" d="M 387 258.5 L 690 258.5  690 341.5  387 341.5 z " stroke="rgba(0,0,0,0.047)" stroke-width="10px" stroke-dashoffset="0" stroke-linejoin="round" stroke-miterlimit="10" /><path fill="none" d="M 387 258.5 L 690 258.5  690 341.5  387 341.5 z " stroke="rgba(0,0,0,0.047)" stroke-width="8px" stroke-dashoffset="0" stroke-linejoin="round" stroke-miterlimit="10" /><path fill="none" d="M 387 258.5 L 690 258.5  690 341.5  387 341.5 z " stroke="rgba(0,0,0,0.047)" stroke-width="6px" stroke-dashoffset="0" stroke-linejoin="round" stroke-miterlimit="10" /><path fill="none" d="M 387 258.5 L 690 258.5  690 341.5  387 341.5 z " stroke="rgba(0,0,0,0.055)" stroke-width="4px" stroke-dashoffset="0" stroke-linejoin="round" stroke-miterlimit="10" /><path fill="none" d="M 387 258.5 L 690 258.5  690 341.5  387 341.5 z " stroke="rgba(0,0,0,0.047)" stroke-width="2px" stroke-dashoffset="0" stroke-linejoin="round" stroke-miterlimit="10" /></g><rect x="386px" y="257px" width="303px" height="83px" fill="url(#fs5)" /><path d="M 689 285.1667 C 537.5 285.1667  386 285.1667  386 305.9167 L 386 257.5  689 257.5  689 285.1667 z " fill="url(#fs6)" /><rect x="386px" y="257px" width="303px" height="83px" fill="none" stroke="#000000" stroke-width="1px" stroke-dashoffset="0" stroke-linejoin="round" stroke-miterlimit="10" /><g clip-path="url(#cp9)"><text x="476px" y="275.556243896484px" font-family="Verdana" font-size="9.599999pt" font-weight="bold" fill="#000000">ConcreteVisitorA</text><line x1="386px" y1="281px" x2="689px" y2="281px" stroke="#000000" stroke-width="1px" stroke-dashoffset="0" stroke-linejoin="round" stroke-miterlimit="10" /><line x1="386px" y1="291px" x2="689px" y2="291px" stroke="#000000" stroke-width="1px" stroke-dashoffset="0" stroke-linejoin="round" stroke-miterlimit="10" /><text x="389px" y="308.000610351563px" font-family="Verdana" font-size="8.639999pt" fill="#000000">+ visit (element : ConcreteElementA)</text><text x="389px" y="325.000610351563px" font-family="Verdana" font-size="8.639999pt" fill="#000000">+ visit (element : ConcreteElementB)</text></g></g><g transform="matrix(1 0 0 1 0 0)"><g clip-path="url(#cp10)"><rect x="729px" y="258px" width="305px" height="85px" fill="rgba(0,0,0,0.235)" /></g><g clip-path="url(#cp11)"><path fill="none" d="M 730 258.5 L 1033 258.5  1033 341.5  730 341.5 z " stroke="rgba(0,0,0,0.047)" stroke-width="10px" stroke-dashoffset="0" stroke-linejoin="round" stroke-miterlimit="10" /><path fill="none" d="M 730 258.5 L 1033 258.5  1033 341.5  730 341.5 z " stroke="rgba(0,0,0,0.047)" stroke-width="8px" stroke-dashoffset="0" stroke-linejoin="round" stroke-miterlimit="10" /><path fill="none" d="M 730 258.5 L 1033 258.5  1033 341.5  730 341.5 z " stroke="rgba(0,0,0,0.047)" stroke-width="6px" stroke-dashoffset="0" stroke-linejoin="round" stroke-miterlimit="10" /><path fill="none" d="M 730 258.5 L 1033 258.5  1033 341.5  730 341.5 z " stroke="rgba(0,0,0,0.055)" stroke-width="4px" stroke-dashoffset="0" stroke-linejoin="round" stroke-miterlimit="10" /><path fill="none" d="M 730 258.5 L 1033 258.5  1033 341.5  730 341.5 z " stroke="rgba(0,0,0,0.047)" stroke-width="2px" stroke-dashoffset="0" stroke-linejoin="round" stroke-miterlimit="10" /></g><rect x="729px" y="257px" width="303px" height="83px" fill="url(#fs7)" /><path d="M 1032 285.1667 C 880.5 285.1667  729 285.1667  729 305.9167 L 729 257.5  1032 257.5  1032 285.1667 z " fill="url(#fs8)" /><rect x="729px" y="257px" width="303px" height="83px" fill="none" stroke="#000000" stroke-width="1px" stroke-dashoffset="0" stroke-linejoin="round" stroke-miterlimit="10" /><g clip-path="url(#cp12)"><text x="819px" y="275.556243896484px" font-family="Verdana" font-size="9.599999pt" font-weight="bold" fill="#000000">ConcreteVisitorB</text><line x1="729px" y1="281px" x2="1032px" y2="281px" stroke="#000000" stroke-width="1px" stroke-dashoffset="0" stroke-linejoin="round" stroke-miterlimit="10" /><line x1="729px" y1="291px" x2="1032px" y2="291px" stroke="#000000" stroke-width="1px" stroke-dashoffset="0" stroke-linejoin="round" stroke-miterlimit="10" /><text x="732px" y="308.000610351563px" font-family="Verdana" font-size="8.639999pt" fill="#000000">+ visit (element : ConcreteElementA)</text><text x="732px" y="325.000610351563px" font-family="Verdana" font-size="8.639999pt" fill="#000000">+ visit (element : ConcreteElementB)</text></g></g><g transform="matrix(1 0 0 1 0 0)"><g clip-path="url(#cp13)"><rect x="117px" y="126px" width="195px" height="119px" fill="rgba(0,0,0,0.235)" /></g><g clip-path="url(#cp14)"><path fill="none" d="M 118 126.5 L 311 126.5  311 243.5  118 243.5 z " stroke="rgba(0,0,0,0.047)" stroke-width="10px" stroke-dashoffset="0" stroke-linejoin="round" stroke-miterlimit="10" /><path fill="none" d="M 118 126.5 L 311 126.5  311 243.5  118 243.5 z " stroke="rgba(0,0,0,0.047)" stroke-width="8px" stroke-dashoffset="0" stroke-linejoin="round" stroke-miterlimit="10" /><path fill="none" d="M 118 126.5 L 311 126.5  311 243.5  118 243.5 z " stroke="rgba(0,0,0,0.047)" stroke-width="6px" stroke-dashoffset="0" stroke-linejoin="round" stroke-miterlimit="10" /><path fill="none" d="M 118 126.5 L 311 126.5  311 243.5  118 243.5 z " stroke="rgba(0,0,0,0.055)" stroke-width="4px" stroke-dashoffset="0" stroke-linejoin="round" stroke-miterlimit="10" /><path fill="none" d="M 118 126.5 L 311 126.5  311 243.5  118 243.5 z " stroke="rgba(0,0,0,0.047)" stroke-width="2px" stroke-dashoffset="0" stroke-linejoin="round" stroke-miterlimit="10" /></g><rect x="117px" y="125px" width="193px" height="117px" fill="url(#fs9)" /><path d="M 310 164.5 C 213.5 164.5  117 164.5  117 193.75 L 117 125.5  310 125.5  310 164.5 z " fill="url(#fs10)" /><rect x="117px" y="125px" width="193px" height="117px" fill="none" stroke="#000000" stroke-width="1px" stroke-dashoffset="0" stroke-linejoin="round" stroke-miterlimit="10" /><g clip-path="url(#cp15)"><text x="155px" y="143.556243896484px" font-family="Verdana" font-size="9.599999pt" font-weight="bold" fill="#000000">ObjectStructure</text><line x1="117px" y1="149px" x2="310px" y2="149px" stroke="#000000" stroke-width="1px" stroke-dashoffset="0" stroke-linejoin="round" stroke-miterlimit="10" /><text x="120px" y="169.000625610352px" font-family="Verdana" font-size="8.639999pt" fill="#000000">- elements: Element[0..*]</text><line x1="117px" y1="176px" x2="310px" y2="176px" stroke="#000000" stroke-width="1px" stroke-dashoffset="0" stroke-linejoin="round" stroke-miterlimit="10" /><text x="120px" y="193.000625610352px" font-family="Verdana" font-size="8.639999pt" fill="#000000">+ attach (element : Element)</text><text x="120px" y="210.000625610352px" font-family="Verdana" font-size="8.639999pt" fill="#000000">+ detach (element : Element)</text><text x="120px" y="227.000625610352px" font-family="Verdana" font-size="8.639999pt" fill="#000000">+ accept (visitor : Visitor)</text></g></g><g transform="matrix(1 0 0 1 0 0)"><g clip-path="url(#cp16)"><rect x="129px" y="284px" width="171px" height="68px" fill="rgba(0,0,0,0.235)" /></g><g clip-path="url(#cp17)"><path fill="none" d="M 130 285 L 299 285  299 351  130 351 z " stroke="rgba(0,0,0,0.047)" stroke-width="10px" stroke-dashoffset="0" stroke-linejoin="round" stroke-miterlimit="10" /><path fill="none" d="M 130 285 L 299 285  299 351  130 351 z " stroke="rgba(0,0,0,0.047)" stroke-width="8px" stroke-dashoffset="0" stroke-linejoin="round" stroke-miterlimit="10" /><path fill="none" d="M 130 285 L 299 285  299 351  130 351 z " stroke="rgba(0,0,0,0.047)" stroke-width="6px" stroke-dashoffset="0" stroke-linejoin="round" stroke-miterlimit="10" /><path fill="none" d="M 130 285 L 299 285  299 351  130 351 z " stroke="rgba(0,0,0,0.055)" stroke-width="4px" stroke-dashoffset="0" stroke-linejoin="round" stroke-miterlimit="10" /><path fill="none" d="M 130 285 L 299 285  299 351  130 351 z " stroke="rgba(0,0,0,0.047)" stroke-width="2px" stroke-dashoffset="0" stroke-linejoin="round" stroke-miterlimit="10" /></g><rect x="129px" y="284px" width="169px" height="66px" fill="url(#fs11)" /><path d="M 298 306 C 213.5 306  129 306  129 322.5 L 129 284  298 284  298 306 z " fill="url(#fs12)" /><rect x="129px" y="284px" width="169px" height="66px" fill="none" stroke="#000000" stroke-width="1px" stroke-dashoffset="0" stroke-linejoin="round" stroke-miterlimit="10" /><g clip-path="url(#cp18)"><text x="184px" y="301.556243896484px" font-family="Verdana" font-size="9.599999pt" font-weight="bold" font-style="italic" fill="#000000">Element</text><line x1="129px" y1="308px" x2="298px" y2="308px" stroke="#000000" stroke-width="1px" stroke-dashoffset="0" stroke-linejoin="round" stroke-miterlimit="10" /><line x1="129px" y1="318px" x2="298px" y2="318px" stroke="#000000" stroke-width="1px" stroke-dashoffset="0" stroke-linejoin="round" stroke-miterlimit="10" /><text x="132px" y="335.000610351563px" font-family="Verdana" font-size="8.639999pt" font-style="italic" fill="#000000">+ accept (visitor : Visitor)</text></g></g><g transform="matrix(1 0 0 1 0 0)"><g clip-path="url(#cp19)"><rect x="5px" y="378px" width="171px" height="68px" fill="rgba(0,0,0,0.235)" /></g><g clip-path="url(#cp20)"><path fill="none" d="M 6 378.5 L 175 378.5  175 444.5  6 444.5 z " stroke="rgba(0,0,0,0.047)" stroke-width="10px" stroke-dashoffset="0" stroke-linejoin="round" stroke-miterlimit="10" /><path fill="none" d="M 6 378.5 L 175 378.5  175 444.5  6 444.5 z " stroke="rgba(0,0,0,0.047)" stroke-width="8px" stroke-dashoffset="0" stroke-linejoin="round" stroke-miterlimit="10" /><path fill="none" d="M 6 378.5 L 175 378.5  175 444.5  6 444.5 z " stroke="rgba(0,0,0,0.047)" stroke-width="6px" stroke-dashoffset="0" stroke-linejoin="round" stroke-miterlimit="10" /><path fill="none" d="M 6 378.5 L 175 378.5  175 444.5  6 444.5 z " stroke="rgba(0,0,0,0.055)" stroke-width="4px" stroke-dashoffset="0" stroke-linejoin="round" stroke-miterlimit="10" /><path fill="none" d="M 6 378.5 L 175 378.5  175 444.5  6 444.5 z " stroke="rgba(0,0,0,0.047)" stroke-width="2px" stroke-dashoffset="0" stroke-linejoin="round" stroke-miterlimit="10" /></g><rect x="5px" y="377px" width="169px" height="66px" fill="url(#fs13)" /><path d="M 174 399.5 C 89.5 399.5  5 399.5  5 416 L 5 377.5  174 377.5  174 399.5 z " fill="url(#fs14)" /><rect x="5px" y="377px" width="169px" height="66px" fill="none" stroke="#000000" stroke-width="1px" stroke-dashoffset="0" stroke-linejoin="round" stroke-miterlimit="10" /><g clip-path="url(#cp21)"><text x="22px" y="395.556243896484px" font-family="Verdana" font-size="9.599999pt" font-weight="bold" fill="#000000">ConcreteElementA</text><line x1="5px" y1="401px" x2="174px" y2="401px" stroke="#000000" stroke-width="1px" stroke-dashoffset="0" stroke-linejoin="round" stroke-miterlimit="10" /><line x1="5px" y1="411px" x2="174px" y2="411px" stroke="#000000" stroke-width="1px" stroke-dashoffset="0" stroke-linejoin="round" stroke-miterlimit="10" /><text x="8px" y="428.000610351563px" font-family="Verdana" font-size="8.639999pt" fill="#000000">+ accept (visitor : Visitor)</text></g></g><g transform="matrix(1 0 0 1 0 0)"><g clip-path="url(#cp22)"><rect x="231px" y="378px" width="171px" height="68px" fill="rgba(0,0,0,0.235)" /></g><g clip-path="url(#cp23)"><path fill="none" d="M 232 378.5 L 401 378.5  401 444.5  232 444.5 z " stroke="rgba(0,0,0,0.047)" stroke-width="10px" stroke-dashoffset="0" stroke-linejoin="round" stroke-miterlimit="10" /><path fill="none" d="M 232 378.5 L 401 378.5  401 444.5  232 444.5 z " stroke="rgba(0,0,0,0.047)" stroke-width="8px" stroke-dashoffset="0" stroke-linejoin="round" stroke-miterlimit="10" /><path fill="none" d="M 232 378.5 L 401 378.5  401 444.5  232 444.5 z " stroke="rgba(0,0,0,0.047)" stroke-width="6px" stroke-dashoffset="0" stroke-linejoin="round" stroke-miterlimit="10" /><path fill="none" d="M 232 378.5 L 401 378.5  401 444.5  232 444.5 z " stroke="rgba(0,0,0,0.055)" stroke-width="4px" stroke-dashoffset="0" stroke-linejoin="round" stroke-miterlimit="10" /><path fill="none" d="M 232 378.5 L 401 378.5  401 444.5  232 444.5 z " stroke="rgba(0,0,0,0.047)" stroke-width="2px" stroke-dashoffset="0" stroke-linejoin="round" stroke-miterlimit="10" /></g><rect x="231px" y="377px" width="169px" height="66px" fill="url(#fs15)" /><path d="M 400 399.5 C 315.5 399.5  231 399.5  231 416 L 231 377.5  400 377.5  400 399.5 z " fill="url(#fs14)" /><rect x="231px" y="377px" width="169px" height="66px" fill="none" stroke="#000000" stroke-width="1px" stroke-dashoffset="0" stroke-linejoin="round" stroke-miterlimit="10" /><g clip-path="url(#cp24)"><text x="248px" y="395.556243896484px" font-family="Verdana" font-size="9.599999pt" font-weight="bold" fill="#000000">ConcreteElementB</text><line x1="231px" y1="401px" x2="400px" y2="401px" stroke="#000000" stroke-width="1px" stroke-dashoffset="0" stroke-linejoin="round" stroke-miterlimit="10" /><line x1="231px" y1="411px" x2="400px" y2="411px" stroke="#000000" stroke-width="1px" stroke-dashoffset="0" stroke-linejoin="round" stroke-miterlimit="10" /><text x="234px" y="428.000610351563px" font-family="Verdana" font-size="8.639999pt" fill="#000000">+ accept (visitor : Visitor)</text></g></g><g transform="matrix(1 0 0 1 0 0)"><polyline points="502,28 708,28 708,125 " fill="none" stroke="#000000" stroke-width="1px" stroke-dashoffset="0" stroke-linejoin="round" stroke-miterlimit="10" /><polyline points="714,106 708,125 702,106 " fill="none" stroke="#000000" stroke-width="1px" stroke-dashoffset="0" stroke-linejoin="round" stroke-miterlimit="10" /></g><g transform="matrix(1 0 0 1 0 0)"><polyline points="362,27 208,27 208,125 " fill="none" stroke="#000000" stroke-width="1px" stroke-dashoffset="0" stroke-linejoin="round" stroke-miterlimit="10" /><polyline points="214,106 208,125 202,106 " fill="none" stroke="#000000" stroke-width="1px" stroke-dashoffset="0" stroke-linejoin="round" stroke-miterlimit="10" /></g><g transform="matrix(1 0 0 1 0 0)"><polyline points="614,257 614,209 " fill="none" stroke="#000000" stroke-width="1px" stroke-dashoffset="0" stroke-linejoin="round" stroke-miterlimit="10" /><polygon points="614,209 608,228 620,228 614,209 " fill="url(#fs16)" /><g clip-path="url(#cp25)"><path d="M 620.1804 215.3404 C 614 215.3404  607.8196 215.3404  607.8196 220.0957 L 607.8196 209  620.1804 209  620.1804 215.3404 z " fill="url(#fs17)" /></g><polygon fill="none" points="614,209 608,228 620,228 614,209 " stroke="#000000" stroke-width="1px" stroke-dashoffset="0" stroke-linejoin="round" stroke-miterlimit="10" /></g><g transform="matrix(1 0 0 1 0 0)"><polyline points="788,257 788,209 " fill="none" stroke="#000000" stroke-width="1px" stroke-dashoffset="0" stroke-linejoin="round" stroke-miterlimit="10" /><polygon points="789,209 782,228 794,228 789,209 " fill="url(#fs18)" /><g clip-path="url(#cp26)"><path d="M 794.1804 215.3404 C 788 215.3404  781.8196 215.3404  781.8196 220.0957 L 781.8196 209  794.1804 209  794.1804 215.3404 z " fill="url(#fs19)" /></g><polygon fill="none" points="789,209 782,228 794,228 789,209 " stroke="#000000" stroke-width="1px" stroke-dashoffset="0" stroke-linejoin="round" stroke-miterlimit="10" /></g><g transform="matrix(1 0 0 1 0 0)"><polyline points="213,243 213,284 " fill="none" stroke="#000000" stroke-width="1px" stroke-dashoffset="0" stroke-linejoin="round" stroke-miterlimit="10" /><polygon points="213,243 208,257 213,273 218,257 " fill="#FFFFFF" /><polygon fill="none" points="213,243 208,257 213,273 218,257 " stroke="#000000" stroke-width="1px" stroke-dashoffset="0" stroke-linejoin="round" stroke-miterlimit="10" /></g><g transform="matrix(1 0 0 1 0 0)"><polyline points="147,377 147,350 " fill="none" stroke="#000000" stroke-width="1px" stroke-dashoffset="0" stroke-linejoin="round" stroke-miterlimit="10" /><polygon points="147,350 141,369 153,369 147,350 " fill="url(#fs20)" /><g clip-path="url(#cp27)"><path d="M 153.1803 356.3404 C 147 356.3404  140.8197 356.3404  140.8197 361.0956 L 140.8197 350  153.1803 350  153.1803 356.3404 z " fill="url(#fs21)" /></g><polygon fill="none" points="147,350 141,369 153,369 147,350 " stroke="#000000" stroke-width="1px" stroke-dashoffset="0" stroke-linejoin="round" stroke-miterlimit="10" /></g><g transform="matrix(1 0 0 1 0 0)"><polyline points="257,377 257,350 " fill="none" stroke="#000000" stroke-width="1px" stroke-dashoffset="0" stroke-linejoin="round" stroke-miterlimit="10" /><polygon points="257,350 251,369 263,369 257,350 " fill="url(#fs22)" /><g clip-path="url(#cp28)"><path d="M 263.1803 356.3404 C 257 356.3404  250.8197 356.3404  250.8197 361.0956 L 250.8197 350  263.1803 350  263.1803 356.3404 z " fill="url(#fs23)" /></g><polygon fill="none" points="257,350 251,369 263,369 257,350 " stroke="#000000" stroke-width="1px" stroke-dashoffset="0" stroke-linejoin="round" stroke-miterlimit="10" /></g></svg>