<?xml version="1.0" encoding="utf-8" standalone="no"?><!DOCTYPE svg PUBLIC "-//W3C//DTD SVG 1.1//EN" "http://www.w3.org/Graphics/SVG/1.1/DTD/svg11.dtd"><svg width="399px" height="202px" version="1.1" xmlns="http://www.w3.org/2000/svg"><desc /><defs><linearGradient id="fs1" x1="0.999999582767487px" y1="-1.46719131066675E-07px" x2="0.999999105930328px" y2="0.999999701976776px"><stop offset="0%" stop-color="#D3D3D3" stop-opacity="1" /><stop offset="100%" stop-color="#FFFFFF" stop-opacity="1" /></linearGradient><linearGradient id="fs2" x1="0.999999582767487px" y1="-1.90734866123421E-07px" x2="0.999999344348907px" y2="0.999999642372131px"><stop offset="0%" stop-color="#FFFFFF" stop-opacity="0.5490196" /><stop offset="100%" stop-color="#FFFFFF" stop-opacity="0.1568628" /></linearGradient><linearGradient id="fs3" x1="0.999999463558197px" y1="-5.77984451410885E-07px" x2="0.999999463558197px" y2="0.999999284744263px"><stop offset="0%" stop-color="#D3D3D3" stop-opacity="1" /><stop offset="100%" stop-color="#FFFFFF" stop-opacity="1" /></linearGradient><linearGradient id="fs4" x1="0.999998867511749px" y1="-1.40541476412182E-06px" x2="0.999998867511749px" y2="0.999998390674591px"><stop offset="0%" stop-color="#FFFFFF" stop-opacity="0.5490196" /><stop offset="100%" stop-color="#FFFFFF" stop-opacity="0.1568628" /></linearGradient><linearGradient id="fs5" x1="0.999998867511749px" y1="-6.93581341693061E-07px" x2="0.999998509883881px" y2="0.999999046325684px"><stop offset="0%" stop-color="#D3D3D3" stop-opacity="1" /><stop offset="100%" stop-color="#FFFFFF" stop-opacity="1" /></linearGradient><linearGradient id="fs6" x1="0.999998509883881px" y1="-1.40541476412182E-06px" x2="0.999998509883881px" y2="0.999998390674591px"><stop offset="0%" stop-color="#FFFFFF" stop-opacity="0.5490196" /><stop offset="100%" stop-color="#FFFFFF" stop-opacity="0.1568628" /></linearGradient><linearGradient id="fs7" x1="0.999982178211212px" y1="-2.40928238781635E-06px" x2="0.999980926513672px" y2="0.999997615814209px"><stop offset="0%" stop-color="#D3D3D3" stop-opacity="1" /><stop offset="100%" stop-color="#FFFFFF" stop-opacity="1" /></linearGradient><linearGradient id="fs8" x1="0.999984741210938px" y1="-4.85506916447775E-06px" x2="0.999983489513397px" y2="0.999995172023773px"><stop offset="0%" stop-color="#FFFFFF" stop-opacity="0.5490196" /><stop offset="100%" stop-color="#FFFFFF" stop-opacity="0.1568628" /></linearGradient><linearGradient id="fs9" x1="0.999955475330353px" y1="-4.81856477563269E-06px" x2="0.999952971935272px" y2="0.999995172023773px"><stop offset="0%" stop-color="#D3D3D3" stop-opacity="1" /><stop offset="100%" stop-color="#FFFFFF" stop-opacity="1" /></linearGradient><linearGradient id="fs10" x1="0.999961853027344px" y1="-4.16148805015837E-06px" x2="0.999959290027618px" y2="0.999995827674866px"><stop offset="0%" stop-color="#FFFFFF" stop-opacity="0.5490196" /><stop offset="100%" stop-color="#FFFFFF" stop-opacity="0.1568628" /></linearGradient><clipPath id="cp1"><path d="M 123 6 L 263 6  263 58  123 58 z " /></clipPath><clipPath id="cp2"><path d="M 123 6 L 263 6  263 58  123 58 z " /></clipPath><clipPath id="cp3"><path d="M 121 4 L 263 4  263 58  121 58 z " /></clipPath><clipPath id="cp4"><path d="M 6 121 L 172 121  172 187  6 187 z " /></clipPath><clipPath id="cp5"><path d="M 6 121 L 172 121  172 187  6 187 z " /></clipPath><clipPath id="cp6"><path d="M 4 119 L 172 119  172 187  4 187 z " /></clipPath><clipPath id="cp7"><path d="M 218 121 L 384 121  384 187  218 187 z " /></clipPath><clipPath id="cp8"><path d="M 218 121 L 384 121  384 187  218 187 z " /></clipPath><clipPath id="cp9"><path d="M 216 119 L 384 119  384 187  216 187 z " /></clipPath><clipPath id="cp10"><path d="M 149 57 L 143 76  155 76 z " /></clipPath><clipPath id="cp11"><path d="M 237 57 L 231 76  243 76 z " /></clipPath></defs><g transform="matrix(1 0 0 1 0 0)"><g clip-path="url(#cp1)"><rect x="122px" y="5px" width="142px" height="54px" fill="rgba(0,0,0,0.235)" /></g><g clip-path="url(#cp2)"><path fill="none" d="M 123 6 L 263 6  263 58  123 58 z " stroke="rgba(0,0,0,0.047)" stroke-width="10px" stroke-dashoffset="0" stroke-linejoin="round" stroke-miterlimit="10" /><path fill="none" d="M 123 6 L 263 6  263 58  123 58 z " stroke="rgba(0,0,0,0.047)" stroke-width="8px" stroke-dashoffset="0" stroke-linejoin="round" stroke-miterlimit="10" /><path fill="none" d="M 123 6 L 263 6  263 58  123 58 z " stroke="rgba(0,0,0,0.047)" stroke-width="6px" stroke-dashoffset="0" stroke-linejoin="round" stroke-miterlimit="10" /><path fill="none" d="M 123 6 L 263 6  263 58  123 58 z " stroke="rgba(0,0,0,0.055)" stroke-width="4px" stroke-dashoffset="0" stroke-linejoin="round" stroke-miterlimit="10" /><path fill="none" d="M 123 6 L 263 6  263 58  123 58 z " stroke="rgba(0,0,0,0.047)" stroke-width="2px" stroke-dashoffset="0" stroke-linejoin="round" stroke-miterlimit="10" /></g><rect x="122px" y="5px" width="140px" height="52px" fill="url(#fs1)" /><path d="M 262 22.33333 C 192 22.33333  122 22.33333  122 35.33333 L 122 5  262 5  262 22.33333 z " fill="url(#fs2)" /><rect x="122px" y="5px" width="140px" height="52px" fill="none" stroke="#000000" stroke-width="1px" stroke-dashoffset="0" stroke-linejoin="round" stroke-miterlimit="10" /><g clip-path="url(#cp3)"><text x="155px" y="22.5562477111816px" font-family="Verdana" font-size="9.599999pt" font-weight="bold" font-style="italic" fill="#000000">Prototype</text><line x1="122px" y1="29px" x2="262px" y2="29px" stroke="#000000" stroke-width="1px" stroke-dashoffset="0" stroke-linejoin="round" stroke-miterlimit="10" /><line x1="122px" y1="39px" x2="262px" y2="39px" stroke="#000000" stroke-width="1px" stroke-dashoffset="0" stroke-linejoin="round" stroke-miterlimit="10" /><text x="125px" y="56.0006217956543px" font-family="Verdana" font-size="8.639999pt" font-style="italic" fill="#000000">+ clone (): Prototype</text></g></g><g transform="matrix(1 0 0 1 0 0)"><g clip-path="url(#cp4)"><rect x="5px" y="120px" width="168px" height="68px" fill="rgba(0,0,0,0.235)" /></g><g clip-path="url(#cp5)"><path fill="none" d="M 6 121 L 172 121  172 187  6 187 z " stroke="rgba(0,0,0,0.047)" stroke-width="10px" stroke-dashoffset="0" stroke-linejoin="round" stroke-miterlimit="10" /><path fill="none" d="M 6 121 L 172 121  172 187  6 187 z " stroke="rgba(0,0,0,0.047)" stroke-width="8px" stroke-dashoffset="0" stroke-linejoin="round" stroke-miterlimit="10" /><path fill="none" d="M 6 121 L 172 121  172 187  6 187 z " stroke="rgba(0,0,0,0.047)" stroke-width="6px" stroke-dashoffset="0" stroke-linejoin="round" stroke-miterlimit="10" /><path fill="none" d="M 6 121 L 172 121  172 187  6 187 z " stroke="rgba(0,0,0,0.055)" stroke-width="4px" stroke-dashoffset="0" stroke-linejoin="round" stroke-miterlimit="10" /><path fill="none" d="M 6 121 L 172 121  172 187  6 187 z " stroke="rgba(0,0,0,0.047)" stroke-width="2px" stroke-dashoffset="0" stroke-linejoin="round" stroke-miterlimit="10" /></g><rect x="5px" y="120px" width="166px" height="66px" fill="url(#fs3)" /><path d="M 171 142 C 88 142  5 142  5 158.5 L 5 120  171 120  171 142 z " fill="url(#fs4)" /><rect x="5px" y="120px" width="166px" height="66px" fill="none" stroke="#000000" stroke-width="1px" stroke-dashoffset="0" stroke-linejoin="round" stroke-miterlimit="10" /><g clip-path="url(#cp6)"><text x="13px" y="137.556243896484px" font-family="Verdana" font-size="9.599999pt" font-weight="bold" fill="#000000">ConcretePrototypeA</text><line x1="5px" y1="144px" x2="171px" y2="144px" stroke="#000000" stroke-width="1px" stroke-dashoffset="0" stroke-linejoin="round" stroke-miterlimit="10" /><line x1="5px" y1="154px" x2="171px" y2="154px" stroke="#000000" stroke-width="1px" stroke-dashoffset="0" stroke-linejoin="round" stroke-miterlimit="10" /><text x="8px" y="171.000625610352px" font-family="Verdana" font-size="8.639999pt" fill="#000000">+ clone (): Prototype</text></g></g><g transform="matrix(1 0 0 1 0 0)"><g clip-path="url(#cp7)"><rect x="217px" y="120px" width="168px" height="68px" fill="rgba(0,0,0,0.235)" /></g><g clip-path="url(#cp8)"><path fill="none" d="M 218 121 L 384 121  384 187  218 187 z " stroke="rgba(0,0,0,0.047)" stroke-width="10px" stroke-dashoffset="0" stroke-linejoin="round" stroke-miterlimit="10" /><path fill="none" d="M 218 121 L 384 121  384 187  218 187 z " stroke="rgba(0,0,0,0.047)" stroke-width="8px" stroke-dashoffset="0" stroke-linejoin="round" stroke-miterlimit="10" /><path fill="none" d="M 218 121 L 384 121  384 187  218 187 z " stroke="rgba(0,0,0,0.047)" stroke-width="6px" stroke-dashoffset="0" stroke-linejoin="round" stroke-miterlimit="10" /><path fill="none" d="M 218 121 L 384 121  384 187  218 187 z " stroke="rgba(0,0,0,0.055)" stroke-width="4px" stroke-dashoffset="0" stroke-linejoin="round" stroke-miterlimit="10" /><path fill="none" d="M 218 121 L 384 121  384 187  218 187 z " stroke="rgba(0,0,0,0.047)" stroke-width="2px" stroke-dashoffset="0" stroke-linejoin="round" stroke-miterlimit="10" /></g><rect x="217px" y="120px" width="166px" height="66px" fill="url(#fs5)" /><path d="M 383 142 C 300 142  217 142  217 158.5 L 217 120  383 120  383 142 z " fill="url(#fs6)" /><rect x="217px" y="120px" width="166px" height="66px" fill="none" stroke="#000000" stroke-width="1px" stroke-dashoffset="0" stroke-linejoin="round" stroke-miterlimit="10" /><g clip-path="url(#cp9)"><text x="225px" y="137.556243896484px" font-family="Verdana" font-size="9.599999pt" font-weight="bold" fill="#000000">ConcretePrototypeB</text><line x1="217px" y1="144px" x2="383px" y2="144px" stroke="#000000" stroke-width="1px" stroke-dashoffset="0" stroke-linejoin="round" stroke-miterlimit="10" /><line x1="217px" y1="154px" x2="383px" y2="154px" stroke="#000000" stroke-width="1px" stroke-dashoffset="0" stroke-linejoin="round" stroke-miterlimit="10" /><text x="220px" y="171.000625610352px" font-family="Verdana" font-size="8.639999pt" fill="#000000">+ clone (): Prototype</text></g></g><g transform="matrix(1 0 0 1 0 0)"><polyline points="150,120 149,57 " fill="none" stroke="#000000" stroke-width="1px" stroke-dashoffset="0" stroke-linejoin="round" stroke-miterlimit="10" /><polygon points="149,57 143,76 155,76 149,57 " fill="url(#fs7)" /><g clip-path="url(#cp10)"><path d="M 155.4814 63.37227 C 149.3019 63.37227  143.1223 63.37227  143.1223 68.15147 L 143.1223 57  155.4814 57  155.4814 63.37227 z " fill="url(#fs8)" /></g><polygon fill="none" points="149,57 143,76 155,76 149,57 " stroke="#000000" stroke-width="1px" stroke-dashoffset="0" stroke-linejoin="round" stroke-miterlimit="10" /></g><g transform="matrix(1 0 0 1 0 0)"><polyline points="237,120 237,57 " fill="none" stroke="#000000" stroke-width="1px" stroke-dashoffset="0" stroke-linejoin="round" stroke-miterlimit="10" /><polygon points="237,57 231,76 243,76 237,57 " fill="url(#fs9)" /><g clip-path="url(#cp11)"><path d="M 243.1803 63.34037 C 237 63.34037  230.8197 63.34037  230.8197 68.09566 L 230.8197 57  243.1803 57  243.1803 63.34037 z " fill="url(#fs10)" /></g><polygon fill="none" points="237,57 231,76 243,76 237,57 " stroke="#000000" stroke-width="1px" stroke-dashoffset="0" stroke-linejoin="round" stroke-miterlimit="10" /></g></svg>