<?xml version="1.0" encoding="utf-8" standalone="no"?><!DOCTYPE svg PUBLIC "-//W3C//DTD SVG 1.1//EN" "http://www.w3.org/Graphics/SVG/1.1/DTD/svg11.dtd"><svg width="390px" height="200px" version="1.1" xmlns="http://www.w3.org/2000/svg"><desc /><defs><linearGradient id="fs1" x1="0.999999344348907px" y1="-1.73395335423265E-07px" x2="0.999998927116394px" y2="0.999999642372131px"><stop offset="0%" stop-color="#D3D3D3" stop-opacity="1" /><stop offset="100%" stop-color="#FFFFFF" stop-opacity="1" /></linearGradient><linearGradient id="fs2" x1="0.999999582767487px" y1="-2.50966934345342E-07px" x2="0.999999105930328px" y2="0.999999284744263px"><stop offset="0%" stop-color="#FFFFFF" stop-opacity="0.5490196" /><stop offset="100%" stop-color="#FFFFFF" stop-opacity="0.1568628" /></linearGradient><linearGradient id="fs3" x1="0.999998688697815px" y1="-9.88995566331141E-07px" x2="0.999998271465302px" y2="0.999998569488525px"><stop offset="0%" stop-color="#D3D3D3" stop-opacity="1" /><stop offset="100%" stop-color="#FFFFFF" stop-opacity="1" /></linearGradient><linearGradient id="fs4" x1="0.999999105930328px" y1="-1.9073486328125E-06px" x2="0.999998927116394px" y2="0.999997615814209px"><stop offset="0%" stop-color="#FFFFFF" stop-opacity="0.5490196" /><stop offset="100%" stop-color="#FFFFFF" stop-opacity="0.1568628" /></linearGradient><linearGradient id="fs5" x1="0.999999642372131px" y1="-3.01160298477043E-07px" x2="0.999999523162842px" y2="0.999999403953552px"><stop offset="0%" stop-color="#D3D3D3" stop-opacity="1" /><stop offset="100%" stop-color="#FFFFFF" stop-opacity="1" /></linearGradient><linearGradient id="fs6" x1="0.999999284744263px" y1="-6.93581341693061E-07px" x2="0.999999284744263px" y2="0.999998986721039px"><stop offset="0%" stop-color="#FFFFFF" stop-opacity="0.5490196" /><stop offset="100%" stop-color="#FFFFFF" stop-opacity="0.1568628" /></linearGradient><linearGradient id="fs7" x1="0.999982178211212px" y1="-3.21237666867091E-06px" x2="0.999980926513672px" y2="0.999996781349182px"><stop offset="0%" stop-color="#D3D3D3" stop-opacity="1" /><stop offset="100%" stop-color="#FFFFFF" stop-opacity="1" /></linearGradient><linearGradient id="fs8" x1="0.999985992908478px" y1="-5.54865073354449E-06px" x2="0.999983489513397px" y2="0.999994456768036px"><stop offset="0%" stop-color="#FFFFFF" stop-opacity="0.5490196" /><stop offset="100%" stop-color="#FFFFFF" stop-opacity="0.1568628" /></linearGradient><linearGradient id="fs9" x1="0.999952971935272px" y1="-4.81856477563269E-06px" x2="0.999950408935547px" y2="0.999995172023773px"><stop offset="0%" stop-color="#D3D3D3" stop-opacity="1" /><stop offset="100%" stop-color="#FFFFFF" stop-opacity="1" /></linearGradient><linearGradient id="fs10" x1="0.999959290027618px" y1="-5.54865073354449E-06px" x2="0.999958038330078px" y2="0.999994456768036px"><stop offset="0%" stop-color="#FFFFFF" stop-opacity="0.5490196" /><stop offset="100%" stop-color="#FFFFFF" stop-opacity="0.1568628" /></linearGradient><clipPath id="cp1"><path d="M 127 6 L 267 6  267 72  127 72 z " /></clipPath><clipPath id="cp2"><path d="M 127 6 L 267 6  267 72  127 72 z " /></clipPath><clipPath id="cp3"><path d="M 125 4 L 267 4  267 72  125 72 z " /></clipPath><clipPath id="cp4"><path d="M 235 109 L 375 109  375 163  235 163 z " /></clipPath><clipPath id="cp5"><path d="M 235 109 L 375 109  375 163  235 163 z " /></clipPath><clipPath id="cp6"><path d="M 233 107 L 375 107  375 163  233 163 z " /></clipPath><clipPath id="cp7"><path d="M 6 109 L 176 109  176 185  6 185 z " /></clipPath><clipPath id="cp8"><path d="M 6 109 L 176 109  176 185  6 185 z " /></clipPath><clipPath id="cp9"><path d="M 4 107 L 176 107  176 185  4 185 z " /></clipPath><clipPath id="cp10"><path d="M 148 71 L 142 90  154 90 z " /></clipPath><clipPath id="cp11"><path d="M 250 71 L 244 90  256 90 z " /></clipPath></defs><g transform="matrix(1 0 0 1 0 0)"><g clip-path="url(#cp1)"><rect x="126px" y="5px" width="142px" height="68px" fill="rgba(0,0,0,0.235)" /></g><g clip-path="url(#cp2)"><path fill="none" d="M 127 6 L 267 6  267 72  127 72 z " stroke="rgba(0,0,0,0.047)" stroke-width="10px" stroke-dashoffset="0" stroke-linejoin="round" stroke-miterlimit="10" /><path fill="none" d="M 127 6 L 267 6  267 72  127 72 z " stroke="rgba(0,0,0,0.047)" stroke-width="8px" stroke-dashoffset="0" stroke-linejoin="round" stroke-miterlimit="10" /><path fill="none" d="M 127 6 L 267 6  267 72  127 72 z " stroke="rgba(0,0,0,0.047)" stroke-width="6px" stroke-dashoffset="0" stroke-linejoin="round" stroke-miterlimit="10" /><path fill="none" d="M 127 6 L 267 6  267 72  127 72 z " stroke="rgba(0,0,0,0.055)" stroke-width="4px" stroke-dashoffset="0" stroke-linejoin="round" stroke-miterlimit="10" /><path fill="none" d="M 127 6 L 267 6  267 72  127 72 z " stroke="rgba(0,0,0,0.047)" stroke-width="2px" stroke-dashoffset="0" stroke-linejoin="round" stroke-miterlimit="10" /></g><rect x="126px" y="5px" width="140px" height="66px" fill="url(#fs1)" /><path d="M 266 27 C 196 27  126 27  126 43.5 L 126 5  266 5  266 27 z " fill="url(#fs2)" /><rect x="126px" y="5px" width="140px" height="66px" fill="none" stroke="#000000" stroke-width="1px" stroke-dashoffset="0" stroke-linejoin="round" stroke-miterlimit="10" /><g clip-path="url(#cp3)"><text x="169px" y="22.5562477111816px" font-family="Verdana" font-size="9.599999pt" font-weight="bold" font-style="italic" fill="#000000">Subject</text><line x1="126px" y1="29px" x2="266px" y2="29px" stroke="#000000" stroke-width="1px" stroke-dashoffset="0" stroke-linejoin="round" stroke-miterlimit="10" /><line x1="126px" y1="39px" x2="266px" y2="39px" stroke="#000000" stroke-width="1px" stroke-dashoffset="0" stroke-linejoin="round" stroke-miterlimit="10" /><text x="129px" y="56.0006217956543px" font-family="Verdana" font-size="8.639999pt" font-style="italic" fill="#000000">+ performAction ()</text></g></g><g transform="matrix(1 0 0 1 0 0)"><g clip-path="url(#cp4)"><rect x="234px" y="108px" width="142px" height="56px" fill="rgba(0,0,0,0.235)" /></g><g clip-path="url(#cp5)"><path fill="none" d="M 235 109 L 375 109  375 163  235 163 z " stroke="rgba(0,0,0,0.047)" stroke-width="10px" stroke-dashoffset="0" stroke-linejoin="round" stroke-miterlimit="10" /><path fill="none" d="M 235 109 L 375 109  375 163  235 163 z " stroke="rgba(0,0,0,0.047)" stroke-width="8px" stroke-dashoffset="0" stroke-linejoin="round" stroke-miterlimit="10" /><path fill="none" d="M 235 109 L 375 109  375 163  235 163 z " stroke="rgba(0,0,0,0.047)" stroke-width="6px" stroke-dashoffset="0" stroke-linejoin="round" stroke-miterlimit="10" /><path fill="none" d="M 235 109 L 375 109  375 163  235 163 z " stroke="rgba(0,0,0,0.055)" stroke-width="4px" stroke-dashoffset="0" stroke-linejoin="round" stroke-miterlimit="10" /><path fill="none" d="M 235 109 L 375 109  375 163  235 163 z " stroke="rgba(0,0,0,0.047)" stroke-width="2px" stroke-dashoffset="0" stroke-linejoin="round" stroke-miterlimit="10" /></g><rect x="234px" y="108px" width="140px" height="54px" fill="url(#fs3)" /><path d="M 374 126 C 304 126  234 126  234 139.5 L 234 108  374 108  374 126 z " fill="url(#fs4)" /><rect x="234px" y="108px" width="140px" height="54px" fill="none" stroke="#000000" stroke-width="1px" stroke-dashoffset="0" stroke-linejoin="round" stroke-miterlimit="10" /><g clip-path="url(#cp6)"><text x="261px" y="125.556243896484px" font-family="Verdana" font-size="9.599999pt" font-weight="bold" fill="#000000">RealSubject</text><line x1="234px" y1="132px" x2="374px" y2="132px" stroke="#000000" stroke-width="1px" stroke-dashoffset="0" stroke-linejoin="round" stroke-miterlimit="10" /><line x1="234px" y1="142px" x2="374px" y2="142px" stroke="#000000" stroke-width="1px" stroke-dashoffset="0" stroke-linejoin="round" stroke-miterlimit="10" /><text x="237px" y="159.000625610352px" font-family="Verdana" font-size="8.639999pt" fill="#000000">+ performAction ()</text></g></g><g transform="matrix(1 0 0 1 0 0)"><g clip-path="url(#cp7)"><rect x="5px" y="108px" width="172px" height="78px" fill="rgba(0,0,0,0.235)" /></g><g clip-path="url(#cp8)"><path fill="none" d="M 6 109 L 176 109  176 185  6 185 z " stroke="rgba(0,0,0,0.047)" stroke-width="10px" stroke-dashoffset="0" stroke-linejoin="round" stroke-miterlimit="10" /><path fill="none" d="M 6 109 L 176 109  176 185  6 185 z " stroke="rgba(0,0,0,0.047)" stroke-width="8px" stroke-dashoffset="0" stroke-linejoin="round" stroke-miterlimit="10" /><path fill="none" d="M 6 109 L 176 109  176 185  6 185 z " stroke="rgba(0,0,0,0.047)" stroke-width="6px" stroke-dashoffset="0" stroke-linejoin="round" stroke-miterlimit="10" /><path fill="none" d="M 6 109 L 176 109  176 185  6 185 z " stroke="rgba(0,0,0,0.055)" stroke-width="4px" stroke-dashoffset="0" stroke-linejoin="round" stroke-miterlimit="10" /><path fill="none" d="M 6 109 L 176 109  176 185  6 185 z " stroke="rgba(0,0,0,0.047)" stroke-width="2px" stroke-dashoffset="0" stroke-linejoin="round" stroke-miterlimit="10" /></g><rect x="5px" y="108px" width="170px" height="76px" fill="url(#fs5)" /><path d="M 175 133.3333 C 90 133.3333  5 133.3333  5 152.3333 L 5 108  175 108  175 133.3333 z " fill="url(#fs6)" /><rect x="5px" y="108px" width="170px" height="76px" fill="none" stroke="#000000" stroke-width="1px" stroke-dashoffset="0" stroke-linejoin="round" stroke-miterlimit="10" /><g clip-path="url(#cp9)"><text x="68px" y="125.556243896484px" font-family="Verdana" font-size="9.599999pt" font-weight="bold" fill="#000000">Proxy</text><line x1="5px" y1="132px" x2="175px" y2="132px" stroke="#000000" stroke-width="1px" stroke-dashoffset="0" stroke-linejoin="round" stroke-miterlimit="10" /><text x="8px" y="152.000625610352px" font-family="Verdana" font-size="8.639999pt" fill="#000000">- realSubject: RealSubject</text><line x1="5px" y1="159px" x2="175px" y2="159px" stroke="#000000" stroke-width="1px" stroke-dashoffset="0" stroke-linejoin="round" stroke-miterlimit="10" /><text x="8px" y="176.000625610352px" font-family="Verdana" font-size="8.639999pt" fill="#000000">+ performAction ()</text></g></g><g transform="matrix(1 0 0 1 0 0)"><polyline points="148,108 148,71 " fill="none" stroke="#000000" stroke-width="1px" stroke-dashoffset="0" stroke-linejoin="round" stroke-miterlimit="10" /><polygon points="148,71 142,90 154,90 148,71 " fill="url(#fs7)" /><g clip-path="url(#cp10)"><path d="M 154.1803 77.34038 C 148 77.34038  141.8197 77.34038  141.8197 82.09566 L 141.8197 71  154.1803 71  154.1803 77.34038 z " fill="url(#fs8)" /></g><polygon fill="none" points="148,71 142,90 154,90 148,71 " stroke="#000000" stroke-width="1px" stroke-dashoffset="0" stroke-linejoin="round" stroke-miterlimit="10" /></g><g transform="matrix(1 0 0 1 0 0)"><polyline points="250,108 250,71 " fill="none" stroke="#000000" stroke-width="1px" stroke-dashoffset="0" stroke-linejoin="round" stroke-miterlimit="10" /><polygon points="250,71 244,90 256,90 250,71 " fill="url(#fs9)" /><g clip-path="url(#cp11)"><path d="M 256.1803 77.34038 C 250 77.34038  243.8197 77.34038  243.8197 82.09566 L 243.8197 71  256.1803 71  256.1803 77.34038 z " fill="url(#fs10)" /></g><polygon fill="none" points="250,71 244,90 256,90 250,71 " stroke="#000000" stroke-width="1px" stroke-dashoffset="0" stroke-linejoin="round" stroke-miterlimit="10" /></g><g transform="matrix(1 0 0 1 0 0)"><polyline points="175,134 234,134 " fill="none" stroke="#000000" stroke-width="1px" stroke-dashoffset="0" stroke-linejoin="round" stroke-miterlimit="10" /><polyline points="215,128 234,134 215,140 " fill="none" stroke="#000000" stroke-width="1px" stroke-dashoffset="0" stroke-linejoin="round" stroke-miterlimit="10" /></g></svg>