<?xml version="1.0" encoding="utf-8" standalone="no"?><!DOCTYPE svg PUBLIC "-//W3C//DTD SVG 1.1//EN" "http://www.w3.org/Graphics/SVG/1.1/DTD/svg11.dtd"><svg width="874px" height="434px" version="1.1" xmlns="http://www.w3.org/2000/svg"><desc /><defs><linearGradient id="fs1" x1="0.999998688697815px" y1="-4.6710579226783E-07px" x2="0.999998450279236px" y2="0.999999225139618px"><stop offset="0%" stop-color="#D3D3D3" stop-opacity="1" /><stop offset="100%" stop-color="#FFFFFF" stop-opacity="1" /></linearGradient><linearGradient id="fs2" x1="0.999998927116394px" y1="-7.89247735610843E-07px" x2="0.999998688697815px" y2="0.999999225139618px"><stop offset="0%" stop-color="#FFFFFF" stop-opacity="0.5490196" /><stop offset="100%" stop-color="#FFFFFF" stop-opacity="0.1568628" /></linearGradient><linearGradient id="fs3" x1="0.999998986721039px" y1="-3.67681650459417E-07px" x2="0.99999874830246px" y2="0.999999463558197px"><stop offset="0%" stop-color="#D3D3D3" stop-opacity="1" /><stop offset="100%" stop-color="#FFFFFF" stop-opacity="1" /></linearGradient><linearGradient id="fs4" x1="0.99999874830246px" y1="-6.35782896551973E-07px" x2="0.999998509883881px" y2="0.999999046325684px"><stop offset="0%" stop-color="#FFFFFF" stop-opacity="0.5490196" /><stop offset="100%" stop-color="#FFFFFF" stop-opacity="0.1568628" /></linearGradient><linearGradient id="fs5" x1="0.999999582767487px" y1="-6.22807704075967E-07px" x2="0.999999403953552px" y2="0.999999046325684px"><stop offset="0%" stop-color="#D3D3D3" stop-opacity="1" /><stop offset="100%" stop-color="#FFFFFF" stop-opacity="1" /></linearGradient><linearGradient id="fs6" x1="0.999999165534973px" y1="-1.05233027625218E-06px" x2="0.999999165534973px" y2="0.999998927116394px"><stop offset="0%" stop-color="#FFFFFF" stop-opacity="0.5490196" /><stop offset="100%" stop-color="#FFFFFF" stop-opacity="0.1568628" /></linearGradient><linearGradient id="fs7" x1="0.999998867511749px" y1="-2.92189588435576E-06px" x2="0.999998867511749px" y2="0.999996781349182px"><stop offset="0%" stop-color="#D3D3D3" stop-opacity="1" /><stop offset="100%" stop-color="#FFFFFF" stop-opacity="1" /></linearGradient><linearGradient id="fs8" x1="0.999998450279236px" y1="-8.47710543894209E-06px" x2="0.999998450279236px" y2="0.999991536140442px"><stop offset="0%" stop-color="#FFFFFF" stop-opacity="0.5490196" /><stop offset="100%" stop-color="#FFFFFF" stop-opacity="0.1568628" /></linearGradient><linearGradient id="fs9" x1="0.999998867511749px" y1="-4.35965421274886E-06px" x2="0.999998867511749px" y2="0.999994993209839px"><stop offset="0%" stop-color="#D3D3D3" stop-opacity="1" /><stop offset="100%" stop-color="#FFFFFF" stop-opacity="1" /></linearGradient><linearGradient id="fs10" x1="0.999998450279236px" y1="-1.05233029898955E-05px" x2="0.999998450279236px" y2="0.999989449977875px"><stop offset="0%" stop-color="#FFFFFF" stop-opacity="0.5490196" /><stop offset="100%" stop-color="#FFFFFF" stop-opacity="0.1568628" /></linearGradient><linearGradient id="fs11" x1="0.999998271465302px" y1="-1.47072660183767E-06px" x2="0.999998033046722px" y2="0.999998509883881px"><stop offset="0%" stop-color="#D3D3D3" stop-opacity="1" /><stop offset="100%" stop-color="#FFFFFF" stop-opacity="1" /></linearGradient><linearGradient id="fs12" x1="0.999998509883881px" y1="-1.9073486328125E-06px" x2="0.999998509883881px" y2="0.999997437000275px"><stop offset="0%" stop-color="#FFFFFF" stop-opacity="0.5490196" /><stop offset="100%" stop-color="#FFFFFF" stop-opacity="0.1568628" /></linearGradient><linearGradient id="fs13" x1="0.999998033046722px" y1="-2.57377155321592E-06px" x2="0.999997556209564px" y2="0.999997079372406px"><stop offset="0%" stop-color="#D3D3D3" stop-opacity="1" /><stop offset="100%" stop-color="#FFFFFF" stop-opacity="1" /></linearGradient><linearGradient id="fs14" x1="0.999998509883881px" y1="-1.9073486328125E-06px" x2="0.999998033046722px" y2="0.999998092651367px"><stop offset="0%" stop-color="#FFFFFF" stop-opacity="0.5490196" /><stop offset="100%" stop-color="#FFFFFF" stop-opacity="0.1568628" /></linearGradient><linearGradient id="fs15" x1="0.999995172023773px" y1="-6.22807704075967E-07px" x2="0.999994337558746px" y2="0.999999046325684px"><stop offset="0%" stop-color="#D3D3D3" stop-opacity="1" /><stop offset="100%" stop-color="#FFFFFF" stop-opacity="1" /></linearGradient><linearGradient id="fs16" x1="0.999998390674591px" y1="-1.31541287373693E-06px" x2="0.999997973442078px" y2="0.999998450279236px"><stop offset="0%" stop-color="#FFFFFF" stop-opacity="0.5490196" /><stop offset="100%" stop-color="#FFFFFF" stop-opacity="0.1568628" /></linearGradient><linearGradient id="fs17" x1="0.999993920326233px" y1="-3.11403869091009E-06px" x2="0.999993145465851px" y2="0.999996244907379px"><stop offset="0%" stop-color="#D3D3D3" stop-opacity="1" /><stop offset="100%" stop-color="#FFFFFF" stop-opacity="1" /></linearGradient><linearGradient id="fs18" x1="0.999996960163116px" y1="-7.36631182007841E-06px" x2="0.999996960163116px" y2="0.999991595745087px"><stop offset="0%" stop-color="#FFFFFF" stop-opacity="0.5490196" /><stop offset="100%" stop-color="#FFFFFF" stop-opacity="0.1568628" /></linearGradient><linearGradient id="fs19" x1="0.999996960163116px" y1="-4.35965421274886E-06px" x2="0.999996542930603px" y2="0.999995648860931px"><stop offset="0%" stop-color="#D3D3D3" stop-opacity="1" /><stop offset="100%" stop-color="#FFFFFF" stop-opacity="1" /></linearGradient><linearGradient id="fs20" x1="0.999996185302734px" y1="-1.05233029898955E-05px" x2="0.999996185302734px" y2="0.999989449977875px"><stop offset="0%" stop-color="#FFFFFF" stop-opacity="0.5490196" /><stop offset="100%" stop-color="#FFFFFF" stop-opacity="0.1568628" /></linearGradient><linearGradient id="fs21" x1="0.999987304210663px" y1="-1.20464128485764E-05px" x2="0.999984741210938px" y2="0.999987959861755px"><stop offset="0%" stop-color="#D3D3D3" stop-opacity="1" /><stop offset="100%" stop-color="#FFFFFF" stop-opacity="1" /></linearGradient><linearGradient id="fs22" x1="0.999977111816406px" y1="-2.91304149868665E-05px" x2="0.999974548816681px" y2="0.999970853328705px"><stop offset="0%" stop-color="#FFFFFF" stop-opacity="0.5490196" /><stop offset="100%" stop-color="#FFFFFF" stop-opacity="0.1568628" /></linearGradient><linearGradient id="fs23" x1="0.999960601329803px" y1="-1.12433181129745E-05px" x2="0.999958038330078px" y2="0.999987125396729px"><stop offset="0%" stop-color="#D3D3D3" stop-opacity="1" /><stop offset="100%" stop-color="#FFFFFF" stop-opacity="1" /></linearGradient><linearGradient id="fs24" x1="0.999985992908478px" y1="-3.0517578125E-05px" x2="0.999983489513397px" y2="0.999969482421875px"><stop offset="0%" stop-color="#FFFFFF" stop-opacity="0.5490196" /><stop offset="100%" stop-color="#FFFFFF" stop-opacity="0.1568628" /></linearGradient><linearGradient id="fs25" x1="0.999465942382813px" y1="-2.2486636225949E-05px" x2="0.999460875988007px" y2="0.99997752904892px"><stop offset="0%" stop-color="#D3D3D3" stop-opacity="1" /><stop offset="100%" stop-color="#FFFFFF" stop-opacity="1" /></linearGradient><linearGradient id="fs26" x1="0.999542236328125px" y1="-3.32919044012669E-05px" x2="0.999537169933319px" y2="0.999966681003571px"><stop offset="0%" stop-color="#FFFFFF" stop-opacity="0.5490196" /><stop offset="100%" stop-color="#FFFFFF" stop-opacity="0.1568628" /></linearGradient><linearGradient id="fs27" x1="0.999516785144806px" y1="-1.92742591025308E-05px" x2="0.999506652355194px" y2="0.999980747699738px"><stop offset="0%" stop-color="#D3D3D3" stop-opacity="1" /><stop offset="100%" stop-color="#FFFFFF" stop-opacity="1" /></linearGradient><linearGradient id="fs28" x1="0.999582946300507px" y1="-3.0517578125E-05px" x2="0.99957275390625px" y2="0.999969482421875px"><stop offset="0%" stop-color="#FFFFFF" stop-opacity="0.5490196" /><stop offset="100%" stop-color="#FFFFFF" stop-opacity="0.1568628" /></linearGradient><linearGradient id="fs29" x1="0.999867737293243px" y1="-9.63712955126539E-06px" x2="0.999865233898163px" y2="0.999990344047546px"><stop offset="0%" stop-color="#D3D3D3" stop-opacity="1" /><stop offset="100%" stop-color="#FFFFFF" stop-opacity="1" /></linearGradient><linearGradient id="fs30" x1="0.999882996082306px" y1="-1.80331135197775E-05px" x2="0.999880492687225px" y2="0.999981939792633px"><stop offset="0%" stop-color="#FFFFFF" stop-opacity="0.5490196" /><stop offset="100%" stop-color="#FFFFFF" stop-opacity="0.1568628" /></linearGradient><linearGradient id="fs31" x1="0.999811828136444px" y1="-1.28495066746837E-05px" x2="0.999801635742188px" y2="0.999987125396729px"><stop offset="0%" stop-color="#D3D3D3" stop-opacity="1" /><stop offset="100%" stop-color="#FFFFFF" stop-opacity="1" /></linearGradient><linearGradient id="fs32" x1="0.999837219715118px" y1="-1.9420276657911E-05px" x2="0.999832153320313px" y2="0.999980568885803px"><stop offset="0%" stop-color="#FFFFFF" stop-opacity="0.5490196" /><stop offset="100%" stop-color="#FFFFFF" stop-opacity="0.1568628" /></linearGradient><clipPath id="cp1"><path d="M 359 6 L 499 6  499 55  359 55 z " /></clipPath><clipPath id="cp2"><path d="M 359 6 L 499 6  499 55  359 55 z " /></clipPath><clipPath id="cp3"><path d="M 357 4 L 499 4  499 55  357 55 z " /></clipPath><clipPath id="cp4"><path d="M 305 118 L 553 118  553 201  305 201 z " /></clipPath><clipPath id="cp5"><path d="M 305 118 L 553 118  553 201  305 201 z " /></clipPath><clipPath id="cp6"><path d="M 303 116 L 553 116  553 201  303 201 z " /></clipPath><clipPath id="cp7"><path d="M 95 116.5 L 246 116.5  246 165.5  95 165.5 z " /></clipPath><clipPath id="cp8"><path d="M 95 116.5 L 246 116.5  246 165.5  95 165.5 z " /></clipPath><clipPath id="cp9"><path d="M 93 114 L 246 114  246 165  93 165 z " /></clipPath><clipPath id="cp10"><path d="M 6 230 L 166 230  166 277  6 277 z " /></clipPath><clipPath id="cp11"><path d="M 6 230 L 166 230  166 277  6 277 z " /></clipPath><clipPath id="cp12"><path d="M 4 228 L 166 228  166 277  4 277 z " /></clipPath><clipPath id="cp13"><path d="M 6 300.5 L 166 300.5  166 349.5  6 349.5 z " /></clipPath><clipPath id="cp14"><path d="M 6 300.5 L 166 300.5  166 349.5  6 349.5 z " /></clipPath><clipPath id="cp15"><path d="M 4 298 L 166 298  166 349  4 349 z " /></clipPath><clipPath id="cp16"><path d="M 240 237 L 488 237  488 320  240 320 z " /></clipPath><clipPath id="cp17"><path d="M 240 237 L 488 237  488 320  240 320 z " /></clipPath><clipPath id="cp18"><path d="M 238 235 L 488 235  488 320  238 320 z " /></clipPath><clipPath id="cp19"><path d="M 288 336 L 536 336  536 419  288 419 z " /></clipPath><clipPath id="cp20"><path d="M 288 336 L 536 336  536 419  288 419 z " /></clipPath><clipPath id="cp21"><path d="M 286 334 L 536 334  536 419  286 419 z " /></clipPath><clipPath id="cp22"><path d="M 612 116.5 L 763 116.5  763 165.5  612 165.5 z " /></clipPath><clipPath id="cp23"><path d="M 612 116.5 L 763 116.5  763 165.5  612 165.5 z " /></clipPath><clipPath id="cp24"><path d="M 610 114 L 763 114  763 165  610 165 z " /></clipPath><clipPath id="cp25"><path d="M 699 230 L 859 230  859 279  699 279 z " /></clipPath><clipPath id="cp26"><path d="M 699 230 L 859 230  859 279  699 279 z " /></clipPath><clipPath id="cp27"><path d="M 697 228 L 859 228  859 279  697 279 z " /></clipPath><clipPath id="cp28"><path d="M 645 300.5 L 805 300.5  805 349.5  645 349.5 z " /></clipPath><clipPath id="cp29"><path d="M 645 300.5 L 805 300.5  805 349.5  645 349.5 z " /></clipPath><clipPath id="cp30"><path d="M 643 298 L 805 298  805 349  643 349 z " /></clipPath><clipPath id="cp31"><path d="M 128 165 L 121 184  133 184 z " /></clipPath><clipPath id="cp32"><path d="M 203 165 L 197 184  209 184 z " /></clipPath><clipPath id="cp33"><path d="M 732 165 L 726 184  738 184 z " /></clipPath><clipPath id="cp34"><path d="M 670 165 L 664 184  676 184 z " /></clipPath><clipPath id="cp35"><path d="M 358 200 L 352 219  364 219 z " /></clipPath><clipPath id="cp36"><path d="M 508 200 L 502 219  514 219 z " /></clipPath></defs><g transform="matrix(1 0 0 1 0 0)"><g clip-path="url(#cp1)"><rect x="358px" y="5px" width="142px" height="51px" fill="rgba(0,0,0,0.235)" /></g><g clip-path="url(#cp2)"><path fill="none" d="M 359 6 L 499 6  499 55  359 55 z " stroke="rgba(0,0,0,0.047)" stroke-width="10px" stroke-dashoffset="0" stroke-linejoin="round" stroke-miterlimit="10" /><path fill="none" d="M 359 6 L 499 6  499 55  359 55 z " stroke="rgba(0,0,0,0.047)" stroke-width="8px" stroke-dashoffset="0" stroke-linejoin="round" stroke-miterlimit="10" /><path fill="none" d="M 359 6 L 499 6  499 55  359 55 z " stroke="rgba(0,0,0,0.047)" stroke-width="6px" stroke-dashoffset="0" stroke-linejoin="round" stroke-miterlimit="10" /><path fill="none" d="M 359 6 L 499 6  499 55  359 55 z " stroke="rgba(0,0,0,0.055)" stroke-width="4px" stroke-dashoffset="0" stroke-linejoin="round" stroke-miterlimit="10" /><path fill="none" d="M 359 6 L 499 6  499 55  359 55 z " stroke="rgba(0,0,0,0.047)" stroke-width="2px" stroke-dashoffset="0" stroke-linejoin="round" stroke-miterlimit="10" /></g><rect x="358px" y="5px" width="140px" height="49px" fill="url(#fs1)" /><path d="M 498 21.33333 C 428 21.33333  358 21.33333  358 33.58334 L 358 5  498 5  498 21.33333 z " fill="url(#fs2)" /><rect x="358px" y="5px" width="140px" height="49px" fill="none" stroke="#000000" stroke-width="1px" stroke-dashoffset="0" stroke-linejoin="round" stroke-miterlimit="10" /><g clip-path="url(#cp3)"><text x="408px" y="22.5562477111816px" font-family="Verdana" font-size="9.599999pt" font-weight="bold" fill="#000000">Client</text><line x1="358px" y1="29px" x2="498px" y2="29px" stroke="#000000" stroke-width="1px" stroke-dashoffset="0" stroke-linejoin="round" stroke-miterlimit="10" /><line x1="358px" y1="39px" x2="498px" y2="39px" stroke="#000000" stroke-width="1px" stroke-dashoffset="0" stroke-linejoin="round" stroke-miterlimit="10" /></g></g><g transform="matrix(1 0 0 1 0 0)"><g clip-path="url(#cp4)"><rect x="304px" y="117px" width="250px" height="85px" fill="rgba(0,0,0,0.235)" /></g><g clip-path="url(#cp5)"><path fill="none" d="M 305 118 L 553 118  553 201  305 201 z " stroke="rgba(0,0,0,0.047)" stroke-width="10px" stroke-dashoffset="0" stroke-linejoin="round" stroke-miterlimit="10" /><path fill="none" d="M 305 118 L 553 118  553 201  305 201 z " stroke="rgba(0,0,0,0.047)" stroke-width="8px" stroke-dashoffset="0" stroke-linejoin="round" stroke-miterlimit="10" /><path fill="none" d="M 305 118 L 553 118  553 201  305 201 z " stroke="rgba(0,0,0,0.047)" stroke-width="6px" stroke-dashoffset="0" stroke-linejoin="round" stroke-miterlimit="10" /><path fill="none" d="M 305 118 L 553 118  553 201  305 201 z " stroke="rgba(0,0,0,0.055)" stroke-width="4px" stroke-dashoffset="0" stroke-linejoin="round" stroke-miterlimit="10" /><path fill="none" d="M 305 118 L 553 118  553 201  305 201 z " stroke="rgba(0,0,0,0.047)" stroke-width="2px" stroke-dashoffset="0" stroke-linejoin="round" stroke-miterlimit="10" /></g><rect x="304px" y="117px" width="248px" height="83px" fill="url(#fs3)" /><path d="M 552 144.6667 C 428 144.6667  304 144.6667  304 165.4167 L 304 117  552 117  552 144.6667 z " fill="url(#fs4)" /><rect x="304px" y="117px" width="248px" height="83px" fill="none" stroke="#000000" stroke-width="1px" stroke-dashoffset="0" stroke-linejoin="round" stroke-miterlimit="10" /><g clip-path="url(#cp6)"><text x="369px" y="134.556243896484px" font-family="Verdana" font-size="9.599999pt" font-weight="bold" font-style="italic" fill="#000000">AbstractFactory</text><line x1="304px" y1="141px" x2="552px" y2="141px" stroke="#000000" stroke-width="1px" stroke-dashoffset="0" stroke-linejoin="round" stroke-miterlimit="10" /><line x1="304px" y1="151px" x2="552px" y2="151px" stroke="#000000" stroke-width="1px" stroke-dashoffset="0" stroke-linejoin="round" stroke-miterlimit="10" /><text x="307px" y="168.000625610352px" font-family="Verdana" font-size="8.639999pt" font-style="italic" fill="#000000">+ createProductA (): AbstractProductA</text><text x="307px" y="185.000625610352px" font-family="Verdana" font-size="8.639999pt" font-style="italic" fill="#000000">+ createProductB (): AbstractProductB</text></g></g><g transform="matrix(1 0 0 1 0 0)"><g clip-path="url(#cp7)"><rect x="94px" y="116px" width="153px" height="51px" fill="rgba(0,0,0,0.235)" /></g><g clip-path="url(#cp8)"><path fill="none" d="M 95 116.5 L 246 116.5  246 165.5  95 165.5 z " stroke="rgba(0,0,0,0.047)" stroke-width="10px" stroke-dashoffset="0" stroke-linejoin="round" stroke-miterlimit="10" /><path fill="none" d="M 95 116.5 L 246 116.5  246 165.5  95 165.5 z " stroke="rgba(0,0,0,0.047)" stroke-width="8px" stroke-dashoffset="0" stroke-linejoin="round" stroke-miterlimit="10" /><path fill="none" d="M 95 116.5 L 246 116.5  246 165.5  95 165.5 z " stroke="rgba(0,0,0,0.047)" stroke-width="6px" stroke-dashoffset="0" stroke-linejoin="round" stroke-miterlimit="10" /><path fill="none" d="M 95 116.5 L 246 116.5  246 165.5  95 165.5 z " stroke="rgba(0,0,0,0.055)" stroke-width="4px" stroke-dashoffset="0" stroke-linejoin="round" stroke-miterlimit="10" /><path fill="none" d="M 95 116.5 L 246 116.5  246 165.5  95 165.5 z " stroke="rgba(0,0,0,0.047)" stroke-width="2px" stroke-dashoffset="0" stroke-linejoin="round" stroke-miterlimit="10" /></g><rect x="94px" y="115px" width="151px" height="49px" fill="url(#fs5)" /><path d="M 245 131.8333 C 169.5 131.8333  94 131.8333  94 144.0833 L 94 115.5  245 115.5  245 131.8333 z " fill="url(#fs6)" /><rect x="94px" y="115px" width="151px" height="49px" fill="none" stroke="#000000" stroke-width="1px" stroke-dashoffset="0" stroke-linejoin="round" stroke-miterlimit="10" /><g clip-path="url(#cp9)"><text x="104px" y="133.556243896484px" font-family="Verdana" font-size="9.599999pt" font-weight="bold" font-style="italic" fill="#000000">AbstractProductA</text><line x1="94px" y1="139px" x2="245px" y2="139px" stroke="#000000" stroke-width="1px" stroke-dashoffset="0" stroke-linejoin="round" stroke-miterlimit="10" /><line x1="94px" y1="149px" x2="245px" y2="149px" stroke="#000000" stroke-width="1px" stroke-dashoffset="0" stroke-linejoin="round" stroke-miterlimit="10" /></g></g><g transform="matrix(1 0 0 1 0 0)"><g clip-path="url(#cp10)"><rect x="5px" y="229px" width="162px" height="49px" fill="rgba(0,0,0,0.235)" /></g><g clip-path="url(#cp11)"><path fill="none" d="M 6 230 L 166 230  166 277  6 277 z " stroke="rgba(0,0,0,0.047)" stroke-width="10px" stroke-dashoffset="0" stroke-linejoin="round" stroke-miterlimit="10" /><path fill="none" d="M 6 230 L 166 230  166 277  6 277 z " stroke="rgba(0,0,0,0.047)" stroke-width="8px" stroke-dashoffset="0" stroke-linejoin="round" stroke-miterlimit="10" /><path fill="none" d="M 6 230 L 166 230  166 277  6 277 z " stroke="rgba(0,0,0,0.047)" stroke-width="6px" stroke-dashoffset="0" stroke-linejoin="round" stroke-miterlimit="10" /><path fill="none" d="M 6 230 L 166 230  166 277  6 277 z " stroke="rgba(0,0,0,0.055)" stroke-width="4px" stroke-dashoffset="0" stroke-linejoin="round" stroke-miterlimit="10" /><path fill="none" d="M 6 230 L 166 230  166 277  6 277 z " stroke="rgba(0,0,0,0.047)" stroke-width="2px" stroke-dashoffset="0" stroke-linejoin="round" stroke-miterlimit="10" /></g><rect x="5px" y="229px" width="160px" height="47px" fill="url(#fs7)" /><path d="M 165 244.6667 C 85 244.6667  5 244.6667  5 256.4167 L 5 229  165 229  165 244.6667 z " fill="url(#fs8)" /><rect x="5px" y="229px" width="160px" height="47px" fill="none" stroke="#000000" stroke-width="1px" stroke-dashoffset="0" stroke-linejoin="round" stroke-miterlimit="10" /><g clip-path="url(#cp12)"><text x="14px" y="246.556243896484px" font-family="Verdana" font-size="9.599999pt" font-weight="bold" fill="#000000">ConcreteProductA1</text><line x1="5px" y1="253px" x2="165px" y2="253px" stroke="#000000" stroke-width="1px" stroke-dashoffset="0" stroke-linejoin="round" stroke-miterlimit="10" /><line x1="5px" y1="263px" x2="165px" y2="263px" stroke="#000000" stroke-width="1px" stroke-dashoffset="0" stroke-linejoin="round" stroke-miterlimit="10" /></g></g><g transform="matrix(1 0 0 1 0 0)"><g clip-path="url(#cp13)"><rect x="5px" y="300px" width="162px" height="51px" fill="rgba(0,0,0,0.235)" /></g><g clip-path="url(#cp14)"><path fill="none" d="M 6 300.5 L 166 300.5  166 349.5  6 349.5 z " stroke="rgba(0,0,0,0.047)" stroke-width="10px" stroke-dashoffset="0" stroke-linejoin="round" stroke-miterlimit="10" /><path fill="none" d="M 6 300.5 L 166 300.5  166 349.5  6 349.5 z " stroke="rgba(0,0,0,0.047)" stroke-width="8px" stroke-dashoffset="0" stroke-linejoin="round" stroke-miterlimit="10" /><path fill="none" d="M 6 300.5 L 166 300.5  166 349.5  6 349.5 z " stroke="rgba(0,0,0,0.047)" stroke-width="6px" stroke-dashoffset="0" stroke-linejoin="round" stroke-miterlimit="10" /><path fill="none" d="M 6 300.5 L 166 300.5  166 349.5  6 349.5 z " stroke="rgba(0,0,0,0.055)" stroke-width="4px" stroke-dashoffset="0" stroke-linejoin="round" stroke-miterlimit="10" /><path fill="none" d="M 6 300.5 L 166 300.5  166 349.5  6 349.5 z " stroke="rgba(0,0,0,0.047)" stroke-width="2px" stroke-dashoffset="0" stroke-linejoin="round" stroke-miterlimit="10" /></g><rect x="5px" y="299px" width="160px" height="49px" fill="url(#fs9)" /><path d="M 165 315.8333 C 85 315.8333  5 315.8333  5 328.0833 L 5 299.5  165 299.5  165 315.8333 z " fill="url(#fs10)" /><rect x="5px" y="299px" width="160px" height="49px" fill="none" stroke="#000000" stroke-width="1px" stroke-dashoffset="0" stroke-linejoin="round" stroke-miterlimit="10" /><g clip-path="url(#cp15)"><text x="14px" y="317.556243896484px" font-family="Verdana" font-size="9.599999pt" font-weight="bold" fill="#000000">ConcreteProductA2</text><line x1="5px" y1="323px" x2="165px" y2="323px" stroke="#000000" stroke-width="1px" stroke-dashoffset="0" stroke-linejoin="round" stroke-miterlimit="10" /><line x1="5px" y1="333px" x2="165px" y2="333px" stroke="#000000" stroke-width="1px" stroke-dashoffset="0" stroke-linejoin="round" stroke-miterlimit="10" /></g></g><g transform="matrix(1 0 0 1 0 0)"><g clip-path="url(#cp16)"><rect x="239px" y="236px" width="250px" height="85px" fill="rgba(0,0,0,0.235)" /></g><g clip-path="url(#cp17)"><path fill="none" d="M 240 237 L 488 237  488 320  240 320 z " stroke="rgba(0,0,0,0.047)" stroke-width="10px" stroke-dashoffset="0" stroke-linejoin="round" stroke-miterlimit="10" /><path fill="none" d="M 240 237 L 488 237  488 320  240 320 z " stroke="rgba(0,0,0,0.047)" stroke-width="8px" stroke-dashoffset="0" stroke-linejoin="round" stroke-miterlimit="10" /><path fill="none" d="M 240 237 L 488 237  488 320  240 320 z " stroke="rgba(0,0,0,0.047)" stroke-width="6px" stroke-dashoffset="0" stroke-linejoin="round" stroke-miterlimit="10" /><path fill="none" d="M 240 237 L 488 237  488 320  240 320 z " stroke="rgba(0,0,0,0.055)" stroke-width="4px" stroke-dashoffset="0" stroke-linejoin="round" stroke-miterlimit="10" /><path fill="none" d="M 240 237 L 488 237  488 320  240 320 z " stroke="rgba(0,0,0,0.047)" stroke-width="2px" stroke-dashoffset="0" stroke-linejoin="round" stroke-miterlimit="10" /></g><rect x="239px" y="236px" width="248px" height="83px" fill="url(#fs11)" /><path d="M 487 263.6667 C 363 263.6667  239 263.6667  239 284.4167 L 239 236  487 236  487 263.6667 z " fill="url(#fs12)" /><rect x="239px" y="236px" width="248px" height="83px" fill="none" stroke="#000000" stroke-width="1px" stroke-dashoffset="0" stroke-linejoin="round" stroke-miterlimit="10" /><g clip-path="url(#cp18)"><text x="297px" y="253.556243896484px" font-family="Verdana" font-size="9.599999pt" font-weight="bold" fill="#000000">ConcreteFactoryA</text><line x1="239px" y1="260px" x2="487px" y2="260px" stroke="#000000" stroke-width="1px" stroke-dashoffset="0" stroke-linejoin="round" stroke-miterlimit="10" /><line x1="239px" y1="270px" x2="487px" y2="270px" stroke="#000000" stroke-width="1px" stroke-dashoffset="0" stroke-linejoin="round" stroke-miterlimit="10" /><text x="242px" y="287.000610351563px" font-family="Verdana" font-size="8.639999pt" fill="#000000">+ createProductA (): AbstractProductA</text><text x="242px" y="304.000610351563px" font-family="Verdana" font-size="8.639999pt" fill="#000000">+ createProductB (): AbstractProductB</text></g></g><g transform="matrix(1 0 0 1 0 0)"><g clip-path="url(#cp19)"><rect x="287px" y="335px" width="250px" height="85px" fill="rgba(0,0,0,0.235)" /></g><g clip-path="url(#cp20)"><path fill="none" d="M 288 336 L 536 336  536 419  288 419 z " stroke="rgba(0,0,0,0.047)" stroke-width="10px" stroke-dashoffset="0" stroke-linejoin="round" stroke-miterlimit="10" /><path fill="none" d="M 288 336 L 536 336  536 419  288 419 z " stroke="rgba(0,0,0,0.047)" stroke-width="8px" stroke-dashoffset="0" stroke-linejoin="round" stroke-miterlimit="10" /><path fill="none" d="M 288 336 L 536 336  536 419  288 419 z " stroke="rgba(0,0,0,0.047)" stroke-width="6px" stroke-dashoffset="0" stroke-linejoin="round" stroke-miterlimit="10" /><path fill="none" d="M 288 336 L 536 336  536 419  288 419 z " stroke="rgba(0,0,0,0.055)" stroke-width="4px" stroke-dashoffset="0" stroke-linejoin="round" stroke-miterlimit="10" /><path fill="none" d="M 288 336 L 536 336  536 419  288 419 z " stroke="rgba(0,0,0,0.047)" stroke-width="2px" stroke-dashoffset="0" stroke-linejoin="round" stroke-miterlimit="10" /></g><rect x="287px" y="335px" width="248px" height="83px" fill="url(#fs13)" /><path d="M 535 362.6667 C 411 362.6667  287 362.6667  287 383.4167 L 287 335  535 335  535 362.6667 z " fill="url(#fs14)" /><rect x="287px" y="335px" width="248px" height="83px" fill="none" stroke="#000000" stroke-width="1px" stroke-dashoffset="0" stroke-linejoin="round" stroke-miterlimit="10" /><g clip-path="url(#cp21)"><text x="345px" y="352.556243896484px" font-family="Verdana" font-size="9.599999pt" font-weight="bold" fill="#000000">ConcreteFactoryB</text><line x1="287px" y1="359px" x2="535px" y2="359px" stroke="#000000" stroke-width="1px" stroke-dashoffset="0" stroke-linejoin="round" stroke-miterlimit="10" /><line x1="287px" y1="369px" x2="535px" y2="369px" stroke="#000000" stroke-width="1px" stroke-dashoffset="0" stroke-linejoin="round" stroke-miterlimit="10" /><text x="290px" y="386.000610351563px" font-family="Verdana" font-size="8.639999pt" fill="#000000">+ createProductA (): AbstractProductA</text><text x="290px" y="403.000610351563px" font-family="Verdana" font-size="8.639999pt" fill="#000000">+ createProductB (): AbstractProductB</text></g></g><g transform="matrix(1 0 0 1 0 0)"><g clip-path="url(#cp22)"><rect x="611px" y="116px" width="153px" height="51px" fill="rgba(0,0,0,0.235)" /></g><g clip-path="url(#cp23)"><path fill="none" d="M 612 116.5 L 763 116.5  763 165.5  612 165.5 z " stroke="rgba(0,0,0,0.047)" stroke-width="10px" stroke-dashoffset="0" stroke-linejoin="round" stroke-miterlimit="10" /><path fill="none" d="M 612 116.5 L 763 116.5  763 165.5  612 165.5 z " stroke="rgba(0,0,0,0.047)" stroke-width="8px" stroke-dashoffset="0" stroke-linejoin="round" stroke-miterlimit="10" /><path fill="none" d="M 612 116.5 L 763 116.5  763 165.5  612 165.5 z " stroke="rgba(0,0,0,0.047)" stroke-width="6px" stroke-dashoffset="0" stroke-linejoin="round" stroke-miterlimit="10" /><path fill="none" d="M 612 116.5 L 763 116.5  763 165.5  612 165.5 z " stroke="rgba(0,0,0,0.055)" stroke-width="4px" stroke-dashoffset="0" stroke-linejoin="round" stroke-miterlimit="10" /><path fill="none" d="M 612 116.5 L 763 116.5  763 165.5  612 165.5 z " stroke="rgba(0,0,0,0.047)" stroke-width="2px" stroke-dashoffset="0" stroke-linejoin="round" stroke-miterlimit="10" /></g><rect x="611px" y="115px" width="151px" height="49px" fill="url(#fs15)" /><path d="M 762 131.8333 C 686.5 131.8333  611 131.8333  611 144.0833 L 611 115.5  762 115.5  762 131.8333 z " fill="url(#fs16)" /><rect x="611px" y="115px" width="151px" height="49px" fill="none" stroke="#000000" stroke-width="1px" stroke-dashoffset="0" stroke-linejoin="round" stroke-miterlimit="10" /><g clip-path="url(#cp24)"><text x="621px" y="133.556243896484px" font-family="Verdana" font-size="9.599999pt" font-weight="bold" font-style="italic" fill="#000000">AbstractProductB</text><line x1="611px" y1="139px" x2="762px" y2="139px" stroke="#000000" stroke-width="1px" stroke-dashoffset="0" stroke-linejoin="round" stroke-miterlimit="10" /><line x1="611px" y1="149px" x2="762px" y2="149px" stroke="#000000" stroke-width="1px" stroke-dashoffset="0" stroke-linejoin="round" stroke-miterlimit="10" /></g></g><g transform="matrix(1 0 0 1 0 0)"><g clip-path="url(#cp25)"><rect x="698px" y="229px" width="162px" height="51px" fill="rgba(0,0,0,0.235)" /></g><g clip-path="url(#cp26)"><path fill="none" d="M 699 230 L 859 230  859 279  699 279 z " stroke="rgba(0,0,0,0.047)" stroke-width="10px" stroke-dashoffset="0" stroke-linejoin="round" stroke-miterlimit="10" /><path fill="none" d="M 699 230 L 859 230  859 279  699 279 z " stroke="rgba(0,0,0,0.047)" stroke-width="8px" stroke-dashoffset="0" stroke-linejoin="round" stroke-miterlimit="10" /><path fill="none" d="M 699 230 L 859 230  859 279  699 279 z " stroke="rgba(0,0,0,0.047)" stroke-width="6px" stroke-dashoffset="0" stroke-linejoin="round" stroke-miterlimit="10" /><path fill="none" d="M 699 230 L 859 230  859 279  699 279 z " stroke="rgba(0,0,0,0.055)" stroke-width="4px" stroke-dashoffset="0" stroke-linejoin="round" stroke-miterlimit="10" /><path fill="none" d="M 699 230 L 859 230  859 279  699 279 z " stroke="rgba(0,0,0,0.047)" stroke-width="2px" stroke-dashoffset="0" stroke-linejoin="round" stroke-miterlimit="10" /></g><rect x="698px" y="229px" width="160px" height="49px" fill="url(#fs17)" /><path d="M 858 245.3333 C 778 245.3333  698 245.3333  698 257.5833 L 698 229  858 229  858 245.3333 z " fill="url(#fs18)" /><rect x="698px" y="229px" width="160px" height="49px" fill="none" stroke="#000000" stroke-width="1px" stroke-dashoffset="0" stroke-linejoin="round" stroke-miterlimit="10" /><g clip-path="url(#cp27)"><text x="707px" y="246.556243896484px" font-family="Verdana" font-size="9.599999pt" font-weight="bold" fill="#000000">ConcreteProductB1</text><line x1="698px" y1="253px" x2="858px" y2="253px" stroke="#000000" stroke-width="1px" stroke-dashoffset="0" stroke-linejoin="round" stroke-miterlimit="10" /><line x1="698px" y1="263px" x2="858px" y2="263px" stroke="#000000" stroke-width="1px" stroke-dashoffset="0" stroke-linejoin="round" stroke-miterlimit="10" /></g></g><g transform="matrix(1 0 0 1 0 0)"><g clip-path="url(#cp28)"><rect x="644px" y="300px" width="162px" height="51px" fill="rgba(0,0,0,0.235)" /></g><g clip-path="url(#cp29)"><path fill="none" d="M 645 300.5 L 805 300.5  805 349.5  645 349.5 z " stroke="rgba(0,0,0,0.047)" stroke-width="10px" stroke-dashoffset="0" stroke-linejoin="round" stroke-miterlimit="10" /><path fill="none" d="M 645 300.5 L 805 300.5  805 349.5  645 349.5 z " stroke="rgba(0,0,0,0.047)" stroke-width="8px" stroke-dashoffset="0" stroke-linejoin="round" stroke-miterlimit="10" /><path fill="none" d="M 645 300.5 L 805 300.5  805 349.5  645 349.5 z " stroke="rgba(0,0,0,0.047)" stroke-width="6px" stroke-dashoffset="0" stroke-linejoin="round" stroke-miterlimit="10" /><path fill="none" d="M 645 300.5 L 805 300.5  805 349.5  645 349.5 z " stroke="rgba(0,0,0,0.055)" stroke-width="4px" stroke-dashoffset="0" stroke-linejoin="round" stroke-miterlimit="10" /><path fill="none" d="M 645 300.5 L 805 300.5  805 349.5  645 349.5 z " stroke="rgba(0,0,0,0.047)" stroke-width="2px" stroke-dashoffset="0" stroke-linejoin="round" stroke-miterlimit="10" /></g><rect x="644px" y="299px" width="160px" height="49px" fill="url(#fs19)" /><path d="M 804 315.8333 C 724 315.8333  644 315.8333  644 328.0833 L 644 299.5  804 299.5  804 315.8333 z " fill="url(#fs20)" /><rect x="644px" y="299px" width="160px" height="49px" fill="none" stroke="#000000" stroke-width="1px" stroke-dashoffset="0" stroke-linejoin="round" stroke-miterlimit="10" /><g clip-path="url(#cp30)"><text x="653px" y="317.556243896484px" font-family="Verdana" font-size="9.599999pt" font-weight="bold" fill="#000000">ConcreteProductB2</text><line x1="644px" y1="323px" x2="804px" y2="323px" stroke="#000000" stroke-width="1px" stroke-dashoffset="0" stroke-linejoin="round" stroke-miterlimit="10" /><line x1="644px" y1="333px" x2="804px" y2="333px" stroke="#000000" stroke-width="1px" stroke-dashoffset="0" stroke-linejoin="round" stroke-miterlimit="10" /></g></g><g transform="matrix(1 0 0 1 0 0)"><polyline points="397,54 397,85 169,85 169,115 " fill="none" stroke="#000000" stroke-width="1px" stroke-dashoffset="0" stroke-linejoin="round" stroke-miterlimit="10" /><polyline points="175,96 169,115 163,96 " fill="none" stroke="#000000" stroke-width="1px" stroke-dashoffset="0" stroke-linejoin="round" stroke-miterlimit="10" /></g><g transform="matrix(1 0 0 1 0 0)"><polyline points="428,54 428,117 " fill="none" stroke="#000000" stroke-width="1px" stroke-dashoffset="0" stroke-linejoin="round" stroke-miterlimit="10" /><polyline points="434,98 428,117 422,98 " fill="none" stroke="#000000" stroke-width="1px" stroke-dashoffset="0" stroke-linejoin="round" stroke-miterlimit="10" /></g><g transform="matrix(1 0 0 1 0 0)"><polyline points="127,229 127,197 127,165 " fill="none" stroke="#000000" stroke-width="1px" stroke-dashoffset="0" stroke-linejoin="round" stroke-miterlimit="10" /><polygon points="128,165 121,184 133,184 128,165 " fill="url(#fs21)" /><g clip-path="url(#cp31)"><path d="M 133.1803 171.3404 C 127 171.3404  120.8197 171.3404  120.8197 176.0957 L 120.8197 165  133.1803 165  133.1803 171.3404 z " fill="url(#fs22)" /></g><polygon fill="none" points="128,165 121,184 133,184 128,165 " stroke="#000000" stroke-width="1px" stroke-dashoffset="0" stroke-linejoin="round" stroke-miterlimit="10" /></g><g transform="matrix(1 0 0 1 0 0)"><polyline points="165,326 203,326 203,165 " fill="none" stroke="#000000" stroke-width="1px" stroke-dashoffset="0" stroke-linejoin="round" stroke-miterlimit="10" /><polygon points="203,165 197,184 209,184 203,165 " fill="url(#fs23)" /><g clip-path="url(#cp32)"><path d="M 209.1803 171.3404 C 203 171.3404  196.8197 171.3404  196.8197 176.0957 L 196.8197 165  209.1803 165  209.1803 171.3404 z " fill="url(#fs24)" /></g><polygon fill="none" points="203,165 197,184 209,184 203,165 " stroke="#000000" stroke-width="1px" stroke-dashoffset="0" stroke-linejoin="round" stroke-miterlimit="10" /></g><g transform="matrix(1 0 0 1 0 0)"><polyline points="732,229 732,165 " fill="none" stroke="#000000" stroke-width="1px" stroke-dashoffset="0" stroke-linejoin="round" stroke-miterlimit="10" /><polygon points="732,165 726,184 738,184 732,165 " fill="url(#fs25)" /><g clip-path="url(#cp33)"><path d="M 738.1804 171.3404 C 732 171.3404  725.8196 171.3404  725.8196 176.0957 L 725.8196 165  738.1804 165  738.1804 171.3404 z " fill="url(#fs26)" /></g><polygon fill="none" points="732,165 726,184 738,184 732,165 " stroke="#000000" stroke-width="1px" stroke-dashoffset="0" stroke-linejoin="round" stroke-miterlimit="10" /></g><g transform="matrix(1 0 0 1 0 0)"><polyline points="670,299 670,165 " fill="none" stroke="#000000" stroke-width="1px" stroke-dashoffset="0" stroke-linejoin="round" stroke-miterlimit="10" /><polygon points="670,165 664,184 676,184 670,165 " fill="url(#fs27)" /><g clip-path="url(#cp34)"><path d="M 676.1804 171.3404 C 670 171.3404  663.8196 171.3404  663.8196 176.0957 L 663.8196 165  676.1804 165  676.1804 171.3404 z " fill="url(#fs28)" /></g><polygon fill="none" points="670,165 664,184 676,184 670,165 " stroke="#000000" stroke-width="1px" stroke-dashoffset="0" stroke-linejoin="round" stroke-miterlimit="10" /></g><g transform="matrix(1 0 0 1 0 0)"><polyline points="358,236 358,200 " fill="none" stroke="#000000" stroke-width="1px" stroke-dashoffset="0" stroke-linejoin="round" stroke-miterlimit="10" /><polygon points="358,200 352,219 364,219 358,200 " fill="url(#fs29)" /><g clip-path="url(#cp35)"><path d="M 364.1803 206.3404 C 358 206.3404  351.8197 206.3404  351.8197 211.0957 L 351.8197 200  364.1803 200  364.1803 206.3404 z " fill="url(#fs30)" /></g><polygon fill="none" points="358,200 352,219 364,219 358,200 " stroke="#000000" stroke-width="1px" stroke-dashoffset="0" stroke-linejoin="round" stroke-miterlimit="10" /></g><g transform="matrix(1 0 0 1 0 0)"><polyline points="508,335 508,200 " fill="none" stroke="#000000" stroke-width="1px" stroke-dashoffset="0" stroke-linejoin="round" stroke-miterlimit="10" /><polygon points="508,200 502,219 514,219 508,200 " fill="url(#fs31)" /><g clip-path="url(#cp36)"><path d="M 514.1804 206.3404 C 508 206.3404  501.8196 206.3404  501.8196 211.0957 L 501.8196 200  514.1804 200  514.1804 206.3404 z " fill="url(#fs32)" /></g><polygon fill="none" points="508,200 502,219 514,219 508,200 " stroke="#000000" stroke-width="1px" stroke-dashoffset="0" stroke-linejoin="round" stroke-miterlimit="10" /></g><g transform="matrix(1 0 0 1 0 0)"><polyline points="463,54 463,69 458,69 458,85 687,85 692,85 692,115 " fill="none" stroke="#000000" stroke-width="1px" stroke-dashoffset="0" stroke-linejoin="round" stroke-miterlimit="10" /><polyline points="698,96 692,115 686,96 " fill="none" stroke="#000000" stroke-width="1px" stroke-dashoffset="0" stroke-linejoin="round" stroke-miterlimit="10" /></g><g transform="matrix(1 0 0 1 0 0)"><polyline points="287,396 82,396 82,386 82,349 " fill="none" stroke="#000000" stroke-width="1px" stroke-dasharray="5,4" stroke-dashoffset="0" stroke-linejoin="miter" stroke-miterlimit="10" /><polyline points="76,368 82,349 88,368 " fill="none" stroke="#000000" stroke-width="1px" stroke-dashoffset="0" stroke-linejoin="round" stroke-miterlimit="10" /><text x="157px" y="393.000610351563px" font-family="Verdana" font-size="8.639999pt" font-style="italic" fill="#1E1E1E">«use»</text></g><g transform="matrix(1 0 0 1 0 0)"><polyline points="535,397 726,397 726,376 726,349 " fill="none" stroke="#000000" stroke-width="1px" stroke-dasharray="5,4" stroke-dashoffset="0" stroke-linejoin="miter" stroke-miterlimit="10" /><polyline points="720,368 726,349 732,368 " fill="none" stroke="#000000" stroke-width="1px" stroke-dashoffset="0" stroke-linejoin="round" stroke-miterlimit="10" /><text x="650px" y="394.000610351563px" font-family="Verdana" font-size="8.639999pt" font-style="italic" fill="#1E1E1E">«use»</text></g><g transform="matrix(1 0 0 1 0 0)"><polyline points="239,252 165,252 " fill="none" stroke="#000000" stroke-width="1px" stroke-dasharray="5,4" stroke-dashoffset="0" stroke-linejoin="miter" stroke-miterlimit="10" /><polyline points="184,258 165,252 184,246 " fill="none" stroke="#000000" stroke-width="1px" stroke-dashoffset="0" stroke-linejoin="round" stroke-miterlimit="10" /><text x="198px" y="249.000625610352px" font-family="Verdana" font-size="8.639999pt" font-style="italic" fill="#1E1E1E">«use»</text></g><g transform="matrix(1 0 0 1 0 0)"><polyline points="487,254 698,253 " fill="none" stroke="#000000" stroke-width="1px" stroke-dasharray="5,4" stroke-dashoffset="0" stroke-linejoin="miter" stroke-miterlimit="10" /><polyline points="679,247 698,253 679,259 " fill="none" stroke="#000000" stroke-width="1px" stroke-dashoffset="0" stroke-linejoin="round" stroke-miterlimit="10" /><text x="588px" y="250.000625610352px" font-family="Verdana" font-size="8.639999pt" font-style="italic" fill="#1E1E1E">«use»</text></g></svg>