<?xml version="1.0" encoding="utf-8" standalone="no"?><!DOCTYPE svg PUBLIC "-//W3C//DTD SVG 1.1//EN" "http://www.w3.org/Graphics/SVG/1.1/DTD/svg11.dtd"><svg width="566px" height="312px" version="1.1" xmlns="http://www.w3.org/2000/svg"><desc /><defs><linearGradient id="fs1" x1="0.999999463558197px" y1="-5.51522475689126E-07px" x2="0.999999225139618px" y2="0.999999284744263px"><stop offset="0%" stop-color="#D3D3D3" stop-opacity="1" /><stop offset="100%" stop-color="#FFFFFF" stop-opacity="1" /></linearGradient><linearGradient id="fs2" x1="0.999999344348907px" y1="-1.27156579310395E-06px" x2="0.999999105930328px" y2="0.99999874830246px"><stop offset="0%" stop-color="#FFFFFF" stop-opacity="0.5490196" /><stop offset="100%" stop-color="#FFFFFF" stop-opacity="0.1568628" /></linearGradient><linearGradient id="fs3" x1="0.999999582767487px" y1="-1.52587887214395E-07px" x2="0.999999463558197px" y2="0.999999701976776px"><stop offset="0%" stop-color="#D3D3D3" stop-opacity="1" /><stop offset="100%" stop-color="#FFFFFF" stop-opacity="1" /></linearGradient><linearGradient id="fs4" x1="0.999999582767487px" y1="-1.31541284531522E-07px" x2="0.999999463558197px" y2="0.999999761581421px"><stop offset="0%" stop-color="#FFFFFF" stop-opacity="0.5490196" /><stop offset="100%" stop-color="#FFFFFF" stop-opacity="0.1568628" /></linearGradient><linearGradient id="fs5" x1="0.999998152256012px" y1="-1.0707922228903E-06px" x2="0.999997794628143px" y2="0.999998688697815px"><stop offset="0%" stop-color="#D3D3D3" stop-opacity="1" /><stop offset="100%" stop-color="#FFFFFF" stop-opacity="1" /></linearGradient><linearGradient id="fs6" x1="0.999997794628143px" y1="-2.31193780564354E-06px" x2="0.999997079372406px" y2="0.999997675418854px"><stop offset="0%" stop-color="#FFFFFF" stop-opacity="0.5490196" /><stop offset="100%" stop-color="#FFFFFF" stop-opacity="0.1568628" /></linearGradient><linearGradient id="fs7" x1="0.999998927116394px" y1="-1.61835646395048E-06px" x2="0.999998509883881px" y2="0.999998152256012px"><stop offset="0%" stop-color="#D3D3D3" stop-opacity="1" /><stop offset="100%" stop-color="#FFFFFF" stop-opacity="1" /></linearGradient><linearGradient id="fs8" x1="0.999998152256012px" y1="-4.41701786257909E-06px" x2="0.999997794628143px" y2="0.999995172023773px"><stop offset="0%" stop-color="#FFFFFF" stop-opacity="0.5490196" /><stop offset="100%" stop-color="#FFFFFF" stop-opacity="0.1568628" /></linearGradient><linearGradient id="fs9" x1="0.999999821186066px" y1="-1.72350773652852E-08px" x2="0.999999582767487px" y2="0.999999642372131px"><stop offset="0%" stop-color="#D3D3D3" stop-opacity="1" /><stop offset="100%" stop-color="#FFFFFF" stop-opacity="1" /></linearGradient><linearGradient id="fs10" x1="0.999999821186066px" y1="-1.98682155172492E-08px" x2="0.999999701976776px" y2="0.999999761581421px"><stop offset="0%" stop-color="#FFFFFF" stop-opacity="0.5490196" /><stop offset="100%" stop-color="#FFFFFF" stop-opacity="0.1568628" /></linearGradient><linearGradient id="fs11" x1="0.999847412109375px" y1="-9.63712955126539E-06px" x2="0.999842345714569px" y2="0.999990344047546px"><stop offset="0%" stop-color="#D3D3D3" stop-opacity="1" /><stop offset="100%" stop-color="#FFFFFF" stop-opacity="1" /></linearGradient><linearGradient id="fs12" x1="0.999941527843475px" y1="-1.66459522006335E-05px" x2="0.99993896484375px" y2="0.999983370304108px"><stop offset="0%" stop-color="#FFFFFF" stop-opacity="0.5490196" /><stop offset="100%" stop-color="#FFFFFF" stop-opacity="0.1568628" /></linearGradient><linearGradient id="fs13" x1="0.999872863292694px" y1="-6.42475333734183E-06px" x2="0.999867737293243px" y2="0.999993562698364px"><stop offset="0%" stop-color="#D3D3D3" stop-opacity="1" /><stop offset="100%" stop-color="#FFFFFF" stop-opacity="1" /></linearGradient><linearGradient id="fs14" x1="0.999888122081757px" y1="-1.24844636957278E-05px" x2="0.999885559082031px" y2="0.999987542629242px"><stop offset="0%" stop-color="#FFFFFF" stop-opacity="0.5490196" /><stop offset="100%" stop-color="#FFFFFF" stop-opacity="0.1568628" /></linearGradient><clipPath id="cp1"><path d="M 72 130 L 212 130  212 213  72 213 z " /></clipPath><clipPath id="cp2"><path d="M 72 130 L 212 130  212 213  72 213 z " /></clipPath><clipPath id="cp3"><path d="M 70 128 L 212 128  212 213  70 213 z " /></clipPath><clipPath id="cp4"><path d="M 240 6 L 457 6  457 106  240 106 z " /></clipPath><clipPath id="cp5"><path d="M 240 6 L 457 6  457 106  240 106 z " /></clipPath><clipPath id="cp6"><path d="M 238 4 L 457 4  457 106  238 106 z " /></clipPath><clipPath id="cp7"><path d="M 384 140 L 551 140  551 197  384 197 z " /></clipPath><clipPath id="cp8"><path d="M 384 140 L 551 140  551 197  384 197 z " /></clipPath><clipPath id="cp9"><path d="M 382 138 L 551 138  551 197  382 197 z " /></clipPath><clipPath id="cp10"><path d="M 265 231 L 432 231  432 297  265 297 z " /></clipPath><clipPath id="cp11"><path d="M 265 231 L 432 231  432 297  265 297 z " /></clipPath><clipPath id="cp12"><path d="M 263 229 L 432 229  432 297  263 297 z " /></clipPath><clipPath id="cp13"><path d="M 6 6 L 161 6  161 89  6 89 z " /></clipPath><clipPath id="cp14"><path d="M 6 6 L 161 6  161 89  6 89 z " /></clipPath><clipPath id="cp15"><path d="M 4 4 L 161 4  161 89  4 89 z " /></clipPath><clipPath id="cp16"><path d="M 421 105 L 415 124  427 124 z " /></clipPath><clipPath id="cp17"><path d="M 347 105 L 341 124  353 124 z " /></clipPath></defs><g transform="matrix(1 0 0 1 0 0)"><g clip-path="url(#cp1)"><rect x="71px" y="129px" width="142px" height="85px" fill="rgba(0,0,0,0.235)" /></g><g clip-path="url(#cp2)"><path fill="none" d="M 72 130 L 212 130  212 213  72 213 z " stroke="rgba(0,0,0,0.047)" stroke-width="10px" stroke-dashoffset="0" stroke-linejoin="round" stroke-miterlimit="10" /><path fill="none" d="M 72 130 L 212 130  212 213  72 213 z " stroke="rgba(0,0,0,0.047)" stroke-width="8px" stroke-dashoffset="0" stroke-linejoin="round" stroke-miterlimit="10" /><path fill="none" d="M 72 130 L 212 130  212 213  72 213 z " stroke="rgba(0,0,0,0.047)" stroke-width="6px" stroke-dashoffset="0" stroke-linejoin="round" stroke-miterlimit="10" /><path fill="none" d="M 72 130 L 212 130  212 213  72 213 z " stroke="rgba(0,0,0,0.055)" stroke-width="4px" stroke-dashoffset="0" stroke-linejoin="round" stroke-miterlimit="10" /><path fill="none" d="M 72 130 L 212 130  212 213  72 213 z " stroke="rgba(0,0,0,0.047)" stroke-width="2px" stroke-dashoffset="0" stroke-linejoin="round" stroke-miterlimit="10" /></g><rect x="71px" y="129px" width="140px" height="83px" fill="url(#fs1)" /><path d="M 211 156.6667 C 141 156.6667  71 156.6667  71 177.4167 L 71 129  211 129  211 156.6667 z " fill="url(#fs2)" /><rect x="71px" y="129px" width="140px" height="83px" fill="none" stroke="#000000" stroke-width="1px" stroke-dashoffset="0" stroke-linejoin="round" stroke-miterlimit="10" /><g clip-path="url(#cp3)"><text x="109px" y="146.556243896484px" font-family="Verdana" font-size="9.599999pt" font-weight="bold" fill="#000000">Receiver</text><line x1="71px" y1="153px" x2="211px" y2="153px" stroke="#000000" stroke-width="1px" stroke-dashoffset="0" stroke-linejoin="round" stroke-miterlimit="10" /><line x1="71px" y1="163px" x2="211px" y2="163px" stroke="#000000" stroke-width="1px" stroke-dashoffset="0" stroke-linejoin="round" stroke-miterlimit="10" /><text x="74px" y="180.000625610352px" font-family="Verdana" font-size="8.639999pt" fill="#000000">+ action1 ()</text><text x="74px" y="197.000625610352px" font-family="Verdana" font-size="8.639999pt" fill="#000000">+ action2 ()</text></g></g><g transform="matrix(1 0 0 1 0 0)"><g clip-path="url(#cp4)"><rect x="239px" y="5px" width="219px" height="102px" fill="rgba(0,0,0,0.235)" /></g><g clip-path="url(#cp5)"><path fill="none" d="M 240 6 L 457 6  457 106  240 106 z " stroke="rgba(0,0,0,0.047)" stroke-width="10px" stroke-dashoffset="0" stroke-linejoin="round" stroke-miterlimit="10" /><path fill="none" d="M 240 6 L 457 6  457 106  240 106 z " stroke="rgba(0,0,0,0.047)" stroke-width="8px" stroke-dashoffset="0" stroke-linejoin="round" stroke-miterlimit="10" /><path fill="none" d="M 240 6 L 457 6  457 106  240 106 z " stroke="rgba(0,0,0,0.047)" stroke-width="6px" stroke-dashoffset="0" stroke-linejoin="round" stroke-miterlimit="10" /><path fill="none" d="M 240 6 L 457 6  457 106  240 106 z " stroke="rgba(0,0,0,0.055)" stroke-width="4px" stroke-dashoffset="0" stroke-linejoin="round" stroke-miterlimit="10" /><path fill="none" d="M 240 6 L 457 6  457 106  240 106 z " stroke="rgba(0,0,0,0.047)" stroke-width="2px" stroke-dashoffset="0" stroke-linejoin="round" stroke-miterlimit="10" /></g><rect x="239px" y="5px" width="217px" height="100px" fill="url(#fs3)" /><path d="M 456 38.33334 C 347.5 38.33334  239 38.33334  239 63.33334 L 239 5  456 5  456 38.33334 z " fill="url(#fs4)" /><rect x="239px" y="5px" width="217px" height="100px" fill="none" stroke="#000000" stroke-width="1px" stroke-dashoffset="0" stroke-linejoin="round" stroke-miterlimit="10" /><g clip-path="url(#cp6)"><text x="311px" y="22.5562477111816px" font-family="Verdana" font-size="9.599999pt" font-weight="bold" fill="#000000">Command</text><line x1="239px" y1="29px" x2="456px" y2="29px" stroke="#000000" stroke-width="1px" stroke-dashoffset="0" stroke-linejoin="round" stroke-miterlimit="10" /><text x="242px" y="49.0006217956543px" font-family="Verdana" font-size="8.639999pt" fill="#000000"># receiver: Receiver</text><line x1="239px" y1="56px" x2="456px" y2="56px" stroke="#000000" stroke-width="1px" stroke-dashoffset="0" stroke-linejoin="round" stroke-miterlimit="10" /><text x="242px" y="73.0006256103516px" font-family="Verdana" font-size="8.639999pt" font-style="italic" fill="#000000">+ execute ()</text><text x="242px" y="90.0006256103516px" font-family="Verdana" font-size="8.639999pt" fill="#000000">+ Command (receiver : Receiver)</text></g></g><g transform="matrix(1 0 0 1 0 0)"><g clip-path="url(#cp7)"><rect x="383px" y="139px" width="169px" height="59px" fill="rgba(0,0,0,0.235)" /></g><g clip-path="url(#cp8)"><path fill="none" d="M 384 140 L 551 140  551 197  384 197 z " stroke="rgba(0,0,0,0.047)" stroke-width="10px" stroke-dashoffset="0" stroke-linejoin="round" stroke-miterlimit="10" /><path fill="none" d="M 384 140 L 551 140  551 197  384 197 z " stroke="rgba(0,0,0,0.047)" stroke-width="8px" stroke-dashoffset="0" stroke-linejoin="round" stroke-miterlimit="10" /><path fill="none" d="M 384 140 L 551 140  551 197  384 197 z " stroke="rgba(0,0,0,0.047)" stroke-width="6px" stroke-dashoffset="0" stroke-linejoin="round" stroke-miterlimit="10" /><path fill="none" d="M 384 140 L 551 140  551 197  384 197 z " stroke="rgba(0,0,0,0.055)" stroke-width="4px" stroke-dashoffset="0" stroke-linejoin="round" stroke-miterlimit="10" /><path fill="none" d="M 384 140 L 551 140  551 197  384 197 z " stroke="rgba(0,0,0,0.047)" stroke-width="2px" stroke-dashoffset="0" stroke-linejoin="round" stroke-miterlimit="10" /></g><rect x="383px" y="139px" width="167px" height="57px" fill="url(#fs5)" /><path d="M 550 158 C 466.5 158  383 158  383 172.25 L 383 139  550 139  550 158 z " fill="url(#fs6)" /><rect x="383px" y="139px" width="167px" height="57px" fill="none" stroke="#000000" stroke-width="1px" stroke-dashoffset="0" stroke-linejoin="round" stroke-miterlimit="10" /><g clip-path="url(#cp9)"><text x="392px" y="156.556243896484px" font-family="Verdana" font-size="9.599999pt" font-weight="bold" fill="#000000">ConcreteCommandA</text><line x1="383px" y1="163px" x2="550px" y2="163px" stroke="#000000" stroke-width="1px" stroke-dashoffset="0" stroke-linejoin="round" stroke-miterlimit="10" /><line x1="383px" y1="173px" x2="550px" y2="173px" stroke="#000000" stroke-width="1px" stroke-dashoffset="0" stroke-linejoin="round" stroke-miterlimit="10" /><text x="386px" y="190.000625610352px" font-family="Verdana" font-size="8.639999pt" fill="#000000">+ execute ()</text></g></g><g transform="matrix(1 0 0 1 0 0)"><g clip-path="url(#cp10)"><rect x="264px" y="230px" width="169px" height="68px" fill="rgba(0,0,0,0.235)" /></g><g clip-path="url(#cp11)"><path fill="none" d="M 265 231 L 432 231  432 297  265 297 z " stroke="rgba(0,0,0,0.047)" stroke-width="10px" stroke-dashoffset="0" stroke-linejoin="round" stroke-miterlimit="10" /><path fill="none" d="M 265 231 L 432 231  432 297  265 297 z " stroke="rgba(0,0,0,0.047)" stroke-width="8px" stroke-dashoffset="0" stroke-linejoin="round" stroke-miterlimit="10" /><path fill="none" d="M 265 231 L 432 231  432 297  265 297 z " stroke="rgba(0,0,0,0.047)" stroke-width="6px" stroke-dashoffset="0" stroke-linejoin="round" stroke-miterlimit="10" /><path fill="none" d="M 265 231 L 432 231  432 297  265 297 z " stroke="rgba(0,0,0,0.055)" stroke-width="4px" stroke-dashoffset="0" stroke-linejoin="round" stroke-miterlimit="10" /><path fill="none" d="M 265 231 L 432 231  432 297  265 297 z " stroke="rgba(0,0,0,0.047)" stroke-width="2px" stroke-dashoffset="0" stroke-linejoin="round" stroke-miterlimit="10" /></g><rect x="264px" y="230px" width="167px" height="66px" fill="url(#fs7)" /><path d="M 431 252 C 347.5 252  264 252  264 268.5 L 264 230  431 230  431 252 z " fill="url(#fs8)" /><rect x="264px" y="230px" width="167px" height="66px" fill="none" stroke="#000000" stroke-width="1px" stroke-dashoffset="0" stroke-linejoin="round" stroke-miterlimit="10" /><g clip-path="url(#cp12)"><text x="273px" y="247.556243896484px" font-family="Verdana" font-size="9.599999pt" font-weight="bold" fill="#000000">ConcreteCommandB</text><line x1="264px" y1="254px" x2="431px" y2="254px" stroke="#000000" stroke-width="1px" stroke-dashoffset="0" stroke-linejoin="round" stroke-miterlimit="10" /><line x1="264px" y1="264px" x2="431px" y2="264px" stroke="#000000" stroke-width="1px" stroke-dashoffset="0" stroke-linejoin="round" stroke-miterlimit="10" /><text x="267px" y="281.000610351563px" font-family="Verdana" font-size="8.639999pt" fill="#000000">+ execute ()</text></g></g><g transform="matrix(1 0 0 1 0 0)"><g clip-path="url(#cp13)"><rect x="5px" y="5px" width="157px" height="85px" fill="rgba(0,0,0,0.235)" /></g><g clip-path="url(#cp14)"><path fill="none" d="M 6 6 L 161 6  161 89  6 89 z " stroke="rgba(0,0,0,0.047)" stroke-width="10px" stroke-dashoffset="0" stroke-linejoin="round" stroke-miterlimit="10" /><path fill="none" d="M 6 6 L 161 6  161 89  6 89 z " stroke="rgba(0,0,0,0.047)" stroke-width="8px" stroke-dashoffset="0" stroke-linejoin="round" stroke-miterlimit="10" /><path fill="none" d="M 6 6 L 161 6  161 89  6 89 z " stroke="rgba(0,0,0,0.047)" stroke-width="6px" stroke-dashoffset="0" stroke-linejoin="round" stroke-miterlimit="10" /><path fill="none" d="M 6 6 L 161 6  161 89  6 89 z " stroke="rgba(0,0,0,0.055)" stroke-width="4px" stroke-dashoffset="0" stroke-linejoin="round" stroke-miterlimit="10" /><path fill="none" d="M 6 6 L 161 6  161 89  6 89 z " stroke="rgba(0,0,0,0.047)" stroke-width="2px" stroke-dashoffset="0" stroke-linejoin="round" stroke-miterlimit="10" /></g><rect x="5px" y="5px" width="155px" height="83px" fill="url(#fs9)" /><path d="M 160 32.66667 C 82.5 32.66667  5 32.66667  5 53.41666 L 5 5  160 5  160 32.66667 z " fill="url(#fs10)" /><rect x="5px" y="5px" width="155px" height="83px" fill="none" stroke="#000000" stroke-width="1px" stroke-dashoffset="0" stroke-linejoin="round" stroke-miterlimit="10" /><g clip-path="url(#cp15)"><text x="54px" y="22.5562477111816px" font-family="Verdana" font-size="9.599999pt" font-weight="bold" fill="#000000">Invoker</text><line x1="5px" y1="29px" x2="160px" y2="29px" stroke="#000000" stroke-width="1px" stroke-dashoffset="0" stroke-linejoin="round" stroke-miterlimit="10" /><text x="8px" y="49.0006217956543px" font-family="Verdana" font-size="8.639999pt" fill="#000000">+ command: Command</text><line x1="5px" y1="56px" x2="160px" y2="56px" stroke="#000000" stroke-width="1px" stroke-dashoffset="0" stroke-linejoin="round" stroke-miterlimit="10" /><text x="8px" y="73.0006256103516px" font-family="Verdana" font-size="8.639999pt" fill="#000000">+ executeCommand ()</text></g></g><g transform="matrix(1 0 0 1 0 0)"><polyline points="421,139 421,105 " fill="none" stroke="#000000" stroke-width="1px" stroke-dashoffset="0" stroke-linejoin="round" stroke-miterlimit="10" /><polygon points="421,105 415,124 427,124 421,105 " fill="url(#fs11)" /><g clip-path="url(#cp16)"><path d="M 427.1803 111.3404 C 421 111.3404  414.8197 111.3404  414.8197 116.0957 L 414.8197 105  427.1803 105  427.1803 111.3404 z " fill="url(#fs12)" /></g><polygon fill="none" points="421,105 415,124 427,124 421,105 " stroke="#000000" stroke-width="1px" stroke-dashoffset="0" stroke-linejoin="round" stroke-miterlimit="10" /></g><g transform="matrix(1 0 0 1 0 0)"><polyline points="347,230 347,105 " fill="none" stroke="#000000" stroke-width="1px" stroke-dashoffset="0" stroke-linejoin="round" stroke-miterlimit="10" /><polygon points="347,105 341,124 353,124 347,105 " fill="url(#fs13)" /><g clip-path="url(#cp17)"><path d="M 353.1803 111.3404 C 347 111.3404  340.8197 111.3404  340.8197 116.0957 L 340.8197 105  353.1803 105  353.1803 111.3404 z " fill="url(#fs14)" /></g><polygon fill="none" points="347,105 341,124 353,124 347,105 " stroke="#000000" stroke-width="1px" stroke-dashoffset="0" stroke-linejoin="round" stroke-miterlimit="10" /></g><g transform="matrix(1 0 0 1 0 0)"><polyline points="383,167 211,167 " fill="none" stroke="#000000" stroke-width="1px" stroke-dashoffset="0" stroke-linejoin="round" stroke-miterlimit="10" /><polyline points="230,173 211,167 230,161 " fill="none" stroke="#000000" stroke-width="1px" stroke-dashoffset="0" stroke-linejoin="round" stroke-miterlimit="10" /></g><g transform="matrix(1 0 0 1 0 0)"><polyline points="264,265 139,265 139,212 " fill="none" stroke="#000000" stroke-width="1px" stroke-dashoffset="0" stroke-linejoin="round" stroke-miterlimit="10" /><polyline points="133,231 139,212 145,231 " fill="none" stroke="#000000" stroke-width="1px" stroke-dashoffset="0" stroke-linejoin="round" stroke-miterlimit="10" /></g><g transform="matrix(1 0 0 1 0 0)"><polyline points="160,47 239,47 " fill="none" stroke="#000000" stroke-width="1px" stroke-dashoffset="0" stroke-linejoin="round" stroke-miterlimit="10" /><polygon points="160,47 174,52 190,47 174,42 " fill="#FFFFFF" /><polygon fill="none" points="160,47 174,52 190,47 174,42 " stroke="#000000" stroke-width="1px" stroke-dashoffset="0" stroke-linejoin="round" stroke-miterlimit="10" /></g></svg>