<?xml version="1.0" encoding="utf-8" standalone="no"?><!DOCTYPE svg PUBLIC "-//W3C//DTD SVG 1.1//EN" "http://www.w3.org/Graphics/SVG/1.1/DTD/svg11.dtd"><svg width="504px" height="281px" version="1.1" xmlns="http://www.w3.org/2000/svg"><desc /><defs><linearGradient id="fs1" x1="0.999999165534973px" y1="-2.31193780564354E-07px" x2="0.999998807907104px" y2="0.999999403953552px"><stop offset="0%" stop-color="#D3D3D3" stop-opacity="1" /><stop offset="100%" stop-color="#FFFFFF" stop-opacity="1" /></linearGradient><linearGradient id="fs2" x1="0.999999165534973px" y1="-3.01160298477043E-07px" x2="0.999998986721039px" y2="0.999999403953552px"><stop offset="0%" stop-color="#FFFFFF" stop-opacity="0.5490196" /><stop offset="100%" stop-color="#FFFFFF" stop-opacity="0.1568628" /></linearGradient><linearGradient id="fs3" x1="0.999998986721039px" y1="-6.93581341693061E-07px" x2="0.99999862909317px" y2="0.999999284744263px"><stop offset="0%" stop-color="#D3D3D3" stop-opacity="1" /><stop offset="100%" stop-color="#FFFFFF" stop-opacity="1" /></linearGradient><linearGradient id="fs4" x1="0.99999862909317px" y1="-1.60618833433546E-06px" x2="0.999998331069946px" y2="0.999998390674591px"><stop offset="0%" stop-color="#FFFFFF" stop-opacity="0.5490196" /><stop offset="100%" stop-color="#FFFFFF" stop-opacity="0.1568628" /></linearGradient><linearGradient id="fs5" x1="0.999999701976776px" y1="-1.73395335423265E-07px" x2="0.999999582767487px" y2="0.999999642372131px"><stop offset="0%" stop-color="#D3D3D3" stop-opacity="1" /><stop offset="100%" stop-color="#FFFFFF" stop-opacity="1" /></linearGradient><linearGradient id="fs6" x1="0.999999701976776px" y1="-1.50580149238522E-07px" x2="0.999999582767487px" y2="0.999999582767487px"><stop offset="0%" stop-color="#FFFFFF" stop-opacity="0.5490196" /><stop offset="100%" stop-color="#FFFFFF" stop-opacity="0.1568628" /></linearGradient><linearGradient id="fs7" x1="0.999999165534973px" y1="-1.61835646395048E-06px" x2="0.999998986721039px" y2="0.999998152256012px"><stop offset="0%" stop-color="#D3D3D3" stop-opacity="1" /><stop offset="100%" stop-color="#FFFFFF" stop-opacity="1" /></linearGradient><linearGradient id="fs8" x1="0.999998807907104px" y1="-4.01547094952548E-06px" x2="0.999998807907104px" y2="0.999995589256287px"><stop offset="0%" stop-color="#FFFFFF" stop-opacity="0.5490196" /><stop offset="100%" stop-color="#FFFFFF" stop-opacity="0.1568628" /></linearGradient><linearGradient id="fs9" x1="0.999999701976776px" y1="-4.62387561128708E-07px" x2="0.999999463558197px" y2="0.999999284744263px"><stop offset="0%" stop-color="#D3D3D3" stop-opacity="1" /><stop offset="100%" stop-color="#FFFFFF" stop-opacity="1" /></linearGradient><linearGradient id="fs10" x1="0.999999165534973px" y1="-1.40541476412182E-06px" x2="0.999999165534973px" y2="0.999998390674591px"><stop offset="0%" stop-color="#FFFFFF" stop-opacity="0.5490196" /><stop offset="100%" stop-color="#FFFFFF" stop-opacity="0.1568628" /></linearGradient><linearGradient id="fs11" x1="0.999852478504181px" y1="-6.42475333734183E-06px" x2="0.9998499751091px" y2="0.999993562698364px"><stop offset="0%" stop-color="#D3D3D3" stop-opacity="1" /><stop offset="100%" stop-color="#FFFFFF" stop-opacity="1" /></linearGradient><linearGradient id="fs12" x1="0.999954223632813px" y1="-1.1097301467089E-05px" x2="0.999951660633087px" y2="0.999988913536072px"><stop offset="0%" stop-color="#FFFFFF" stop-opacity="0.5490196" /><stop offset="100%" stop-color="#FFFFFF" stop-opacity="0.1568628" /></linearGradient><linearGradient id="fs13" x1="0.999993622303009px" y1="-2.40928238781635E-06px" x2="0.999992370605469px" y2="0.999997615814209px"><stop offset="0%" stop-color="#D3D3D3" stop-opacity="1" /><stop offset="100%" stop-color="#FFFFFF" stop-opacity="1" /></linearGradient><linearGradient id="fs14" x1="0.999989211559296px" y1="-4.16148805015837E-06px" x2="0.999988555908203px" y2="0.999995827674866px"><stop offset="0%" stop-color="#FFFFFF" stop-opacity="0.5490196" /><stop offset="100%" stop-color="#FFFFFF" stop-opacity="0.1568628" /></linearGradient><linearGradient id="fs15" x1="0.999965667724609px" y1="-4.01547094952548E-06px" x2="0.999963104724884px" y2="0.9999960064888px"><stop offset="0%" stop-color="#D3D3D3" stop-opacity="1" /><stop offset="100%" stop-color="#FFFFFF" stop-opacity="1" /></linearGradient><linearGradient id="fs16" x1="0.999970734119415px" y1="-5.54865073354449E-06px" x2="0.999968230724335px" y2="0.999994456768036px"><stop offset="0%" stop-color="#FFFFFF" stop-opacity="0.5490196" /><stop offset="100%" stop-color="#FFFFFF" stop-opacity="0.1568628" /></linearGradient><clipPath id="cp1"><path d="M 307 6 L 489 6  489 72  307 72 z " /></clipPath><clipPath id="cp2"><path d="M 307 6 L 489 6  489 72  307 72 z " /></clipPath><clipPath id="cp3"><path d="M 305 4 L 489 4  489 72  305 72 z " /></clipPath><clipPath id="cp4"><path d="M 303 131 L 485 131  485 197  303 197 z " /></clipPath><clipPath id="cp5"><path d="M 303 131 L 485 131  485 197  303 197 z " /></clipPath><clipPath id="cp6"><path d="M 301 129 L 485 129  485 197  301 197 z " /></clipPath><clipPath id="cp7"><path d="M 85 6 L 225 6  225 72  85 72 z " /></clipPath><clipPath id="cp8"><path d="M 85 6 L 225 6  225 72  85 72 z " /></clipPath><clipPath id="cp9"><path d="M 83 4 L 225 4  225 72  83 72 z " /></clipPath><clipPath id="cp10"><path d="M 81 200 L 231 200  231 266  81 266 z " /></clipPath><clipPath id="cp11"><path d="M 81 200 L 231 200  231 266  81 266 z " /></clipPath><clipPath id="cp12"><path d="M 79 198 L 231 198  231 266  79 266 z " /></clipPath><clipPath id="cp13"><path d="M 6 108 L 156 108  156 174  6 174 z " /></clipPath><clipPath id="cp14"><path d="M 6 108 L 156 108  156 174  6 174 z " /></clipPath><clipPath id="cp15"><path d="M 4 106 L 156 106  156 174  4 174 z " /></clipPath><clipPath id="cp16"><path d="M 397 71 L 391 90  403 90 z " /></clipPath><clipPath id="cp17"><path d="M 116 71 L 110 90  122 90 z " /></clipPath><clipPath id="cp18"><path d="M 181 71 L 175 90  187 90 z " /></clipPath></defs><g transform="matrix(1 0 0 1 0 0)"><g clip-path="url(#cp1)"><rect x="306px" y="5px" width="184px" height="68px" fill="rgba(0,0,0,0.235)" /></g><g clip-path="url(#cp2)"><path fill="none" d="M 307 6 L 489 6  489 72  307 72 z " stroke="rgba(0,0,0,0.047)" stroke-width="10px" stroke-dashoffset="0" stroke-linejoin="round" stroke-miterlimit="10" /><path fill="none" d="M 307 6 L 489 6  489 72  307 72 z " stroke="rgba(0,0,0,0.047)" stroke-width="8px" stroke-dashoffset="0" stroke-linejoin="round" stroke-miterlimit="10" /><path fill="none" d="M 307 6 L 489 6  489 72  307 72 z " stroke="rgba(0,0,0,0.047)" stroke-width="6px" stroke-dashoffset="0" stroke-linejoin="round" stroke-miterlimit="10" /><path fill="none" d="M 307 6 L 489 6  489 72  307 72 z " stroke="rgba(0,0,0,0.055)" stroke-width="4px" stroke-dashoffset="0" stroke-linejoin="round" stroke-miterlimit="10" /><path fill="none" d="M 307 6 L 489 6  489 72  307 72 z " stroke="rgba(0,0,0,0.047)" stroke-width="2px" stroke-dashoffset="0" stroke-linejoin="round" stroke-miterlimit="10" /></g><rect x="306px" y="5px" width="182px" height="66px" fill="url(#fs1)" /><path d="M 488 27 C 397 27  306 27  306 43.5 L 306 5  488 5  488 27 z " fill="url(#fs2)" /><rect x="306px" y="5px" width="182px" height="66px" fill="none" stroke="#000000" stroke-width="1px" stroke-dashoffset="0" stroke-linejoin="round" stroke-miterlimit="10" /><g clip-path="url(#cp3)"><text x="369px" y="22.5562477111816px" font-family="Verdana" font-size="9.599999pt" font-weight="bold" font-style="italic" fill="#000000">Creator</text><line x1="306px" y1="29px" x2="488px" y2="29px" stroke="#000000" stroke-width="1px" stroke-dashoffset="0" stroke-linejoin="round" stroke-miterlimit="10" /><line x1="306px" y1="39px" x2="488px" y2="39px" stroke="#000000" stroke-width="1px" stroke-dashoffset="0" stroke-linejoin="round" stroke-miterlimit="10" /><text x="309px" y="56.0006217956543px" font-family="Verdana" font-size="8.639999pt" font-style="italic" fill="#000000">+ factoryMethod (): Product</text></g></g><g transform="matrix(1 0 0 1 0 0)"><g clip-path="url(#cp4)"><rect x="302px" y="130px" width="184px" height="68px" fill="rgba(0,0,0,0.235)" /></g><g clip-path="url(#cp5)"><path fill="none" d="M 303 131 L 485 131  485 197  303 197 z " stroke="rgba(0,0,0,0.047)" stroke-width="10px" stroke-dashoffset="0" stroke-linejoin="round" stroke-miterlimit="10" /><path fill="none" d="M 303 131 L 485 131  485 197  303 197 z " stroke="rgba(0,0,0,0.047)" stroke-width="8px" stroke-dashoffset="0" stroke-linejoin="round" stroke-miterlimit="10" /><path fill="none" d="M 303 131 L 485 131  485 197  303 197 z " stroke="rgba(0,0,0,0.047)" stroke-width="6px" stroke-dashoffset="0" stroke-linejoin="round" stroke-miterlimit="10" /><path fill="none" d="M 303 131 L 485 131  485 197  303 197 z " stroke="rgba(0,0,0,0.055)" stroke-width="4px" stroke-dashoffset="0" stroke-linejoin="round" stroke-miterlimit="10" /><path fill="none" d="M 303 131 L 485 131  485 197  303 197 z " stroke="rgba(0,0,0,0.047)" stroke-width="2px" stroke-dashoffset="0" stroke-linejoin="round" stroke-miterlimit="10" /></g><rect x="302px" y="130px" width="182px" height="66px" fill="url(#fs3)" /><path d="M 484 152 C 393 152  302 152  302 168.5 L 302 130  484 130  484 152 z " fill="url(#fs4)" /><rect x="302px" y="130px" width="182px" height="66px" fill="none" stroke="#000000" stroke-width="1px" stroke-dashoffset="0" stroke-linejoin="round" stroke-miterlimit="10" /><g clip-path="url(#cp6)"><text x="327px" y="147.556243896484px" font-family="Verdana" font-size="9.599999pt" font-weight="bold" fill="#000000">ConcreteCreatorA</text><line x1="302px" y1="154px" x2="484px" y2="154px" stroke="#000000" stroke-width="1px" stroke-dashoffset="0" stroke-linejoin="round" stroke-miterlimit="10" /><line x1="302px" y1="164px" x2="484px" y2="164px" stroke="#000000" stroke-width="1px" stroke-dashoffset="0" stroke-linejoin="round" stroke-miterlimit="10" /><text x="305px" y="181.000625610352px" font-family="Verdana" font-size="8.639999pt" fill="#000000">+ factoryMethod (): Product</text></g></g><g transform="matrix(1 0 0 1 0 0)"><g clip-path="url(#cp7)"><rect x="84px" y="5px" width="142px" height="68px" fill="rgba(0,0,0,0.235)" /></g><g clip-path="url(#cp8)"><path fill="none" d="M 85 6 L 225 6  225 72  85 72 z " stroke="rgba(0,0,0,0.047)" stroke-width="10px" stroke-dashoffset="0" stroke-linejoin="round" stroke-miterlimit="10" /><path fill="none" d="M 85 6 L 225 6  225 72  85 72 z " stroke="rgba(0,0,0,0.047)" stroke-width="8px" stroke-dashoffset="0" stroke-linejoin="round" stroke-miterlimit="10" /><path fill="none" d="M 85 6 L 225 6  225 72  85 72 z " stroke="rgba(0,0,0,0.047)" stroke-width="6px" stroke-dashoffset="0" stroke-linejoin="round" stroke-miterlimit="10" /><path fill="none" d="M 85 6 L 225 6  225 72  85 72 z " stroke="rgba(0,0,0,0.055)" stroke-width="4px" stroke-dashoffset="0" stroke-linejoin="round" stroke-miterlimit="10" /><path fill="none" d="M 85 6 L 225 6  225 72  85 72 z " stroke="rgba(0,0,0,0.047)" stroke-width="2px" stroke-dashoffset="0" stroke-linejoin="round" stroke-miterlimit="10" /></g><rect x="84px" y="5px" width="140px" height="66px" fill="url(#fs5)" /><path d="M 224 27 C 154 27  84 27  84 43.5 L 84 5  224 5  224 27 z " fill="url(#fs6)" /><rect x="84px" y="5px" width="140px" height="66px" fill="none" stroke="#000000" stroke-width="1px" stroke-dashoffset="0" stroke-linejoin="round" stroke-miterlimit="10" /><g clip-path="url(#cp9)"><text x="125px" y="22.5562477111816px" font-family="Verdana" font-size="9.599999pt" font-weight="bold" font-style="italic" fill="#000000">Product</text><line x1="84px" y1="29px" x2="224px" y2="29px" stroke="#000000" stroke-width="1px" stroke-dashoffset="0" stroke-linejoin="round" stroke-miterlimit="10" /><line x1="84px" y1="39px" x2="224px" y2="39px" stroke="#000000" stroke-width="1px" stroke-dashoffset="0" stroke-linejoin="round" stroke-miterlimit="10" /></g></g><g transform="matrix(1 0 0 1 0 0)"><g clip-path="url(#cp10)"><rect x="80px" y="199px" width="152px" height="68px" fill="rgba(0,0,0,0.235)" /></g><g clip-path="url(#cp11)"><path fill="none" d="M 81 200 L 231 200  231 266  81 266 z " stroke="rgba(0,0,0,0.047)" stroke-width="10px" stroke-dashoffset="0" stroke-linejoin="round" stroke-miterlimit="10" /><path fill="none" d="M 81 200 L 231 200  231 266  81 266 z " stroke="rgba(0,0,0,0.047)" stroke-width="8px" stroke-dashoffset="0" stroke-linejoin="round" stroke-miterlimit="10" /><path fill="none" d="M 81 200 L 231 200  231 266  81 266 z " stroke="rgba(0,0,0,0.047)" stroke-width="6px" stroke-dashoffset="0" stroke-linejoin="round" stroke-miterlimit="10" /><path fill="none" d="M 81 200 L 231 200  231 266  81 266 z " stroke="rgba(0,0,0,0.055)" stroke-width="4px" stroke-dashoffset="0" stroke-linejoin="round" stroke-miterlimit="10" /><path fill="none" d="M 81 200 L 231 200  231 266  81 266 z " stroke="rgba(0,0,0,0.047)" stroke-width="2px" stroke-dashoffset="0" stroke-linejoin="round" stroke-miterlimit="10" /></g><rect x="80px" y="199px" width="150px" height="66px" fill="url(#fs7)" /><path d="M 230 221 C 155 221  80 221  80 237.5 L 80 199  230 199  230 221 z " fill="url(#fs8)" /><rect x="80px" y="199px" width="150px" height="66px" fill="none" stroke="#000000" stroke-width="1px" stroke-dashoffset="0" stroke-linejoin="round" stroke-miterlimit="10" /><g clip-path="url(#cp12)"><text x="88px" y="216.556243896484px" font-family="Verdana" font-size="9.599999pt" font-weight="bold" fill="#000000">ConcreteProductB</text><line x1="80px" y1="223px" x2="230px" y2="223px" stroke="#000000" stroke-width="1px" stroke-dashoffset="0" stroke-linejoin="round" stroke-miterlimit="10" /><line x1="80px" y1="233px" x2="230px" y2="233px" stroke="#000000" stroke-width="1px" stroke-dashoffset="0" stroke-linejoin="round" stroke-miterlimit="10" /></g></g><g transform="matrix(1 0 0 1 0 0)"><g clip-path="url(#cp13)"><rect x="5px" y="107px" width="152px" height="68px" fill="rgba(0,0,0,0.235)" /></g><g clip-path="url(#cp14)"><path fill="none" d="M 6 108 L 156 108  156 174  6 174 z " stroke="rgba(0,0,0,0.047)" stroke-width="10px" stroke-dashoffset="0" stroke-linejoin="round" stroke-miterlimit="10" /><path fill="none" d="M 6 108 L 156 108  156 174  6 174 z " stroke="rgba(0,0,0,0.047)" stroke-width="8px" stroke-dashoffset="0" stroke-linejoin="round" stroke-miterlimit="10" /><path fill="none" d="M 6 108 L 156 108  156 174  6 174 z " stroke="rgba(0,0,0,0.047)" stroke-width="6px" stroke-dashoffset="0" stroke-linejoin="round" stroke-miterlimit="10" /><path fill="none" d="M 6 108 L 156 108  156 174  6 174 z " stroke="rgba(0,0,0,0.055)" stroke-width="4px" stroke-dashoffset="0" stroke-linejoin="round" stroke-miterlimit="10" /><path fill="none" d="M 6 108 L 156 108  156 174  6 174 z " stroke="rgba(0,0,0,0.047)" stroke-width="2px" stroke-dashoffset="0" stroke-linejoin="round" stroke-miterlimit="10" /></g><rect x="5px" y="107px" width="150px" height="66px" fill="url(#fs9)" /><path d="M 155 129 C 80 129  5 129  5 145.5 L 5 107  155 107  155 129 z " fill="url(#fs10)" /><rect x="5px" y="107px" width="150px" height="66px" fill="none" stroke="#000000" stroke-width="1px" stroke-dashoffset="0" stroke-linejoin="round" stroke-miterlimit="10" /><g clip-path="url(#cp15)"><text x="13px" y="124.556243896484px" font-family="Verdana" font-size="9.599999pt" font-weight="bold" fill="#000000">ConcreteProductA</text><line x1="5px" y1="131px" x2="155px" y2="131px" stroke="#000000" stroke-width="1px" stroke-dashoffset="0" stroke-linejoin="round" stroke-miterlimit="10" /><line x1="5px" y1="141px" x2="155px" y2="141px" stroke="#000000" stroke-width="1px" stroke-dashoffset="0" stroke-linejoin="round" stroke-miterlimit="10" /></g></g><g transform="matrix(1 0 0 1 0 0)"><polyline points="397,130 397,71 " fill="none" stroke="#000000" stroke-width="1px" stroke-dashoffset="0" stroke-linejoin="round" stroke-miterlimit="10" /><polygon points="397,71 391,90 403,90 397,71 " fill="url(#fs11)" /><g clip-path="url(#cp16)"><path d="M 403.1804 77.34038 C 397 77.34038  390.8196 77.34038  390.8196 82.09566 L 390.8196 71  403.1804 71  403.1804 77.34038 z " fill="url(#fs12)" /></g><polygon fill="none" points="397,71 391,90 403,90 397,71 " stroke="#000000" stroke-width="1px" stroke-dashoffset="0" stroke-linejoin="round" stroke-miterlimit="10" /></g><g transform="matrix(1 0 0 1 0 0)"><polyline points="116,107 116,71 " fill="none" stroke="#000000" stroke-width="1px" stroke-dashoffset="0" stroke-linejoin="round" stroke-miterlimit="10" /><polygon points="116,71 110,90 122,90 116,71 " fill="url(#fs13)" /><g clip-path="url(#cp17)"><path d="M 122.1803 77.34038 C 116 77.34038  109.8197 77.34038  109.8197 82.09566 L 109.8197 71  122.1803 71  122.1803 77.34038 z " fill="url(#fs14)" /></g><polygon fill="none" points="116,71 110,90 122,90 116,71 " stroke="#000000" stroke-width="1px" stroke-dashoffset="0" stroke-linejoin="round" stroke-miterlimit="10" /></g><g transform="matrix(1 0 0 1 0 0)"><polyline points="181,199 181,71 " fill="none" stroke="#000000" stroke-width="1px" stroke-dashoffset="0" stroke-linejoin="round" stroke-miterlimit="10" /><polygon points="181,71 175,90 187,90 181,71 " fill="url(#fs15)" /><g clip-path="url(#cp18)"><path d="M 187.1803 77.34038 C 181 77.34038  174.8197 77.34038  174.8197 82.09566 L 174.8197 71  187.1803 71  187.1803 77.34038 z " fill="url(#fs16)" /></g><polygon fill="none" points="181,71 175,90 187,90 181,71 " stroke="#000000" stroke-width="1px" stroke-dashoffset="0" stroke-linejoin="round" stroke-miterlimit="10" /></g><g transform="matrix(1 0 0 1 0 0)"><polyline points="302,159 155,159 " fill="none" stroke="#000000" stroke-width="1px" stroke-dasharray="5,4" stroke-dashoffset="0" stroke-linejoin="miter" stroke-miterlimit="10" /><polyline points="174,165 155,159 174,153 " fill="none" stroke="#000000" stroke-width="1px" stroke-dashoffset="0" stroke-linejoin="round" stroke-miterlimit="10" /><text x="224px" y="156.000625610352px" font-family="Verdana" font-size="8.639999pt" font-style="italic" fill="#1E1E1E">«use»</text></g><g transform="matrix(1 0 0 1 0 0)"><polyline points="394,196 394,244 230,244 " fill="none" stroke="#000000" stroke-width="1px" stroke-dasharray="5,4" stroke-dashoffset="0" stroke-linejoin="miter" stroke-miterlimit="10" /><polyline points="249,250 230,244 249,238 " fill="none" stroke="#000000" stroke-width="1px" stroke-dashoffset="0" stroke-linejoin="round" stroke-miterlimit="10" /><text x="332px" y="241.000625610352px" font-family="Verdana" font-size="8.639999pt" font-style="italic" fill="#1E1E1E">«use»</text></g></svg>