<?xml version="1.0" encoding="utf-8" standalone="no"?><!DOCTYPE svg PUBLIC "-//W3C//DTD SVG 1.1//EN" "http://www.w3.org/Graphics/SVG/1.1/DTD/svg11.dtd"><svg width="470px" height="416px" version="1.1" xmlns="http://www.w3.org/2000/svg"><desc /><defs><linearGradient id="fs1" x1="0.999998867511749px" y1="-3.53212698200878E-07px" x2="0.999998688697815px" y2="0.999999463558197px"><stop offset="0%" stop-color="#D3D3D3" stop-opacity="1" /><stop offset="100%" stop-color="#FFFFFF" stop-opacity="1" /></linearGradient><linearGradient id="fs2" x1="0.999999225139618px" y1="-6.05507523232518E-07px" x2="0.999999046325684px" y2="0.999999046325684px"><stop offset="0%" stop-color="#FFFFFF" stop-opacity="0.5490196" /><stop offset="100%" stop-color="#FFFFFF" stop-opacity="0.1568628" /></linearGradient><linearGradient id="fs3" x1="0.999999523162842px" y1="-4.01547083583864E-07px" x2="0.999999523162842px" y2="0.999999463558197px"><stop offset="0%" stop-color="#D3D3D3" stop-opacity="1" /><stop offset="100%" stop-color="#FFFFFF" stop-opacity="1" /></linearGradient><linearGradient id="fs4" x1="0.999998986721039px" y1="-6.93581341693061E-07px" x2="0.999998986721039px" y2="0.999999046325684px"><stop offset="0%" stop-color="#FFFFFF" stop-opacity="0.5490196" /><stop offset="100%" stop-color="#FFFFFF" stop-opacity="0.1568628" /></linearGradient><linearGradient id="fs5" x1="0.999999582767487px" y1="-2.72478388296804E-07px" x2="0.999999105930328px" y2="0.999999344348907px"><stop offset="0%" stop-color="#D3D3D3" stop-opacity="1" /><stop offset="100%" stop-color="#FFFFFF" stop-opacity="1" /></linearGradient><linearGradient id="fs6" x1="0.999999344348907px" y1="-1.58945724137993E-07px" x2="0.999999105930328px" y2="0.999999701976776px"><stop offset="0%" stop-color="#FFFFFF" stop-opacity="0.5490196" /><stop offset="100%" stop-color="#FFFFFF" stop-opacity="0.1568628" /></linearGradient><linearGradient id="fs7" x1="0.999998986721039px" y1="-1.87388639005803E-06px" x2="0.999998986721039px" y2="0.999997854232788px"><stop offset="0%" stop-color="#D3D3D3" stop-opacity="1" /><stop offset="100%" stop-color="#FFFFFF" stop-opacity="1" /></linearGradient><linearGradient id="fs8" x1="0.99999862909317px" y1="-5.54865073354449E-06px" x2="0.99999862909317px" y2="0.999993503093719px"><stop offset="0%" stop-color="#FFFFFF" stop-opacity="0.5490196" /><stop offset="100%" stop-color="#FFFFFF" stop-opacity="0.1568628" /></linearGradient><linearGradient id="fs9" x1="0.999999403953552px" y1="-3.81469732246842E-07px" x2="0.999999105930328px" y2="0.999999642372131px"><stop offset="0%" stop-color="#D3D3D3" stop-opacity="1" /><stop offset="100%" stop-color="#FFFFFF" stop-opacity="1" /></linearGradient><linearGradient id="fs10" x1="0.999999105930328px" y1="-9.84437974693719E-07px" x2="0.999998807907104px" y2="0.999998688697815px"><stop offset="0%" stop-color="#FFFFFF" stop-opacity="0.5490196" /><stop offset="100%" stop-color="#FFFFFF" stop-opacity="0.1568628" /></linearGradient><linearGradient id="fs11" x1="0.999989807605743px" y1="-1.12433181129745E-05px" x2="0.999988555908203px" y2="0.999988734722137px"><stop offset="0%" stop-color="#D3D3D3" stop-opacity="1" /><stop offset="100%" stop-color="#FFFFFF" stop-opacity="1" /></linearGradient><linearGradient id="fs12" x1="0.999988555908203px" y1="-2.77432536677225E-05px" x2="0.999987304210663px" y2="0.999972283840179px"><stop offset="0%" stop-color="#FFFFFF" stop-opacity="0.5490196" /><stop offset="100%" stop-color="#FFFFFF" stop-opacity="0.1568628" /></linearGradient><linearGradient id="fs13" x1="0.999872863292694px" y1="-9.63712955126539E-06px" x2="0.999870300292969px" y2="0.999990344047546px"><stop offset="0%" stop-color="#D3D3D3" stop-opacity="1" /><stop offset="100%" stop-color="#FFFFFF" stop-opacity="1" /></linearGradient><linearGradient id="fs14" x1="0.999888122081757px" y1="-1.80331135197775E-05px" x2="0.999882996082306px" y2="0.999981939792633px"><stop offset="0%" stop-color="#FFFFFF" stop-opacity="0.5490196" /><stop offset="100%" stop-color="#FFFFFF" stop-opacity="0.1568628" /></linearGradient><clipPath id="cp1"><path d="M 247 98 L 408 98  408 206  247 206 z " /></clipPath><clipPath id="cp2"><path d="M 247 98 L 408 98  408 206  247 206 z " /></clipPath><clipPath id="cp3"><path d="M 245 96 L 408 96  408 206  245 206 z " /></clipPath><clipPath id="cp4"><path d="M 6 98 L 187 98  187 155  6 155 z " /></clipPath><clipPath id="cp5"><path d="M 6 98 L 187 98  187 155  6 155 z " /></clipPath><clipPath id="cp6"><path d="M 4 96 L 187 96  187 155  4 155 z " /></clipPath><clipPath id="cp7"><path d="M 142 6 L 282 6  282 48  142 48 z " /></clipPath><clipPath id="cp8"><path d="M 142 6 L 282 6  282 48  142 48 z " /></clipPath><clipPath id="cp9"><path d="M 140 4 L 282 4  282 48  140 48 z " /></clipPath><clipPath id="cp10"><path d="M 6 241 L 187 241  187 298  6 298 z " /></clipPath><clipPath id="cp11"><path d="M 6 241 L 187 241  187 298  6 298 z " /></clipPath><clipPath id="cp12"><path d="M 4 239 L 187 239  187 298  4 298 z " /></clipPath><clipPath id="cp13"><path d="M 247 241 L 455 241  455 401  247 401 z " /></clipPath><clipPath id="cp14"><path d="M 247 241 L 455 241  455 401  247 401 z " /></clipPath><clipPath id="cp15"><path d="M 245 239 L 455 239  455 401  245 401 z " /></clipPath><clipPath id="cp16"><path d="M 96 154 L 90 173  102 173 z " /></clipPath><clipPath id="cp17"><path d="M 343 205 L 337 224  349 224 z " /></clipPath></defs><g transform="matrix(1 0 0 1 0 0)"><g clip-path="url(#cp1)"><rect x="246px" y="97px" width="163px" height="110px" fill="rgba(0,0,0,0.235)" /></g><g clip-path="url(#cp2)"><path fill="none" d="M 247 98 L 408 98  408 206  247 206 z " stroke="rgba(0,0,0,0.047)" stroke-width="10px" stroke-dashoffset="0" stroke-linejoin="round" stroke-miterlimit="10" /><path fill="none" d="M 247 98 L 408 98  408 206  247 206 z " stroke="rgba(0,0,0,0.047)" stroke-width="8px" stroke-dashoffset="0" stroke-linejoin="round" stroke-miterlimit="10" /><path fill="none" d="M 247 98 L 408 98  408 206  247 206 z " stroke="rgba(0,0,0,0.047)" stroke-width="6px" stroke-dashoffset="0" stroke-linejoin="round" stroke-miterlimit="10" /><path fill="none" d="M 247 98 L 408 98  408 206  247 206 z " stroke="rgba(0,0,0,0.055)" stroke-width="4px" stroke-dashoffset="0" stroke-linejoin="round" stroke-miterlimit="10" /><path fill="none" d="M 247 98 L 408 98  408 206  247 206 z " stroke="rgba(0,0,0,0.047)" stroke-width="2px" stroke-dashoffset="0" stroke-linejoin="round" stroke-miterlimit="10" /></g><rect x="246px" y="97px" width="161px" height="108px" fill="url(#fs1)" /><path d="M 407 133 C 326.5 133  246 133  246 160 L 246 97  407 97  407 133 z " fill="url(#fs2)" /><rect x="246px" y="97px" width="161px" height="108px" fill="none" stroke="#000000" stroke-width="1px" stroke-dashoffset="0" stroke-linejoin="round" stroke-miterlimit="10" /><g clip-path="url(#cp3)"><text x="297px" y="114.556243896484px" font-family="Verdana" font-size="9.599999pt" font-weight="bold" font-style="italic" fill="#000000">Iterator</text><line x1="246px" y1="121px" x2="407px" y2="121px" stroke="#000000" stroke-width="1px" stroke-dashoffset="0" stroke-linejoin="round" stroke-miterlimit="10" /><line x1="246px" y1="131px" x2="407px" y2="131px" stroke="#000000" stroke-width="1px" stroke-dashoffset="0" stroke-linejoin="round" stroke-miterlimit="10" /><text x="249px" y="148.000625610352px" font-family="Verdana" font-size="8.639999pt" font-style="italic" fill="#000000">+ first (): Object</text><text x="249px" y="165.000625610352px" font-family="Verdana" font-size="8.639999pt" font-style="italic" fill="#000000">+ next (): Object</text><text x="249px" y="182.000625610352px" font-family="Verdana" font-size="8.639999pt" font-style="italic" fill="#000000">+ isDone (): bool</text><text x="249px" y="199.000625610352px" font-family="Verdana" font-size="8.639999pt" font-style="italic" fill="#000000">+ currentItem (): Object</text></g></g><g transform="matrix(1 0 0 1 0 0)"><g clip-path="url(#cp4)"><rect x="5px" y="97px" width="183px" height="59px" fill="rgba(0,0,0,0.235)" /></g><g clip-path="url(#cp5)"><path fill="none" d="M 6 98 L 187 98  187 155  6 155 z " stroke="rgba(0,0,0,0.047)" stroke-width="10px" stroke-dashoffset="0" stroke-linejoin="round" stroke-miterlimit="10" /><path fill="none" d="M 6 98 L 187 98  187 155  6 155 z " stroke="rgba(0,0,0,0.047)" stroke-width="8px" stroke-dashoffset="0" stroke-linejoin="round" stroke-miterlimit="10" /><path fill="none" d="M 6 98 L 187 98  187 155  6 155 z " stroke="rgba(0,0,0,0.047)" stroke-width="6px" stroke-dashoffset="0" stroke-linejoin="round" stroke-miterlimit="10" /><path fill="none" d="M 6 98 L 187 98  187 155  6 155 z " stroke="rgba(0,0,0,0.055)" stroke-width="4px" stroke-dashoffset="0" stroke-linejoin="round" stroke-miterlimit="10" /><path fill="none" d="M 6 98 L 187 98  187 155  6 155 z " stroke="rgba(0,0,0,0.047)" stroke-width="2px" stroke-dashoffset="0" stroke-linejoin="round" stroke-miterlimit="10" /></g><rect x="5px" y="97px" width="181px" height="57px" fill="url(#fs3)" /><path d="M 186 116 C 95.5 116  5 116  5 130.25 L 5 97  186 97  186 116 z " fill="url(#fs4)" /><rect x="5px" y="97px" width="181px" height="57px" fill="none" stroke="#000000" stroke-width="1px" stroke-dashoffset="0" stroke-linejoin="round" stroke-miterlimit="10" /><g clip-path="url(#cp6)"><text x="57px" y="114.556243896484px" font-family="Verdana" font-size="9.599999pt" font-weight="bold" font-style="italic" fill="#000000">Aggregate</text><line x1="5px" y1="121px" x2="186px" y2="121px" stroke="#000000" stroke-width="1px" stroke-dashoffset="0" stroke-linejoin="round" stroke-miterlimit="10" /><line x1="5px" y1="131px" x2="186px" y2="131px" stroke="#000000" stroke-width="1px" stroke-dashoffset="0" stroke-linejoin="round" stroke-miterlimit="10" /><text x="8px" y="148.000625610352px" font-family="Verdana" font-size="8.639999pt" font-style="italic" fill="#000000">+ createIterator (): Iterator</text></g></g><g transform="matrix(1 0 0 1 0 0)"><g clip-path="url(#cp7)"><rect x="141px" y="5px" width="142px" height="44px" fill="rgba(0,0,0,0.235)" /></g><g clip-path="url(#cp8)"><path fill="none" d="M 142 6 L 282 6  282 48  142 48 z " stroke="rgba(0,0,0,0.047)" stroke-width="10px" stroke-dashoffset="0" stroke-linejoin="round" stroke-miterlimit="10" /><path fill="none" d="M 142 6 L 282 6  282 48  142 48 z " stroke="rgba(0,0,0,0.047)" stroke-width="8px" stroke-dashoffset="0" stroke-linejoin="round" stroke-miterlimit="10" /><path fill="none" d="M 142 6 L 282 6  282 48  142 48 z " stroke="rgba(0,0,0,0.047)" stroke-width="6px" stroke-dashoffset="0" stroke-linejoin="round" stroke-miterlimit="10" /><path fill="none" d="M 142 6 L 282 6  282 48  142 48 z " stroke="rgba(0,0,0,0.055)" stroke-width="4px" stroke-dashoffset="0" stroke-linejoin="round" stroke-miterlimit="10" /><path fill="none" d="M 142 6 L 282 6  282 48  142 48 z " stroke="rgba(0,0,0,0.047)" stroke-width="2px" stroke-dashoffset="0" stroke-linejoin="round" stroke-miterlimit="10" /></g><rect x="141px" y="5px" width="140px" height="42px" fill="url(#fs5)" /><path d="M 281 19 C 211 19  141 19  141 29.5 L 141 5  281 5  281 19 z " fill="url(#fs6)" /><rect x="141px" y="5px" width="140px" height="42px" fill="none" stroke="#000000" stroke-width="1px" stroke-dashoffset="0" stroke-linejoin="round" stroke-miterlimit="10" /><g clip-path="url(#cp9)"><text x="191px" y="22.5562477111816px" font-family="Verdana" font-size="9.599999pt" font-weight="bold" fill="#000000">Client</text><line x1="141px" y1="29px" x2="281px" y2="29px" stroke="#000000" stroke-width="1px" stroke-dashoffset="0" stroke-linejoin="round" stroke-miterlimit="10" /><line x1="141px" y1="39px" x2="281px" y2="39px" stroke="#000000" stroke-width="1px" stroke-dashoffset="0" stroke-linejoin="round" stroke-miterlimit="10" /></g></g><g transform="matrix(1 0 0 1 0 0)"><g clip-path="url(#cp10)"><rect x="5px" y="240px" width="183px" height="59px" fill="rgba(0,0,0,0.235)" /></g><g clip-path="url(#cp11)"><path fill="none" d="M 6 241 L 187 241  187 298  6 298 z " stroke="rgba(0,0,0,0.047)" stroke-width="10px" stroke-dashoffset="0" stroke-linejoin="round" stroke-miterlimit="10" /><path fill="none" d="M 6 241 L 187 241  187 298  6 298 z " stroke="rgba(0,0,0,0.047)" stroke-width="8px" stroke-dashoffset="0" stroke-linejoin="round" stroke-miterlimit="10" /><path fill="none" d="M 6 241 L 187 241  187 298  6 298 z " stroke="rgba(0,0,0,0.047)" stroke-width="6px" stroke-dashoffset="0" stroke-linejoin="round" stroke-miterlimit="10" /><path fill="none" d="M 6 241 L 187 241  187 298  6 298 z " stroke="rgba(0,0,0,0.055)" stroke-width="4px" stroke-dashoffset="0" stroke-linejoin="round" stroke-miterlimit="10" /><path fill="none" d="M 6 241 L 187 241  187 298  6 298 z " stroke="rgba(0,0,0,0.047)" stroke-width="2px" stroke-dashoffset="0" stroke-linejoin="round" stroke-miterlimit="10" /></g><rect x="5px" y="240px" width="181px" height="57px" fill="url(#fs7)" /><path d="M 186 259 C 95.5 259  5 259  5 273.25 L 5 240  186 240  186 259 z " fill="url(#fs8)" /><rect x="5px" y="240px" width="181px" height="57px" fill="none" stroke="#000000" stroke-width="1px" stroke-dashoffset="0" stroke-linejoin="round" stroke-miterlimit="10" /><g clip-path="url(#cp12)"><text x="25px" y="257.556243896484px" font-family="Verdana" font-size="9.599999pt" font-weight="bold" fill="#000000">ConcreteAggregate</text><line x1="5px" y1="264px" x2="186px" y2="264px" stroke="#000000" stroke-width="1px" stroke-dashoffset="0" stroke-linejoin="round" stroke-miterlimit="10" /><line x1="5px" y1="274px" x2="186px" y2="274px" stroke="#000000" stroke-width="1px" stroke-dashoffset="0" stroke-linejoin="round" stroke-miterlimit="10" /><text x="8px" y="291.000610351563px" font-family="Verdana" font-size="8.639999pt" fill="#000000">+ createIterator (): Iterator</text></g></g><g transform="matrix(1 0 0 1 0 0)"><g clip-path="url(#cp13)"><rect x="246px" y="240px" width="210px" height="162px" fill="rgba(0,0,0,0.235)" /></g><g clip-path="url(#cp14)"><path fill="none" d="M 247 241 L 455 241  455 401  247 401 z " stroke="rgba(0,0,0,0.047)" stroke-width="10px" stroke-dashoffset="0" stroke-linejoin="round" stroke-miterlimit="10" /><path fill="none" d="M 247 241 L 455 241  455 401  247 401 z " stroke="rgba(0,0,0,0.047)" stroke-width="8px" stroke-dashoffset="0" stroke-linejoin="round" stroke-miterlimit="10" /><path fill="none" d="M 247 241 L 455 241  455 401  247 401 z " stroke="rgba(0,0,0,0.047)" stroke-width="6px" stroke-dashoffset="0" stroke-linejoin="round" stroke-miterlimit="10" /><path fill="none" d="M 247 241 L 455 241  455 401  247 401 z " stroke="rgba(0,0,0,0.055)" stroke-width="4px" stroke-dashoffset="0" stroke-linejoin="round" stroke-miterlimit="10" /><path fill="none" d="M 247 241 L 455 241  455 401  247 401 z " stroke="rgba(0,0,0,0.047)" stroke-width="2px" stroke-dashoffset="0" stroke-linejoin="round" stroke-miterlimit="10" /></g><rect x="246px" y="240px" width="208px" height="160px" fill="url(#fs9)" /><path d="M 454 293.3333 C 350 293.3333  246 293.3333  246 333.3333 L 246 240  454 240  454 293.3333 z " fill="url(#fs10)" /><rect x="246px" y="240px" width="208px" height="160px" fill="none" stroke="#000000" stroke-width="1px" stroke-dashoffset="0" stroke-linejoin="round" stroke-miterlimit="10" /><g clip-path="url(#cp15)"><text x="287px" y="257.556243896484px" font-family="Verdana" font-size="9.599999pt" font-weight="bold" fill="#000000">ConcreteIterator</text><line x1="246px" y1="264px" x2="454px" y2="264px" stroke="#000000" stroke-width="1px" stroke-dashoffset="0" stroke-linejoin="round" stroke-miterlimit="10" /><text x="249px" y="284.000610351563px" font-family="Verdana" font-size="8.639999pt" fill="#000000">- aggregate: ConcreteAggregate</text><line x1="246px" y1="291px" x2="454px" y2="291px" stroke="#000000" stroke-width="1px" stroke-dashoffset="0" stroke-linejoin="round" stroke-miterlimit="10" /><text x="249px" y="308.000610351563px" font-family="Verdana" font-size="8.639999pt" fill="#000000">+ first (): Object</text><text x="249px" y="325.000610351563px" font-family="Verdana" font-size="8.639999pt" fill="#000000">+ next (): Object</text><text x="249px" y="342.000610351563px" font-family="Verdana" font-size="8.639999pt" fill="#000000">+ isDone (): bool</text><text x="249px" y="359.000610351563px" font-family="Verdana" font-size="8.639999pt" fill="#000000">+ currentItem (): Object</text></g></g><g transform="matrix(1 0 0 1 0 0)"><polyline points="96,240 96,154 " fill="none" stroke="#000000" stroke-width="1px" stroke-dashoffset="0" stroke-linejoin="round" stroke-miterlimit="10" /><polygon points="96,154 90,173 102,173 96,154 " fill="url(#fs11)" /><g clip-path="url(#cp16)"><path d="M 102.1803 160.3404 C 96 160.3404  89.81966 160.3404  89.81966 165.0957 L 89.81966 154  102.1803 154  102.1803 160.3404 z " fill="url(#fs12)" /></g><polygon fill="none" points="96,154 90,173 102,173 96,154 " stroke="#000000" stroke-width="1px" stroke-dashoffset="0" stroke-linejoin="round" stroke-miterlimit="10" /></g><g transform="matrix(1 0 0 1 0 0)"><polyline points="343,240 343,205 " fill="none" stroke="#000000" stroke-width="1px" stroke-dashoffset="0" stroke-linejoin="round" stroke-miterlimit="10" /><polygon points="343,205 337,224 349,224 343,205 " fill="url(#fs13)" /><g clip-path="url(#cp17)"><path d="M 349.1803 211.3404 C 343 211.3404  336.8197 211.3404  336.8197 216.0957 L 336.8197 205  349.1803 205  349.1803 211.3404 z " fill="url(#fs14)" /></g><polygon fill="none" points="343,205 337,224 349,224 343,205 " stroke="#000000" stroke-width="1px" stroke-dashoffset="0" stroke-linejoin="round" stroke-miterlimit="10" /></g><g transform="matrix(1 0 0 1 0 0)"><polyline points="186,254 246,254 " fill="none" stroke="#000000" stroke-width="1px" stroke-dasharray="5,4" stroke-dashoffset="0" stroke-linejoin="miter" stroke-miterlimit="10" /><polyline points="227,248 246,254 227,260 " fill="none" stroke="#000000" stroke-width="1px" stroke-dashoffset="0" stroke-linejoin="round" stroke-miterlimit="10" /><text x="212px" y="251.000625610352px" font-family="Verdana" font-size="8.639999pt" font-style="italic" fill="#1E1E1E">«use»</text></g><g transform="matrix(1 0 0 1 0 0)"><polyline points="246,281 186,281 " fill="none" stroke="#000000" stroke-width="1px" stroke-dashoffset="0" stroke-linejoin="round" stroke-miterlimit="10" /><polyline points="205,287 186,281 205,275 " fill="none" stroke="#000000" stroke-width="1px" stroke-dashoffset="0" stroke-linejoin="round" stroke-miterlimit="10" /></g><g transform="matrix(1 0 0 1 0 0)"><polyline points="167,47 167,97 " fill="none" stroke="#000000" stroke-width="1px" stroke-dashoffset="0" stroke-linejoin="round" stroke-miterlimit="10" /><polyline points="173,78 167,97 161,78 " fill="none" stroke="#000000" stroke-width="1px" stroke-dashoffset="0" stroke-linejoin="round" stroke-miterlimit="10" /></g><g transform="matrix(1 0 0 1 0 0)"><polyline points="259,47 259,97 " fill="none" stroke="#000000" stroke-width="1px" stroke-dashoffset="0" stroke-linejoin="round" stroke-miterlimit="10" /><polyline points="265,78 259,97 253,78 " fill="none" stroke="#000000" stroke-width="1px" stroke-dashoffset="0" stroke-linejoin="round" stroke-miterlimit="10" /></g></svg>