<?xml version="1.0" encoding="utf-8" standalone="no"?><!DOCTYPE svg PUBLIC "-//W3C//DTD SVG 1.1//EN" "http://www.w3.org/Graphics/SVG/1.1/DTD/svg11.dtd"><svg width="412px" height="310px" version="1.1" xmlns="http://www.w3.org/2000/svg"><desc /><defs><linearGradient id="fs1" x1="0.999999582767487px" y1="-2.60093003134898E-07px" x2="0.999999344348907px" y2="0.999999463558197px"><stop offset="0%" stop-color="#D3D3D3" stop-opacity="1" /><stop offset="100%" stop-color="#FFFFFF" stop-opacity="1" /></linearGradient><linearGradient id="fs2" x1="0.999999344348907px" y1="-1.46719131066675E-07px" x2="0.999999105930328px" y2="0.999999642372131px"><stop offset="0%" stop-color="#FFFFFF" stop-opacity="0.5490196" /><stop offset="100%" stop-color="#FFFFFF" stop-opacity="0.1568628" /></linearGradient><linearGradient id="fs3" x1="0.999999403953552px" y1="-1.78019206487079E-06px" x2="0.999999403953552px" y2="0.999998211860657px"><stop offset="0%" stop-color="#D3D3D3" stop-opacity="1" /><stop offset="100%" stop-color="#FFFFFF" stop-opacity="1" /></linearGradient><linearGradient id="fs4" x1="0.999998807907104px" y1="-4.93666721013142E-06px" x2="0.999998807907104px" y2="0.999995052814484px"><stop offset="0%" stop-color="#FFFFFF" stop-opacity="0.5490196" /><stop offset="100%" stop-color="#FFFFFF" stop-opacity="0.1568628" /></linearGradient><linearGradient id="fs5" x1="0.999999761581421px" y1="-8.97575844760468E-08px" x2="0.999999701976776px" y2="0.999999642372131px"><stop offset="0%" stop-color="#D3D3D3" stop-opacity="1" /><stop offset="100%" stop-color="#FFFFFF" stop-opacity="1" /></linearGradient><linearGradient id="fs6" x1="0.999999761581421px" y1="-2.31193780564354E-07px" x2="0.999999701976776px" y2="0.999999523162842px"><stop offset="0%" stop-color="#FFFFFF" stop-opacity="0.5490196" /><stop offset="100%" stop-color="#FFFFFF" stop-opacity="0.1568628" /></linearGradient><linearGradient id="fs7" x1="0.999999105930328px" y1="-1.55701934545505E-06px" x2="0.999999105930328px" y2="0.999998450279236px"><stop offset="0%" stop-color="#D3D3D3" stop-opacity="1" /><stop offset="100%" stop-color="#FFFFFF" stop-opacity="1" /></linearGradient><linearGradient id="fs8" x1="0.999998688697815px" y1="-3.6831559100392E-06px" x2="0.999998688697815px" y2="0.999996304512024px"><stop offset="0%" stop-color="#FFFFFF" stop-opacity="0.5490196" /><stop offset="100%" stop-color="#FFFFFF" stop-opacity="0.1568628" /></linearGradient><linearGradient id="fs9" x1="0.999998688697815px" y1="-1.24561540815193E-06px" x2="0.999998450279236px" y2="0.999998450279236px"><stop offset="0%" stop-color="#D3D3D3" stop-opacity="1" /><stop offset="100%" stop-color="#FFFFFF" stop-opacity="1" /></linearGradient><linearGradient id="fs10" x1="0.999998688697815px" y1="-3.6831559100392E-06px" x2="0.999998271465302px" y2="0.999996304512024px"><stop offset="0%" stop-color="#FFFFFF" stop-opacity="0.5490196" /><stop offset="100%" stop-color="#FFFFFF" stop-opacity="0.1568628" /></linearGradient><linearGradient id="fs11" x1="0.99999737739563px" y1="-3.42544240083953E-06px" x2="0.99999737739563px" y2="0.999996244907379px"><stop offset="0%" stop-color="#D3D3D3" stop-opacity="1" /><stop offset="100%" stop-color="#FFFFFF" stop-opacity="1" /></linearGradient><linearGradient id="fs12" x1="0.99999737739563px" y1="-8.94480763236061E-06px" x2="0.99999737739563px" y2="0.999990522861481px"><stop offset="0%" stop-color="#FFFFFF" stop-opacity="0.5490196" /><stop offset="100%" stop-color="#FFFFFF" stop-opacity="0.1568628" /></linearGradient><linearGradient id="fs13" x1="0.999999105930328px" y1="-3.42544240083953E-06px" x2="0.999999105930328px" y2="0.999996244907379px"><stop offset="0%" stop-color="#D3D3D3" stop-opacity="1" /><stop offset="100%" stop-color="#FFFFFF" stop-opacity="1" /></linearGradient><linearGradient id="fs14" x1="0.999998271465302px" y1="-8.41864221001742E-06px" x2="0.999998271465302px" y2="0.999991595745087px"><stop offset="0%" stop-color="#FFFFFF" stop-opacity="0.5490196" /><stop offset="100%" stop-color="#FFFFFF" stop-opacity="0.1568628" /></linearGradient><clipPath id="cp1"><path d="M 135 6 L 275 6  275 50  135 50 z " /></clipPath><clipPath id="cp2"><path d="M 135 6 L 275 6  275 50  135 50 z " /></clipPath><clipPath id="cp3"><path d="M 133 4 L 275 4  275 50  133 50 z " /></clipPath><clipPath id="cp4"><path d="M 6 124.8711 L 397 124.8711  397 295  6 295 z M 6 95 L 156 95  156 124.8711  6 124.8711 z " /></clipPath><clipPath id="cp5"><path d="M 6 124.8711 L 397 124.8711  397 295  6 295 z M 6 95 L 156 95  156 124.8711  6 124.8711 z " /></clipPath><clipPath id="cp6"><path d="M 30 146 L 170 146  170 195  30 195 z " /></clipPath><clipPath id="cp7"><path d="M 30 146 L 170 146  170 195  30 195 z " /></clipPath><clipPath id="cp8"><path d="M 28 144 L 170 144  170 195  28 195 z " /></clipPath><clipPath id="cp9"><path d="M 222 146 L 362 146  362 195  222 195 z " /></clipPath><clipPath id="cp10"><path d="M 222 146 L 362 146  362 195  222 195 z " /></clipPath><clipPath id="cp11"><path d="M 220 144 L 362 144  362 195  220 195 z " /></clipPath><clipPath id="cp12"><path d="M 222 232.5 L 362 232.5  362 281.5  222 281.5 z " /></clipPath><clipPath id="cp13"><path d="M 222 232.5 L 362 232.5  362 281.5  222 281.5 z " /></clipPath><clipPath id="cp14"><path d="M 220 231 L 362 231  362 282  220 282 z " /></clipPath><clipPath id="cp15"><path d="M 29.5 232.5 L 170.5 232.5  170.5 281.5  29.5 281.5 z " /></clipPath><clipPath id="cp16"><path d="M 29.5 232.5 L 170.5 232.5  170.5 281.5  29.5 281.5 z " /></clipPath><clipPath id="cp17"><path d="M 27 231 L 170 231  170 282  27 282 z " /></clipPath></defs><g transform="matrix(1 0 0 1 0 0)"><g clip-path="url(#cp1)"><rect x="134px" y="5px" width="142px" height="46px" fill="rgba(0,0,0,0.235)" /></g><g clip-path="url(#cp2)"><path fill="none" d="M 135 6 L 275 6  275 50  135 50 z " stroke="rgba(0,0,0,0.047)" stroke-width="10px" stroke-dashoffset="0" stroke-linejoin="round" stroke-miterlimit="10" /><path fill="none" d="M 135 6 L 275 6  275 50  135 50 z " stroke="rgba(0,0,0,0.047)" stroke-width="8px" stroke-dashoffset="0" stroke-linejoin="round" stroke-miterlimit="10" /><path fill="none" d="M 135 6 L 275 6  275 50  135 50 z " stroke="rgba(0,0,0,0.047)" stroke-width="6px" stroke-dashoffset="0" stroke-linejoin="round" stroke-miterlimit="10" /><path fill="none" d="M 135 6 L 275 6  275 50  135 50 z " stroke="rgba(0,0,0,0.055)" stroke-width="4px" stroke-dashoffset="0" stroke-linejoin="round" stroke-miterlimit="10" /><path fill="none" d="M 135 6 L 275 6  275 50  135 50 z " stroke="rgba(0,0,0,0.047)" stroke-width="2px" stroke-dashoffset="0" stroke-linejoin="round" stroke-miterlimit="10" /></g><rect x="134px" y="5px" width="140px" height="44px" fill="url(#fs1)" /><path d="M 274 19.66667 C 204 19.66667  134 19.66667  134 30.66666 L 134 5  274 5  274 19.66667 z " fill="url(#fs2)" /><rect x="134px" y="5px" width="140px" height="44px" fill="none" stroke="#000000" stroke-width="1px" stroke-dashoffset="0" stroke-linejoin="round" stroke-miterlimit="10" /><g clip-path="url(#cp3)"><text x="178px" y="22.5562477111816px" font-family="Verdana" font-size="9.599999pt" font-weight="bold" fill="#000000">Facade</text><line x1="134px" y1="29px" x2="274px" y2="29px" stroke="#000000" stroke-width="1px" stroke-dashoffset="0" stroke-linejoin="round" stroke-miterlimit="10" /><line x1="134px" y1="39px" x2="274px" y2="39px" stroke="#000000" stroke-width="1px" stroke-dashoffset="0" stroke-linejoin="round" stroke-miterlimit="10" /></g></g><g transform="matrix(1 0 0 1 0 0)"><g transform="matrix(1 0 0 1 0 0)"><g clip-path="url(#cp4)"><rect x="5px" y="94px" width="393px" height="202px" fill="rgba(0,0,0,0.235)" /></g><g clip-path="url(#cp5)"><path fill="none" d="M 6 124.8711 L 397 124.8711  397 295  6 295 z M 6 95 L 156 95  156 124.8711  6 124.8711 z " stroke="rgba(0,0,0,0.047)" stroke-width="10px" stroke-dashoffset="0" stroke-linejoin="round" stroke-miterlimit="10" /><path fill="none" d="M 6 124.8711 L 397 124.8711  397 295  6 295 z M 6 95 L 156 95  156 124.8711  6 124.8711 z " stroke="rgba(0,0,0,0.047)" stroke-width="8px" stroke-dashoffset="0" stroke-linejoin="round" stroke-miterlimit="10" /><path fill="none" d="M 6 124.8711 L 397 124.8711  397 295  6 295 z M 6 95 L 156 95  156 124.8711  6 124.8711 z " stroke="rgba(0,0,0,0.047)" stroke-width="6px" stroke-dashoffset="0" stroke-linejoin="round" stroke-miterlimit="10" /><path fill="none" d="M 6 124.8711 L 397 124.8711  397 295  6 295 z M 6 95 L 156 95  156 124.8711  6 124.8711 z " stroke="rgba(0,0,0,0.055)" stroke-width="4px" stroke-dashoffset="0" stroke-linejoin="round" stroke-miterlimit="10" /><path fill="none" d="M 6 124.8711 L 397 124.8711  397 295  6 295 z M 6 95 L 156 95  156 124.8711  6 124.8711 z " stroke="rgba(0,0,0,0.047)" stroke-width="2px" stroke-dashoffset="0" stroke-linejoin="round" stroke-miterlimit="10" /></g><rect x="5px" y="94px" width="150px" height="30px" fill="url(#fs3)" /><path d="M 155 103.957 C 80 103.957  5 103.957  5 111.4248 L 5 94  155 94  155 103.957 z " fill="url(#fs4)" /><rect x="5px" y="94px" width="150px" height="30px" fill="none" stroke="#000000" stroke-width="1px" stroke-dashoffset="0" stroke-linejoin="round" stroke-miterlimit="10" /><text x="39px" y="116.556243896484px" font-family="Verdana" font-size="9.599999pt" font-weight="bold" fill="#000000">SubSystem</text><rect x="5px" y="124px" width="391px" height="170px" fill="url(#fs5)" /><path d="M 396 180.5807 C 200.5 180.5807  5 180.5807  5 223.1129 L 5 123.8711  396 123.8711  396 180.5807 z " fill="url(#fs6)" /><rect x="5px" y="124px" width="391px" height="170px" fill="none" stroke="#000000" stroke-width="1px" stroke-dashoffset="0" stroke-linejoin="round" stroke-miterlimit="10" /></g><g transform="matrix(1 0 0 1 0 0)"><g clip-path="url(#cp6)"><rect x="29px" y="145px" width="142px" height="51px" fill="rgba(0,0,0,0.235)" /></g><g clip-path="url(#cp7)"><path fill="none" d="M 30 146 L 170 146  170 195  30 195 z " stroke="rgba(0,0,0,0.047)" stroke-width="10px" stroke-dashoffset="0" stroke-linejoin="round" stroke-miterlimit="10" /><path fill="none" d="M 30 146 L 170 146  170 195  30 195 z " stroke="rgba(0,0,0,0.047)" stroke-width="8px" stroke-dashoffset="0" stroke-linejoin="round" stroke-miterlimit="10" /><path fill="none" d="M 30 146 L 170 146  170 195  30 195 z " stroke="rgba(0,0,0,0.047)" stroke-width="6px" stroke-dashoffset="0" stroke-linejoin="round" stroke-miterlimit="10" /><path fill="none" d="M 30 146 L 170 146  170 195  30 195 z " stroke="rgba(0,0,0,0.055)" stroke-width="4px" stroke-dashoffset="0" stroke-linejoin="round" stroke-miterlimit="10" /><path fill="none" d="M 30 146 L 170 146  170 195  30 195 z " stroke="rgba(0,0,0,0.047)" stroke-width="2px" stroke-dashoffset="0" stroke-linejoin="round" stroke-miterlimit="10" /></g><rect x="29px" y="145px" width="140px" height="49px" fill="url(#fs7)" /><path d="M 169 161.3333 C 99 161.3333  29 161.3333  29 173.5833 L 29 145  169 145  169 161.3333 z " fill="url(#fs8)" /><rect x="29px" y="145px" width="140px" height="49px" fill="none" stroke="#000000" stroke-width="1px" stroke-dashoffset="0" stroke-linejoin="round" stroke-miterlimit="10" /><g clip-path="url(#cp8)"><text x="53px" y="162.556243896484px" font-family="Verdana" font-size="9.599999pt" font-weight="bold" fill="#000000">SubSystemA</text><line x1="29px" y1="169px" x2="169px" y2="169px" stroke="#000000" stroke-width="1px" stroke-dashoffset="0" stroke-linejoin="round" stroke-miterlimit="10" /><line x1="29px" y1="179px" x2="169px" y2="179px" stroke="#000000" stroke-width="1px" stroke-dashoffset="0" stroke-linejoin="round" stroke-miterlimit="10" /></g></g><g transform="matrix(1 0 0 1 0 0)"><g clip-path="url(#cp9)"><rect x="221px" y="145px" width="142px" height="51px" fill="rgba(0,0,0,0.235)" /></g><g clip-path="url(#cp10)"><path fill="none" d="M 222 146 L 362 146  362 195  222 195 z " stroke="rgba(0,0,0,0.047)" stroke-width="10px" stroke-dashoffset="0" stroke-linejoin="round" stroke-miterlimit="10" /><path fill="none" d="M 222 146 L 362 146  362 195  222 195 z " stroke="rgba(0,0,0,0.047)" stroke-width="8px" stroke-dashoffset="0" stroke-linejoin="round" stroke-miterlimit="10" /><path fill="none" d="M 222 146 L 362 146  362 195  222 195 z " stroke="rgba(0,0,0,0.047)" stroke-width="6px" stroke-dashoffset="0" stroke-linejoin="round" stroke-miterlimit="10" /><path fill="none" d="M 222 146 L 362 146  362 195  222 195 z " stroke="rgba(0,0,0,0.055)" stroke-width="4px" stroke-dashoffset="0" stroke-linejoin="round" stroke-miterlimit="10" /><path fill="none" d="M 222 146 L 362 146  362 195  222 195 z " stroke="rgba(0,0,0,0.047)" stroke-width="2px" stroke-dashoffset="0" stroke-linejoin="round" stroke-miterlimit="10" /></g><rect x="221px" y="145px" width="140px" height="49px" fill="url(#fs9)" /><path d="M 361 161.3333 C 291 161.3333  221 161.3333  221 173.5833 L 221 145  361 145  361 161.3333 z " fill="url(#fs10)" /><rect x="221px" y="145px" width="140px" height="49px" fill="none" stroke="#000000" stroke-width="1px" stroke-dashoffset="0" stroke-linejoin="round" stroke-miterlimit="10" /><g clip-path="url(#cp11)"><text x="245px" y="162.556243896484px" font-family="Verdana" font-size="9.599999pt" font-weight="bold" fill="#000000">SubSystemB</text><line x1="221px" y1="169px" x2="361px" y2="169px" stroke="#000000" stroke-width="1px" stroke-dashoffset="0" stroke-linejoin="round" stroke-miterlimit="10" /><line x1="221px" y1="179px" x2="361px" y2="179px" stroke="#000000" stroke-width="1px" stroke-dashoffset="0" stroke-linejoin="round" stroke-miterlimit="10" /></g></g><g transform="matrix(1 0 0 1 0 0)"><g clip-path="url(#cp12)"><rect x="221px" y="232px" width="142px" height="51px" fill="rgba(0,0,0,0.235)" /></g><g clip-path="url(#cp13)"><path fill="none" d="M 222 232.5 L 362 232.5  362 281.5  222 281.5 z " stroke="rgba(0,0,0,0.047)" stroke-width="10px" stroke-dashoffset="0" stroke-linejoin="round" stroke-miterlimit="10" /><path fill="none" d="M 222 232.5 L 362 232.5  362 281.5  222 281.5 z " stroke="rgba(0,0,0,0.047)" stroke-width="8px" stroke-dashoffset="0" stroke-linejoin="round" stroke-miterlimit="10" /><path fill="none" d="M 222 232.5 L 362 232.5  362 281.5  222 281.5 z " stroke="rgba(0,0,0,0.047)" stroke-width="6px" stroke-dashoffset="0" stroke-linejoin="round" stroke-miterlimit="10" /><path fill="none" d="M 222 232.5 L 362 232.5  362 281.5  222 281.5 z " stroke="rgba(0,0,0,0.055)" stroke-width="4px" stroke-dashoffset="0" stroke-linejoin="round" stroke-miterlimit="10" /><path fill="none" d="M 222 232.5 L 362 232.5  362 281.5  222 281.5 z " stroke="rgba(0,0,0,0.047)" stroke-width="2px" stroke-dashoffset="0" stroke-linejoin="round" stroke-miterlimit="10" /></g><rect x="221px" y="232px" width="140px" height="49px" fill="url(#fs11)" /><path d="M 361 247.8333 C 291 247.8333  221 247.8333  221 260.0833 L 221 231.5  361 231.5  361 247.8333 z " fill="url(#fs12)" /><rect x="221px" y="232px" width="140px" height="49px" fill="none" stroke="#000000" stroke-width="1px" stroke-dashoffset="0" stroke-linejoin="round" stroke-miterlimit="10" /><g clip-path="url(#cp14)"><text x="245px" y="248.556243896484px" font-family="Verdana" font-size="9.599999pt" font-weight="bold" fill="#000000">SubSystemD</text><line x1="221px" y1="255px" x2="361px" y2="255px" stroke="#000000" stroke-width="1px" stroke-dashoffset="0" stroke-linejoin="round" stroke-miterlimit="10" /><line x1="221px" y1="265px" x2="361px" y2="265px" stroke="#000000" stroke-width="1px" stroke-dashoffset="0" stroke-linejoin="round" stroke-miterlimit="10" /></g></g><g transform="matrix(1 0 0 1 0 0)"><g clip-path="url(#cp15)"><rect x="28px" y="232px" width="143px" height="51px" fill="rgba(0,0,0,0.235)" /></g><g clip-path="url(#cp16)"><path fill="none" d="M 29.5 232.5 L 170.5 232.5  170.5 281.5  29.5 281.5 z " stroke="rgba(0,0,0,0.047)" stroke-width="10px" stroke-dashoffset="0" stroke-linejoin="round" stroke-miterlimit="10" /><path fill="none" d="M 29.5 232.5 L 170.5 232.5  170.5 281.5  29.5 281.5 z " stroke="rgba(0,0,0,0.047)" stroke-width="8px" stroke-dashoffset="0" stroke-linejoin="round" stroke-miterlimit="10" /><path fill="none" d="M 29.5 232.5 L 170.5 232.5  170.5 281.5  29.5 281.5 z " stroke="rgba(0,0,0,0.047)" stroke-width="6px" stroke-dashoffset="0" stroke-linejoin="round" stroke-miterlimit="10" /><path fill="none" d="M 29.5 232.5 L 170.5 232.5  170.5 281.5  29.5 281.5 z " stroke="rgba(0,0,0,0.055)" stroke-width="4px" stroke-dashoffset="0" stroke-linejoin="round" stroke-miterlimit="10" /><path fill="none" d="M 29.5 232.5 L 170.5 232.5  170.5 281.5  29.5 281.5 z " stroke="rgba(0,0,0,0.047)" stroke-width="2px" stroke-dashoffset="0" stroke-linejoin="round" stroke-miterlimit="10" /></g><rect x="28px" y="232px" width="141px" height="49px" fill="url(#fs13)" /><path d="M 169.5 247.8333 C 99 247.8333  28.5 247.8333  28.5 260.0833 L 28.5 231.5  169.5 231.5  169.5 247.8333 z " fill="url(#fs14)" /><rect x="28px" y="232px" width="141px" height="49px" fill="none" stroke="#000000" stroke-width="1px" stroke-dashoffset="0" stroke-linejoin="round" stroke-miterlimit="10" /><g clip-path="url(#cp17)"><text x="54px" y="248.556243896484px" font-family="Verdana" font-size="9.599999pt" font-weight="bold" fill="#000000">SubSystemC</text><line x1="28px" y1="255px" x2="170px" y2="255px" stroke="#000000" stroke-width="1px" stroke-dashoffset="0" stroke-linejoin="round" stroke-miterlimit="10" /><line x1="28px" y1="265px" x2="170px" y2="265px" stroke="#000000" stroke-width="1px" stroke-dashoffset="0" stroke-linejoin="round" stroke-miterlimit="10" /></g></g></g><g transform="matrix(1 0 0 1 0 0)"><polyline points="205,49 97,145 " fill="none" stroke="#000000" stroke-width="1px" stroke-dashoffset="0" stroke-linejoin="round" stroke-miterlimit="10" /><polyline points="115,137 97,145 107,128 " fill="none" stroke="#000000" stroke-width="1px" stroke-dashoffset="0" stroke-linejoin="round" stroke-miterlimit="10" /></g><g transform="matrix(1 0 0 1 0 0)"><polyline points="204,50 292,145 " fill="none" stroke="#000000" stroke-width="1px" stroke-dashoffset="0" stroke-linejoin="round" stroke-miterlimit="10" /><polyline points="284,127 292,145 275,135 " fill="none" stroke="#000000" stroke-width="1px" stroke-dashoffset="0" stroke-linejoin="round" stroke-miterlimit="10" /></g><g transform="matrix(1 0 0 1 0 0)"><polyline points="204,50 294,232 " fill="none" stroke="#000000" stroke-width="1px" stroke-dashoffset="0" stroke-linejoin="round" stroke-miterlimit="10" /><polyline points="291,212 294,232 280,218 " fill="none" stroke="#000000" stroke-width="1px" stroke-dashoffset="0" stroke-linejoin="round" stroke-miterlimit="10" /></g><g transform="matrix(1 0 0 1 0 0)"><polyline points="204,50 99,232 " fill="none" stroke="#000000" stroke-width="1px" stroke-dashoffset="0" stroke-linejoin="round" stroke-miterlimit="10" /><polyline points="114,219 99,232 103,212 " fill="none" stroke="#000000" stroke-width="1px" stroke-dashoffset="0" stroke-linejoin="round" stroke-miterlimit="10" /></g></svg>