<?xml version="1.0" encoding="utf-8" standalone="no"?><!DOCTYPE svg PUBLIC "-//W3C//DTD SVG 1.1//EN" "http://www.w3.org/Graphics/SVG/1.1/DTD/svg11.dtd"><svg width="441px" height="237px" version="1.1" xmlns="http://www.w3.org/2000/svg"><desc /><defs><linearGradient id="fs1" x1="0.999999701976776px" y1="-1.15596890282177E-07px" x2="0.999999463558197px" y2="0.999999642372131px"><stop offset="0%" stop-color="#D3D3D3" stop-opacity="1" /><stop offset="100%" stop-color="#FFFFFF" stop-opacity="1" /></linearGradient><linearGradient id="fs2" x1="0.999999582767487px" y1="-2.00773541791932E-07px" x2="0.999999463558197px" y2="0.999999284744263px"><stop offset="0%" stop-color="#FFFFFF" stop-opacity="0.5490196" /><stop offset="100%" stop-color="#FFFFFF" stop-opacity="0.1568628" /></linearGradient><linearGradient id="fs3" x1="0.999999344348907px" y1="-9.24775122257415E-07px" x2="0.999999105930328px" y2="0.999998867511749px"><stop offset="0%" stop-color="#D3D3D3" stop-opacity="1" /><stop offset="100%" stop-color="#FFFFFF" stop-opacity="1" /></linearGradient><linearGradient id="fs4" x1="0.999999105930328px" y1="-2.40928238781635E-06px" x2="0.999999105930328px" y2="0.999997198581696px"><stop offset="0%" stop-color="#FFFFFF" stop-opacity="0.5490196" /><stop offset="100%" stop-color="#FFFFFF" stop-opacity="0.1568628" /></linearGradient><linearGradient id="fs5" x1="0.999999165534973px" y1="-4.08717568234351E-07px" x2="0.999998867511749px" y2="0.999999582767487px"><stop offset="0%" stop-color="#D3D3D3" stop-opacity="1" /><stop offset="100%" stop-color="#FFFFFF" stop-opacity="1" /></linearGradient><linearGradient id="fs6" x1="0.999999046325684px" y1="-7.04251817751356E-07px" x2="0.999998688697815px" y2="0.999999046325684px"><stop offset="0%" stop-color="#FFFFFF" stop-opacity="0.5490196" /><stop offset="100%" stop-color="#FFFFFF" stop-opacity="0.1568628" /></linearGradient><linearGradient id="fs7" x1="0.999987900257111px" y1="-2.81082952824363E-06px" x2="0.99998664855957px" y2="0.999997198581696px"><stop offset="0%" stop-color="#D3D3D3" stop-opacity="1" /><stop offset="100%" stop-color="#FFFFFF" stop-opacity="1" /></linearGradient><linearGradient id="fs8" x1="0.999989211559296px" y1="-4.85506916447775E-06px" x2="0.999987900257111px" y2="0.999995172023773px"><stop offset="0%" stop-color="#FFFFFF" stop-opacity="0.5490196" /><stop offset="100%" stop-color="#FFFFFF" stop-opacity="0.1568628" /></linearGradient><linearGradient id="fs9" x1="0.999965667724609px" y1="-4.01547094952548E-06px" x2="0.999963104724884px" y2="0.9999960064888px"><stop offset="0%" stop-color="#D3D3D3" stop-opacity="1" /><stop offset="100%" stop-color="#FFFFFF" stop-opacity="1" /></linearGradient><linearGradient id="fs10" x1="0.999970734119415px" y1="-5.54865073354449E-06px" x2="0.999969482421875px" y2="0.999994456768036px"><stop offset="0%" stop-color="#FFFFFF" stop-opacity="0.5490196" /><stop offset="100%" stop-color="#FFFFFF" stop-opacity="0.1568628" /></linearGradient><clipPath id="cp1"><path d="M 99 6 L 239 6  239 72  99 72 z " /></clipPath><clipPath id="cp2"><path d="M 99 6 L 239 6  239 72  99 72 z " /></clipPath><clipPath id="cp3"><path d="M 97 4 L 239 4  239 72  97 72 z " /></clipPath><clipPath id="cp4"><path d="M 6 156 L 146 156  146 222  6 222 z " /></clipPath><clipPath id="cp5"><path d="M 6 156 L 146 156  146 222  6 222 z " /></clipPath><clipPath id="cp6"><path d="M 4 154 L 146 154  146 222  4 222 z " /></clipPath><clipPath id="cp7"><path d="M 239 110 L 426 110  426 222  239 222 z " /></clipPath><clipPath id="cp8"><path d="M 239 110 L 426 110  426 222  239 222 z " /></clipPath><clipPath id="cp9"><path d="M 237 108 L 426 108  426 222  237 222 z " /></clipPath><clipPath id="cp10"><path d="M 121 71 L 115 90  127 90 z " /></clipPath><clipPath id="cp11"><path d="M 178 71 L 172 90  184 90 z " /></clipPath></defs><g transform="matrix(1 0 0 1 0 0)"><g clip-path="url(#cp1)"><rect x="98px" y="5px" width="142px" height="68px" fill="rgba(0,0,0,0.235)" /></g><g clip-path="url(#cp2)"><path fill="none" d="M 99 6 L 239 6  239 72  99 72 z " stroke="rgba(0,0,0,0.047)" stroke-width="10px" stroke-dashoffset="0" stroke-linejoin="round" stroke-miterlimit="10" /><path fill="none" d="M 99 6 L 239 6  239 72  99 72 z " stroke="rgba(0,0,0,0.047)" stroke-width="8px" stroke-dashoffset="0" stroke-linejoin="round" stroke-miterlimit="10" /><path fill="none" d="M 99 6 L 239 6  239 72  99 72 z " stroke="rgba(0,0,0,0.047)" stroke-width="6px" stroke-dashoffset="0" stroke-linejoin="round" stroke-miterlimit="10" /><path fill="none" d="M 99 6 L 239 6  239 72  99 72 z " stroke="rgba(0,0,0,0.055)" stroke-width="4px" stroke-dashoffset="0" stroke-linejoin="round" stroke-miterlimit="10" /><path fill="none" d="M 99 6 L 239 6  239 72  99 72 z " stroke="rgba(0,0,0,0.047)" stroke-width="2px" stroke-dashoffset="0" stroke-linejoin="round" stroke-miterlimit="10" /></g><rect x="98px" y="5px" width="140px" height="66px" fill="url(#fs1)" /><path d="M 238 27 C 168 27  98 27  98 43.5 L 98 5  238 5  238 27 z " fill="url(#fs2)" /><rect x="98px" y="5px" width="140px" height="66px" fill="none" stroke="#000000" stroke-width="1px" stroke-dashoffset="0" stroke-linejoin="round" stroke-miterlimit="10" /><g clip-path="url(#cp3)"><text x="127px" y="22.5562477111816px" font-family="Verdana" font-size="9.599999pt" font-weight="bold" font-style="italic" fill="#000000">Component</text><line x1="98px" y1="29px" x2="238px" y2="29px" stroke="#000000" stroke-width="1px" stroke-dashoffset="0" stroke-linejoin="round" stroke-miterlimit="10" /><line x1="98px" y1="39px" x2="238px" y2="39px" stroke="#000000" stroke-width="1px" stroke-dashoffset="0" stroke-linejoin="round" stroke-miterlimit="10" /><text x="101px" y="56.0006217956543px" font-family="Verdana" font-size="8.639999pt" font-style="italic" fill="#000000">+ operation ()</text></g></g><g transform="matrix(1 0 0 1 0 0)"><g clip-path="url(#cp4)"><rect x="5px" y="155px" width="142px" height="68px" fill="rgba(0,0,0,0.235)" /></g><g clip-path="url(#cp5)"><path fill="none" d="M 6 156 L 146 156  146 222  6 222 z " stroke="rgba(0,0,0,0.047)" stroke-width="10px" stroke-dashoffset="0" stroke-linejoin="round" stroke-miterlimit="10" /><path fill="none" d="M 6 156 L 146 156  146 222  6 222 z " stroke="rgba(0,0,0,0.047)" stroke-width="8px" stroke-dashoffset="0" stroke-linejoin="round" stroke-miterlimit="10" /><path fill="none" d="M 6 156 L 146 156  146 222  6 222 z " stroke="rgba(0,0,0,0.047)" stroke-width="6px" stroke-dashoffset="0" stroke-linejoin="round" stroke-miterlimit="10" /><path fill="none" d="M 6 156 L 146 156  146 222  6 222 z " stroke="rgba(0,0,0,0.055)" stroke-width="4px" stroke-dashoffset="0" stroke-linejoin="round" stroke-miterlimit="10" /><path fill="none" d="M 6 156 L 146 156  146 222  6 222 z " stroke="rgba(0,0,0,0.047)" stroke-width="2px" stroke-dashoffset="0" stroke-linejoin="round" stroke-miterlimit="10" /></g><rect x="5px" y="155px" width="140px" height="66px" fill="url(#fs3)" /><path d="M 145 177 C 75 177  5 177  5 193.5 L 5 155  145 155  145 177 z " fill="url(#fs4)" /><rect x="5px" y="155px" width="140px" height="66px" fill="none" stroke="#000000" stroke-width="1px" stroke-dashoffset="0" stroke-linejoin="round" stroke-miterlimit="10" /><g clip-path="url(#cp6)"><text x="59px" y="172.556243896484px" font-family="Verdana" font-size="9.599999pt" font-weight="bold" fill="#000000">Leaf</text><line x1="5px" y1="179px" x2="145px" y2="179px" stroke="#000000" stroke-width="1px" stroke-dashoffset="0" stroke-linejoin="round" stroke-miterlimit="10" /><line x1="5px" y1="189px" x2="145px" y2="189px" stroke="#000000" stroke-width="1px" stroke-dashoffset="0" stroke-linejoin="round" stroke-miterlimit="10" /><text x="8px" y="206.000625610352px" font-family="Verdana" font-size="8.639999pt" fill="#000000">+ operation ()</text></g></g><g transform="matrix(1 0 0 1 0 0)"><g clip-path="url(#cp7)"><rect x="238px" y="109px" width="189px" height="114px" fill="rgba(0,0,0,0.235)" /></g><g clip-path="url(#cp8)"><path fill="none" d="M 239 110 L 426 110  426 222  239 222 z " stroke="rgba(0,0,0,0.047)" stroke-width="10px" stroke-dashoffset="0" stroke-linejoin="round" stroke-miterlimit="10" /><path fill="none" d="M 239 110 L 426 110  426 222  239 222 z " stroke="rgba(0,0,0,0.047)" stroke-width="8px" stroke-dashoffset="0" stroke-linejoin="round" stroke-miterlimit="10" /><path fill="none" d="M 239 110 L 426 110  426 222  239 222 z " stroke="rgba(0,0,0,0.047)" stroke-width="6px" stroke-dashoffset="0" stroke-linejoin="round" stroke-miterlimit="10" /><path fill="none" d="M 239 110 L 426 110  426 222  239 222 z " stroke="rgba(0,0,0,0.055)" stroke-width="4px" stroke-dashoffset="0" stroke-linejoin="round" stroke-miterlimit="10" /><path fill="none" d="M 239 110 L 426 110  426 222  239 222 z " stroke="rgba(0,0,0,0.047)" stroke-width="2px" stroke-dashoffset="0" stroke-linejoin="round" stroke-miterlimit="10" /></g><rect x="238px" y="109px" width="187px" height="112px" fill="url(#fs5)" /><path d="M 425 146.3333 C 331.5 146.3333  238 146.3333  238 174.3333 L 238 109  425 109  425 146.3333 z " fill="url(#fs6)" /><rect x="238px" y="109px" width="187px" height="112px" fill="none" stroke="#000000" stroke-width="1px" stroke-dashoffset="0" stroke-linejoin="round" stroke-miterlimit="10" /><g clip-path="url(#cp9)"><text x="293px" y="126.556243896484px" font-family="Verdana" font-size="9.599999pt" font-weight="bold" fill="#000000">Composite</text><line x1="238px" y1="133px" x2="425px" y2="133px" stroke="#000000" stroke-width="1px" stroke-dashoffset="0" stroke-linejoin="round" stroke-miterlimit="10" /><text x="241px" y="153.000625610352px" font-family="Verdana" font-size="8.639999pt" fill="#000000">- children: Component[0...*]</text><line x1="238px" y1="160px" x2="425px" y2="160px" stroke="#000000" stroke-width="1px" stroke-dashoffset="0" stroke-linejoin="round" stroke-miterlimit="10" /><text x="241px" y="177.000625610352px" font-family="Verdana" font-size="8.639999pt" fill="#000000">+ operation ()</text><text x="241px" y="194.000625610352px" font-family="Verdana" font-size="8.639999pt" fill="#000000">+ add ()</text><text x="241px" y="211.000625610352px" font-family="Verdana" font-size="8.639999pt" fill="#000000">+ remove ()</text></g></g><g transform="matrix(1 0 0 1 0 0)"><polyline points="121,155 121,71 " fill="none" stroke="#000000" stroke-width="1px" stroke-dashoffset="0" stroke-linejoin="round" stroke-miterlimit="10" /><polygon points="121,71 115,90 127,90 121,71 " fill="url(#fs7)" /><g clip-path="url(#cp10)"><path d="M 127.1803 77.34038 C 121 77.34038  114.8197 77.34038  114.8197 82.09566 L 114.8197 71  127.1803 71  127.1803 77.34038 z " fill="url(#fs8)" /></g><polygon fill="none" points="121,71 115,90 127,90 121,71 " stroke="#000000" stroke-width="1px" stroke-dashoffset="0" stroke-linejoin="round" stroke-miterlimit="10" /></g><g transform="matrix(1 0 0 1 0 0)"><polyline points="335,109 335,39 238,39 " fill="none" stroke="#000000" stroke-width="1px" stroke-dashoffset="0" stroke-linejoin="round" stroke-miterlimit="10" /><polygon points="335,109 340,95 335,79 330,95 " fill="#FFFFFF" /><polygon fill="none" points="335,109 340,95 335,79 330,95 " stroke="#000000" stroke-width="1px" stroke-dashoffset="0" stroke-linejoin="round" stroke-miterlimit="10" /><text x="306px" y="35.5562477111816px" font-family="Verdana" font-size="9.599999pt" fill="#000000">children</text></g><g transform="matrix(1 0 0 1 0 0)"><polyline points="238,155 178,155 178,71 " fill="none" stroke="#000000" stroke-width="1px" stroke-dashoffset="0" stroke-linejoin="round" stroke-miterlimit="10" /><polygon points="178,71 172,90 184,90 178,71 " fill="url(#fs9)" /><g clip-path="url(#cp11)"><path d="M 184.1803 77.34038 C 178 77.34038  171.8197 77.34038  171.8197 82.09566 L 171.8197 71  184.1803 71  184.1803 77.34038 z " fill="url(#fs10)" /></g><polygon fill="none" points="178,71 172,90 184,90 178,71 " stroke="#000000" stroke-width="1px" stroke-dashoffset="0" stroke-linejoin="round" stroke-miterlimit="10" /></g></svg>