<?xml version="1.0" encoding="utf-8" standalone="no"?><!DOCTYPE svg PUBLIC "-//W3C//DTD SVG 1.1//EN" "http://www.w3.org/Graphics/SVG/1.1/DTD/svg11.dtd"><svg width="671px" height="294px" version="1.1" xmlns="http://www.w3.org/2000/svg"><desc /><defs><linearGradient id="fs1" x1="0.999999821186066px" y1="-5.74502578842839E-09px" x2="0.999999701976776px" y2="0.999999821186066px"><stop offset="0%" stop-color="#D3D3D3" stop-opacity="1" /><stop offset="100%" stop-color="#FFFFFF" stop-opacity="1" /></linearGradient><linearGradient id="fs2" x1="0.999999821186066px" y1="-1.98682155172492E-08px" x2="0.999999701976776px" y2="0.999999821186066px"><stop offset="0%" stop-color="#FFFFFF" stop-opacity="0.5490196" /><stop offset="100%" stop-color="#FFFFFF" stop-opacity="0.1568628" /></linearGradient><linearGradient id="fs3" x1="0.999999761581421px" y1="-3.67681650459417E-07px" x2="0.999999761581421px" y2="0.999999642372131px"><stop offset="0%" stop-color="#D3D3D3" stop-opacity="1" /><stop offset="100%" stop-color="#FFFFFF" stop-opacity="1" /></linearGradient><linearGradient id="fs4" x1="0.999999225139618px" y1="-6.35782896551973E-07px" x2="0.999999225139618px" y2="0.999999344348907px"><stop offset="0%" stop-color="#FFFFFF" stop-opacity="0.5490196" /><stop offset="100%" stop-color="#FFFFFF" stop-opacity="0.1568628" /></linearGradient><linearGradient id="fs5" x1="0.99999874830246px" y1="-3.46790670846531E-07px" x2="0.999998450279236px" y2="0.999999284744263px"><stop offset="0%" stop-color="#D3D3D3" stop-opacity="1" /><stop offset="100%" stop-color="#FFFFFF" stop-opacity="1" /></linearGradient><linearGradient id="fs6" x1="0.99999874830246px" y1="-3.01160298477043E-07px" x2="0.999998450279236px" y2="0.999999523162842px"><stop offset="0%" stop-color="#FFFFFF" stop-opacity="0.5490196" /><stop offset="100%" stop-color="#FFFFFF" stop-opacity="0.1568628" /></linearGradient><linearGradient id="fs7" x1="0.999997437000275px" y1="-2.31193780564354E-06px" x2="0.999996900558472px" y2="0.999997198581696px"><stop offset="0%" stop-color="#D3D3D3" stop-opacity="1" /><stop offset="100%" stop-color="#FFFFFF" stop-opacity="1" /></linearGradient><linearGradient id="fs8" x1="0.9999960064888px" y1="-3.6139238090982E-06px" x2="0.999995470046997px" y2="0.9999960064888px"><stop offset="0%" stop-color="#FFFFFF" stop-opacity="0.5490196" /><stop offset="100%" stop-color="#FFFFFF" stop-opacity="0.1568628" /></linearGradient><linearGradient id="fs9" x1="0.999998033046722px" y1="-8.09178231975238E-07px" x2="0.999997437000275px" y2="0.999998867511749px"><stop offset="0%" stop-color="#D3D3D3" stop-opacity="1" /><stop offset="100%" stop-color="#FFFFFF" stop-opacity="1" /></linearGradient><linearGradient id="fs10" x1="0.999998271465302px" y1="-1.40541476412182E-06px" x2="0.999997735023499px" y2="0.999998390674591px"><stop offset="0%" stop-color="#FFFFFF" stop-opacity="0.5490196" /><stop offset="100%" stop-color="#FFFFFF" stop-opacity="0.1568628" /></linearGradient><linearGradient id="fs11" x1="0.999987304210663px" y1="-2.81082952824363E-06px" x2="0.999985992908478px" y2="0.999997198581696px"><stop offset="0%" stop-color="#D3D3D3" stop-opacity="1" /><stop offset="100%" stop-color="#FFFFFF" stop-opacity="1" /></linearGradient><linearGradient id="fs12" x1="0.999989807605743px" y1="-3.46790670846531E-06px" x2="0.999987304210663px" y2="0.999996542930603px"><stop offset="0%" stop-color="#FFFFFF" stop-opacity="0.5490196" /><stop offset="100%" stop-color="#FFFFFF" stop-opacity="0.1568628" /></linearGradient><linearGradient id="fs13" x1="0.999842345714569px" y1="-9.63712955126539E-06px" x2="0.999839782714844px" y2="0.999990344047546px"><stop offset="0%" stop-color="#D3D3D3" stop-opacity="1" /><stop offset="100%" stop-color="#FFFFFF" stop-opacity="1" /></linearGradient><linearGradient id="fs14" x1="0.999944031238556px" y1="-1.38716268338612E-05px" x2="0.999941527843475px" y2="0.999986112117767px"><stop offset="0%" stop-color="#FFFFFF" stop-opacity="0.5490196" /><stop offset="100%" stop-color="#FFFFFF" stop-opacity="0.1568628" /></linearGradient><linearGradient id="fs15" x1="0.99981689453125px" y1="-9.63712955126539E-06px" x2="0.999806702136993px" y2="0.999990344047546px"><stop offset="0%" stop-color="#D3D3D3" stop-opacity="1" /><stop offset="100%" stop-color="#FFFFFF" stop-opacity="1" /></linearGradient><linearGradient id="fs16" x1="0.999842345714569px" y1="-1.1097301467089E-05px" x2="0.999832153320313px" y2="0.999988913536072px"><stop offset="0%" stop-color="#FFFFFF" stop-opacity="0.5490196" /><stop offset="100%" stop-color="#FFFFFF" stop-opacity="0.1568628" /></linearGradient><clipPath id="cp1"><path d="M 6 6 L 244 6  244 89  6 89 z " /></clipPath><clipPath id="cp2"><path d="M 6 6 L 244 6  244 89  6 89 z " /></clipPath><clipPath id="cp3"><path d="M 4 4 L 244 4  244 89  4 89 z " /></clipPath><clipPath id="cp4"><path d="M 6 152 L 244 152  244 235  6 235 z " /></clipPath><clipPath id="cp5"><path d="M 6 152 L 244 152  244 235  6 235 z " /></clipPath><clipPath id="cp6"><path d="M 4 150 L 244 150  244 235  4 235 z " /></clipPath><clipPath id="cp7"><path d="M 333 14.5 L 529 14.5  529 80.5  333 80.5 z " /></clipPath><clipPath id="cp8"><path d="M 333 14.5 L 529 14.5  529 80.5  333 80.5 z " /></clipPath><clipPath id="cp9"><path d="M 331 12 L 529 12  529 80  331 80 z " /></clipPath><clipPath id="cp10"><path d="M 323.5 212.5 L 538.5 212.5  538.5 278.5  323.5 278.5 z " /></clipPath><clipPath id="cp11"><path d="M 323.5 212.5 L 538.5 212.5  538.5 278.5  323.5 278.5 z " /></clipPath><clipPath id="cp12"><path d="M 321 210 L 538 210  538 278  321 278 z " /></clipPath><clipPath id="cp13"><path d="M 441 119 L 656 119  656 185  441 185 z " /></clipPath><clipPath id="cp14"><path d="M 441 119 L 656 119  656 185  441 185 z " /></clipPath><clipPath id="cp15"><path d="M 439 117 L 656 117  656 185  439 185 z " /></clipPath><clipPath id="cp16"><path d="M 124 88 L 118 107  130 107 z " /></clipPath><clipPath id="cp17"><path d="M 430 79 L 424 98  436 98 z " /></clipPath><clipPath id="cp18"><path d="M 508 79 L 502 98  514 98 z " /></clipPath></defs><g transform="matrix(1 0 0 1 0 0)"><g clip-path="url(#cp1)"><rect x="5px" y="5px" width="240px" height="85px" fill="rgba(0,0,0,0.235)" /></g><g clip-path="url(#cp2)"><path fill="none" d="M 6 6 L 244 6  244 89  6 89 z " stroke="rgba(0,0,0,0.047)" stroke-width="10px" stroke-dashoffset="0" stroke-linejoin="round" stroke-miterlimit="10" /><path fill="none" d="M 6 6 L 244 6  244 89  6 89 z " stroke="rgba(0,0,0,0.047)" stroke-width="8px" stroke-dashoffset="0" stroke-linejoin="round" stroke-miterlimit="10" /><path fill="none" d="M 6 6 L 244 6  244 89  6 89 z " stroke="rgba(0,0,0,0.047)" stroke-width="6px" stroke-dashoffset="0" stroke-linejoin="round" stroke-miterlimit="10" /><path fill="none" d="M 6 6 L 244 6  244 89  6 89 z " stroke="rgba(0,0,0,0.055)" stroke-width="4px" stroke-dashoffset="0" stroke-linejoin="round" stroke-miterlimit="10" /><path fill="none" d="M 6 6 L 244 6  244 89  6 89 z " stroke="rgba(0,0,0,0.047)" stroke-width="2px" stroke-dashoffset="0" stroke-linejoin="round" stroke-miterlimit="10" /></g><rect x="5px" y="5px" width="238px" height="83px" fill="url(#fs1)" /><path d="M 243 32.66666 C 124 32.66666  5 32.66666  5 53.41666 L 5 5  243 5  243 32.66666 z " fill="url(#fs2)" /><rect x="5px" y="5px" width="238px" height="83px" fill="none" stroke="#000000" stroke-width="1px" stroke-dashoffset="0" stroke-linejoin="round" stroke-miterlimit="10" /><g clip-path="url(#cp3)"><text x="82px" y="22.5562477111816px" font-family="Verdana" font-size="9.599999pt" font-weight="bold" font-style="italic" fill="#000000">Abstraction</text><line x1="5px" y1="29px" x2="243px" y2="29px" stroke="#000000" stroke-width="1px" stroke-dashoffset="0" stroke-linejoin="round" stroke-miterlimit="10" /><text x="8px" y="49.0006217956543px" font-family="Verdana" font-size="8.639999pt" fill="#000000">+ implementor: Implementor</text><line x1="5px" y1="56px" x2="243px" y2="56px" stroke="#000000" stroke-width="1px" stroke-dashoffset="0" stroke-linejoin="round" stroke-miterlimit="10" /><text x="8px" y="73.0006256103516px" font-family="Verdana" font-size="8.639999pt" fill="#000000">+ operation ()</text></g></g><g transform="matrix(1 0 0 1 0 0)"><g clip-path="url(#cp4)"><rect x="5px" y="151px" width="240px" height="85px" fill="rgba(0,0,0,0.235)" /></g><g clip-path="url(#cp5)"><path fill="none" d="M 6 152 L 244 152  244 235  6 235 z " stroke="rgba(0,0,0,0.047)" stroke-width="10px" stroke-dashoffset="0" stroke-linejoin="round" stroke-miterlimit="10" /><path fill="none" d="M 6 152 L 244 152  244 235  6 235 z " stroke="rgba(0,0,0,0.047)" stroke-width="8px" stroke-dashoffset="0" stroke-linejoin="round" stroke-miterlimit="10" /><path fill="none" d="M 6 152 L 244 152  244 235  6 235 z " stroke="rgba(0,0,0,0.047)" stroke-width="6px" stroke-dashoffset="0" stroke-linejoin="round" stroke-miterlimit="10" /><path fill="none" d="M 6 152 L 244 152  244 235  6 235 z " stroke="rgba(0,0,0,0.055)" stroke-width="4px" stroke-dashoffset="0" stroke-linejoin="round" stroke-miterlimit="10" /><path fill="none" d="M 6 152 L 244 152  244 235  6 235 z " stroke="rgba(0,0,0,0.047)" stroke-width="2px" stroke-dashoffset="0" stroke-linejoin="round" stroke-miterlimit="10" /></g><rect x="5px" y="151px" width="238px" height="83px" fill="url(#fs3)" /><path d="M 243 178.6667 C 124 178.6667  5 178.6667  5 199.4167 L 5 151  243 151  243 178.6667 z " fill="url(#fs4)" /><rect x="5px" y="151px" width="238px" height="83px" fill="none" stroke="#000000" stroke-width="1px" stroke-dashoffset="0" stroke-linejoin="round" stroke-miterlimit="10" /><g clip-path="url(#cp6)"><text x="54px" y="168.556243896484px" font-family="Verdana" font-size="9.599999pt" font-weight="bold" fill="#000000">RefinedAbstraction</text><line x1="5px" y1="175px" x2="243px" y2="175px" stroke="#000000" stroke-width="1px" stroke-dashoffset="0" stroke-linejoin="round" stroke-miterlimit="10" /><text x="8px" y="195.000625610352px" font-family="Verdana" font-size="8.639999pt" fill="#000000">+ implementor: Implementor</text><line x1="5px" y1="202px" x2="243px" y2="202px" stroke="#000000" stroke-width="1px" stroke-dashoffset="0" stroke-linejoin="round" stroke-miterlimit="10" /><text x="8px" y="219.000625610352px" font-family="Verdana" font-size="8.639999pt" fill="#000000">+ operation ()</text></g></g><g transform="matrix(1 0 0 1 0 0)"><g clip-path="url(#cp7)"><rect x="332px" y="14px" width="198px" height="68px" fill="rgba(0,0,0,0.235)" /></g><g clip-path="url(#cp8)"><path fill="none" d="M 333 14.5 L 529 14.5  529 80.5  333 80.5 z " stroke="rgba(0,0,0,0.047)" stroke-width="10px" stroke-dashoffset="0" stroke-linejoin="round" stroke-miterlimit="10" /><path fill="none" d="M 333 14.5 L 529 14.5  529 80.5  333 80.5 z " stroke="rgba(0,0,0,0.047)" stroke-width="8px" stroke-dashoffset="0" stroke-linejoin="round" stroke-miterlimit="10" /><path fill="none" d="M 333 14.5 L 529 14.5  529 80.5  333 80.5 z " stroke="rgba(0,0,0,0.047)" stroke-width="6px" stroke-dashoffset="0" stroke-linejoin="round" stroke-miterlimit="10" /><path fill="none" d="M 333 14.5 L 529 14.5  529 80.5  333 80.5 z " stroke="rgba(0,0,0,0.055)" stroke-width="4px" stroke-dashoffset="0" stroke-linejoin="round" stroke-miterlimit="10" /><path fill="none" d="M 333 14.5 L 529 14.5  529 80.5  333 80.5 z " stroke="rgba(0,0,0,0.047)" stroke-width="2px" stroke-dashoffset="0" stroke-linejoin="round" stroke-miterlimit="10" /></g><rect x="332px" y="13px" width="196px" height="66px" fill="url(#fs5)" /><path d="M 528 35.5 C 430 35.5  332 35.5  332 52 L 332 13.5  528 13.5  528 35.5 z " fill="url(#fs6)" /><rect x="332px" y="13px" width="196px" height="66px" fill="none" stroke="#000000" stroke-width="1px" stroke-dashoffset="0" stroke-linejoin="round" stroke-miterlimit="10" /><g clip-path="url(#cp9)"><text x="382px" y="31.5562477111816px" font-family="Verdana" font-size="9.599999pt" font-weight="bold" font-style="italic" fill="#000000">Implementor</text><line x1="332px" y1="37px" x2="528px" y2="37px" stroke="#000000" stroke-width="1px" stroke-dashoffset="0" stroke-linejoin="round" stroke-miterlimit="10" /><line x1="332px" y1="47px" x2="528px" y2="47px" stroke="#000000" stroke-width="1px" stroke-dashoffset="0" stroke-linejoin="round" stroke-miterlimit="10" /><text x="335px" y="64.0006256103516px" font-family="Verdana" font-size="8.639999pt" font-style="italic" fill="#000000">+ operationImplementation ()</text></g></g><g transform="matrix(1 0 0 1 0 0)"><g clip-path="url(#cp10)"><rect x="322px" y="212px" width="217px" height="68px" fill="rgba(0,0,0,0.235)" /></g><g clip-path="url(#cp11)"><path fill="none" d="M 323.5 212.5 L 538.5 212.5  538.5 278.5  323.5 278.5 z " stroke="rgba(0,0,0,0.047)" stroke-width="10px" stroke-dashoffset="0" stroke-linejoin="round" stroke-miterlimit="10" /><path fill="none" d="M 323.5 212.5 L 538.5 212.5  538.5 278.5  323.5 278.5 z " stroke="rgba(0,0,0,0.047)" stroke-width="8px" stroke-dashoffset="0" stroke-linejoin="round" stroke-miterlimit="10" /><path fill="none" d="M 323.5 212.5 L 538.5 212.5  538.5 278.5  323.5 278.5 z " stroke="rgba(0,0,0,0.047)" stroke-width="6px" stroke-dashoffset="0" stroke-linejoin="round" stroke-miterlimit="10" /><path fill="none" d="M 323.5 212.5 L 538.5 212.5  538.5 278.5  323.5 278.5 z " stroke="rgba(0,0,0,0.055)" stroke-width="4px" stroke-dashoffset="0" stroke-linejoin="round" stroke-miterlimit="10" /><path fill="none" d="M 323.5 212.5 L 538.5 212.5  538.5 278.5  323.5 278.5 z " stroke="rgba(0,0,0,0.047)" stroke-width="2px" stroke-dashoffset="0" stroke-linejoin="round" stroke-miterlimit="10" /></g><rect x="322px" y="211px" width="215px" height="66px" fill="url(#fs7)" /><path d="M 537.5 233.5 C 430 233.5  322.5 233.5  322.5 250 L 322.5 211.5  537.5 211.5  537.5 233.5 z " fill="url(#fs8)" /><rect x="322px" y="211px" width="215px" height="66px" fill="none" stroke="#000000" stroke-width="1px" stroke-dashoffset="0" stroke-linejoin="round" stroke-miterlimit="10" /><g clip-path="url(#cp12)"><text x="344px" y="229.556243896484px" font-family="Verdana" font-size="9.599999pt" font-weight="bold" fill="#000000">ConcreteImplementorA</text><line x1="322px" y1="235px" x2="538px" y2="235px" stroke="#000000" stroke-width="1px" stroke-dashoffset="0" stroke-linejoin="round" stroke-miterlimit="10" /><line x1="322px" y1="245px" x2="538px" y2="245px" stroke="#000000" stroke-width="1px" stroke-dashoffset="0" stroke-linejoin="round" stroke-miterlimit="10" /><text x="326px" y="262.000610351563px" font-family="Verdana" font-size="8.639999pt" fill="#000000">+ operationImplementation ()</text></g></g><g transform="matrix(1 0 0 1 0 0)"><g clip-path="url(#cp13)"><rect x="440px" y="118px" width="217px" height="68px" fill="rgba(0,0,0,0.235)" /></g><g clip-path="url(#cp14)"><path fill="none" d="M 441 119 L 656 119  656 185  441 185 z " stroke="rgba(0,0,0,0.047)" stroke-width="10px" stroke-dashoffset="0" stroke-linejoin="round" stroke-miterlimit="10" /><path fill="none" d="M 441 119 L 656 119  656 185  441 185 z " stroke="rgba(0,0,0,0.047)" stroke-width="8px" stroke-dashoffset="0" stroke-linejoin="round" stroke-miterlimit="10" /><path fill="none" d="M 441 119 L 656 119  656 185  441 185 z " stroke="rgba(0,0,0,0.047)" stroke-width="6px" stroke-dashoffset="0" stroke-linejoin="round" stroke-miterlimit="10" /><path fill="none" d="M 441 119 L 656 119  656 185  441 185 z " stroke="rgba(0,0,0,0.055)" stroke-width="4px" stroke-dashoffset="0" stroke-linejoin="round" stroke-miterlimit="10" /><path fill="none" d="M 441 119 L 656 119  656 185  441 185 z " stroke="rgba(0,0,0,0.047)" stroke-width="2px" stroke-dashoffset="0" stroke-linejoin="round" stroke-miterlimit="10" /></g><rect x="440px" y="118px" width="215px" height="66px" fill="url(#fs9)" /><path d="M 655 140 C 547.5 140  440 140  440 156.5 L 440 118  655 118  655 140 z " fill="url(#fs10)" /><rect x="440px" y="118px" width="215px" height="66px" fill="none" stroke="#000000" stroke-width="1px" stroke-dashoffset="0" stroke-linejoin="round" stroke-miterlimit="10" /><g clip-path="url(#cp15)"><text x="461px" y="135.556243896484px" font-family="Verdana" font-size="9.599999pt" font-weight="bold" fill="#000000">ConcreteImplementorB</text><line x1="440px" y1="142px" x2="655px" y2="142px" stroke="#000000" stroke-width="1px" stroke-dashoffset="0" stroke-linejoin="round" stroke-miterlimit="10" /><line x1="440px" y1="152px" x2="655px" y2="152px" stroke="#000000" stroke-width="1px" stroke-dashoffset="0" stroke-linejoin="round" stroke-miterlimit="10" /><text x="443px" y="169.000625610352px" font-family="Verdana" font-size="8.639999pt" fill="#000000">+ operationImplementation ()</text></g></g><g transform="matrix(1 0 0 1 0 0)"><polyline points="243,47 332,47 " fill="none" stroke="#000000" stroke-width="1px" stroke-dashoffset="0" stroke-linejoin="round" stroke-miterlimit="10" /><polygon points="243,47 257,52 273,47 257,42 " fill="#FFFFFF" /><polygon fill="none" points="243,47 257,52 273,47 257,42 " stroke="#000000" stroke-width="1px" stroke-dashoffset="0" stroke-linejoin="round" stroke-miterlimit="10" /></g><g transform="matrix(1 0 0 1 0 0)"><polyline points="124,151 124,88 " fill="none" stroke="#000000" stroke-width="1px" stroke-dashoffset="0" stroke-linejoin="round" stroke-miterlimit="10" /><polygon points="124,88 118,107 130,107 124,88 " fill="url(#fs11)" /><g clip-path="url(#cp16)"><path d="M 130.1803 94.34038 C 124 94.34038  117.8197 94.34038  117.8197 99.09566 L 117.8197 88  130.1803 88  130.1803 94.34038 z " fill="url(#fs12)" /></g><polygon fill="none" points="124,88 118,107 130,107 124,88 " stroke="#000000" stroke-width="1px" stroke-dashoffset="0" stroke-linejoin="round" stroke-miterlimit="10" /></g><g transform="matrix(1 0 0 1 0 0)"><polyline points="430,211 430,79 " fill="none" stroke="#000000" stroke-width="1px" stroke-dashoffset="0" stroke-linejoin="round" stroke-miterlimit="10" /><polygon points="430,79 424,98 436,98 430,79 " fill="url(#fs13)" /><g clip-path="url(#cp17)"><path d="M 436.1804 85.34038 C 430 85.34038  423.8196 85.34038  423.8196 90.09566 L 423.8196 79  436.1804 79  436.1804 85.34038 z " fill="url(#fs14)" /></g><polygon fill="none" points="430,79 424,98 436,98 430,79 " stroke="#000000" stroke-width="1px" stroke-dashoffset="0" stroke-linejoin="round" stroke-miterlimit="10" /></g><g transform="matrix(1 0 0 1 0 0)"><polyline points="508,118 508,79 " fill="none" stroke="#000000" stroke-width="1px" stroke-dashoffset="0" stroke-linejoin="round" stroke-miterlimit="10" /><polygon points="508,79 502,98 514,98 508,79 " fill="url(#fs15)" /><g clip-path="url(#cp18)"><path d="M 514.1804 85.34038 C 508 85.34038  501.8196 85.34038  501.8196 90.09566 L 501.8196 79  514.1804 79  514.1804 85.34038 z " fill="url(#fs16)" /></g><polygon fill="none" points="508,79 502,98 514,98 508,79 " stroke="#000000" stroke-width="1px" stroke-dashoffset="0" stroke-linejoin="round" stroke-miterlimit="10" /></g></svg>