<?xml version="1.0" encoding="utf-8" standalone="no"?><!DOCTYPE svg PUBLIC "-//W3C//DTD SVG 1.1//EN" "http://www.w3.org/Graphics/SVG/1.1/DTD/svg11.dtd"><svg width="709px" height="296px" version="1.1" xmlns="http://www.w3.org/2000/svg"><desc /><defs><linearGradient id="fs1" x1="0.999999821186066px" y1="-3.53212712411732E-08px" x2="0.999999761581421px" y2="0.999999642372131px"><stop offset="0%" stop-color="#D3D3D3" stop-opacity="1" /><stop offset="100%" stop-color="#FFFFFF" stop-opacity="1" /></linearGradient><linearGradient id="fs2" x1="0.999999761581421px" y1="-2.98023223876953E-08px" x2="0.999999701976776px" y2="0.999999761581421px"><stop offset="0%" stop-color="#FFFFFF" stop-opacity="0.5490196" /><stop offset="100%" stop-color="#FFFFFF" stop-opacity="0.1568628" /></linearGradient><linearGradient id="fs3" x1="0.99999862909317px" y1="-3.13536759222188E-07px" x2="0.999998092651367px" y2="0.999999463558197px"><stop offset="0%" stop-color="#D3D3D3" stop-opacity="1" /><stop offset="100%" stop-color="#FFFFFF" stop-opacity="1" /></linearGradient><linearGradient id="fs4" x1="0.999999463558197px" y1="-3.54855558271083E-07px" x2="0.999999165534973px" y2="0.999999642372131px"><stop offset="0%" stop-color="#FFFFFF" stop-opacity="0.5490196" /><stop offset="100%" stop-color="#FFFFFF" stop-opacity="0.1568628" /></linearGradient><linearGradient id="fs5" x1="0.999999582767487px" y1="-5.03037028920517E-07px" x2="0.999999463558197px" y2="0.999999344348907px"><stop offset="0%" stop-color="#D3D3D3" stop-opacity="1" /><stop offset="100%" stop-color="#FFFFFF" stop-opacity="1" /></linearGradient><linearGradient id="fs6" x1="0.999999344348907px" y1="-1.43950842357299E-06px" x2="0.999999344348907px" y2="0.999998569488525px"><stop offset="0%" stop-color="#FFFFFF" stop-opacity="0.5490196" /><stop offset="100%" stop-color="#FFFFFF" stop-opacity="0.1568628" /></linearGradient><linearGradient id="fs7" x1="0.999998867511749px" y1="-8.36098024592502E-07px" x2="0.999998509883881px" y2="0.999999165534973px"><stop offset="0%" stop-color="#D3D3D3" stop-opacity="1" /><stop offset="100%" stop-color="#FFFFFF" stop-opacity="1" /></linearGradient><linearGradient id="fs8" x1="0.999998509883881px" y1="-1.77427784819884E-06px" x2="0.999998152256012px" y2="0.999998211860657px"><stop offset="0%" stop-color="#FFFFFF" stop-opacity="0.5490196" /><stop offset="100%" stop-color="#FFFFFF" stop-opacity="0.1568628" /></linearGradient><linearGradient id="fs9" x1="0.999998152256012px" y1="-8.36098024592502E-07px" x2="0.999997437000275px" y2="0.999999165534973px"><stop offset="0%" stop-color="#D3D3D3" stop-opacity="1" /><stop offset="100%" stop-color="#FFFFFF" stop-opacity="1" /></linearGradient><linearGradient id="fs10" x1="0.999997437000275px" y1="-2.12913346331334E-06px" x2="0.999996662139893px" y2="0.999997854232788px"><stop offset="0%" stop-color="#FFFFFF" stop-opacity="0.5490196" /><stop offset="100%" stop-color="#FFFFFF" stop-opacity="0.1568628" /></linearGradient><linearGradient id="fs11" x1="0.999984741210938px" y1="-2.40928238781635E-06px" x2="0.999982178211212px" y2="0.999997615814209px"><stop offset="0%" stop-color="#D3D3D3" stop-opacity="1" /><stop offset="100%" stop-color="#FFFFFF" stop-opacity="1" /></linearGradient><linearGradient id="fs12" x1="0.999985992908478px" y1="-3.46790670846531E-06px" x2="0.999984741210938px" y2="0.999995827674866px"><stop offset="0%" stop-color="#FFFFFF" stop-opacity="0.5490196" /><stop offset="100%" stop-color="#FFFFFF" stop-opacity="0.1568628" /></linearGradient><linearGradient id="fs13" x1="0.999926269054413px" y1="-6.42475333734183E-06px" x2="0.999923706054688px" y2="0.999993562698364px"><stop offset="0%" stop-color="#D3D3D3" stop-opacity="1" /><stop offset="100%" stop-color="#FFFFFF" stop-opacity="1" /></linearGradient><linearGradient id="fs14" x1="0.999860107898712px" y1="-1.1097301467089E-05px" x2="0.999857604503632px" y2="0.999988913536072px"><stop offset="0%" stop-color="#FFFFFF" stop-opacity="0.5490196" /><stop offset="100%" stop-color="#FFFFFF" stop-opacity="0.1568628" /></linearGradient><linearGradient id="fs15" x1="0.999771118164063px" y1="-6.42475333734183E-06px" x2="0.999760925769806px" y2="0.999993562698364px"><stop offset="0%" stop-color="#D3D3D3" stop-opacity="1" /><stop offset="100%" stop-color="#FFFFFF" stop-opacity="1" /></linearGradient><linearGradient id="fs16" x1="0.999806702136993px" y1="-1.66459522006335E-05px" x2="0.999796569347382px" y2="0.999983370304108px"><stop offset="0%" stop-color="#FFFFFF" stop-opacity="0.5490196" /><stop offset="100%" stop-color="#FFFFFF" stop-opacity="0.1568628" /></linearGradient><clipPath id="cp1"><path d="M 45 6 L 244 6  244 60  45 60 z " /></clipPath><clipPath id="cp2"><path d="M 45 6 L 244 6  244 60  45 60 z " /></clipPath><clipPath id="cp3"><path d="M 43 4 L 244 4  244 60  43 60 z " /></clipPath><clipPath id="cp4"><path d="M 400 6 L 621 6  621 79  400 79 z " /></clipPath><clipPath id="cp5"><path d="M 400 6 L 621 6  621 79  400 79 z " /></clipPath><clipPath id="cp6"><path d="M 398 4 L 621 4  621 79  398 79 z " /></clipPath><clipPath id="cp7"><path d="M 6 145 L 283 145  283 236  6 236 z " /></clipPath><clipPath id="cp8"><path d="M 6 145 L 283 145  283 236  6 236 z " /></clipPath><clipPath id="cp9"><path d="M 4 143 L 283 143  283 236  4 236 z " /></clipPath><clipPath id="cp10"><path d="M 337.5 145 L 503.5 145  503.5 218  337.5 218 z " /></clipPath><clipPath id="cp11"><path d="M 337.5 145 L 503.5 145  503.5 218  337.5 218 z " /></clipPath><clipPath id="cp12"><path d="M 335 143 L 503 143  503 218  335 218 z " /></clipPath><clipPath id="cp13"><path d="M 527.5 145 L 693.5 145  693.5 218  527.5 218 z " /></clipPath><clipPath id="cp14"><path d="M 527.5 145 L 693.5 145  693.5 218  527.5 218 z " /></clipPath><clipPath id="cp15"><path d="M 525 143 L 693 143  693 218  525 218 z " /></clipPath><clipPath id="cp16"><path d="M 144 59 L 138 78  150 78 z " /></clipPath><clipPath id="cp17"><path d="M 447 78 L 441 97  453 97 z " /></clipPath><clipPath id="cp18"><path d="M 570 78 L 564 97  576 97 z " /></clipPath></defs><g transform="matrix(1 0 0 1 0 0)"><g clip-path="url(#cp1)"><rect x="44px" y="5px" width="201px" height="56px" fill="rgba(0,0,0,0.235)" /></g><g clip-path="url(#cp2)"><path fill="none" d="M 45 6 L 244 6  244 60  45 60 z " stroke="rgba(0,0,0,0.047)" stroke-width="10px" stroke-dashoffset="0" stroke-linejoin="round" stroke-miterlimit="10" /><path fill="none" d="M 45 6 L 244 6  244 60  45 60 z " stroke="rgba(0,0,0,0.047)" stroke-width="8px" stroke-dashoffset="0" stroke-linejoin="round" stroke-miterlimit="10" /><path fill="none" d="M 45 6 L 244 6  244 60  45 60 z " stroke="rgba(0,0,0,0.047)" stroke-width="6px" stroke-dashoffset="0" stroke-linejoin="round" stroke-miterlimit="10" /><path fill="none" d="M 45 6 L 244 6  244 60  45 60 z " stroke="rgba(0,0,0,0.055)" stroke-width="4px" stroke-dashoffset="0" stroke-linejoin="round" stroke-miterlimit="10" /><path fill="none" d="M 45 6 L 244 6  244 60  45 60 z " stroke="rgba(0,0,0,0.047)" stroke-width="2px" stroke-dashoffset="0" stroke-linejoin="round" stroke-miterlimit="10" /></g><rect x="44px" y="5px" width="199px" height="54px" fill="url(#fs1)" /><path d="M 243 23 C 143.5 23  44 23  44 36.5 L 44 5  243 5  243 23 z " fill="url(#fs2)" /><rect x="44px" y="5px" width="199px" height="54px" fill="none" stroke="#000000" stroke-width="1px" stroke-dashoffset="0" stroke-linejoin="round" stroke-miterlimit="10" /><g clip-path="url(#cp3)"><text x="111px" y="22.5562477111816px" font-family="Verdana" font-size="9.599999pt" font-weight="bold" font-style="italic" fill="#000000">Mediator</text><line x1="44px" y1="29px" x2="243px" y2="29px" stroke="#000000" stroke-width="1px" stroke-dashoffset="0" stroke-linejoin="round" stroke-miterlimit="10" /><line x1="44px" y1="39px" x2="243px" y2="39px" stroke="#000000" stroke-width="1px" stroke-dashoffset="0" stroke-linejoin="round" stroke-miterlimit="10" /><text x="47px" y="56.0006217956543px" font-family="Verdana" font-size="8.639999pt" font-style="italic" fill="#000000">+ send (colleague : Colleague)</text></g></g><g transform="matrix(1 0 0 1 0 0)"><g clip-path="url(#cp4)"><rect x="399px" y="5px" width="223px" height="75px" fill="rgba(0,0,0,0.235)" /></g><g clip-path="url(#cp5)"><path fill="none" d="M 400 6 L 621 6  621 79  400 79 z " stroke="rgba(0,0,0,0.047)" stroke-width="10px" stroke-dashoffset="0" stroke-linejoin="round" stroke-miterlimit="10" /><path fill="none" d="M 400 6 L 621 6  621 79  400 79 z " stroke="rgba(0,0,0,0.047)" stroke-width="8px" stroke-dashoffset="0" stroke-linejoin="round" stroke-miterlimit="10" /><path fill="none" d="M 400 6 L 621 6  621 79  400 79 z " stroke="rgba(0,0,0,0.047)" stroke-width="6px" stroke-dashoffset="0" stroke-linejoin="round" stroke-miterlimit="10" /><path fill="none" d="M 400 6 L 621 6  621 79  400 79 z " stroke="rgba(0,0,0,0.055)" stroke-width="4px" stroke-dashoffset="0" stroke-linejoin="round" stroke-miterlimit="10" /><path fill="none" d="M 400 6 L 621 6  621 79  400 79 z " stroke="rgba(0,0,0,0.047)" stroke-width="2px" stroke-dashoffset="0" stroke-linejoin="round" stroke-miterlimit="10" /></g><rect x="399px" y="5px" width="221px" height="73px" fill="url(#fs3)" /><path d="M 620 29.33333 C 509.5 29.33333  399 29.33333  399 47.58334 L 399 5  620 5  620 29.33333 z " fill="url(#fs4)" /><rect x="399px" y="5px" width="221px" height="73px" fill="none" stroke="#000000" stroke-width="1px" stroke-dashoffset="0" stroke-linejoin="round" stroke-miterlimit="10" /><g clip-path="url(#cp6)"><text x="474px" y="22.5562477111816px" font-family="Verdana" font-size="9.599999pt" font-weight="bold" font-style="italic" fill="#000000">Colleague</text><line x1="399px" y1="29px" x2="620px" y2="29px" stroke="#000000" stroke-width="1px" stroke-dashoffset="0" stroke-linejoin="round" stroke-miterlimit="10" /><text x="402px" y="49.0006217956543px" font-family="Verdana" font-size="8.639999pt" fill="#000000"># mediator: Mediator</text><line x1="399px" y1="56px" x2="620px" y2="56px" stroke="#000000" stroke-width="1px" stroke-dashoffset="0" stroke-linejoin="round" stroke-miterlimit="10" /><text x="402px" y="73.0006256103516px" font-family="Verdana" font-size="8.639999pt" fill="#000000">+ Colleague (mediator : Mediator)</text></g></g><g transform="matrix(1 0 0 1 0 0)"><g clip-path="url(#cp7)"><rect x="5px" y="144px" width="279px" height="93px" fill="rgba(0,0,0,0.235)" /></g><g clip-path="url(#cp8)"><path fill="none" d="M 6 145 L 283 145  283 236  6 236 z " stroke="rgba(0,0,0,0.047)" stroke-width="10px" stroke-dashoffset="0" stroke-linejoin="round" stroke-miterlimit="10" /><path fill="none" d="M 6 145 L 283 145  283 236  6 236 z " stroke="rgba(0,0,0,0.047)" stroke-width="8px" stroke-dashoffset="0" stroke-linejoin="round" stroke-miterlimit="10" /><path fill="none" d="M 6 145 L 283 145  283 236  6 236 z " stroke="rgba(0,0,0,0.047)" stroke-width="6px" stroke-dashoffset="0" stroke-linejoin="round" stroke-miterlimit="10" /><path fill="none" d="M 6 145 L 283 145  283 236  6 236 z " stroke="rgba(0,0,0,0.055)" stroke-width="4px" stroke-dashoffset="0" stroke-linejoin="round" stroke-miterlimit="10" /><path fill="none" d="M 6 145 L 283 145  283 236  6 236 z " stroke="rgba(0,0,0,0.047)" stroke-width="2px" stroke-dashoffset="0" stroke-linejoin="round" stroke-miterlimit="10" /></g><rect x="5px" y="144px" width="277px" height="91px" fill="url(#fs5)" /><path d="M 282 174.3333 C 143.5 174.3333  5 174.3333  5 197.0833 L 5 144  282 144  282 174.3333 z " fill="url(#fs6)" /><rect x="5px" y="144px" width="277px" height="91px" fill="none" stroke="#000000" stroke-width="1px" stroke-dashoffset="0" stroke-linejoin="round" stroke-miterlimit="10" /><g clip-path="url(#cp9)"><text x="78px" y="161.556243896484px" font-family="Verdana" font-size="9.599999pt" font-weight="bold" fill="#000000">ConcreteMediator</text><line x1="5px" y1="168px" x2="282px" y2="168px" stroke="#000000" stroke-width="1px" stroke-dashoffset="0" stroke-linejoin="round" stroke-miterlimit="10" /><text x="8px" y="188.000625610352px" font-family="Verdana" font-size="8.639999pt" fill="#000000">+ concreteColleagueA: ConcreteColleagueA</text><text x="8px" y="205.000625610352px" font-family="Verdana" font-size="8.639999pt" fill="#000000">+ concreteColleagueB: ConcreteColleagueB</text><line x1="5px" y1="212px" x2="282px" y2="212px" stroke="#000000" stroke-width="1px" stroke-dashoffset="0" stroke-linejoin="round" stroke-miterlimit="10" /><text x="8px" y="229.000625610352px" font-family="Verdana" font-size="8.639999pt" fill="#000000">+ send (colleague : Colleague)</text></g></g><g transform="matrix(1 0 0 1 0 0)"><g clip-path="url(#cp10)"><rect x="336px" y="144px" width="168px" height="75px" fill="rgba(0,0,0,0.235)" /></g><g clip-path="url(#cp11)"><path fill="none" d="M 337.5 145 L 503.5 145  503.5 218  337.5 218 z " stroke="rgba(0,0,0,0.047)" stroke-width="10px" stroke-dashoffset="0" stroke-linejoin="round" stroke-miterlimit="10" /><path fill="none" d="M 337.5 145 L 503.5 145  503.5 218  337.5 218 z " stroke="rgba(0,0,0,0.047)" stroke-width="8px" stroke-dashoffset="0" stroke-linejoin="round" stroke-miterlimit="10" /><path fill="none" d="M 337.5 145 L 503.5 145  503.5 218  337.5 218 z " stroke="rgba(0,0,0,0.047)" stroke-width="6px" stroke-dashoffset="0" stroke-linejoin="round" stroke-miterlimit="10" /><path fill="none" d="M 337.5 145 L 503.5 145  503.5 218  337.5 218 z " stroke="rgba(0,0,0,0.055)" stroke-width="4px" stroke-dashoffset="0" stroke-linejoin="round" stroke-miterlimit="10" /><path fill="none" d="M 337.5 145 L 503.5 145  503.5 218  337.5 218 z " stroke="rgba(0,0,0,0.047)" stroke-width="2px" stroke-dashoffset="0" stroke-linejoin="round" stroke-miterlimit="10" /></g><rect x="336px" y="144px" width="166px" height="73px" fill="url(#fs7)" /><path d="M 502.5 168.3333 C 419.5 168.3333  336.5 168.3333  336.5 186.5833 L 336.5 144  502.5 144  502.5 168.3333 z " fill="url(#fs8)" /><rect x="336px" y="144px" width="166px" height="73px" fill="none" stroke="#000000" stroke-width="1px" stroke-dashoffset="0" stroke-linejoin="round" stroke-miterlimit="10" /><g clip-path="url(#cp12)"><text x="347px" y="161.556243896484px" font-family="Verdana" font-size="9.599999pt" font-weight="bold" fill="#000000">ConcreteColleagueA</text><line x1="336px" y1="168px" x2="502px" y2="168px" stroke="#000000" stroke-width="1px" stroke-dashoffset="0" stroke-linejoin="round" stroke-miterlimit="10" /><line x1="336px" y1="178px" x2="502px" y2="178px" stroke="#000000" stroke-width="1px" stroke-dashoffset="0" stroke-linejoin="round" stroke-miterlimit="10" /><text x="340px" y="195.000625610352px" font-family="Verdana" font-size="8.639999pt" fill="#000000">+ send ()</text><text x="340px" y="212.000625610352px" font-family="Verdana" font-size="8.639999pt" fill="#000000">+ receive ()</text></g></g><g transform="matrix(1 0 0 1 0 0)"><g clip-path="url(#cp13)"><rect x="526px" y="144px" width="168px" height="75px" fill="rgba(0,0,0,0.235)" /></g><g clip-path="url(#cp14)"><path fill="none" d="M 527.5 145 L 693.5 145  693.5 218  527.5 218 z " stroke="rgba(0,0,0,0.047)" stroke-width="10px" stroke-dashoffset="0" stroke-linejoin="round" stroke-miterlimit="10" /><path fill="none" d="M 527.5 145 L 693.5 145  693.5 218  527.5 218 z " stroke="rgba(0,0,0,0.047)" stroke-width="8px" stroke-dashoffset="0" stroke-linejoin="round" stroke-miterlimit="10" /><path fill="none" d="M 527.5 145 L 693.5 145  693.5 218  527.5 218 z " stroke="rgba(0,0,0,0.047)" stroke-width="6px" stroke-dashoffset="0" stroke-linejoin="round" stroke-miterlimit="10" /><path fill="none" d="M 527.5 145 L 693.5 145  693.5 218  527.5 218 z " stroke="rgba(0,0,0,0.055)" stroke-width="4px" stroke-dashoffset="0" stroke-linejoin="round" stroke-miterlimit="10" /><path fill="none" d="M 527.5 145 L 693.5 145  693.5 218  527.5 218 z " stroke="rgba(0,0,0,0.047)" stroke-width="2px" stroke-dashoffset="0" stroke-linejoin="round" stroke-miterlimit="10" /></g><rect x="526px" y="144px" width="166px" height="73px" fill="url(#fs9)" /><path d="M 692.5 168.3333 C 609.5 168.3333  526.5 168.3333  526.5 186.5833 L 526.5 144  692.5 144  692.5 168.3333 z " fill="url(#fs10)" /><rect x="526px" y="144px" width="166px" height="73px" fill="none" stroke="#000000" stroke-width="1px" stroke-dashoffset="0" stroke-linejoin="round" stroke-miterlimit="10" /><g clip-path="url(#cp15)"><text x="537px" y="161.556243896484px" font-family="Verdana" font-size="9.599999pt" font-weight="bold" fill="#000000">ConcreteColleagueB</text><line x1="526px" y1="168px" x2="692px" y2="168px" stroke="#000000" stroke-width="1px" stroke-dashoffset="0" stroke-linejoin="round" stroke-miterlimit="10" /><line x1="526px" y1="178px" x2="692px" y2="178px" stroke="#000000" stroke-width="1px" stroke-dashoffset="0" stroke-linejoin="round" stroke-miterlimit="10" /><text x="530px" y="195.000625610352px" font-family="Verdana" font-size="8.639999pt" fill="#000000">+ send ()</text><text x="530px" y="212.000625610352px" font-family="Verdana" font-size="8.639999pt" fill="#000000">+ receive ()</text></g></g><g transform="matrix(1 0 0 1 0 0)"><polyline points="207,235 207,261 367,261 367,217 " fill="none" stroke="#000000" stroke-width="1px" stroke-dashoffset="0" stroke-linejoin="round" stroke-miterlimit="10" /><polyline points="361,236 367,217 373,236 " fill="none" stroke="#000000" stroke-width="1px" stroke-dashoffset="0" stroke-linejoin="round" stroke-miterlimit="10" /></g><g transform="matrix(1 0 0 1 0 0)"><polyline points="72,235 72,279 614,279 614,217 " fill="none" stroke="#000000" stroke-width="1px" stroke-dashoffset="0" stroke-linejoin="round" stroke-miterlimit="10" /><polyline points="608,236 614,217 620,236 " fill="none" stroke="#000000" stroke-width="1px" stroke-dashoffset="0" stroke-linejoin="round" stroke-miterlimit="10" /></g><g transform="matrix(1 0 0 1 0 0)"><polyline points="144,144 144,59 " fill="none" stroke="#000000" stroke-width="1px" stroke-dashoffset="0" stroke-linejoin="round" stroke-miterlimit="10" /><polygon points="144,59 138,78 150,78 144,59 " fill="url(#fs11)" /><g clip-path="url(#cp16)"><path d="M 150.1803 65.34038 C 144 65.34038  137.8197 65.34038  137.8197 70.09566 L 137.8197 59  150.1803 59  150.1803 65.34038 z " fill="url(#fs12)" /></g><polygon fill="none" points="144,59 138,78 150,78 144,59 " stroke="#000000" stroke-width="1px" stroke-dashoffset="0" stroke-linejoin="round" stroke-miterlimit="10" /></g><g transform="matrix(1 0 0 1 0 0)"><polyline points="447,144 447,78 " fill="none" stroke="#000000" stroke-width="1px" stroke-dashoffset="0" stroke-linejoin="round" stroke-miterlimit="10" /><polygon points="447,78 441,97 453,97 447,78 " fill="url(#fs13)" /><g clip-path="url(#cp17)"><path d="M 453.1803 84.34038 C 447 84.34038  440.8197 84.34038  440.8197 89.09566 L 440.8197 78  453.1803 78  453.1803 84.34038 z " fill="url(#fs14)" /></g><polygon fill="none" points="447,78 441,97 453,97 447,78 " stroke="#000000" stroke-width="1px" stroke-dashoffset="0" stroke-linejoin="round" stroke-miterlimit="10" /></g><g transform="matrix(1 0 0 1 0 0)"><polyline points="569,144 570,78 " fill="none" stroke="#000000" stroke-width="1px" stroke-dashoffset="0" stroke-linejoin="round" stroke-miterlimit="10" /><polygon points="570,78 564,97 576,97 570,78 " fill="url(#fs15)" /><g clip-path="url(#cp18)"><path d="M 575.8915 84.37086 C 569.7119 84.37086  563.5322 84.37086  563.5322 89.149 L 563.5322 78  575.8915 78  575.8915 84.37086 z " fill="url(#fs16)" /></g><polygon fill="none" points="570,78 564,97 576,97 570,78 " stroke="#000000" stroke-width="1px" stroke-dashoffset="0" stroke-linejoin="round" stroke-miterlimit="10" /></g><g transform="matrix(1 0 0 1 0 0)"><polyline points="399,36 243,36 " fill="none" stroke="#000000" stroke-width="1px" stroke-dashoffset="0" stroke-linejoin="round" stroke-miterlimit="10" /><polyline points="262,42 243,36 262,30 " fill="none" stroke="#000000" stroke-width="1px" stroke-dashoffset="0" stroke-linejoin="round" stroke-miterlimit="10" /></g></svg>