<?xml version="1.0" encoding="utf-8" standalone="no"?><!DOCTYPE svg PUBLIC "-//W3C//DTD SVG 1.1//EN" "http://www.w3.org/Graphics/SVG/1.1/DTD/svg11.dtd"><svg width="507px" height="247px" version="1.1" xmlns="http://www.w3.org/2000/svg"><desc /><defs><linearGradient id="fs1" x1="0.999999344348907px" y1="-4.08717568234351E-07px" x2="0.999999105930328px" y2="0.999999463558197px"><stop offset="0%" stop-color="#D3D3D3" stop-opacity="1" /><stop offset="100%" stop-color="#FFFFFF" stop-opacity="1" /></linearGradient><linearGradient id="fs2" x1="0.999998688697815px" y1="-3.46790670846531E-07px" x2="0.999998271465302px" y2="0.999999403953552px"><stop offset="0%" stop-color="#FFFFFF" stop-opacity="0.5490196" /><stop offset="100%" stop-color="#FFFFFF" stop-opacity="0.1568628" /></linearGradient><linearGradient id="fs3" x1="0.999999940395355px" y1="-9.34974853095127E-09px" x2="0.999999821186066px" y2="0.999999761581421px"><stop offset="0%" stop-color="#D3D3D3" stop-opacity="1" /><stop offset="100%" stop-color="#FFFFFF" stop-opacity="1" /></linearGradient><linearGradient id="fs4" x1="0.999999940395355px" y1="-1.58945727690707E-08px" x2="0.999999821186066px" y2="0.999999761581421px"><stop offset="0%" stop-color="#FFFFFF" stop-opacity="0.5490196" /><stop offset="100%" stop-color="#FFFFFF" stop-opacity="0.1568628" /></linearGradient><linearGradient id="fs5" x1="0.999999582767487px" y1="-8.36098024592502E-07px" x2="0.999999344348907px" y2="0.999999165534973px"><stop offset="0%" stop-color="#D3D3D3" stop-opacity="1" /><stop offset="100%" stop-color="#FFFFFF" stop-opacity="1" /></linearGradient><linearGradient id="fs6" x1="0.999998688697815px" y1="-1.77427784819884E-06px" x2="0.999998688697815px" y2="0.999997854232788px"><stop offset="0%" stop-color="#FFFFFF" stop-opacity="0.5490196" /><stop offset="100%" stop-color="#FFFFFF" stop-opacity="0.1568628" /></linearGradient><linearGradient id="fs7" x1="0.999999582767487px" y1="-4.18049012296251E-07px" x2="0.999999344348907px" y2="0.999999344348907px"><stop offset="0%" stop-color="#D3D3D3" stop-opacity="1" /><stop offset="100%" stop-color="#FFFFFF" stop-opacity="1" /></linearGradient><linearGradient id="fs8" x1="0.999999225139618px" y1="-7.09711116542167E-07px" x2="0.999998927116394px" y2="0.999999284744263px"><stop offset="0%" stop-color="#FFFFFF" stop-opacity="0.5490196" /><stop offset="100%" stop-color="#FFFFFF" stop-opacity="0.1568628" /></linearGradient><linearGradient id="fs9" x1="0.999987900257111px" y1="-4.41701786257909E-06px" x2="0.999987304210663px" y2="0.999995589256287px"><stop offset="0%" stop-color="#D3D3D3" stop-opacity="1" /><stop offset="100%" stop-color="#FFFFFF" stop-opacity="1" /></linearGradient><linearGradient id="fs10" x1="0.999990463256836px" y1="-9.71013832895551E-06px" x2="0.999989807605743px" y2="0.999990284442902px"><stop offset="0%" stop-color="#FFFFFF" stop-opacity="0.5490196" /><stop offset="100%" stop-color="#FFFFFF" stop-opacity="0.1568628" /></linearGradient><linearGradient id="fs11" x1="0.999862670898438px" y1="-6.42475333734183E-06px" x2="0.999857604503632px" y2="0.999993562698364px"><stop offset="0%" stop-color="#D3D3D3" stop-opacity="1" /><stop offset="100%" stop-color="#FFFFFF" stop-opacity="1" /></linearGradient><linearGradient id="fs12" x1="0.999880492687225px" y1="-1.1097301467089E-05px" x2="0.9998779296875px" y2="0.999988913536072px"><stop offset="0%" stop-color="#FFFFFF" stop-opacity="0.5490196" /><stop offset="100%" stop-color="#FFFFFF" stop-opacity="0.1568628" /></linearGradient><clipPath id="cp1"><path d="M 308 29 L 448 29  448 85  308 85 z " /></clipPath><clipPath id="cp2"><path d="M 308 29 L 448 29  448 85  308 85 z " /></clipPath><clipPath id="cp3"><path d="M 306 27 L 448 27  448 85  306 85 z " /></clipPath><clipPath id="cp4"><path d="M 6 6 L 209 6  209 108  6 108 z " /></clipPath><clipPath id="cp5"><path d="M 6 6 L 209 6  209 108  6 108 z " /></clipPath><clipPath id="cp6"><path d="M 4 4 L 209 4  209 108  4 108 z " /></clipPath><clipPath id="cp7"><path d="M 36.5 159 L 176.5 159  176.5 232  36.5 232 z " /></clipPath><clipPath id="cp8"><path d="M 36.5 159 L 176.5 159  176.5 232  36.5 232 z " /></clipPath><clipPath id="cp9"><path d="M 34 157 L 176 157  176 232  34 232 z " /></clipPath><clipPath id="cp10"><path d="M 262.5 159 L 491.5 159  491.5 232  262.5 232 z " /></clipPath><clipPath id="cp11"><path d="M 262.5 159 L 491.5 159  491.5 232  262.5 232 z " /></clipPath><clipPath id="cp12"><path d="M 260 157 L 491 157  491 232  260 232 z " /></clipPath><clipPath id="cp13"><path d="M 107 107 L 101 126  113 126 z " /></clipPath><clipPath id="cp14"><path d="M 377 84 L 371 103  383 103 z " /></clipPath></defs><g transform="matrix(1 0 0 1 0 0)"><g clip-path="url(#cp1)"><rect x="307px" y="28px" width="142px" height="58px" fill="rgba(0,0,0,0.235)" /></g><g clip-path="url(#cp2)"><path fill="none" d="M 308 29 L 448 29  448 85  308 85 z " stroke="rgba(0,0,0,0.047)" stroke-width="10px" stroke-dashoffset="0" stroke-linejoin="round" stroke-miterlimit="10" /><path fill="none" d="M 308 29 L 448 29  448 85  308 85 z " stroke="rgba(0,0,0,0.047)" stroke-width="8px" stroke-dashoffset="0" stroke-linejoin="round" stroke-miterlimit="10" /><path fill="none" d="M 308 29 L 448 29  448 85  308 85 z " stroke="rgba(0,0,0,0.047)" stroke-width="6px" stroke-dashoffset="0" stroke-linejoin="round" stroke-miterlimit="10" /><path fill="none" d="M 308 29 L 448 29  448 85  308 85 z " stroke="rgba(0,0,0,0.055)" stroke-width="4px" stroke-dashoffset="0" stroke-linejoin="round" stroke-miterlimit="10" /><path fill="none" d="M 308 29 L 448 29  448 85  308 85 z " stroke="rgba(0,0,0,0.047)" stroke-width="2px" stroke-dashoffset="0" stroke-linejoin="round" stroke-miterlimit="10" /></g><rect x="307px" y="28px" width="140px" height="56px" fill="url(#fs1)" /><path d="M 447 46.66666 C 377 46.66666  307 46.66666  307 60.66666 L 307 28  447 28  447 46.66666 z " fill="url(#fs2)" /><rect x="307px" y="28px" width="140px" height="56px" fill="none" stroke="#000000" stroke-width="1px" stroke-dashoffset="0" stroke-linejoin="round" stroke-miterlimit="10" /><g clip-path="url(#cp3)"><text x="343px" y="45.5562477111816px" font-family="Verdana" font-size="9.599999pt" font-weight="bold" font-style="italic" fill="#000000">Observer</text><line x1="307px" y1="52px" x2="447px" y2="52px" stroke="#000000" stroke-width="1px" stroke-dashoffset="0" stroke-linejoin="round" stroke-miterlimit="10" /><line x1="307px" y1="62px" x2="447px" y2="62px" stroke="#000000" stroke-width="1px" stroke-dashoffset="0" stroke-linejoin="round" stroke-miterlimit="10" /><text x="310px" y="79.0006256103516px" font-family="Verdana" font-size="8.639999pt" font-style="italic" fill="#000000">+ update ()</text></g></g><g transform="matrix(1 0 0 1 0 0)"><g clip-path="url(#cp4)"><rect x="5px" y="5px" width="205px" height="104px" fill="rgba(0,0,0,0.235)" /></g><g clip-path="url(#cp5)"><path fill="none" d="M 6 6 L 209 6  209 108  6 108 z " stroke="rgba(0,0,0,0.047)" stroke-width="10px" stroke-dashoffset="0" stroke-linejoin="round" stroke-miterlimit="10" /><path fill="none" d="M 6 6 L 209 6  209 108  6 108 z " stroke="rgba(0,0,0,0.047)" stroke-width="8px" stroke-dashoffset="0" stroke-linejoin="round" stroke-miterlimit="10" /><path fill="none" d="M 6 6 L 209 6  209 108  6 108 z " stroke="rgba(0,0,0,0.047)" stroke-width="6px" stroke-dashoffset="0" stroke-linejoin="round" stroke-miterlimit="10" /><path fill="none" d="M 6 6 L 209 6  209 108  6 108 z " stroke="rgba(0,0,0,0.055)" stroke-width="4px" stroke-dashoffset="0" stroke-linejoin="round" stroke-miterlimit="10" /><path fill="none" d="M 6 6 L 209 6  209 108  6 108 z " stroke="rgba(0,0,0,0.047)" stroke-width="2px" stroke-dashoffset="0" stroke-linejoin="round" stroke-miterlimit="10" /></g><rect x="5px" y="5px" width="203px" height="102px" fill="url(#fs3)" /><path d="M 208 39 C 106.5 39  5 39  5 64.5 L 5 5  208 5  208 39 z " fill="url(#fs4)" /><rect x="5px" y="5px" width="203px" height="102px" fill="none" stroke="#000000" stroke-width="1px" stroke-dashoffset="0" stroke-linejoin="round" stroke-miterlimit="10" /><g clip-path="url(#cp6)"><text x="79px" y="22.5562477111816px" font-family="Verdana" font-size="9.599999pt" font-weight="bold" font-style="italic" fill="#000000">Subject</text><line x1="5px" y1="29px" x2="208px" y2="29px" stroke="#000000" stroke-width="1px" stroke-dashoffset="0" stroke-linejoin="round" stroke-miterlimit="10" /><text x="8px" y="49.0006217956543px" font-family="Verdana" font-size="8.639999pt" fill="#000000">- observers: Observer[0..*]</text><line x1="5px" y1="56px" x2="208px" y2="56px" stroke="#000000" stroke-width="1px" stroke-dashoffset="0" stroke-linejoin="round" stroke-miterlimit="10" /><text x="8px" y="73.0006256103516px" font-family="Verdana" font-size="8.639999pt" fill="#000000">+ attach (observer : Observer)</text><text x="8px" y="90.0006256103516px" font-family="Verdana" font-size="8.639999pt" fill="#000000">+ detach (observer : Observer)</text><text x="8px" y="107.000625610352px" font-family="Verdana" font-size="8.639999pt" fill="#000000">+ notify ()</text></g></g><g transform="matrix(1 0 0 1 0 0)"><g clip-path="url(#cp7)"><rect x="36px" y="158px" width="142px" height="75px" fill="rgba(0,0,0,0.235)" /></g><g clip-path="url(#cp8)"><path fill="none" d="M 36.5 159 L 176.5 159  176.5 232  36.5 232 z " stroke="rgba(0,0,0,0.047)" stroke-width="10px" stroke-dashoffset="0" stroke-linejoin="round" stroke-miterlimit="10" /><path fill="none" d="M 36.5 159 L 176.5 159  176.5 232  36.5 232 z " stroke="rgba(0,0,0,0.047)" stroke-width="8px" stroke-dashoffset="0" stroke-linejoin="round" stroke-miterlimit="10" /><path fill="none" d="M 36.5 159 L 176.5 159  176.5 232  36.5 232 z " stroke="rgba(0,0,0,0.047)" stroke-width="6px" stroke-dashoffset="0" stroke-linejoin="round" stroke-miterlimit="10" /><path fill="none" d="M 36.5 159 L 176.5 159  176.5 232  36.5 232 z " stroke="rgba(0,0,0,0.055)" stroke-width="4px" stroke-dashoffset="0" stroke-linejoin="round" stroke-miterlimit="10" /><path fill="none" d="M 36.5 159 L 176.5 159  176.5 232  36.5 232 z " stroke="rgba(0,0,0,0.047)" stroke-width="2px" stroke-dashoffset="0" stroke-linejoin="round" stroke-miterlimit="10" /></g><rect x="35px" y="158px" width="140px" height="73px" fill="url(#fs5)" /><path d="M 175.5 182.3333 C 105.5 182.3333  35.5 182.3333  35.5 200.5833 L 35.5 158  175.5 158  175.5 182.3333 z " fill="url(#fs6)" /><rect x="35px" y="158px" width="140px" height="73px" fill="none" stroke="#000000" stroke-width="1px" stroke-dashoffset="0" stroke-linejoin="round" stroke-miterlimit="10" /><g clip-path="url(#cp9)"><text x="46px" y="175.556243896484px" font-family="Verdana" font-size="9.599999pt" font-weight="bold" fill="#000000">ConcreteSubject</text><line x1="35px" y1="182px" x2="175px" y2="182px" stroke="#000000" stroke-width="1px" stroke-dashoffset="0" stroke-linejoin="round" stroke-miterlimit="10" /><text x="39px" y="202.000625610352px" font-family="Verdana" font-size="8.639999pt" fill="#000000">- state</text><line x1="35px" y1="209px" x2="175px" y2="209px" stroke="#000000" stroke-width="1px" stroke-dashoffset="0" stroke-linejoin="round" stroke-miterlimit="10" /><text x="39px" y="226.000625610352px" font-family="Verdana" font-size="8.639999pt" fill="#000000">+ getState ()</text></g></g><g transform="matrix(1 0 0 1 0 0)"><g clip-path="url(#cp10)"><rect x="262px" y="158px" width="231px" height="75px" fill="rgba(0,0,0,0.235)" /></g><g clip-path="url(#cp11)"><path fill="none" d="M 262.5 159 L 491.5 159  491.5 232  262.5 232 z " stroke="rgba(0,0,0,0.047)" stroke-width="10px" stroke-dashoffset="0" stroke-linejoin="round" stroke-miterlimit="10" /><path fill="none" d="M 262.5 159 L 491.5 159  491.5 232  262.5 232 z " stroke="rgba(0,0,0,0.047)" stroke-width="8px" stroke-dashoffset="0" stroke-linejoin="round" stroke-miterlimit="10" /><path fill="none" d="M 262.5 159 L 491.5 159  491.5 232  262.5 232 z " stroke="rgba(0,0,0,0.047)" stroke-width="6px" stroke-dashoffset="0" stroke-linejoin="round" stroke-miterlimit="10" /><path fill="none" d="M 262.5 159 L 491.5 159  491.5 232  262.5 232 z " stroke="rgba(0,0,0,0.055)" stroke-width="4px" stroke-dashoffset="0" stroke-linejoin="round" stroke-miterlimit="10" /><path fill="none" d="M 262.5 159 L 491.5 159  491.5 232  262.5 232 z " stroke="rgba(0,0,0,0.047)" stroke-width="2px" stroke-dashoffset="0" stroke-linejoin="round" stroke-miterlimit="10" /></g><rect x="261px" y="158px" width="229px" height="73px" fill="url(#fs7)" /><path d="M 490.5 182.3333 C 376 182.3333  261.5 182.3333  261.5 200.5833 L 261.5 158  490.5 158  490.5 182.3333 z " fill="url(#fs8)" /><rect x="261px" y="158px" width="229px" height="73px" fill="none" stroke="#000000" stroke-width="1px" stroke-dashoffset="0" stroke-linejoin="round" stroke-miterlimit="10" /><g clip-path="url(#cp12)"><text x="310px" y="175.556243896484px" font-family="Verdana" font-size="9.599999pt" font-weight="bold" fill="#000000">ConcreteObserver</text><line x1="261px" y1="182px" x2="491px" y2="182px" stroke="#000000" stroke-width="1px" stroke-dashoffset="0" stroke-linejoin="round" stroke-miterlimit="10" /><text x="265px" y="202.000625610352px" font-family="Verdana" font-size="8.639999pt" fill="#000000">- concreteSubject: ConcreteSubject</text><line x1="261px" y1="209px" x2="491px" y2="209px" stroke="#000000" stroke-width="1px" stroke-dashoffset="0" stroke-linejoin="round" stroke-miterlimit="10" /><text x="265px" y="226.000625610352px" font-family="Verdana" font-size="8.639999pt" fill="#000000">+ update ()</text></g></g><g transform="matrix(1 0 0 1 0 0)"><polyline points="107,158 107,107 " fill="none" stroke="#000000" stroke-width="1px" stroke-dashoffset="0" stroke-linejoin="round" stroke-miterlimit="10" /><polygon points="107,107 101,126 113,126 107,107 " fill="url(#fs9)" /><g clip-path="url(#cp13)"><path d="M 113.1803 113.3404 C 107 113.3404  100.8197 113.3404  100.8197 118.0957 L 100.8197 107  113.1803 107  113.1803 113.3404 z " fill="url(#fs10)" /></g><polygon fill="none" points="107,107 101,126 113,126 107,107 " stroke="#000000" stroke-width="1px" stroke-dashoffset="0" stroke-linejoin="round" stroke-miterlimit="10" /></g><g transform="matrix(1 0 0 1 0 0)"><polyline points="377,158 377,84 " fill="none" stroke="#000000" stroke-width="1px" stroke-dashoffset="0" stroke-linejoin="round" stroke-miterlimit="10" /><polygon points="377,84 371,103 383,103 377,84 " fill="url(#fs11)" /><g clip-path="url(#cp14)"><path d="M 383.1803 90.34038 C 377 90.34038  370.8197 90.34038  370.8197 95.09566 L 370.8197 84  383.1803 84  383.1803 90.34038 z " fill="url(#fs12)" /></g><polygon fill="none" points="377,84 371,103 383,103 377,84 " stroke="#000000" stroke-width="1px" stroke-dashoffset="0" stroke-linejoin="round" stroke-miterlimit="10" /></g><g transform="matrix(1 0 0 1 0 0)"><polyline points="261,196 175,196 " fill="none" stroke="#000000" stroke-width="1px" stroke-dashoffset="0" stroke-linejoin="round" stroke-miterlimit="10" /><polyline points="194,202 175,196 194,190 " fill="none" stroke="#000000" stroke-width="1px" stroke-dashoffset="0" stroke-linejoin="round" stroke-miterlimit="10" /></g><g transform="matrix(1 0 0 1 0 0)"><polyline points="208,56 307,56 " fill="none" stroke="#000000" stroke-width="1px" stroke-dashoffset="0" stroke-linejoin="round" stroke-miterlimit="10" /><polyline points="288,50 307,56 288,62 " fill="none" stroke="#000000" stroke-width="1px" stroke-dashoffset="0" stroke-linejoin="round" stroke-miterlimit="10" /></g></svg>