<?xml version="1.0" encoding="utf-8" standalone="no"?><!DOCTYPE svg PUBLIC "-//W3C//DTD SVG 1.1//EN" "http://www.w3.org/Graphics/SVG/1.1/DTD/svg11.dtd"><svg width="525px" height="289px" version="1.1" xmlns="http://www.w3.org/2000/svg"><desc /><defs><linearGradient id="fs1" x1="0.999999642372131px" y1="-1.69542104799802E-07px" x2="0.999999463558197px" y2="0.999999642372131px"><stop offset="0%" stop-color="#D3D3D3" stop-opacity="1" /><stop offset="100%" stop-color="#FFFFFF" stop-opacity="1" /></linearGradient><linearGradient id="fs2" x1="0.999999642372131px" y1="-4.4015737898917E-07px" x2="0.999999523162842px" y2="0.999999403953552px"><stop offset="0%" stop-color="#FFFFFF" stop-opacity="0.5490196" /><stop offset="100%" stop-color="#FFFFFF" stop-opacity="0.1568628" /></linearGradient><linearGradient id="fs3" x1="0.999999165534973px" y1="-1.38716268338612E-06px" x2="0.999998986721039px" y2="0.999998152256012px"><stop offset="0%" stop-color="#D3D3D3" stop-opacity="1" /><stop offset="100%" stop-color="#FFFFFF" stop-opacity="1" /></linearGradient><linearGradient id="fs4" x1="0.999999165534973px" y1="-4.01547094952548E-06px" x2="0.999999165534973px" y2="0.9999960064888px"><stop offset="0%" stop-color="#FFFFFF" stop-opacity="0.5490196" /><stop offset="100%" stop-color="#FFFFFF" stop-opacity="0.1568628" /></linearGradient><linearGradient id="fs5" x1="0.999997973442078px" y1="-1.61835646395048E-06px" x2="0.999997556209564px" y2="0.999998152256012px"><stop offset="0%" stop-color="#D3D3D3" stop-opacity="1" /><stop offset="100%" stop-color="#FFFFFF" stop-opacity="1" /></linearGradient><linearGradient id="fs6" x1="0.999998807907104px" y1="-4.01547094952548E-06px" x2="0.999998807907104px" y2="0.999995589256287px"><stop offset="0%" stop-color="#FFFFFF" stop-opacity="0.5490196" /><stop offset="100%" stop-color="#FFFFFF" stop-opacity="0.1568628" /></linearGradient><linearGradient id="fs7" x1="0.999997556209564px" y1="-1.61835646395048E-06px" x2="0.999997198581696px" y2="0.999998152256012px"><stop offset="0%" stop-color="#D3D3D3" stop-opacity="1" /><stop offset="100%" stop-color="#FFFFFF" stop-opacity="1" /></linearGradient><linearGradient id="fs8" x1="0.999997198581696px" y1="-4.41701786257909E-06px" x2="0.999996781349182px" y2="0.999995172023773px"><stop offset="0%" stop-color="#FFFFFF" stop-opacity="0.5490196" /><stop offset="100%" stop-color="#FFFFFF" stop-opacity="0.1568628" /></linearGradient><linearGradient id="fs9" x1="0.999984741210938px" y1="-1.20464128485764E-05px" x2="0.999982178211212px" y2="0.999987959861755px"><stop offset="0%" stop-color="#D3D3D3" stop-opacity="1" /><stop offset="100%" stop-color="#FFFFFF" stop-opacity="1" /></linearGradient><linearGradient id="fs10" x1="0.999974548816681px" y1="-3.0517578125E-05px" x2="0.999973297119141px" y2="0.999968111515045px"><stop offset="0%" stop-color="#FFFFFF" stop-opacity="0.5490196" /><stop offset="100%" stop-color="#FFFFFF" stop-opacity="0.1568628" /></linearGradient><linearGradient id="fs11" x1="0.999949157238007px" y1="-1.28495066746837E-05px" x2="0.999946594238281px" y2="0.999987125396729px"><stop offset="0%" stop-color="#D3D3D3" stop-opacity="1" /><stop offset="100%" stop-color="#FFFFFF" stop-opacity="1" /></linearGradient><linearGradient id="fs12" x1="0.999956786632538px" y1="-3.19047394441441E-05px" x2="0.999951660633087px" y2="0.999968111515045px"><stop offset="0%" stop-color="#FFFFFF" stop-opacity="0.5490196" /><stop offset="100%" stop-color="#FFFFFF" stop-opacity="0.1568628" /></linearGradient><linearGradient id="fs13" x1="0.999862670898438px" y1="-1.44556952363928E-05px" x2="0.999860107898712px" y2="0.99998551607132px"><stop offset="0%" stop-color="#D3D3D3" stop-opacity="1" /><stop offset="100%" stop-color="#FFFFFF" stop-opacity="1" /></linearGradient><linearGradient id="fs14" x1="0.999882996082306px" y1="-3.19047394441441E-05px" x2="0.9998779296875px" y2="0.999968111515045px"><stop offset="0%" stop-color="#FFFFFF" stop-opacity="0.5490196" /><stop offset="100%" stop-color="#FFFFFF" stop-opacity="0.1568628" /></linearGradient><clipPath id="cp1"><path d="M 123 77 L 393 77  393 167  123 167 z " /></clipPath><clipPath id="cp2"><path d="M 123 77 L 393 77  393 167  123 167 z " /></clipPath><clipPath id="cp3"><path d="M 121 75 L 393 75  393 167  121 167 z " /></clipPath><clipPath id="cp4"><path d="M 6 208 L 157 208  157 274  6 274 z " /></clipPath><clipPath id="cp5"><path d="M 6 208 L 157 208  157 274  6 274 z " /></clipPath><clipPath id="cp6"><path d="M 4 206 L 157 206  157 274  4 274 z " /></clipPath><clipPath id="cp7"><path d="M 182.5 208 L 333.5 208  333.5 274  182.5 274 z " /></clipPath><clipPath id="cp8"><path d="M 182.5 208 L 333.5 208  333.5 274  182.5 274 z " /></clipPath><clipPath id="cp9"><path d="M 181 206 L 334 206  334 274  181 274 z " /></clipPath><clipPath id="cp10"><path d="M 359 208 L 510 208  510 274  359 274 z " /></clipPath><clipPath id="cp11"><path d="M 359 208 L 510 208  510 274  359 274 z " /></clipPath><clipPath id="cp12"><path d="M 357 206 L 510 206  510 274  357 274 z " /></clipPath><clipPath id="cp13"><path d="M 140 166 L 134 185  146 185 z " /></clipPath><clipPath id="cp14"><path d="M 257 166 L 251 185  263 185 z " /></clipPath><clipPath id="cp15"><path d="M 371 166 L 365 185  377 185 z " /></clipPath></defs><g transform="matrix(1 0 0 1 0 0)"><g clip-path="url(#cp1)"><rect x="122px" y="76px" width="272px" height="92px" fill="rgba(0,0,0,0.235)" /></g><g clip-path="url(#cp2)"><path fill="none" d="M 123 77 L 393 77  393 167  123 167 z " stroke="rgba(0,0,0,0.047)" stroke-width="10px" stroke-dashoffset="0" stroke-linejoin="round" stroke-miterlimit="10" /><path fill="none" d="M 123 77 L 393 77  393 167  123 167 z " stroke="rgba(0,0,0,0.047)" stroke-width="8px" stroke-dashoffset="0" stroke-linejoin="round" stroke-miterlimit="10" /><path fill="none" d="M 123 77 L 393 77  393 167  123 167 z " stroke="rgba(0,0,0,0.047)" stroke-width="6px" stroke-dashoffset="0" stroke-linejoin="round" stroke-miterlimit="10" /><path fill="none" d="M 123 77 L 393 77  393 167  123 167 z " stroke="rgba(0,0,0,0.055)" stroke-width="4px" stroke-dashoffset="0" stroke-linejoin="round" stroke-miterlimit="10" /><path fill="none" d="M 123 77 L 393 77  393 167  123 167 z " stroke="rgba(0,0,0,0.047)" stroke-width="2px" stroke-dashoffset="0" stroke-linejoin="round" stroke-miterlimit="10" /></g><rect x="122px" y="76px" width="270px" height="90px" fill="url(#fs1)" /><path d="M 392 106 C 257 106  122 106  122 128.5 L 122 76  392 76  392 106 z " fill="url(#fs2)" /><rect x="122px" y="76px" width="270px" height="90px" fill="none" stroke="#000000" stroke-width="1px" stroke-dashoffset="0" stroke-linejoin="round" stroke-miterlimit="10" /><g clip-path="url(#cp3)"><text x="228px" y="93.5562438964844px" font-family="Verdana" font-size="9.599999pt" font-weight="bold" font-style="italic" fill="#000000">Handler</text><line x1="122px" y1="100px" x2="392px" y2="100px" stroke="#000000" stroke-width="1px" stroke-dashoffset="0" stroke-linejoin="round" stroke-miterlimit="10" /><text x="125px" y="120.000625610352px" font-family="Verdana" font-size="8.639999pt" fill="#000000">- successor: Handler</text><line x1="122px" y1="127px" x2="392px" y2="127px" stroke="#000000" stroke-width="1px" stroke-dashoffset="0" stroke-linejoin="round" stroke-miterlimit="10" /><text x="125px" y="144.000625610352px" font-family="Verdana" font-size="8.639999pt" font-style="italic" fill="#000000">+ handleRequest (request)</text><text x="125px" y="161.000625610352px" font-family="Verdana" font-size="8.639999pt" fill="#000000">+ setSuccessor (successor : Handler)</text></g></g><g transform="matrix(1 0 0 1 0 0)"><g clip-path="url(#cp4)"><rect x="5px" y="207px" width="153px" height="68px" fill="rgba(0,0,0,0.235)" /></g><g clip-path="url(#cp5)"><path fill="none" d="M 6 208 L 157 208  157 274  6 274 z " stroke="rgba(0,0,0,0.047)" stroke-width="10px" stroke-dashoffset="0" stroke-linejoin="round" stroke-miterlimit="10" /><path fill="none" d="M 6 208 L 157 208  157 274  6 274 z " stroke="rgba(0,0,0,0.047)" stroke-width="8px" stroke-dashoffset="0" stroke-linejoin="round" stroke-miterlimit="10" /><path fill="none" d="M 6 208 L 157 208  157 274  6 274 z " stroke="rgba(0,0,0,0.047)" stroke-width="6px" stroke-dashoffset="0" stroke-linejoin="round" stroke-miterlimit="10" /><path fill="none" d="M 6 208 L 157 208  157 274  6 274 z " stroke="rgba(0,0,0,0.055)" stroke-width="4px" stroke-dashoffset="0" stroke-linejoin="round" stroke-miterlimit="10" /><path fill="none" d="M 6 208 L 157 208  157 274  6 274 z " stroke="rgba(0,0,0,0.047)" stroke-width="2px" stroke-dashoffset="0" stroke-linejoin="round" stroke-miterlimit="10" /></g><rect x="5px" y="207px" width="151px" height="66px" fill="url(#fs3)" /><path d="M 156 229 C 80.5 229  5 229  5 245.5 L 5 207  156 207  156 229 z " fill="url(#fs4)" /><rect x="5px" y="207px" width="151px" height="66px" fill="none" stroke="#000000" stroke-width="1px" stroke-dashoffset="0" stroke-linejoin="round" stroke-miterlimit="10" /><g clip-path="url(#cp6)"><text x="14px" y="224.556243896484px" font-family="Verdana" font-size="9.599999pt" font-weight="bold" fill="#000000">ConcreteHandlerA</text><line x1="5px" y1="231px" x2="156px" y2="231px" stroke="#000000" stroke-width="1px" stroke-dashoffset="0" stroke-linejoin="round" stroke-miterlimit="10" /><line x1="5px" y1="241px" x2="156px" y2="241px" stroke="#000000" stroke-width="1px" stroke-dashoffset="0" stroke-linejoin="round" stroke-miterlimit="10" /><text x="8px" y="258.000610351563px" font-family="Verdana" font-size="8.639999pt" fill="#000000">+ handleRequest ()</text></g></g><g transform="matrix(1 0 0 1 0 0)"><g clip-path="url(#cp7)"><rect x="182px" y="207px" width="153px" height="68px" fill="rgba(0,0,0,0.235)" /></g><g clip-path="url(#cp8)"><path fill="none" d="M 182.5 208 L 333.5 208  333.5 274  182.5 274 z " stroke="rgba(0,0,0,0.047)" stroke-width="10px" stroke-dashoffset="0" stroke-linejoin="round" stroke-miterlimit="10" /><path fill="none" d="M 182.5 208 L 333.5 208  333.5 274  182.5 274 z " stroke="rgba(0,0,0,0.047)" stroke-width="8px" stroke-dashoffset="0" stroke-linejoin="round" stroke-miterlimit="10" /><path fill="none" d="M 182.5 208 L 333.5 208  333.5 274  182.5 274 z " stroke="rgba(0,0,0,0.047)" stroke-width="6px" stroke-dashoffset="0" stroke-linejoin="round" stroke-miterlimit="10" /><path fill="none" d="M 182.5 208 L 333.5 208  333.5 274  182.5 274 z " stroke="rgba(0,0,0,0.055)" stroke-width="4px" stroke-dashoffset="0" stroke-linejoin="round" stroke-miterlimit="10" /><path fill="none" d="M 182.5 208 L 333.5 208  333.5 274  182.5 274 z " stroke="rgba(0,0,0,0.047)" stroke-width="2px" stroke-dashoffset="0" stroke-linejoin="round" stroke-miterlimit="10" /></g><rect x="182px" y="207px" width="151px" height="66px" fill="url(#fs5)" /><path d="M 332.5 229 C 257 229  181.5 229  181.5 245.5 L 181.5 207  332.5 207  332.5 229 z " fill="url(#fs6)" /><rect x="182px" y="207px" width="151px" height="66px" fill="none" stroke="#000000" stroke-width="1px" stroke-dashoffset="0" stroke-linejoin="round" stroke-miterlimit="10" /><g clip-path="url(#cp9)"><text x="190px" y="224.556243896484px" font-family="Verdana" font-size="9.599999pt" font-weight="bold" fill="#000000">ConcreteHandlerB</text><line x1="182px" y1="231px" x2="332px" y2="231px" stroke="#000000" stroke-width="1px" stroke-dashoffset="0" stroke-linejoin="round" stroke-miterlimit="10" /><line x1="182px" y1="241px" x2="332px" y2="241px" stroke="#000000" stroke-width="1px" stroke-dashoffset="0" stroke-linejoin="round" stroke-miterlimit="10" /><text x="184px" y="258.000610351563px" font-family="Verdana" font-size="8.639999pt" fill="#000000">+ handleRequest ()</text></g></g><g transform="matrix(1 0 0 1 0 0)"><g clip-path="url(#cp10)"><rect x="358px" y="207px" width="153px" height="68px" fill="rgba(0,0,0,0.235)" /></g><g clip-path="url(#cp11)"><path fill="none" d="M 359 208 L 510 208  510 274  359 274 z " stroke="rgba(0,0,0,0.047)" stroke-width="10px" stroke-dashoffset="0" stroke-linejoin="round" stroke-miterlimit="10" /><path fill="none" d="M 359 208 L 510 208  510 274  359 274 z " stroke="rgba(0,0,0,0.047)" stroke-width="8px" stroke-dashoffset="0" stroke-linejoin="round" stroke-miterlimit="10" /><path fill="none" d="M 359 208 L 510 208  510 274  359 274 z " stroke="rgba(0,0,0,0.047)" stroke-width="6px" stroke-dashoffset="0" stroke-linejoin="round" stroke-miterlimit="10" /><path fill="none" d="M 359 208 L 510 208  510 274  359 274 z " stroke="rgba(0,0,0,0.055)" stroke-width="4px" stroke-dashoffset="0" stroke-linejoin="round" stroke-miterlimit="10" /><path fill="none" d="M 359 208 L 510 208  510 274  359 274 z " stroke="rgba(0,0,0,0.047)" stroke-width="2px" stroke-dashoffset="0" stroke-linejoin="round" stroke-miterlimit="10" /></g><rect x="358px" y="207px" width="151px" height="66px" fill="url(#fs7)" /><path d="M 509 229 C 433.5 229  358 229  358 245.5 L 358 207  509 207  509 229 z " fill="url(#fs8)" /><rect x="358px" y="207px" width="151px" height="66px" fill="none" stroke="#000000" stroke-width="1px" stroke-dashoffset="0" stroke-linejoin="round" stroke-miterlimit="10" /><g clip-path="url(#cp12)"><text x="367px" y="224.556243896484px" font-family="Verdana" font-size="9.599999pt" font-weight="bold" fill="#000000">ConcreteHandlerC</text><line x1="358px" y1="231px" x2="509px" y2="231px" stroke="#000000" stroke-width="1px" stroke-dashoffset="0" stroke-linejoin="round" stroke-miterlimit="10" /><line x1="358px" y1="241px" x2="509px" y2="241px" stroke="#000000" stroke-width="1px" stroke-dashoffset="0" stroke-linejoin="round" stroke-miterlimit="10" /><text x="361px" y="258.000610351563px" font-family="Verdana" font-size="8.639999pt" fill="#000000">+ handleRequest ()</text></g></g><g transform="matrix(1 0 0 1 0 0)"><polyline points="342,76 342,25 448,25 449,25 449,108 449,112 392,112 " fill="none" stroke="#000000" stroke-width="1px" stroke-dashoffset="0" stroke-linejoin="round" stroke-miterlimit="10" /><polygon points="342,76 347,62 342,46 337,62 " fill="#FFFFFF" /><polygon fill="none" points="342,76 347,62 342,46 337,62 " stroke="#000000" stroke-width="1px" stroke-dashoffset="0" stroke-linejoin="round" stroke-miterlimit="10" /></g><g transform="matrix(1 0 0 1 0 0)"><polyline points="140,207 140,166 " fill="none" stroke="#000000" stroke-width="1px" stroke-dashoffset="0" stroke-linejoin="round" stroke-miterlimit="10" /><polygon points="140,166 134,185 146,185 140,166 " fill="url(#fs9)" /><g clip-path="url(#cp13)"><path d="M 146.1803 172.3404 C 140 172.3404  133.8197 172.3404  133.8197 177.0957 L 133.8197 166  146.1803 166  146.1803 172.3404 z " fill="url(#fs10)" /></g><polygon fill="none" points="140,166 134,185 146,185 140,166 " stroke="#000000" stroke-width="1px" stroke-dashoffset="0" stroke-linejoin="round" stroke-miterlimit="10" /></g><g transform="matrix(1 0 0 1 0 0)"><polyline points="257,207 257,166 " fill="none" stroke="#000000" stroke-width="1px" stroke-dashoffset="0" stroke-linejoin="round" stroke-miterlimit="10" /><polygon points="257,166 251,185 263,185 257,166 " fill="url(#fs11)" /><g clip-path="url(#cp14)"><path d="M 263.1803 172.3404 C 257 172.3404  250.8197 172.3404  250.8197 177.0957 L 250.8197 166  263.1803 166  263.1803 172.3404 z " fill="url(#fs12)" /></g><polygon fill="none" points="257,166 251,185 263,185 257,166 " stroke="#000000" stroke-width="1px" stroke-dashoffset="0" stroke-linejoin="round" stroke-miterlimit="10" /></g><g transform="matrix(1 0 0 1 0 0)"><polyline points="371,207 371,166 " fill="none" stroke="#000000" stroke-width="1px" stroke-dashoffset="0" stroke-linejoin="round" stroke-miterlimit="10" /><polygon points="371,166 365,185 377,185 371,166 " fill="url(#fs13)" /><g clip-path="url(#cp15)"><path d="M 377.1803 172.3404 C 371 172.3404  364.8197 172.3404  364.8197 177.0957 L 364.8197 166  377.1803 166  377.1803 172.3404 z " fill="url(#fs14)" /></g><polygon fill="none" points="371,166 365,185 377,185 371,166 " stroke="#000000" stroke-width="1px" stroke-dashoffset="0" stroke-linejoin="round" stroke-miterlimit="10" /></g></svg>