<?xml version="1.0" encoding="utf-8" standalone="no"?><!DOCTYPE svg PUBLIC "-//W3C//DTD SVG 1.1//EN" "http://www.w3.org/Graphics/SVG/1.1/DTD/svg11.dtd"><svg width="390px" height="244px" version="1.1" xmlns="http://www.w3.org/2000/svg"><desc /><defs><linearGradient id="fs1" x1="0.999999642372131px" y1="-1.14440915410796E-07px" x2="0.999999225139618px" y2="0.999999523162842px"><stop offset="0%" stop-color="#D3D3D3" stop-opacity="1" /><stop offset="100%" stop-color="#FFFFFF" stop-opacity="1" /></linearGradient><linearGradient id="fs2" x1="0.999999642372131px" y1="-1.31541284531522E-07px" x2="0.999999403953552px" y2="0.999999761581421px"><stop offset="0%" stop-color="#FFFFFF" stop-opacity="0.5490196" /><stop offset="100%" stop-color="#FFFFFF" stop-opacity="0.1568628" /></linearGradient><linearGradient id="fs3" x1="0.999999403953552px" y1="-6.53948120543646E-07px" x2="0.999999403953552px" y2="0.999999105930328px"><stop offset="0%" stop-color="#D3D3D3" stop-opacity="1" /><stop offset="100%" stop-color="#FFFFFF" stop-opacity="1" /></linearGradient><linearGradient id="fs4" x1="0.999998867511749px" y1="-2.23299343815597E-06px" x2="0.999998867511749px" y2="0.999997794628143px"><stop offset="0%" stop-color="#FFFFFF" stop-opacity="0.5490196" /><stop offset="100%" stop-color="#FFFFFF" stop-opacity="0.1568628" /></linearGradient><linearGradient id="fs5" x1="0.999999046325684px" y1="-8.71930808443722E-07px" x2="0.999998688697815px" y2="0.999999105930328px"><stop offset="0%" stop-color="#D3D3D3" stop-opacity="1" /><stop offset="100%" stop-color="#FFFFFF" stop-opacity="1" /></linearGradient><linearGradient id="fs6" x1="0.999998450279236px" y1="-2.23299343815597E-06px" x2="0.999998450279236px" y2="0.999997794628143px"><stop offset="0%" stop-color="#FFFFFF" stop-opacity="0.5490196" /><stop offset="100%" stop-color="#FFFFFF" stop-opacity="0.1568628" /></linearGradient><linearGradient id="fs7" x1="0.999985992908478px" y1="-4.41701786257909E-06px" x2="0.999983489513397px" y2="0.99999475479126px"><stop offset="0%" stop-color="#D3D3D3" stop-opacity="1" /><stop offset="100%" stop-color="#FFFFFF" stop-opacity="1" /></linearGradient><linearGradient id="fs8" x1="0.999987304210663px" y1="-9.71013832895551E-06px" x2="0.999985992908478px" y2="0.999988198280334px"><stop offset="0%" stop-color="#FFFFFF" stop-opacity="0.5490196" /><stop offset="100%" stop-color="#FFFFFF" stop-opacity="0.1568628" /></linearGradient><linearGradient id="fs9" x1="0.999952971935272px" y1="-4.81856477563269E-06px" x2="0.999950408935547px" y2="0.999995172023773px"><stop offset="0%" stop-color="#D3D3D3" stop-opacity="1" /><stop offset="100%" stop-color="#FFFFFF" stop-opacity="1" /></linearGradient><linearGradient id="fs10" x1="0.999960601329803px" y1="-1.04037198980222E-05px" x2="0.999959290027618px" y2="0.999989569187164px"><stop offset="0%" stop-color="#FFFFFF" stop-opacity="0.5490196" /><stop offset="100%" stop-color="#FFFFFF" stop-opacity="0.1568628" /></linearGradient><clipPath id="cp1"><path d="M 109 6 L 269 6  269 106  109 106 z " /></clipPath><clipPath id="cp2"><path d="M 109 6 L 269 6  269 106  109 106 z " /></clipPath><clipPath id="cp3"><path d="M 107 4 L 269 4  269 106  107 106 z " /></clipPath><clipPath id="cp4"><path d="M 6 158.5 L 166 158.5  166 228.5  6 228.5 z " /></clipPath><clipPath id="cp5"><path d="M 6 158.5 L 166 158.5  166 228.5  6 228.5 z " /></clipPath><clipPath id="cp6"><path d="M 4 156 L 166 156  166 228  4 228 z " /></clipPath><clipPath id="cp7"><path d="M 215 158.5 L 375 158.5  375 228.5  215 228.5 z " /></clipPath><clipPath id="cp8"><path d="M 215 158.5 L 375 158.5  375 228.5  215 228.5 z " /></clipPath><clipPath id="cp9"><path d="M 213 156 L 375 156  375 228  213 228 z " /></clipPath><clipPath id="cp10"><path d="M 134 105 L 128 124  140 124 z " /></clipPath><clipPath id="cp11"><path d="M 244 105 L 238 124  250 124 z " /></clipPath></defs><g transform="matrix(1 0 0 1 0 0)"><g clip-path="url(#cp1)"><rect x="108px" y="5px" width="162px" height="102px" fill="rgba(0,0,0,0.235)" /></g><g clip-path="url(#cp2)"><path fill="none" d="M 109 6 L 269 6  269 106  109 106 z " stroke="rgba(0,0,0,0.047)" stroke-width="10px" stroke-dashoffset="0" stroke-linejoin="round" stroke-miterlimit="10" /><path fill="none" d="M 109 6 L 269 6  269 106  109 106 z " stroke="rgba(0,0,0,0.047)" stroke-width="8px" stroke-dashoffset="0" stroke-linejoin="round" stroke-miterlimit="10" /><path fill="none" d="M 109 6 L 269 6  269 106  109 106 z " stroke="rgba(0,0,0,0.047)" stroke-width="6px" stroke-dashoffset="0" stroke-linejoin="round" stroke-miterlimit="10" /><path fill="none" d="M 109 6 L 269 6  269 106  109 106 z " stroke="rgba(0,0,0,0.055)" stroke-width="4px" stroke-dashoffset="0" stroke-linejoin="round" stroke-miterlimit="10" /><path fill="none" d="M 109 6 L 269 6  269 106  109 106 z " stroke="rgba(0,0,0,0.047)" stroke-width="2px" stroke-dashoffset="0" stroke-linejoin="round" stroke-miterlimit="10" /></g><rect x="108px" y="5px" width="160px" height="100px" fill="url(#fs1)" /><path d="M 268 38.33333 C 188 38.33333  108 38.33333  108 63.33334 L 108 5  268 5  268 38.33333 z " fill="url(#fs2)" /><rect x="108px" y="5px" width="160px" height="100px" fill="none" stroke="#000000" stroke-width="1px" stroke-dashoffset="0" stroke-linejoin="round" stroke-miterlimit="10" /><g clip-path="url(#cp3)"><text x="138px" y="22.5562477111816px" font-family="Verdana" font-size="9.599999pt" font-weight="bold" font-style="italic" fill="#000000">AbstractClass</text><line x1="108px" y1="29px" x2="268px" y2="29px" stroke="#000000" stroke-width="1px" stroke-dashoffset="0" stroke-linejoin="round" stroke-miterlimit="10" /><line x1="108px" y1="39px" x2="268px" y2="39px" stroke="#000000" stroke-width="1px" stroke-dashoffset="0" stroke-linejoin="round" stroke-miterlimit="10" /><text x="111px" y="56.0006217956543px" font-family="Verdana" font-size="8.639999pt" font-style="italic" fill="#000000">+ PrimitiveOperation1 ()</text><text x="111px" y="73.0006256103516px" font-family="Verdana" font-size="8.639999pt" font-style="italic" fill="#000000">+ PrimitiveOperation2 ()</text><text x="111px" y="90.0006256103516px" font-family="Verdana" font-size="8.639999pt" fill="#000000">+ TemplateMethod ()</text></g></g><g transform="matrix(1 0 0 1 0 0)"><g clip-path="url(#cp4)"><rect x="5px" y="158px" width="162px" height="72px" fill="rgba(0,0,0,0.235)" /></g><g clip-path="url(#cp5)"><path fill="none" d="M 6 158.5 L 166 158.5  166 228.5  6 228.5 z " stroke="rgba(0,0,0,0.047)" stroke-width="10px" stroke-dashoffset="0" stroke-linejoin="round" stroke-miterlimit="10" /><path fill="none" d="M 6 158.5 L 166 158.5  166 228.5  6 228.5 z " stroke="rgba(0,0,0,0.047)" stroke-width="8px" stroke-dashoffset="0" stroke-linejoin="round" stroke-miterlimit="10" /><path fill="none" d="M 6 158.5 L 166 158.5  166 228.5  6 228.5 z " stroke="rgba(0,0,0,0.047)" stroke-width="6px" stroke-dashoffset="0" stroke-linejoin="round" stroke-miterlimit="10" /><path fill="none" d="M 6 158.5 L 166 158.5  166 228.5  6 228.5 z " stroke="rgba(0,0,0,0.055)" stroke-width="4px" stroke-dashoffset="0" stroke-linejoin="round" stroke-miterlimit="10" /><path fill="none" d="M 6 158.5 L 166 158.5  166 228.5  6 228.5 z " stroke="rgba(0,0,0,0.047)" stroke-width="2px" stroke-dashoffset="0" stroke-linejoin="round" stroke-miterlimit="10" /></g><rect x="5px" y="157px" width="160px" height="70px" fill="url(#fs3)" /><path d="M 165 180.8333 C 85 180.8333  5 180.8333  5 198.3333 L 5 157.5  165 157.5  165 180.8333 z " fill="url(#fs4)" /><rect x="5px" y="157px" width="160px" height="70px" fill="none" stroke="#000000" stroke-width="1px" stroke-dashoffset="0" stroke-linejoin="round" stroke-miterlimit="10" /><g clip-path="url(#cp6)"><text x="28px" y="175.556243896484px" font-family="Verdana" font-size="9.599999pt" font-weight="bold" fill="#000000">ConcreteClassA</text><line x1="5px" y1="181px" x2="165px" y2="181px" stroke="#000000" stroke-width="1px" stroke-dashoffset="0" stroke-linejoin="round" stroke-miterlimit="10" /><line x1="5px" y1="191px" x2="165px" y2="191px" stroke="#000000" stroke-width="1px" stroke-dashoffset="0" stroke-linejoin="round" stroke-miterlimit="10" /><text x="8px" y="208.000625610352px" font-family="Verdana" font-size="8.639999pt" fill="#000000">+ PrimitiveOperation1 ()</text><text x="8px" y="225.000625610352px" font-family="Verdana" font-size="8.639999pt" fill="#000000">+ PrimitiveOperation2 ()</text></g></g><g transform="matrix(1 0 0 1 0 0)"><g clip-path="url(#cp7)"><rect x="214px" y="158px" width="162px" height="72px" fill="rgba(0,0,0,0.235)" /></g><g clip-path="url(#cp8)"><path fill="none" d="M 215 158.5 L 375 158.5  375 228.5  215 228.5 z " stroke="rgba(0,0,0,0.047)" stroke-width="10px" stroke-dashoffset="0" stroke-linejoin="round" stroke-miterlimit="10" /><path fill="none" d="M 215 158.5 L 375 158.5  375 228.5  215 228.5 z " stroke="rgba(0,0,0,0.047)" stroke-width="8px" stroke-dashoffset="0" stroke-linejoin="round" stroke-miterlimit="10" /><path fill="none" d="M 215 158.5 L 375 158.5  375 228.5  215 228.5 z " stroke="rgba(0,0,0,0.047)" stroke-width="6px" stroke-dashoffset="0" stroke-linejoin="round" stroke-miterlimit="10" /><path fill="none" d="M 215 158.5 L 375 158.5  375 228.5  215 228.5 z " stroke="rgba(0,0,0,0.055)" stroke-width="4px" stroke-dashoffset="0" stroke-linejoin="round" stroke-miterlimit="10" /><path fill="none" d="M 215 158.5 L 375 158.5  375 228.5  215 228.5 z " stroke="rgba(0,0,0,0.047)" stroke-width="2px" stroke-dashoffset="0" stroke-linejoin="round" stroke-miterlimit="10" /></g><rect x="214px" y="157px" width="160px" height="70px" fill="url(#fs5)" /><path d="M 374 180.8333 C 294 180.8333  214 180.8333  214 198.3333 L 214 157.5  374 157.5  374 180.8333 z " fill="url(#fs6)" /><rect x="214px" y="157px" width="160px" height="70px" fill="none" stroke="#000000" stroke-width="1px" stroke-dashoffset="0" stroke-linejoin="round" stroke-miterlimit="10" /><g clip-path="url(#cp9)"><text x="237px" y="175.556243896484px" font-family="Verdana" font-size="9.599999pt" font-weight="bold" fill="#000000">ConcreteClassB</text><line x1="214px" y1="181px" x2="374px" y2="181px" stroke="#000000" stroke-width="1px" stroke-dashoffset="0" stroke-linejoin="round" stroke-miterlimit="10" /><line x1="214px" y1="191px" x2="374px" y2="191px" stroke="#000000" stroke-width="1px" stroke-dashoffset="0" stroke-linejoin="round" stroke-miterlimit="10" /><text x="217px" y="208.000625610352px" font-family="Verdana" font-size="8.639999pt" fill="#000000">+ PrimitiveOperation1 ()</text><text x="217px" y="225.000625610352px" font-family="Verdana" font-size="8.639999pt" fill="#000000">+ PrimitiveOperation2 ()</text></g></g><g transform="matrix(1 0 0 1 0 0)"><polyline points="134,157 134,105 " fill="none" stroke="#000000" stroke-width="1px" stroke-dashoffset="0" stroke-linejoin="round" stroke-miterlimit="10" /><polygon points="134,105 128,124 140,124 134,105 " fill="url(#fs7)" /><g clip-path="url(#cp10)"><path d="M 140.1803 111.3404 C 134 111.3404  127.8197 111.3404  127.8197 116.0957 L 127.8197 105  140.1803 105  140.1803 111.3404 z " fill="url(#fs8)" /></g><polygon fill="none" points="134,105 128,124 140,124 134,105 " stroke="#000000" stroke-width="1px" stroke-dashoffset="0" stroke-linejoin="round" stroke-miterlimit="10" /></g><g transform="matrix(1 0 0 1 0 0)"><polyline points="244,157 244,105 " fill="none" stroke="#000000" stroke-width="1px" stroke-dashoffset="0" stroke-linejoin="round" stroke-miterlimit="10" /><polygon points="244,105 238,124 250,124 244,105 " fill="url(#fs9)" /><g clip-path="url(#cp11)"><path d="M 250.1803 111.3404 C 244 111.3404  237.8197 111.3404  237.8197 116.0957 L 237.8197 105  250.1803 105  250.1803 111.3404 z " fill="url(#fs10)" /></g><polygon fill="none" points="244,105 238,124 250,124 244,105 " stroke="#000000" stroke-width="1px" stroke-dashoffset="0" stroke-linejoin="round" stroke-miterlimit="10" /></g></svg>