<?xml version="1.0" encoding="utf-8" standalone="no"?><!DOCTYPE svg PUBLIC "-//W3C//DTD SVG 1.1//EN" "http://www.w3.org/Graphics/SVG/1.1/DTD/svg11.dtd"><svg width="608px" height="318px" version="1.1" xmlns="http://www.w3.org/2000/svg"><desc /><defs><linearGradient id="fs1" x1="0.999999105930328px" y1="-2.99191952990441E-07px" x2="0.999998927116394px" y2="0.999999403953552px"><stop offset="0%" stop-color="#D3D3D3" stop-opacity="1" /><stop offset="100%" stop-color="#FFFFFF" stop-opacity="1" /></linearGradient><linearGradient id="fs2" x1="0.999999344348907px" y1="-3.81469732246842E-07px" x2="0.999999105930328px" y2="0.999999463558197px"><stop offset="0%" stop-color="#FFFFFF" stop-opacity="0.5490196" /><stop offset="100%" stop-color="#FFFFFF" stop-opacity="0.1568628" /></linearGradient><linearGradient id="fs3" x1="0.999999344348907px" y1="-8.97575830549613E-07px" x2="0.999999344348907px" y2="0.999998807907104px"><stop offset="0%" stop-color="#D3D3D3" stop-opacity="1" /><stop offset="100%" stop-color="#FFFFFF" stop-opacity="1" /></linearGradient><linearGradient id="fs4" x1="0.999999344348907px" y1="-2.03450531444105E-06px" x2="0.999999344348907px" y2="0.999997973442078px"><stop offset="0%" stop-color="#FFFFFF" stop-opacity="0.5490196" /><stop offset="100%" stop-color="#FFFFFF" stop-opacity="0.1568628" /></linearGradient><linearGradient id="fs5" x1="0.999999225139618px" y1="-5.77984451410885E-07px" x2="0.999998927116394px" y2="0.999999046325684px"><stop offset="0%" stop-color="#D3D3D3" stop-opacity="1" /><stop offset="100%" stop-color="#FFFFFF" stop-opacity="1" /></linearGradient><linearGradient id="fs6" x1="0.999999105930328px" y1="-1.40541476412182E-06px" x2="0.99999874830246px" y2="0.999998390674591px"><stop offset="0%" stop-color="#FFFFFF" stop-opacity="0.5490196" /><stop offset="100%" stop-color="#FFFFFF" stop-opacity="0.1568628" /></linearGradient><linearGradient id="fs7" x1="0.999999105930328px" y1="-1.38716268338612E-06px" x2="0.99999874830246px" y2="0.999998152256012px"><stop offset="0%" stop-color="#D3D3D3" stop-opacity="1" /><stop offset="100%" stop-color="#FFFFFF" stop-opacity="1" /></linearGradient><linearGradient id="fs8" x1="0.999998152256012px" y1="-4.01547094952548E-06px" x2="0.999998152256012px" y2="0.999995589256287px"><stop offset="0%" stop-color="#FFFFFF" stop-opacity="0.5490196" /><stop offset="100%" stop-color="#FFFFFF" stop-opacity="0.1568628" /></linearGradient><linearGradient id="fs9" x1="0.999999284744263px" y1="-1.28688577660796E-06px" x2="0.999998807907104px" y2="0.999998509883881px"><stop offset="0%" stop-color="#D3D3D3" stop-opacity="1" /><stop offset="100%" stop-color="#FFFFFF" stop-opacity="1" /></linearGradient><linearGradient id="fs10" x1="0.999999046325684px" y1="-3.814697265625E-06px" x2="0.99999862909317px" y2="0.999996185302734px"><stop offset="0%" stop-color="#FFFFFF" stop-opacity="0.5490196" /><stop offset="100%" stop-color="#FFFFFF" stop-opacity="0.1568628" /></linearGradient><linearGradient id="fs11" x1="0.999978363513947px" y1="-1.20464128485764E-05px" x2="0.999975860118866px" y2="0.999987959861755px"><stop offset="0%" stop-color="#D3D3D3" stop-opacity="1" /><stop offset="100%" stop-color="#FFFFFF" stop-opacity="1" /></linearGradient><linearGradient id="fs12" x1="0.999961853027344px" y1="-3.0517578125E-05px" x2="0.999960601329803px" y2="0.999969482421875px"><stop offset="0%" stop-color="#FFFFFF" stop-opacity="0.5490196" /><stop offset="100%" stop-color="#FFFFFF" stop-opacity="0.1568628" /></linearGradient><linearGradient id="fs13" x1="0.999865233898163px" y1="-1.44556952363928E-05px" x2="0.999862670898438px" y2="0.99998551607132px"><stop offset="0%" stop-color="#D3D3D3" stop-opacity="1" /><stop offset="100%" stop-color="#FFFFFF" stop-opacity="1" /></linearGradient><linearGradient id="fs14" x1="0.999882996082306px" y1="-3.32919044012669E-05px" x2="0.9998779296875px" y2="0.999966681003571px"><stop offset="0%" stop-color="#FFFFFF" stop-opacity="0.5490196" /><stop offset="100%" stop-color="#FFFFFF" stop-opacity="0.1568628" /></linearGradient><clipPath id="cp1"><path d="M 233 5.5 L 373 5.5  373 56.5  233 56.5 z " /></clipPath><clipPath id="cp2"><path d="M 233 5.5 L 373 5.5  373 56.5  233 56.5 z " /></clipPath><clipPath id="cp3"><path d="M 231 3 L 373 3  373 56  231 56 z " /></clipPath><clipPath id="cp4"><path d="M 6 105 L 146 105  146 156  6 156 z " /></clipPath><clipPath id="cp5"><path d="M 6 105 L 146 105  146 156  6 156 z " /></clipPath><clipPath id="cp6"><path d="M 4 103 L 146 103  146 156  4 156 z " /></clipPath><clipPath id="cp7"><path d="M 203.5 105 L 402.5 105  402.5 171  203.5 171 z " /></clipPath><clipPath id="cp8"><path d="M 203.5 105 L 402.5 105  402.5 171  203.5 171 z " /></clipPath><clipPath id="cp9"><path d="M 201 103 L 402 103  402 171  201 171 z " /></clipPath><clipPath id="cp10"><path d="M 81 219.5 L 280 219.5  280 285.5  81 285.5 z " /></clipPath><clipPath id="cp11"><path d="M 81 219.5 L 280 219.5  280 285.5  81 285.5 z " /></clipPath><clipPath id="cp12"><path d="M 79 217 L 280 217  280 285  79 285 z " /></clipPath><clipPath id="cp13"><path d="M 331 219.5 L 593 219.5  593 302.5  331 302.5 z " /></clipPath><clipPath id="cp14"><path d="M 331 219.5 L 593 219.5  593 302.5  331 302.5 z " /></clipPath><clipPath id="cp15"><path d="M 329 217 L 593 217  593 302  329 302 z " /></clipPath><clipPath id="cp16"><path d="M 232 170 L 226 189  238 189 z " /></clipPath><clipPath id="cp17"><path d="M 359 170 L 353 189  365 189 z " /></clipPath></defs><g transform="matrix(1 0 0 1 0 0)"><g clip-path="url(#cp1)"><rect x="232px" y="4px" width="142px" height="53px" fill="rgba(0,0,0,0.235)" /></g><g clip-path="url(#cp2)"><path fill="none" d="M 233 5.5 L 373 5.5  373 56.5  233 56.5 z " stroke="rgba(0,0,0,0.047)" stroke-width="10px" stroke-dashoffset="0" stroke-linejoin="round" stroke-miterlimit="10" /><path fill="none" d="M 233 5.5 L 373 5.5  373 56.5  233 56.5 z " stroke="rgba(0,0,0,0.047)" stroke-width="8px" stroke-dashoffset="0" stroke-linejoin="round" stroke-miterlimit="10" /><path fill="none" d="M 233 5.5 L 373 5.5  373 56.5  233 56.5 z " stroke="rgba(0,0,0,0.047)" stroke-width="6px" stroke-dashoffset="0" stroke-linejoin="round" stroke-miterlimit="10" /><path fill="none" d="M 233 5.5 L 373 5.5  373 56.5  233 56.5 z " stroke="rgba(0,0,0,0.055)" stroke-width="4px" stroke-dashoffset="0" stroke-linejoin="round" stroke-miterlimit="10" /><path fill="none" d="M 233 5.5 L 373 5.5  373 56.5  233 56.5 z " stroke="rgba(0,0,0,0.047)" stroke-width="2px" stroke-dashoffset="0" stroke-linejoin="round" stroke-miterlimit="10" /></g><rect x="232px" y="4px" width="140px" height="51px" fill="url(#fs1)" /><path d="M 372 21.5 C 302 21.5  232 21.5  232 34.25 L 232 4.5  372 4.5  372 21.5 z " fill="url(#fs2)" /><rect x="232px" y="4px" width="140px" height="51px" fill="none" stroke="#000000" stroke-width="1px" stroke-dashoffset="0" stroke-linejoin="round" stroke-miterlimit="10" /><g clip-path="url(#cp3)"><text x="274px" y="22.5562477111816px" font-family="Verdana" font-size="9.599999pt" font-weight="bold" fill="#000000">Context</text><line x1="232px" y1="28px" x2="372px" y2="28px" stroke="#000000" stroke-width="1px" stroke-dashoffset="0" stroke-linejoin="round" stroke-miterlimit="10" /><line x1="232px" y1="38px" x2="372px" y2="38px" stroke="#000000" stroke-width="1px" stroke-dashoffset="0" stroke-linejoin="round" stroke-miterlimit="10" /></g></g><g transform="matrix(1 0 0 1 0 0)"><g clip-path="url(#cp4)"><rect x="5px" y="104px" width="142px" height="53px" fill="rgba(0,0,0,0.235)" /></g><g clip-path="url(#cp5)"><path fill="none" d="M 6 105 L 146 105  146 156  6 156 z " stroke="rgba(0,0,0,0.047)" stroke-width="10px" stroke-dashoffset="0" stroke-linejoin="round" stroke-miterlimit="10" /><path fill="none" d="M 6 105 L 146 105  146 156  6 156 z " stroke="rgba(0,0,0,0.047)" stroke-width="8px" stroke-dashoffset="0" stroke-linejoin="round" stroke-miterlimit="10" /><path fill="none" d="M 6 105 L 146 105  146 156  6 156 z " stroke="rgba(0,0,0,0.047)" stroke-width="6px" stroke-dashoffset="0" stroke-linejoin="round" stroke-miterlimit="10" /><path fill="none" d="M 6 105 L 146 105  146 156  6 156 z " stroke="rgba(0,0,0,0.055)" stroke-width="4px" stroke-dashoffset="0" stroke-linejoin="round" stroke-miterlimit="10" /><path fill="none" d="M 6 105 L 146 105  146 156  6 156 z " stroke="rgba(0,0,0,0.047)" stroke-width="2px" stroke-dashoffset="0" stroke-linejoin="round" stroke-miterlimit="10" /></g><rect x="5px" y="104px" width="140px" height="51px" fill="url(#fs3)" /><path d="M 145 121 C 75 121  5 121  5 133.75 L 5 104  145 104  145 121 z " fill="url(#fs4)" /><rect x="5px" y="104px" width="140px" height="51px" fill="none" stroke="#000000" stroke-width="1px" stroke-dashoffset="0" stroke-linejoin="round" stroke-miterlimit="10" /><g clip-path="url(#cp6)"><text x="55px" y="121.556243896484px" font-family="Verdana" font-size="9.599999pt" font-weight="bold" fill="#000000">Client</text><line x1="5px" y1="128px" x2="145px" y2="128px" stroke="#000000" stroke-width="1px" stroke-dashoffset="0" stroke-linejoin="round" stroke-miterlimit="10" /><line x1="5px" y1="138px" x2="145px" y2="138px" stroke="#000000" stroke-width="1px" stroke-dashoffset="0" stroke-linejoin="round" stroke-miterlimit="10" /></g></g><g transform="matrix(1 0 0 1 0 0)"><g clip-path="url(#cp7)"><rect x="202px" y="104px" width="201px" height="68px" fill="rgba(0,0,0,0.235)" /></g><g clip-path="url(#cp8)"><path fill="none" d="M 203.5 105 L 402.5 105  402.5 171  203.5 171 z " stroke="rgba(0,0,0,0.047)" stroke-width="10px" stroke-dashoffset="0" stroke-linejoin="round" stroke-miterlimit="10" /><path fill="none" d="M 203.5 105 L 402.5 105  402.5 171  203.5 171 z " stroke="rgba(0,0,0,0.047)" stroke-width="8px" stroke-dashoffset="0" stroke-linejoin="round" stroke-miterlimit="10" /><path fill="none" d="M 203.5 105 L 402.5 105  402.5 171  203.5 171 z " stroke="rgba(0,0,0,0.047)" stroke-width="6px" stroke-dashoffset="0" stroke-linejoin="round" stroke-miterlimit="10" /><path fill="none" d="M 203.5 105 L 402.5 105  402.5 171  203.5 171 z " stroke="rgba(0,0,0,0.055)" stroke-width="4px" stroke-dashoffset="0" stroke-linejoin="round" stroke-miterlimit="10" /><path fill="none" d="M 203.5 105 L 402.5 105  402.5 171  203.5 171 z " stroke="rgba(0,0,0,0.047)" stroke-width="2px" stroke-dashoffset="0" stroke-linejoin="round" stroke-miterlimit="10" /></g><rect x="202px" y="104px" width="199px" height="66px" fill="url(#fs5)" /><path d="M 401.5 126 C 302 126  202.5 126  202.5 142.5 L 202.5 104  401.5 104  401.5 126 z " fill="url(#fs6)" /><rect x="202px" y="104px" width="199px" height="66px" fill="none" stroke="#000000" stroke-width="1px" stroke-dashoffset="0" stroke-linejoin="round" stroke-miterlimit="10" /><g clip-path="url(#cp9)"><text x="231px" y="121.556243896484px" font-family="Verdana" font-size="9.599999pt" font-weight="bold" font-style="italic" fill="#000000">AbstractExpression</text><line x1="202px" y1="128px" x2="402px" y2="128px" stroke="#000000" stroke-width="1px" stroke-dashoffset="0" stroke-linejoin="round" stroke-miterlimit="10" /><line x1="202px" y1="138px" x2="402px" y2="138px" stroke="#000000" stroke-width="1px" stroke-dashoffset="0" stroke-linejoin="round" stroke-miterlimit="10" /><text x="206px" y="155.000625610352px" font-family="Verdana" font-size="8.639999pt" font-style="italic" fill="#000000">+ interpret (context : Context)</text></g></g><g transform="matrix(1 0 0 1 0 0)"><g clip-path="url(#cp10)"><rect x="80px" y="218px" width="201px" height="68px" fill="rgba(0,0,0,0.235)" /></g><g clip-path="url(#cp11)"><path fill="none" d="M 81 219.5 L 280 219.5  280 285.5  81 285.5 z " stroke="rgba(0,0,0,0.047)" stroke-width="10px" stroke-dashoffset="0" stroke-linejoin="round" stroke-miterlimit="10" /><path fill="none" d="M 81 219.5 L 280 219.5  280 285.5  81 285.5 z " stroke="rgba(0,0,0,0.047)" stroke-width="8px" stroke-dashoffset="0" stroke-linejoin="round" stroke-miterlimit="10" /><path fill="none" d="M 81 219.5 L 280 219.5  280 285.5  81 285.5 z " stroke="rgba(0,0,0,0.047)" stroke-width="6px" stroke-dashoffset="0" stroke-linejoin="round" stroke-miterlimit="10" /><path fill="none" d="M 81 219.5 L 280 219.5  280 285.5  81 285.5 z " stroke="rgba(0,0,0,0.055)" stroke-width="4px" stroke-dashoffset="0" stroke-linejoin="round" stroke-miterlimit="10" /><path fill="none" d="M 81 219.5 L 280 219.5  280 285.5  81 285.5 z " stroke="rgba(0,0,0,0.047)" stroke-width="2px" stroke-dashoffset="0" stroke-linejoin="round" stroke-miterlimit="10" /></g><rect x="80px" y="218px" width="199px" height="66px" fill="url(#fs7)" /><path d="M 279 240.5 C 179.5 240.5  80 240.5  80 257 L 80 218.5  279 218.5  279 240.5 z " fill="url(#fs8)" /><rect x="80px" y="218px" width="199px" height="66px" fill="none" stroke="#000000" stroke-width="1px" stroke-dashoffset="0" stroke-linejoin="round" stroke-miterlimit="10" /><g clip-path="url(#cp12)"><text x="107px" y="236.556243896484px" font-family="Verdana" font-size="9.599999pt" font-weight="bold" fill="#000000">TerminalExpression</text><line x1="80px" y1="242px" x2="279px" y2="242px" stroke="#000000" stroke-width="1px" stroke-dashoffset="0" stroke-linejoin="round" stroke-miterlimit="10" /><line x1="80px" y1="252px" x2="279px" y2="252px" stroke="#000000" stroke-width="1px" stroke-dashoffset="0" stroke-linejoin="round" stroke-miterlimit="10" /><text x="83px" y="269.000610351563px" font-family="Verdana" font-size="8.639999pt" fill="#000000">+ interpret (context : Context)</text></g></g><g transform="matrix(1 0 0 1 0 0)"><g clip-path="url(#cp13)"><rect x="330px" y="218px" width="264px" height="85px" fill="rgba(0,0,0,0.235)" /></g><g clip-path="url(#cp14)"><path fill="none" d="M 331 219.5 L 593 219.5  593 302.5  331 302.5 z " stroke="rgba(0,0,0,0.047)" stroke-width="10px" stroke-dashoffset="0" stroke-linejoin="round" stroke-miterlimit="10" /><path fill="none" d="M 331 219.5 L 593 219.5  593 302.5  331 302.5 z " stroke="rgba(0,0,0,0.047)" stroke-width="8px" stroke-dashoffset="0" stroke-linejoin="round" stroke-miterlimit="10" /><path fill="none" d="M 331 219.5 L 593 219.5  593 302.5  331 302.5 z " stroke="rgba(0,0,0,0.047)" stroke-width="6px" stroke-dashoffset="0" stroke-linejoin="round" stroke-miterlimit="10" /><path fill="none" d="M 331 219.5 L 593 219.5  593 302.5  331 302.5 z " stroke="rgba(0,0,0,0.055)" stroke-width="4px" stroke-dashoffset="0" stroke-linejoin="round" stroke-miterlimit="10" /><path fill="none" d="M 331 219.5 L 593 219.5  593 302.5  331 302.5 z " stroke="rgba(0,0,0,0.047)" stroke-width="2px" stroke-dashoffset="0" stroke-linejoin="round" stroke-miterlimit="10" /></g><rect x="330px" y="218px" width="262px" height="83px" fill="url(#fs9)" /><path d="M 592 246.1667 C 461 246.1667  330 246.1667  330 266.9167 L 330 218.5  592 218.5  592 246.1667 z " fill="url(#fs10)" /><rect x="330px" y="218px" width="262px" height="83px" fill="none" stroke="#000000" stroke-width="1px" stroke-dashoffset="0" stroke-linejoin="round" stroke-miterlimit="10" /><g clip-path="url(#cp15)"><text x="375px" y="236.556243896484px" font-family="Verdana" font-size="9.599999pt" font-weight="bold" fill="#000000">NonterminalExpression</text><line x1="330px" y1="242px" x2="592px" y2="242px" stroke="#000000" stroke-width="1px" stroke-dashoffset="0" stroke-linejoin="round" stroke-miterlimit="10" /><text x="333px" y="262.000610351563px" font-family="Verdana" font-size="8.639999pt" fill="#000000">- abstractExpression: AbstractExpression</text><line x1="330px" y1="269px" x2="592px" y2="269px" stroke="#000000" stroke-width="1px" stroke-dashoffset="0" stroke-linejoin="round" stroke-miterlimit="10" /><text x="333px" y="286.000610351563px" font-family="Verdana" font-size="8.639999pt" fill="#000000">+ interpret (context : Context)</text></g></g><g transform="matrix(1 0 0 1 0 0)"><polyline points="80,104 80,29 232,29 " fill="none" stroke="#000000" stroke-width="1px" stroke-dashoffset="0" stroke-linejoin="round" stroke-miterlimit="10" /><polyline points="213,23 232,29 213,35 " fill="none" stroke="#000000" stroke-width="1px" stroke-dashoffset="0" stroke-linejoin="round" stroke-miterlimit="10" /></g><g transform="matrix(1 0 0 1 0 0)"><polyline points="145,130 202,130 " fill="none" stroke="#000000" stroke-width="1px" stroke-dashoffset="0" stroke-linejoin="round" stroke-miterlimit="10" /><polyline points="183,124 202,130 183,136 " fill="none" stroke="#000000" stroke-width="1px" stroke-dashoffset="0" stroke-linejoin="round" stroke-miterlimit="10" /></g><g transform="matrix(1 0 0 1 0 0)"><polyline points="232,218 232,170 " fill="none" stroke="#000000" stroke-width="1px" stroke-dashoffset="0" stroke-linejoin="round" stroke-miterlimit="10" /><polygon points="232,170 226,189 238,189 232,170 " fill="url(#fs11)" /><g clip-path="url(#cp16)"><path d="M 238.1803 176.3404 C 232 176.3404  225.8197 176.3404  225.8197 181.0957 L 225.8197 170  238.1803 170  238.1803 176.3404 z " fill="url(#fs12)" /></g><polygon fill="none" points="232,170 226,189 238,189 232,170 " stroke="#000000" stroke-width="1px" stroke-dashoffset="0" stroke-linejoin="round" stroke-miterlimit="10" /></g><g transform="matrix(1 0 0 1 0 0)"><polyline points="359,218 359,170 " fill="none" stroke="#000000" stroke-width="1px" stroke-dashoffset="0" stroke-linejoin="round" stroke-miterlimit="10" /><polygon points="359,170 353,189 365,189 359,170 " fill="url(#fs13)" /><g clip-path="url(#cp17)"><path d="M 365.1803 176.3404 C 359 176.3404  352.8197 176.3404  352.8197 181.0957 L 352.8197 170  365.1803 170  365.1803 176.3404 z " fill="url(#fs14)" /></g><polygon fill="none" points="359,170 353,189 365,189 359,170 " stroke="#000000" stroke-width="1px" stroke-dashoffset="0" stroke-linejoin="round" stroke-miterlimit="10" /></g><g transform="matrix(1 0 0 1 0 0)"><polyline points="501,218 501,135 402,135 " fill="none" stroke="#000000" stroke-width="1px" stroke-dashoffset="0" stroke-linejoin="round" stroke-miterlimit="10" /><polygon points="501,218 506,204 501,188 496,204 " fill="#FFFFFF" /><polygon fill="none" points="501,218 506,204 501,188 496,204 " stroke="#000000" stroke-width="1px" stroke-dashoffset="0" stroke-linejoin="round" stroke-miterlimit="10" /></g></svg>