<?xml version="1.0" encoding="utf-8" standalone="no"?><!DOCTYPE svg PUBLIC "-//W3C//DTD SVG 1.1//EN" "http://www.w3.org/Graphics/SVG/1.1/DTD/svg11.dtd"><svg width="593px" height="223px" version="1.1" xmlns="http://www.w3.org/2000/svg"><desc /><defs><linearGradient id="fs1" x1="0.999999523162842px" y1="-3.40597978265578E-07px" x2="0.999999165534973px" y2="0.999999344348907px"><stop offset="0%" stop-color="#D3D3D3" stop-opacity="1" /><stop offset="100%" stop-color="#FFFFFF" stop-opacity="1" /></linearGradient><linearGradient id="fs2" x1="0.999999165534973px" y1="-4.04589115987619E-07px" x2="0.999998867511749px" y2="0.999999165534973px"><stop offset="0%" stop-color="#FFFFFF" stop-opacity="0.5490196" /><stop offset="100%" stop-color="#FFFFFF" stop-opacity="0.1568628" /></linearGradient><linearGradient id="fs3" x1="0.999998867511749px" y1="-1.36239191306231E-06px" x2="0.999998688697815px" y2="0.999998390674591px"><stop offset="0%" stop-color="#D3D3D3" stop-opacity="1" /><stop offset="100%" stop-color="#FFFFFF" stop-opacity="1" /></linearGradient><linearGradient id="fs4" x1="0.999998688697815px" y1="-3.69910048902966E-06px" x2="0.999998390674591px" y2="0.999996304512024px"><stop offset="0%" stop-color="#FFFFFF" stop-opacity="0.5490196" /><stop offset="100%" stop-color="#FFFFFF" stop-opacity="0.1568628" /></linearGradient><linearGradient id="fs5" x1="0.99999988079071px" y1="-5.07273556493715E-09px" x2="0.999999821186066px" y2="0.999999821186066px"><stop offset="0%" stop-color="#D3D3D3" stop-opacity="1" /><stop offset="100%" stop-color="#FFFFFF" stop-opacity="1" /></linearGradient><linearGradient id="fs6" x1="0.999999821186066px" y1="-1.73395324765124E-08px" x2="0.999999701976776px" y2="0.999999701976776px"><stop offset="0%" stop-color="#FFFFFF" stop-opacity="0.5490196" /><stop offset="100%" stop-color="#FFFFFF" stop-opacity="0.1568628" /></linearGradient><linearGradient id="fs7" x1="0.999998033046722px" y1="-1.63487027293741E-06px" x2="0.99999737739563px" y2="0.999998092651367px"><stop offset="0%" stop-color="#D3D3D3" stop-opacity="1" /><stop offset="100%" stop-color="#FFFFFF" stop-opacity="1" /></linearGradient><linearGradient id="fs8" x1="0.99999737739563px" y1="-3.69910048902966E-06px" x2="0.999997079372406px" y2="0.999995827674866px"><stop offset="0%" stop-color="#FFFFFF" stop-opacity="0.5490196" /><stop offset="100%" stop-color="#FFFFFF" stop-opacity="0.1568628" /></linearGradient><linearGradient id="fs9" x1="0.999933898448944px" y1="-4.81856477563269E-06px" x2="0.999928772449493px" y2="0.999993562698364px"><stop offset="0%" stop-color="#D3D3D3" stop-opacity="1" /><stop offset="100%" stop-color="#FFFFFF" stop-opacity="1" /></linearGradient><linearGradient id="fs10" x1="0.999903380870819px" y1="-1.1097301467089E-05px" x2="0.999898254871368px" y2="0.999988913536072px"><stop offset="0%" stop-color="#FFFFFF" stop-opacity="0.5490196" /><stop offset="100%" stop-color="#FFFFFF" stop-opacity="0.1568628" /></linearGradient><linearGradient id="fs11" x1="0.99984484910965px" y1="-6.42475333734183E-06px" x2="0.999842345714569px" y2="0.999993562698364px"><stop offset="0%" stop-color="#D3D3D3" stop-opacity="1" /><stop offset="100%" stop-color="#FFFFFF" stop-opacity="1" /></linearGradient><linearGradient id="fs12" x1="0.999944031238556px" y1="-1.1097301467089E-05px" x2="0.999941527843475px" y2="0.999988913536072px"><stop offset="0%" stop-color="#FFFFFF" stop-opacity="0.5490196" /><stop offset="100%" stop-color="#FFFFFF" stop-opacity="0.1568628" /></linearGradient><clipPath id="cp1"><path d="M 268 25 L 455 25  455 81  268 81 z " /></clipPath><clipPath id="cp2"><path d="M 268 25 L 455 25  455 81  268 81 z " /></clipPath><clipPath id="cp3"><path d="M 266 23 L 455 23  455 81  266 81 z " /></clipPath><clipPath id="cp4"><path d="M 169 152 L 356 152  356 208  169 208 z " /></clipPath><clipPath id="cp5"><path d="M 169 152 L 356 152  356 208  169 208 z " /></clipPath><clipPath id="cp6"><path d="M 167 150 L 356 150  356 208  167 208 z " /></clipPath><clipPath id="cp7"><path d="M 6 6 L 169 6  169 100  6 100 z " /></clipPath><clipPath id="cp8"><path d="M 6 6 L 169 6  169 100  6 100 z " /></clipPath><clipPath id="cp9"><path d="M 4 4 L 169 4  169 100  4 100 z " /></clipPath><clipPath id="cp10"><path d="M 391 152 L 578 152  578 208  391 208 z " /></clipPath><clipPath id="cp11"><path d="M 391 152 L 578 152  578 208  391 208 z " /></clipPath><clipPath id="cp12"><path d="M 389 150 L 578 150  578 208  389 208 z " /></clipPath><clipPath id="cp13"><path d="M 309 80 L 303 99  315 99 z " /></clipPath><clipPath id="cp14"><path d="M 419 80 L 413 99  425 99 z " /></clipPath></defs><g transform="matrix(1 0 0 1 0 0)"><g clip-path="url(#cp1)"><rect x="267px" y="24px" width="189px" height="58px" fill="rgba(0,0,0,0.235)" /></g><g clip-path="url(#cp2)"><path fill="none" d="M 268 25 L 455 25  455 81  268 81 z " stroke="rgba(0,0,0,0.047)" stroke-width="10px" stroke-dashoffset="0" stroke-linejoin="round" stroke-miterlimit="10" /><path fill="none" d="M 268 25 L 455 25  455 81  268 81 z " stroke="rgba(0,0,0,0.047)" stroke-width="8px" stroke-dashoffset="0" stroke-linejoin="round" stroke-miterlimit="10" /><path fill="none" d="M 268 25 L 455 25  455 81  268 81 z " stroke="rgba(0,0,0,0.047)" stroke-width="6px" stroke-dashoffset="0" stroke-linejoin="round" stroke-miterlimit="10" /><path fill="none" d="M 268 25 L 455 25  455 81  268 81 z " stroke="rgba(0,0,0,0.055)" stroke-width="4px" stroke-dashoffset="0" stroke-linejoin="round" stroke-miterlimit="10" /><path fill="none" d="M 268 25 L 455 25  455 81  268 81 z " stroke="rgba(0,0,0,0.047)" stroke-width="2px" stroke-dashoffset="0" stroke-linejoin="round" stroke-miterlimit="10" /></g><rect x="267px" y="24px" width="187px" height="56px" fill="url(#fs1)" /><path d="M 454 42.66667 C 360.5 42.66667  267 42.66667  267 56.66666 L 267 24  454 24  454 42.66667 z " fill="url(#fs2)" /><rect x="267px" y="24px" width="187px" height="56px" fill="none" stroke="#000000" stroke-width="1px" stroke-dashoffset="0" stroke-linejoin="round" stroke-miterlimit="10" /><g clip-path="url(#cp3)"><text x="341px" y="41.5562477111816px" font-family="Verdana" font-size="9.599999pt" font-weight="bold" font-style="italic" fill="#000000">State</text><line x1="267px" y1="48px" x2="454px" y2="48px" stroke="#000000" stroke-width="1px" stroke-dashoffset="0" stroke-linejoin="round" stroke-miterlimit="10" /><line x1="267px" y1="58px" x2="454px" y2="58px" stroke="#000000" stroke-width="1px" stroke-dashoffset="0" stroke-linejoin="round" stroke-miterlimit="10" /><text x="270px" y="75.0006256103516px" font-family="Verdana" font-size="8.639999pt" font-style="italic" fill="#000000">+ handle (context : Context)</text></g></g><g transform="matrix(1 0 0 1 0 0)"><g clip-path="url(#cp4)"><rect x="168px" y="151px" width="189px" height="58px" fill="rgba(0,0,0,0.235)" /></g><g clip-path="url(#cp5)"><path fill="none" d="M 169 152 L 356 152  356 208  169 208 z " stroke="rgba(0,0,0,0.047)" stroke-width="10px" stroke-dashoffset="0" stroke-linejoin="round" stroke-miterlimit="10" /><path fill="none" d="M 169 152 L 356 152  356 208  169 208 z " stroke="rgba(0,0,0,0.047)" stroke-width="8px" stroke-dashoffset="0" stroke-linejoin="round" stroke-miterlimit="10" /><path fill="none" d="M 169 152 L 356 152  356 208  169 208 z " stroke="rgba(0,0,0,0.047)" stroke-width="6px" stroke-dashoffset="0" stroke-linejoin="round" stroke-miterlimit="10" /><path fill="none" d="M 169 152 L 356 152  356 208  169 208 z " stroke="rgba(0,0,0,0.055)" stroke-width="4px" stroke-dashoffset="0" stroke-linejoin="round" stroke-miterlimit="10" /><path fill="none" d="M 169 152 L 356 152  356 208  169 208 z " stroke="rgba(0,0,0,0.047)" stroke-width="2px" stroke-dashoffset="0" stroke-linejoin="round" stroke-miterlimit="10" /></g><rect x="168px" y="151px" width="187px" height="56px" fill="url(#fs3)" /><path d="M 355 169.6667 C 261.5 169.6667  168 169.6667  168 183.6667 L 168 151  355 151  355 169.6667 z " fill="url(#fs4)" /><rect x="168px" y="151px" width="187px" height="56px" fill="none" stroke="#000000" stroke-width="1px" stroke-dashoffset="0" stroke-linejoin="round" stroke-miterlimit="10" /><g clip-path="url(#cp6)"><text x="204px" y="168.556243896484px" font-family="Verdana" font-size="9.599999pt" font-weight="bold" fill="#000000">ConcreteStateA</text><line x1="168px" y1="175px" x2="355px" y2="175px" stroke="#000000" stroke-width="1px" stroke-dashoffset="0" stroke-linejoin="round" stroke-miterlimit="10" /><line x1="168px" y1="185px" x2="355px" y2="185px" stroke="#000000" stroke-width="1px" stroke-dashoffset="0" stroke-linejoin="round" stroke-miterlimit="10" /><text x="171px" y="202.000625610352px" font-family="Verdana" font-size="8.639999pt" fill="#000000">+ handle (context : Context)</text></g></g><g transform="matrix(1 0 0 1 0 0)"><g clip-path="url(#cp7)"><rect x="5px" y="5px" width="165px" height="96px" fill="rgba(0,0,0,0.235)" /></g><g clip-path="url(#cp8)"><path fill="none" d="M 6 6 L 169 6  169 100  6 100 z " stroke="rgba(0,0,0,0.047)" stroke-width="10px" stroke-dashoffset="0" stroke-linejoin="round" stroke-miterlimit="10" /><path fill="none" d="M 6 6 L 169 6  169 100  6 100 z " stroke="rgba(0,0,0,0.047)" stroke-width="8px" stroke-dashoffset="0" stroke-linejoin="round" stroke-miterlimit="10" /><path fill="none" d="M 6 6 L 169 6  169 100  6 100 z " stroke="rgba(0,0,0,0.047)" stroke-width="6px" stroke-dashoffset="0" stroke-linejoin="round" stroke-miterlimit="10" /><path fill="none" d="M 6 6 L 169 6  169 100  6 100 z " stroke="rgba(0,0,0,0.055)" stroke-width="4px" stroke-dashoffset="0" stroke-linejoin="round" stroke-miterlimit="10" /><path fill="none" d="M 6 6 L 169 6  169 100  6 100 z " stroke="rgba(0,0,0,0.047)" stroke-width="2px" stroke-dashoffset="0" stroke-linejoin="round" stroke-miterlimit="10" /></g><rect x="5px" y="5px" width="163px" height="94px" fill="url(#fs5)" /><path d="M 168 36.33333 C 86.5 36.33333  5 36.33333  5 59.83334 L 5 5  168 5  168 36.33333 z " fill="url(#fs6)" /><rect x="5px" y="5px" width="163px" height="94px" fill="none" stroke="#000000" stroke-width="1px" stroke-dashoffset="0" stroke-linejoin="round" stroke-miterlimit="10" /><g clip-path="url(#cp9)"><text x="58px" y="22.5562477111816px" font-family="Verdana" font-size="9.599999pt" font-weight="bold" fill="#000000">Context</text><line x1="5px" y1="29px" x2="168px" y2="29px" stroke="#000000" stroke-width="1px" stroke-dashoffset="0" stroke-linejoin="round" stroke-miterlimit="10" /><text x="8px" y="49.0006217956543px" font-family="Verdana" font-size="8.639999pt" fill="#000000">+ state: State</text><line x1="5px" y1="56px" x2="168px" y2="56px" stroke="#000000" stroke-width="1px" stroke-dashoffset="0" stroke-linejoin="round" stroke-miterlimit="10" /><text x="8px" y="73.0006256103516px" font-family="Verdana" font-size="8.639999pt" fill="#000000">+ Context (state : State)</text><text x="8px" y="90.0006256103516px" font-family="Verdana" font-size="8.639999pt" fill="#000000">+ request ()</text></g></g><g transform="matrix(1 0 0 1 0 0)"><g clip-path="url(#cp10)"><rect x="390px" y="151px" width="189px" height="58px" fill="rgba(0,0,0,0.235)" /></g><g clip-path="url(#cp11)"><path fill="none" d="M 391 152 L 578 152  578 208  391 208 z " stroke="rgba(0,0,0,0.047)" stroke-width="10px" stroke-dashoffset="0" stroke-linejoin="round" stroke-miterlimit="10" /><path fill="none" d="M 391 152 L 578 152  578 208  391 208 z " stroke="rgba(0,0,0,0.047)" stroke-width="8px" stroke-dashoffset="0" stroke-linejoin="round" stroke-miterlimit="10" /><path fill="none" d="M 391 152 L 578 152  578 208  391 208 z " stroke="rgba(0,0,0,0.047)" stroke-width="6px" stroke-dashoffset="0" stroke-linejoin="round" stroke-miterlimit="10" /><path fill="none" d="M 391 152 L 578 152  578 208  391 208 z " stroke="rgba(0,0,0,0.055)" stroke-width="4px" stroke-dashoffset="0" stroke-linejoin="round" stroke-miterlimit="10" /><path fill="none" d="M 391 152 L 578 152  578 208  391 208 z " stroke="rgba(0,0,0,0.047)" stroke-width="2px" stroke-dashoffset="0" stroke-linejoin="round" stroke-miterlimit="10" /></g><rect x="390px" y="151px" width="187px" height="56px" fill="url(#fs7)" /><path d="M 577 169.6667 C 483.5 169.6667  390 169.6667  390 183.6667 L 390 151  577 151  577 169.6667 z " fill="url(#fs8)" /><rect x="390px" y="151px" width="187px" height="56px" fill="none" stroke="#000000" stroke-width="1px" stroke-dashoffset="0" stroke-linejoin="round" stroke-miterlimit="10" /><g clip-path="url(#cp12)"><text x="426px" y="168.556243896484px" font-family="Verdana" font-size="9.599999pt" font-weight="bold" fill="#000000">ConcreteStateB</text><line x1="390px" y1="175px" x2="577px" y2="175px" stroke="#000000" stroke-width="1px" stroke-dashoffset="0" stroke-linejoin="round" stroke-miterlimit="10" /><line x1="390px" y1="185px" x2="577px" y2="185px" stroke="#000000" stroke-width="1px" stroke-dashoffset="0" stroke-linejoin="round" stroke-miterlimit="10" /><text x="393px" y="202.000625610352px" font-family="Verdana" font-size="8.639999pt" fill="#000000">+ handle (context : Context)</text></g></g><g transform="matrix(1 0 0 1 0 0)"><polyline points="309,151 309,80 " fill="none" stroke="#000000" stroke-width="1px" stroke-dashoffset="0" stroke-linejoin="round" stroke-miterlimit="10" /><polygon points="309,80 303,99 315,99 309,80 " fill="url(#fs9)" /><g clip-path="url(#cp13)"><path d="M 315.1803 86.34038 C 309 86.34038  302.8197 86.34038  302.8197 91.09566 L 302.8197 80  315.1803 80  315.1803 86.34038 z " fill="url(#fs10)" /></g><polygon fill="none" points="309,80 303,99 315,99 309,80 " stroke="#000000" stroke-width="1px" stroke-dashoffset="0" stroke-linejoin="round" stroke-miterlimit="10" /></g><g transform="matrix(1 0 0 1 0 0)"><polyline points="419,151 419,80 " fill="none" stroke="#000000" stroke-width="1px" stroke-dashoffset="0" stroke-linejoin="round" stroke-miterlimit="10" /><polygon points="419,80 413,99 425,99 419,80 " fill="url(#fs11)" /><g clip-path="url(#cp14)"><path d="M 425.1803 86.34038 C 419 86.34038  412.8197 86.34038  412.8197 91.09566 L 412.8197 80  425.1803 80  425.1803 86.34038 z " fill="url(#fs12)" /></g><polygon fill="none" points="419,80 413,99 425,99 419,80 " stroke="#000000" stroke-width="1px" stroke-dashoffset="0" stroke-linejoin="round" stroke-miterlimit="10" /></g><g transform="matrix(1 0 0 1 0 0)"><polyline points="168,54 267,54 " fill="none" stroke="#000000" stroke-width="1px" stroke-dashoffset="0" stroke-linejoin="round" stroke-miterlimit="10" /><polygon points="168,54 182,59 198,54 182,49 " fill="#FFFFFF" /><polygon fill="none" points="168,54 182,59 198,54 182,49 " stroke="#000000" stroke-width="1px" stroke-dashoffset="0" stroke-linejoin="round" stroke-miterlimit="10" /></g></svg>