<?xml version="1.0" encoding="utf-8" standalone="no"?><!DOCTYPE svg PUBLIC "-//W3C//DTD SVG 1.1//EN" "http://www.w3.org/Graphics/SVG/1.1/DTD/svg11.dtd"><svg width="701px" height="113px" version="1.1" xmlns="http://www.w3.org/2000/svg"><desc /><defs><linearGradient id="fs1" x1="0.999999821186066px" y1="-1.03660253714111E-08px" x2="0.999999701976776px" y2="0.999999761581421px"><stop offset="0%" stop-color="#D3D3D3" stop-opacity="1" /><stop offset="100%" stop-color="#FFFFFF" stop-opacity="1" /></linearGradient><linearGradient id="fs2" x1="0.999999821186066px" y1="-8.83031781029331E-09px" x2="0.999999761581421px" y2="0.999999761581421px"><stop offset="0%" stop-color="#FFFFFF" stop-opacity="0.5490196" /><stop offset="100%" stop-color="#FFFFFF" stop-opacity="0.1568628" /></linearGradient><linearGradient id="fs3" x1="0.999999105930328px" y1="-4.97569203616877E-07px" x2="0.999998688697815px" y2="0.999999344348907px"><stop offset="0%" stop-color="#D3D3D3" stop-opacity="1" /><stop offset="100%" stop-color="#FFFFFF" stop-opacity="1" /></linearGradient><linearGradient id="fs4" x1="0.999999344348907px" y1="-4.23855254894079E-07px" x2="0.999999105930328px" y2="0.999999165534973px"><stop offset="0%" stop-color="#FFFFFF" stop-opacity="0.5490196" /><stop offset="100%" stop-color="#FFFFFF" stop-opacity="0.1568628" /></linearGradient><linearGradient id="fs5" x1="0.999996483325958px" y1="-6.27073518444377E-07px" x2="0.999995708465576px" y2="0.999998927116394px"><stop offset="0%" stop-color="#D3D3D3" stop-opacity="1" /><stop offset="100%" stop-color="#FFFFFF" stop-opacity="1" /></linearGradient><linearGradient id="fs6" x1="0.99999725818634px" y1="-7.09711116542167E-07px" x2="0.999996900558472px" y2="0.999999284744263px"><stop offset="0%" stop-color="#FFFFFF" stop-opacity="0.5490196" /><stop offset="100%" stop-color="#FFFFFF" stop-opacity="0.1568628" /></linearGradient><clipPath id="cp1"><path d="M 6 6 L 249 6  249 98  6 98 z " /></clipPath><clipPath id="cp2"><path d="M 6 6 L 249 6  249 98  6 98 z " /></clipPath><clipPath id="cp3"><path d="M 4 4 L 249 4  249 98  4 98 z " /></clipPath><clipPath id="cp4"><path d="M 319 6 L 459 6  459 98  319 98 z " /></clipPath><clipPath id="cp5"><path d="M 319 6 L 459 6  459 98  319 98 z " /></clipPath><clipPath id="cp6"><path d="M 317 4 L 459 4  459 98  317 98 z " /></clipPath><clipPath id="cp7"><path d="M 529 15.5 L 686 15.5  686 88.5  529 88.5 z " /></clipPath><clipPath id="cp8"><path d="M 529 15.5 L 686 15.5  686 88.5  529 88.5 z " /></clipPath><clipPath id="cp9"><path d="M 527 13 L 686 13  686 88  527 88 z " /></clipPath></defs><g transform="matrix(1 0 0 1 0 0)"><g clip-path="url(#cp1)"><rect x="5px" y="5px" width="245px" height="94px" fill="rgba(0,0,0,0.235)" /></g><g clip-path="url(#cp2)"><path fill="none" d="M 6 6 L 249 6  249 98  6 98 z " stroke="rgba(0,0,0,0.047)" stroke-width="10px" stroke-dashoffset="0" stroke-linejoin="round" stroke-miterlimit="10" /><path fill="none" d="M 6 6 L 249 6  249 98  6 98 z " stroke="rgba(0,0,0,0.047)" stroke-width="8px" stroke-dashoffset="0" stroke-linejoin="round" stroke-miterlimit="10" /><path fill="none" d="M 6 6 L 249 6  249 98  6 98 z " stroke="rgba(0,0,0,0.047)" stroke-width="6px" stroke-dashoffset="0" stroke-linejoin="round" stroke-miterlimit="10" /><path fill="none" d="M 6 6 L 249 6  249 98  6 98 z " stroke="rgba(0,0,0,0.055)" stroke-width="4px" stroke-dashoffset="0" stroke-linejoin="round" stroke-miterlimit="10" /><path fill="none" d="M 6 6 L 249 6  249 98  6 98 z " stroke="rgba(0,0,0,0.047)" stroke-width="2px" stroke-dashoffset="0" stroke-linejoin="round" stroke-miterlimit="10" /></g><rect x="5px" y="5px" width="243px" height="92px" fill="url(#fs1)" /><path d="M 248 35.66667 C 126.5 35.66667  5 35.66667  5 58.66666 L 5 5  248 5  248 35.66667 z " fill="url(#fs2)" /><rect x="5px" y="5px" width="243px" height="92px" fill="none" stroke="#000000" stroke-width="1px" stroke-dashoffset="0" stroke-linejoin="round" stroke-miterlimit="10" /><g clip-path="url(#cp3)"><text x="89px" y="22.5562477111816px" font-family="Verdana" font-size="9.599999pt" font-weight="bold" fill="#000000">Originator</text><line x1="5px" y1="29px" x2="248px" y2="29px" stroke="#000000" stroke-width="1px" stroke-dashoffset="0" stroke-linejoin="round" stroke-miterlimit="10" /><text x="8px" y="49.0006217956543px" font-family="Verdana" font-size="8.639999pt" fill="#000000">- state</text><line x1="5px" y1="56px" x2="248px" y2="56px" stroke="#000000" stroke-width="1px" stroke-dashoffset="0" stroke-linejoin="round" stroke-miterlimit="10" /><text x="8px" y="73.0006256103516px" font-family="Verdana" font-size="8.639999pt" fill="#000000">+ createMemento (): Memento</text><text x="8px" y="90.0006256103516px" font-family="Verdana" font-size="8.639999pt" fill="#000000">+ setMemento (memento : Memento)</text></g></g><g transform="matrix(1 0 0 1 0 0)"><g clip-path="url(#cp4)"><rect x="318px" y="5px" width="142px" height="94px" fill="rgba(0,0,0,0.235)" /></g><g clip-path="url(#cp5)"><path fill="none" d="M 319 6 L 459 6  459 98  319 98 z " stroke="rgba(0,0,0,0.047)" stroke-width="10px" stroke-dashoffset="0" stroke-linejoin="round" stroke-miterlimit="10" /><path fill="none" d="M 319 6 L 459 6  459 98  319 98 z " stroke="rgba(0,0,0,0.047)" stroke-width="8px" stroke-dashoffset="0" stroke-linejoin="round" stroke-miterlimit="10" /><path fill="none" d="M 319 6 L 459 6  459 98  319 98 z " stroke="rgba(0,0,0,0.047)" stroke-width="6px" stroke-dashoffset="0" stroke-linejoin="round" stroke-miterlimit="10" /><path fill="none" d="M 319 6 L 459 6  459 98  319 98 z " stroke="rgba(0,0,0,0.055)" stroke-width="4px" stroke-dashoffset="0" stroke-linejoin="round" stroke-miterlimit="10" /><path fill="none" d="M 319 6 L 459 6  459 98  319 98 z " stroke="rgba(0,0,0,0.047)" stroke-width="2px" stroke-dashoffset="0" stroke-linejoin="round" stroke-miterlimit="10" /></g><rect x="318px" y="5px" width="140px" height="92px" fill="url(#fs3)" /><path d="M 458 35.66667 C 388 35.66667  318 35.66667  318 58.66666 L 318 5  458 5  458 35.66667 z " fill="url(#fs4)" /><rect x="318px" y="5px" width="140px" height="92px" fill="none" stroke="#000000" stroke-width="1px" stroke-dashoffset="0" stroke-linejoin="round" stroke-miterlimit="10" /><g clip-path="url(#cp6)"><text x="354px" y="22.5562477111816px" font-family="Verdana" font-size="9.599999pt" font-weight="bold" fill="#000000">Memento</text><line x1="318px" y1="29px" x2="458px" y2="29px" stroke="#000000" stroke-width="1px" stroke-dashoffset="0" stroke-linejoin="round" stroke-miterlimit="10" /><text x="321px" y="49.0006217956543px" font-family="Verdana" font-size="8.639999pt" fill="#000000">- state</text><line x1="318px" y1="56px" x2="458px" y2="56px" stroke="#000000" stroke-width="1px" stroke-dashoffset="0" stroke-linejoin="round" stroke-miterlimit="10" /><text x="321px" y="73.0006256103516px" font-family="Verdana" font-size="8.639999pt" fill="#000000">+ Memento (state)</text><text x="321px" y="90.0006256103516px" font-family="Verdana" font-size="8.639999pt" fill="#000000">+ getState ()</text></g></g><g transform="matrix(1 0 0 1 0 0)"><g clip-path="url(#cp7)"><rect x="528px" y="14px" width="159px" height="75px" fill="rgba(0,0,0,0.235)" /></g><g clip-path="url(#cp8)"><path fill="none" d="M 529 15.5 L 686 15.5  686 88.5  529 88.5 z " stroke="rgba(0,0,0,0.047)" stroke-width="10px" stroke-dashoffset="0" stroke-linejoin="round" stroke-miterlimit="10" /><path fill="none" d="M 529 15.5 L 686 15.5  686 88.5  529 88.5 z " stroke="rgba(0,0,0,0.047)" stroke-width="8px" stroke-dashoffset="0" stroke-linejoin="round" stroke-miterlimit="10" /><path fill="none" d="M 529 15.5 L 686 15.5  686 88.5  529 88.5 z " stroke="rgba(0,0,0,0.047)" stroke-width="6px" stroke-dashoffset="0" stroke-linejoin="round" stroke-miterlimit="10" /><path fill="none" d="M 529 15.5 L 686 15.5  686 88.5  529 88.5 z " stroke="rgba(0,0,0,0.055)" stroke-width="4px" stroke-dashoffset="0" stroke-linejoin="round" stroke-miterlimit="10" /><path fill="none" d="M 529 15.5 L 686 15.5  686 88.5  529 88.5 z " stroke="rgba(0,0,0,0.047)" stroke-width="2px" stroke-dashoffset="0" stroke-linejoin="round" stroke-miterlimit="10" /></g><rect x="528px" y="14px" width="157px" height="73px" fill="url(#fs5)" /><path d="M 685 38.83334 C 606.5 38.83334  528 38.83334  528 57.08334 L 528 14.5  685 14.5  685 38.83334 z " fill="url(#fs6)" /><rect x="528px" y="14px" width="157px" height="73px" fill="none" stroke="#000000" stroke-width="1px" stroke-dashoffset="0" stroke-linejoin="round" stroke-miterlimit="10" /><g clip-path="url(#cp9)"><text x="570px" y="32.5562477111816px" font-family="Verdana" font-size="9.599999pt" font-weight="bold" fill="#000000">Caretaker</text><line x1="528px" y1="38px" x2="685px" y2="38px" stroke="#000000" stroke-width="1px" stroke-dashoffset="0" stroke-linejoin="round" stroke-miterlimit="10" /><text x="531px" y="58.0006217956543px" font-family="Verdana" font-size="8.639999pt" fill="#000000">+ memento: Memento</text><line x1="528px" y1="65px" x2="685px" y2="65px" stroke="#000000" stroke-width="1px" stroke-dashoffset="0" stroke-linejoin="round" stroke-miterlimit="10" /></g></g><g transform="matrix(1 0 0 1 0 0)"><polyline points="248,55 318,55 " fill="none" stroke="#000000" stroke-width="1px" stroke-dasharray="5,4" stroke-dashoffset="0" stroke-linejoin="miter" stroke-miterlimit="10" /><polyline points="299,49 318,54 299,61 " fill="none" stroke="#000000" stroke-width="1px" stroke-dashoffset="0" stroke-linejoin="round" stroke-miterlimit="10" /><text x="279px" y="52.0006217956543px" font-family="Verdana" font-size="8.639999pt" font-style="italic" fill="#1E1E1E">«use»</text></g><g transform="matrix(1 0 0 1 0 0)"><polyline points="528,54 458,54 " fill="none" stroke="#000000" stroke-width="1px" stroke-dashoffset="0" stroke-linejoin="round" stroke-miterlimit="10" /><polygon points="528,54 514,49 498,54 514,59 " fill="#FFFFFF" /><polygon fill="none" points="528,54 514,49 498,54 514,59 " stroke="#000000" stroke-width="1px" stroke-dashoffset="0" stroke-linejoin="round" stroke-miterlimit="10" /></g></svg>